<?xml version="1.0" encoding="UTF-8"?>
<svg id="uuid-b11de9e0-9a5f-486a-87cf-4157a2a9172b" data-name="Layer 2" xmlns="http://www.w3.org/2000/svg" viewBox="0 0 540.56 648.42">
  <defs>
    <style>
      .uuid-c2513da4-e212-4fe2-901d-72ec6ea2cf19 {
        fill: #ff203e;
      }
    </style>
  </defs>
  <g id="uuid-29d1a13c-479f-4129-9fc2-d0141775fb61" data-name="achtergronden + Layer 15 Image">
    <path d="m467.84,20h0c.55,0,1.12.02,1.7.05,8.67.47,17.46,1.04,26.11,1.65-1.5,4.44-3.02,8.92-4.56,13.45l-11.59-2.06-6.71,13.27-.47.93-.31.61-6.91,13.66,11.38,10.24c.81.73,1.62,1.39,2.42,2-2.3,10.73-1.85,21.47,1.34,32.03,1.37,4.53,2.58,9.15,3.85,14.05.46,1.76.92,3.51,1.38,5.26.34,1.29.67,2.65,1.02,4.09.22.9.44,1.82.68,2.77-2.51,2.49-5.41,5.12-9.29,8.42-1.71,1.46-3.64,2.94-5.68,4.5-1.64,1.26-3.34,2.56-5.07,3.96-7.57,6.12-12.61,13.33-15.41,22.03l-3.01,9.36,5.58,8.1c1,1.45,1.4,5.77,1.75,9.59.2,2.12.4,4.32.72,6.67,1.64,11.96,3.04,24.28,4.39,36.19.41,3.64.83,7.28,1.25,10.91.9,7.77-.5,15.99-4.28,25.12-1.1,2.66-2.12,5.29-3.11,7.83-1.48,3.79-2.87,7.38-4.39,10.73-3.49,7.7-6.15,19.84.97,33.94l.11.21c5.97,11.81,12.15,24.03,17.5,36.09,6.95,15.66,13.63,31.91,20.1,47.61l1.06,2.57,2.24,18.3,2.29,18.7c-.88,9.99.57,19.82,4.31,29.27,1.16,2.92,2.33,5.93,3.45,8.84,2.39,6.17,4.87,12.55,7.56,18.89.67,1.58,1.36,3.16,2.05,4.72-10.29,1.9-20.74,3.76-31,5.29-5.78.86-11.71,1.69-17.44,2.5-20.49,2.89-41.67,5.87-62.63,10.81-1.07.25-2.07.38-2.96.38-1.54,0-2.42-.39-2.94-.68-7.64-4.21-15.93-6.35-24.66-6.35-6.17,0-12.53,1.02-20.01,3.2-15.46,4.52-31.33,8.86-46.69,13.07-2.12.58-4.24,1.16-6.36,1.74-.57-1.63-1.13-3.25-1.68-4.86-.67-1.95-1.34-3.89-2.02-5.83l-5.27-15.17-15.95,1.86c-10.01,1.17-20.16,8.59-20.5,22.53-.22,2.14-.39,4.25-.56,6.3-5.81.05-11.62.1-17.43.16-19.79.18-40.26.37-60.37.47-8.7.04-16.43,2.51-22.98,7.34-2.1,1.55-4.05,3.08-5.93,4.57-1.57,1.24-3.05,2.41-4.49,3.48-3.91,2.91-7.98,5.86-11.92,8.72-1.22.89-2.45,1.77-3.67,2.66-.42.3-.85.59-1.28.89-1.06.73-2.39,1.63-3.8,2.74-6,4.74-11.99,9.48-17.98,14.22-9.56,7.57-19.41,15.37-29.18,23.05-5.03-17.47-9.13-35.92-12.2-54.91-1.7-10.52-.18-18.48,4.94-25.82,3.99-5.72,7.5-11.52,10.89-17.13,1.43-2.36,2.78-4.59,4.16-6.82.28-.44.55-.89.83-1.33,1.16-1.84,2.47-3.92,3.72-6.25,6.67-12.36,6.58-23.27-.34-33.1,1.9-1.56,3.8-3.11,5.68-4.65,2.76-2.26,5.52-4.51,8.27-6.77,1.33-1.09,2.54-2.14,4.12-3.51l11.3-9.81-6.22-13.61-.52-1.13-.52-1.13-6.24-13.65-14.85,2.17c-11.63,1.7-20.79,6.06-28.15,9.57l-1.48.7c-5.39,2.55-10.62,5.29-15.7,7.99-3.27-3.02-4.52-6.07-5.09-9.41-1.21-7.07-2.49-14.22-3.72-21.14-2.38-13.35-4.84-27.16-6.88-40.66-5.92-39.27-4.83-78.49-3.67-120.02.09-3.38.19-6.76.28-10.14.35-13.29.85-26.84,1.33-39.96.65-17.96,1.33-36.52,1.67-54.88.18-9.74,2.87-18.64,8.47-27.97l2.01-3.02.11-.16c10.24-13.99,10.26-29.7.4-42.25,2.84-14.51,5.71-28.43,9.97-41.62,4.23,1.22,7.82,3.83,10.42,7.63,5.4,7.91,13.56,19.85,30.03,19.85,5.31,0,10.33-1.22,16.71-3.19,9.35-2.89,18.79-4.29,28.85-4.29,2.56,0,5.18.09,7.81.28l10.03,2.08,10.12,2.1c23.54,7.95,47.69,19.17,75.89,35.25,7.47,4.26,14.82,6.33,22.46,6.33,5.06,0,10.15-.91,15.54-2.78,12.75-4.43,25.54-8.18,36.36-11.26,7.79-2.22,15.82-3.96,24.05-5.7.75-.16,2.82-.19,4.33-.21.56,0,1.12-.02,1.68-.03h.12c.39,0,.56.04.56.04h0s.18.1.5.42c2.17,2.17,4.29,4.02,6.53,5.97.93.81,1.91,1.67,2.95,2.6l20.2,18.06,11.31-24.62c.34-.73.66-1.39.95-2,.79-1.64,1.69-3.5,2.48-5.68.84-2.3,1.6-4.54,2.33-6.72.99-2.91,1.92-5.65,2.92-8.21.49-1.25.87-1.61.87-1.61.04-.03.27-.14.73-.25,2.97-.72,5.84-1.51,8.62-2.26,4.99-1.36,9.7-2.64,14.09-3.34,16.48-2.61,30-9.44,40.2-20.31,3.6-3.83,7.38-5.4,13.06-5.4M467.84,0c-10.62,0-19.88,3.44-27.64,11.71-7.65,8.15-17.53,12.46-28.74,14.24-8.21,1.3-16.2,3.95-24.31,5.92-7.72,1.88-12.68,6.83-15.49,14.01-1.98,5.06-3.56,10.27-5.42,15.38-.68,1.87-1.64,3.63-2.81,6.17-3.39-3.03-6.17-5.3-8.7-7.83-4.25-4.23-9.31-6.3-15.18-6.3-.17,0-.35,0-.53,0-3.25.07-6.58,0-9.73.66-8.52,1.8-17.05,3.65-25.41,6.03-12.56,3.58-25.1,7.32-37.44,11.6-3.18,1.1-6.11,1.68-8.98,1.68-4.13,0-8.14-1.19-12.55-3.71-25.75-14.69-52.32-27.8-80.57-37.22-7.55-1.56-15.02-3.11-22.57-4.68-3.56-.29-7.09-.44-10.61-.44-11.76,0-23.32,1.65-34.76,5.19-4.72,1.46-8.09,2.3-10.8,2.3-5.26,0-8.08-3.16-13.52-11.13-7.49-10.97-19.47-17.15-32.71-17.15-2.67,0-5.4.25-8.15.77-8.38,20.1-12.49,41.47-16.66,62.82-.7,3.59.44,6.63,2.85,8.94,7.07,6.81,6.27,13.61.99,20.63-.73,1.09-1.92,2.88-2.64,3.97-7.13,11.76-11.31,24.22-11.57,38.31-.58,31.56-2.15,63.11-2.99,94.67C0,281.19-1.9,325.87,4.8,370.25c3.14,20.79,7.11,41.46,10.66,62.19,2.43,14.19,11.41,22.9,23.81,29.2,8.54-4.45,16.76-9.05,25.26-13.07,7.34-3.48,14.67-7.2,23.96-8.56.54,1.17.5,1.09,1.03,2.26-1.42,1.23-2.55,2.21-3.7,3.16-8.97,7.37-18,14.67-26.89,22.14-1.48,1.24-2.32,3.23-3.56,5,3.45,2.71,6.41,4.82,9.11,7.21,6.34,5.62,6.84,8.66,2.82,16.11-1.2,2.23-2.6,4.36-3.94,6.52-4.79,7.71-9.27,15.63-14.46,23.06-8.64,12.39-10.64,25.85-8.28,40.45,3.42,21.16,8.1,42.02,14.28,62.54,1.98,6.55,4.48,12.95,6.92,19.94,7.34-3.29,13.32-7.37,19-11.82,17.15-13.44,34.19-27.01,51.29-40.51,1.42-1.12,2.97-2.08,4.43-3.14,5.27-3.83,10.56-7.63,15.78-11.52,3.49-2.6,6.83-5.41,10.34-7.99,3.31-2.44,7.04-3.42,11.22-3.44,26.88-.14,53.77-.42,80.65-.65.35,0,.69,0,1.04,0,1.15,0,2.29.01,3.44.01,1.42,0,2.83-.02,4.24-.11,5.13-.31,6.55-1.42,7.16-6.34.76-6.12,1.03-12.29,1.68-18.43.15-1.45-.51-3.68,2.86-4.07,2.35,6.77,4.68,13.58,7.09,20.36.96,2.69,1.59,5.68,5.57,6.97,1.13-.24,2.89-.52,4.6-1,21.34-5.9,42.74-11.61,63.99-17.82,4.91-1.44,9.68-2.4,14.41-2.4,5.01,0,9.97,1.09,15,3.86,3.93,2.17,8.19,3.16,12.6,3.16,2.48,0,5-.31,7.55-.91,25.85-6.09,52.21-9.1,78.42-13,16.87-2.51,33.62-5.79,50.4-8.87,2.01-.37,3.86-1.64,5.95-2.56-4.14-9.03-8.26-17.52-11.94-26.19-3.83-9-7.22-18.18-10.83-27.28-2.83-7.12-3.78-14.37-2.77-22.04-1.74-14.25-3.39-27.72-5.14-41.97-7.33-17.78-14.6-35.6-22.4-53.18-5.59-12.6-11.82-24.91-18.04-37.22-2.84-5.61-3.22-10.88-.61-16.66,2.84-6.27,5.12-12.79,7.76-19.16,4.66-11.25,7.08-22.86,5.67-35.07-1.83-15.85-3.52-31.72-5.69-47.52-1.17-8.53-.72-17.48-5.82-24.89,1.76-5.48,4.94-9.35,8.95-12.6,3.67-2.97,7.53-5.71,11.12-8.77,3.87-3.29,7.68-6.67,11.24-10.28,4.64-4.7,6.56-10.34,4.84-16.95-.73-2.81-1.37-5.64-2.11-8.44-1.77-6.66-3.43-13.35-5.42-19.95-2.83-9.38-2.48-18.58.67-27.8.9-2.62,2.84-5.23,1.18-8.19-3.08-2.85-7.52-3.65-11.38-7.12.4-.8.38-.74.78-1.54,5.21.93,9.43,1.68,13.88,2.47,5.62-16.57,11.09-32.66,16.49-48.77.32-.95.04-2.1.04-3.06-2.21-2.75-5.24-2.91-8.04-3.12-14.12-1.05-28.25-2.08-42.39-2.84C469.67.03,468.75,0,467.84,0h0Z"/>
  </g>
  <g id="uuid-d11d50ec-2b05-4354-9583-5800ccfdafeb" data-name="boekje + Layer 16 Image">
    <g>
      <path class="uuid-c2513da4-e212-4fe2-901d-72ec6ea2cf19" d="m146.66,466.75c5.62-1.44,10.07-1.48,13.35-.11,3.28,1.37,5.36,3.77,6.24,7.2.77,3.02.58,5.95-.58,8.8-1.16,2.85-2.92,5.48-5.27,7.87-2.35,2.4-4.91,4.46-7.69,6.18,5.67-.51,9.91.28,12.71,2.37,2.8,2.09,4.65,4.88,5.55,8.37.82,3.19.76,6.16-.18,8.89-.94,2.73-2.49,5.19-4.63,7.38-2.15,2.19-4.69,4.07-7.63,5.64-2.94,1.57-6.01,2.77-9.2,3.59-2.25.58-4.6,1.13-7.05,1.66-2.45.53-5.21,1.19-8.29,1.98-1.36.35-2.72.71-4.07,1.09-1.35.38-2.6.73-3.75,1.05-1.15.33-2.12.62-2.94.89l-.1-1.87c1.98-.63,3.49-1.27,4.52-1.91,1.03-.64,1.74-1.58,2.12-2.81.38-1.23.56-2.98.55-5.25l.44-47.02c-.04-1.88-.17-3.38-.39-4.49-.22-1.11-.83-1.83-1.83-2.18-1-.34-2.66-.22-4.96.37v-1.89c.83-.15,1.82-.36,2.95-.62,1.13-.26,2.37-.54,3.71-.86,1.34-.31,2.66-.63,3.96-.97,2.07-.53,4.12-1.09,6.15-1.67,2.03-.58,4.13-1.15,6.32-1.71Zm-8.95,35.2l-.03-1.6,6.92-1.77c3.61-.92,6.51-2.53,8.69-4.83,2.19-2.29,3.65-4.95,4.39-7.98.74-3.03.72-6.05-.05-9.07-.89-3.49-2.31-5.89-4.25-7.19-1.94-1.3-4.6-1.52-7.97-.65-2.6.67-4.33,1.54-5.2,2.61-.86,1.07-1.28,2.99-1.27,5.76l-.36,48.42c-.02,1.9.1,3.4.35,4.5.25,1.1.82,1.79,1.71,2.07.89.28,2.34.16,4.35-.36,5.21-1.33,9.18-3.11,11.92-5.32s4.48-4.85,5.21-7.91c.73-3.06.61-6.48-.36-10.26-.64-2.48-1.62-4.49-2.96-6-1.33-1.52-3.05-2.51-5.16-2.98-2.11-.47-4.64-.33-7.6.43l-8.34,2.14Z"/>
      <path class="uuid-c2513da4-e212-4fe2-901d-72ec6ea2cf19" d="m185.01,503.19c3.13-1.81,5.94-3.53,8.45-5.19,2.5-1.65,4.44-3.27,5.81-4.85,1.81-2.17,3.1-4.6,3.87-7.31.77-2.71.86-5.53.28-8.46-.35-1.74-.69-2.82-1.02-3.25-.34-.43-.74-.6-1.22-.5-1.5.3-2.98,1.28-4.46,2.94-1.48,1.66-2.82,3.82-4.04,6.46-1.22,2.64-2.24,5.57-3.06,8.78-.82,3.22-1.32,6.57-1.5,10.06-.18,3.49.06,6.89.72,10.18.61,3.06,1.62,5.14,3.02,6.26,1.41,1.12,3.04,1.5,4.9,1.13,2.16-.43,4.3-1.54,6.43-3.34,2.13-1.79,4-4.6,5.61-8.41l1.58.43c-.74,2.2-1.86,4.42-3.35,6.65-1.49,2.23-3.27,4.15-5.34,5.78-2.07,1.63-4.4,2.7-6.97,3.21-2.4.48-4.59.42-6.58-.18s-3.65-1.75-4.98-3.45c-1.33-1.7-2.28-3.92-2.82-6.68-.51-2.58-.61-5.56-.29-8.96.32-3.39,1.04-6.87,2.17-10.43,1.13-3.56,2.65-6.93,4.57-10.11,1.92-3.18,4.21-5.88,6.89-8.1,2.67-2.21,5.72-3.66,9.13-4.34,1.86-.37,3.53-.19,5.01.54,1.48.73,2.42,2.09,2.82,4.06.48,2.4.22,4.77-.78,7.12-1,2.35-2.48,4.6-4.44,6.77-1.97,2.17-4.17,4.18-6.6,6.03-2.43,1.86-4.84,3.52-7.23,4.99-2.39,1.47-4.51,2.71-6.36,3.7l-.21-1.54Z"/>
      <path class="uuid-c2513da4-e212-4fe2-901d-72ec6ea2cf19" d="m245.39,506.64c-1.62,2.5-3.53,4.67-5.74,6.49s-4.69,2.97-7.46,3.44c-2.77.47-5.05.35-6.84-.34-1.79-.69-3.18-1.77-4.17-3.25-.99-1.47-1.63-3.08-1.93-4.83-.5-2.95-.17-6.13.99-9.55,1.16-3.42,2.85-6.9,5.07-10.47,2.22-3.56,4.72-7.03,7.49-10.41,2.78-3.38,5.51-6.44,8.21-9.19l1.4-.51c-.9.52-1.84,1.19-2.82,2.01-.98.82-1.93,1.62-2.84,2.43-.92.8-1.82,1.51-2.71,2.13-.89.61-1.75.99-2.6,1.13-1.15.19-2.19-.02-3.13-.63-.94-.62-1.92-.84-2.95-.67-.96.16-1.71.71-2.23,1.63-.53.92-.94,2.5-1.25,4.72l-.52,3.53-1.72.29.97-6.95c.61-3.76,1.51-6.4,2.71-7.93,1.2-1.53,2.58-2.43,4.15-2.7,1.14-.19,2.17-.06,3.09.41.92.47,1.83.92,2.74,1.35.91.44,1.94.56,3.08.36,1.45-.24,2.7-.69,3.77-1.33,1.07-.64,2.06-1.54,2.99-2.69l.98-1.93,2.05.58c-2.7,3.12-5.26,6.4-7.68,9.84-2.43,3.44-4.53,6.97-6.3,10.58-1.78,3.61-3.07,7.27-3.87,10.96-.8,3.7-.9,7.35-.29,10.97.51,3.01,1.31,5.04,2.42,6.1,1.11,1.05,2.41,1.45,3.92,1.2,1.81-.3,3.61-1.18,5.41-2.63,1.8-1.45,3.46-3.38,4.97-5.81l.65,1.66Zm10.85,3.19c2.95-.5,5.38-1.77,7.3-3.83,1.91-2.05,3.37-4.55,4.36-7.47.99-2.92,1.61-6,1.84-9.23.23-3.23.16-6.28-.2-9.16-.36-2.88-.98-5.27-1.86-7.17-1.19-.05-2.49-.28-3.92-.69-1.43-.41-2.72-1.09-3.87-2.04-1.15-.95-1.86-2.24-2.14-3.87-.26-1.57-.03-2.75.7-3.56.73-.8,1.52-1.28,2.36-1.42.9-.15,1.75-.02,2.53.41.78.43,1.53,1.08,2.23,1.95.7.87,1.38,1.92,2.02,3.14.64,1.22,1.21,2.57,1.7,4.03,1.06,2.61,1.81,5.61,2.26,9,.45,3.39.51,6.87.17,10.42-.33,3.56-1.16,6.93-2.48,10.13s-3.2,5.9-5.65,8.1c-2.45,2.21-5.57,3.63-9.36,4.27-1.93.33-3.77.26-5.51-.19-1.75-.45-3.27-1.49-4.57-3.13s-2.22-4.05-2.75-7.25c-.45-2.65-.45-5.31,0-7.99.45-2.68,1.19-5.16,2.23-7.44,1.04-2.28,2.21-4.15,3.52-5.61,1.3-1.46,2.59-2.29,3.85-2.51.9-.15,1.64.07,2.2.65.56.59,1,1.36,1.32,2.33.32.97.55,1.9.7,2.81.55,3.25.22,6.72-.99,10.39-1.21,3.67-3.44,7.24-6.7,10.7l-.73-1.55c2.46-2.7,4.26-5.79,5.41-9.27,1.15-3.48,1.46-6.81.92-10-.2-1.2-.49-2.19-.87-2.97-.38-.77-.9-1.1-1.56-.99-.96.16-1.92,1.11-2.86,2.85-.95,1.74-1.66,3.87-2.13,6.4-.47,2.53-.49,5.11-.04,7.76.36,2.17.98,4.23,1.83,6.19.86,1.96,2.01,3.5,3.47,4.62,1.46,1.12,3.21,1.5,5.26,1.16Z"/>
      <path class="uuid-c2513da4-e212-4fe2-901d-72ec6ea2cf19" d="m285.76,485.46c3.21-1.65,6.11-3.24,8.69-4.76,2.58-1.53,4.6-3.04,6.04-4.56,1.92-2.07,3.32-4.44,4.22-7.11.9-2.67,1.13-5.48.69-8.44-.26-1.75-.55-2.85-.86-3.3-.31-.45-.71-.63-1.2-.56-1.51.22-3.04,1.13-4.6,2.72-1.56,1.59-3.01,3.67-4.35,6.25-1.35,2.58-2.51,5.45-3.49,8.62-.98,3.17-1.64,6.5-1.99,9.97-.35,3.48-.27,6.88.22,10.2.46,3.08,1.36,5.22,2.71,6.41,1.35,1.19,2.96,1.64,4.83,1.37,2.18-.32,4.37-1.33,6.59-3.02,2.22-1.69,4.22-4.39,6.02-8.12l1.56.51c-.85,2.16-2.08,4.32-3.67,6.47-1.6,2.15-3.47,3.99-5.62,5.51-2.15,1.52-4.53,2.48-7.12,2.86-2.42.36-4.6.19-6.56-.51-1.96-.7-3.56-1.93-4.81-3.68-1.25-1.76-2.08-4.03-2.49-6.81-.39-2.6-.34-5.58.15-8.96.49-3.38,1.38-6.81,2.68-10.31,1.3-3.5,2.99-6.79,5.06-9.88,2.07-3.09,4.5-5.67,7.28-7.75,2.78-2.08,5.89-3.38,9.33-3.89,1.87-.28,3.53-.02,4.98.79,1.45.8,2.32,2.2,2.61,4.2.36,2.42-.02,4.77-1.13,7.07-1.11,2.29-2.7,4.48-4.77,6.54-2.07,2.07-4.37,3.97-6.89,5.7-2.52,1.73-5.01,3.28-7.46,4.63-2.45,1.35-4.63,2.48-6.54,3.38l-.14-1.55Z"/>
      <path class="uuid-c2513da4-e212-4fe2-901d-72ec6ea2cf19" d="m336.71,478.31l2.28-.22c-2.01,1.51-3.87,2.89-5.58,4.14-1.71,1.25-3.08,2.38-4.11,3.38-1.03,1-1.5,1.9-1.39,2.69.08.61.58,1.11,1.5,1.51.92.4,2.38.71,4.38.93l6.86.82c2,.22,3.82.54,5.45.96,1.63.42,2.96,1.06,4,1.9,1.04.84,1.67,2.05,1.88,3.63.21,1.51-.06,3.29-.8,5.33s-2.03,4.08-3.88,6.12c-1.85,2.04-4.36,3.86-7.53,5.47-3.17,1.6-7.12,2.73-11.84,3.38-3.15.43-5.83.5-8.06.22-2.23-.28-3.94-.86-5.14-1.75-1.2-.88-1.89-1.99-2.07-3.32-.13-.97,0-2.02.4-3.15.4-1.13,1.06-2.27,1.98-3.42.92-1.14,2.13-2.26,3.61-3.36,1.48-1.1,3.27-2.1,5.37-3l.82,1.28c-2.08,1.46-3.45,2.97-4.1,4.54s-.87,3.08-.67,4.53c.33,2.42,1.42,4.04,3.26,4.87,1.84.83,4,1.07,6.48.73,2-.27,4.01-.87,6.04-1.8,2.03-.92,3.88-2.04,5.55-3.35,1.67-1.31,2.96-2.73,3.85-4.27.9-1.54,1.24-3.07,1.04-4.58-.12-.91-.49-1.47-1.11-1.7-.62-.22-1.61-.4-2.98-.52l-14.37-1.64c-1.5-.17-2.77-.62-3.79-1.38-1.03-.75-1.65-1.89-1.85-3.4-.17-1.21.09-2.51.76-3.9.67-1.39,2.08-3.01,4.23-4.88,2.15-1.87,5.32-4.13,9.52-6.8Zm1.23-28.19c3.57-.49,6.57-.08,9,1.22,2.43,1.3,3.89,3.74,4.37,7.31.4,2.9-.03,5.89-1.27,8.96-1.24,3.07-3.22,5.73-5.94,7.98-2.71,2.25-6.1,3.65-10.15,4.21-3.33.46-6.24.04-8.73-1.26-2.49-1.29-3.96-3.63-4.43-7.02-.22-1.63-.13-3.57.27-5.82.4-2.24,1.22-4.45,2.47-6.63,1.24-2.17,3.03-4.08,5.37-5.73,2.33-1.64,5.35-2.72,9.04-3.22Zm-.14,1.68c-1.94.26-3.49,1.05-4.67,2.35-1.18,1.3-2.09,2.88-2.73,4.72-.64,1.84-1.06,3.74-1.26,5.67-.2,1.94-.28,3.69-.25,5.26.03,1.57.09,2.71.19,3.44.27,1.94.89,3.27,1.89,4,.99.73,2.22.99,3.67.79,2.3-.31,4.06-1.26,5.3-2.85,1.23-1.59,2.1-3.46,2.61-5.63.5-2.16.75-4.29.74-6.39,0-2.09-.11-3.84-.3-5.23-.28-2.06-.78-3.65-1.49-4.79-.71-1.14-1.94-1.58-3.7-1.34Zm7.23,2.16l-1.72-.41c.57-2.17,1.77-4.19,3.61-6.04,1.84-1.85,3.88-2.94,6.12-3.24,1.57-.22,2.9.05,3.99.79,1.09.75,1.76,2.06,2.02,3.93.23,1.7-.02,2.99-.76,3.9-.74.9-1.59,1.42-2.56,1.55-.97.13-1.94-.06-2.9-.57-.96-.52-1.63-1.46-2-2.82-.37-1.37-.22-3.21.45-5.52l1.22.11c-2.41,1.32-4.09,2.58-5.03,3.79-.94,1.21-1.75,2.72-2.43,4.54Z"/>
      <path class="uuid-c2513da4-e212-4fe2-901d-72ec6ea2cf19" d="m365.54,474.27c3.25-1.58,6.18-3.11,8.79-4.58,2.61-1.47,4.66-2.95,6.13-4.43,1.96-2.03,3.42-4.37,4.37-7.02.96-2.64,1.25-5.45.87-8.42-.22-1.76-.49-2.86-.79-3.32-.3-.45-.7-.65-1.18-.59-1.52.19-3.07,1.07-4.65,2.62-1.59,1.56-3.08,3.61-4.48,6.16-1.4,2.55-2.63,5.4-3.67,8.55-1.05,3.15-1.78,6.46-2.2,9.93-.42,3.47-.42,6.87,0,10.2.39,3.09,1.25,5.24,2.57,6.46,1.32,1.22,2.93,1.71,4.8,1.47,2.18-.28,4.4-1.23,6.65-2.88,2.25-1.64,4.32-4.3,6.19-7.99l1.55.54c-.9,2.15-2.17,4.28-3.81,6.39-1.64,2.12-3.55,3.91-5.73,5.39-2.18,1.48-4.58,2.38-7.18,2.71-2.42.31-4.61.09-6.55-.65-1.94-.74-3.52-2-4.73-3.79-1.21-1.79-1.99-4.07-2.35-6.86-.33-2.6-.22-5.59.34-8.96.56-3.36,1.53-6.78,2.9-10.25,1.38-3.47,3.13-6.72,5.27-9.77,2.14-3.04,4.62-5.57,7.44-7.59,2.82-2.02,5.96-3.25,9.41-3.69,1.88-.24,3.53.06,4.96.89,1.43.83,2.27,2.25,2.52,4.25.31,2.42-.12,4.77-1.28,7.04-1.16,2.27-2.8,4.42-4.91,6.44-2.11,2.02-4.45,3.88-7.01,5.55-2.56,1.68-5.08,3.17-7.56,4.47-2.48,1.3-4.69,2.38-6.61,3.24l-.1-1.56Z"/>
      <path class="uuid-c2513da4-e212-4fe2-901d-72ec6ea2cf19" d="m410.44,489.62l-7.92.92,6.38-40.31c.16-.76.26-1.58.31-2.48.05-.9-.09-1.65-.4-2.26-.32-.61-.96-.86-1.93-.74-1.34.16-2.44.95-3.32,2.37-.88,1.43-1.75,4-2.61,7.73l-.79,3.5-1.73.2,1.5-6.91c.89-3.98,2.25-6.69,4.08-8.13,1.83-1.44,3.72-2.28,5.66-2.5,1.82-.21,3.19.03,4.1.72.91.69,1.48,1.66,1.72,2.89.24,1.23.3,2.61.2,4.13-.1,1.52-.25,3.03-.44,4.52l-4.81,36.35Zm1.99-19.42c1.49-5.71,3.02-10.53,4.59-14.46,1.57-3.93,3.2-7.15,4.87-9.65,1.68-2.5,3.47-4.37,5.39-5.61,1.92-1.24,3.97-1.98,6.15-2.24,2.85-.33,4.89.12,6.11,1.37,1.22,1.24,1.89,2.92,2.01,5.02.12,2.11-.05,4.33-.52,6.66l-5.74,27.6c-.36,1.7-.43,3.08-.21,4.13.21,1.05.99,1.5,2.32,1.34,1.15-.13,2.22-.9,3.19-2.31.97-1.41,1.89-4,2.74-7.79l.79-3.5,1.73-.2-1.5,6.91c-.55,2.65-1.38,4.71-2.46,6.19-1.09,1.48-2.29,2.56-3.59,3.23-1.31.67-2.59,1.09-3.87,1.23-1.46.17-2.68.07-3.68-.31-1-.38-1.78-.93-2.36-1.66-.8-1.01-1.17-2.41-1.13-4.2.04-1.79.3-3.78.78-5.99l5.62-27.03c.2-.88.34-1.93.42-3.14.07-1.21-.09-2.26-.51-3.17-.41-.9-1.35-1.27-2.8-1.1-1.46.17-2.93.99-4.42,2.45-1.49,1.46-2.98,3.47-4.47,6.01-1.49,2.54-2.89,5.53-4.21,8.98-1.32,3.44-2.53,7.21-3.62,11.3-1.09,4.09-2.02,8.43-2.78,13l1.16-13.05Z"/>
    </g>
  </g>
  <g id="uuid-b6e461af-d850-4941-9b2d-f9cd5154d800" data-name="hand">
    <g id="uuid-ae19c177-6ffe-4b29-9a0f-970fcde8c9de" data-name="Inserted Image + Inserted Image Image">
      <g>
        <path class="uuid-c2513da4-e212-4fe2-901d-72ec6ea2cf19" d="m199.03,242.77c.54-4.66,1.31-9.28,1.51-13.92.09-2.03-.7-4.23-1.59-6.12-1.06-2.28-2.64-4.33-4.01-6.47-5.92-9.27-10.53-19.06-11.66-30.36-9.64-8.95-19-18.17-19.84-32.97-4.23-1.14-8.45-2.02-12.48-3.42-5.46-1.9-11.16-3.54-16.07-6.46-9.41-5.6-11.48-20.29-4.39-28.63,1.25-1.47,3.64-2.47,5.62-2.71,4.07-.48,7.85.78,11.24,3.26,6.85,5.02,14.67,7.93,22.84,9.87,3.82.91,7.78,1.24,11.08,1.74,2.7-2.36.87-3.88.23-5.31-.97-2.17-.86-4.22-.02-6.31.94-2.36,1.75-4.79,2.94-7.02,5.35-10.02,15.29-11.18,22.91-2.76,2.44,2.69,4.87,5.38,7.4,7.98,1.26,1.3,2.71,2.4,4.22,3.72,1.34.11,2.79.44,4.21.31,6.02-.55,10.24,1.73,13.69,6.84,4.13,6.12,10.28,10.22,16.93,13.35,4.24,1.99,6.74,4.96,8.17,9.49,2.32,7.33,6.25,13.86,11.7,19.41,1.26,1.28,2.39,2.73,3.39,4.23,5.43,8.12,10.8,16.29,16.52,24.92-.02,42.25,20.76,75.3,50.56,103.89,10,9.6,21.41,17.35,34.1,23.16,7.45,3.41,9.93,8.01,9.04,16.5-.85,8.07-3.42,15.57-8.36,22.14-6.63,8.82-14.64,16.07-24.3,21.5-16.02,9.02-33.31,14.23-51.32,17.31-9.33,1.59-18.72,2.59-28.21,2.03-7.6-.45-15.16-1.21-21.83-4.24-2.44-3.47-1.5-6.79-1-9.93,1.86-11.63,1.11-23.2-.95-34.67-3.57-19.96-13.36-36.64-27.68-50.8-4.22-4.17-9.27-7.21-15.04-8.4-16.23-3.34-28.12-12.93-38.05-25.52-1.57-2-3.26-3.91-4.82-5.91-8.91-11.39-19.76-20.2-33.45-25.29-1.32-.49-2.58-1.15-4.48-2,3.76-8.19,10.49-12.25,18.17-14.38,9.18-2.54,18.7-2.24,28.14-.93,3.23.45,4.98,2.74,6.71,5.09,3.23,4.38,6.31,8.88,9.74,13.09,1.99,2.44,4.24,4.97,8.49,4.71Zm93.65,116.26c-4.07,5.98-9.85,6.74-15.31,8.18-2.79.73-5.68,1.13-8.51,1.75-1.6.35-2.67,1.41-1.98,3.02.3.7,1.79,1.44,2.59,1.3,6.06-1.04,12.16-2,18.1-3.54,14.43-3.75,28.35-8.83,40.8-17.29,6.35-4.31,11.97-9.36,16.09-15.95,5.88-9.4,5.12-22.95-5.13-29.96-9.9-6.78-18.15-15.53-26.03-24.55-1.19-1.36-2.15-2.93-2.81-3.83-6.27,0-11.4-.57-16.37.1-18.58,2.52-32.75,11.09-39.03,29.83-.57,1.71-1.03,3.56-2.07,4.97-1.14,1.55-2.88,2.66-4.42,4.02,1.8,3.38,2.96,6.54,4.96,9.03,1.9,2.36,4.68,4.01,6.69,5.66-.42,1.95-.7,3.26-.95,4.41,4.35,2.68,9.83.05,13.92,4.53-4.18.41-7.67.75-12.36,1.2,6.02,5.67,12.98,1.52,18.86,4.95-1.6.82-2.75,1.78-4.01,1.98-2.85.44-5.76.51-8.65.73-1.62.13-2.7.74-2.23,2.9,2.8.87,5.72,1.79,8.75,2.73-1.48,3.84-6.65,1.52-7.98,5.98,4.8,1.15,9.08.36,13.27-.04,4.62-.44,9.18-1.38,13.77-2.1Zm-22.35-139.88c3.31-2.65,6.22,1.1,9.16.3.56-.15.97-.8,1.45-1.23-.32-3.51-5.86-3.3-5.32-7.43,1.09-1.22,2.16-2.43,3.24-3.65-5.69-5.58-13.78-1.65-19.69-5.75,5.55-5.88,13.02-1.11,19.42-4.35-4.5-6.31-10.73-4.01-15.91-3.98-15.93.08-33.04,9.03-40.03,20.51,2.07,1.82,4.22,3.68,6.33,5.58,10.37,9.33,14.41,21.45,15.14,34.91.29,5.48-1.06,7.33-6.1,8.73-3.47.96-7.09,1.42-10.65,1.98-2.45.39-4.93.57-8.07.92-1.65,8.09-1.75,15.93-.06,23.76.35,1.63,1.38,3.59,2.7,4.47,6.27,4.16,12.75,8.01,19.43,12.13,1.27-1.74,2.37-3.15,3.37-4.63,7.38-10.99,17.53-18.34,30.21-21.79,8.01-2.18,16.3-3.29,24.47-4.91,1.94-.39,4.39.39,5.55-2.37-3.99-7.17-8.6-14.16-11.88-21.72-3.12-7.2-6.68-13.48-14.1-16.88-.43-.2-.46-1.24-.73-2.03,1.87-.75,3.74-1.51,5.84-2.35-2.51-6.45-10.53-4.82-13.77-10.23Zm87.55,100.74c0,3.14-.15,5.56.03,7.95.49,6.44-1.12,12.41-5.04,17.36-3.57,4.5-7.64,8.73-12.07,12.4-6.46,5.35-14.05,8.91-21.89,11.88-14.03,5.32-28.63,7.76-43.53,8.76-2.07.14-4.65-.89-6.34,2.41,6.42.22,12.54.39,18.65.65,1.42.06,2.9.34,2.8,2.81-1.63.23-3.33.56-5.05.68-2.17.16-4.35.18-6.53.21-1.81.02-3.64-.13-5.44,0-1.83.12-4.02-.78-5.83,1.58,4.51,3.04,9.26,2.72,13.83,3.24,1.32.15,3,.22,2.54,3.17-6.14.2-12.43.4-18.96.61,1.43,3.92,4.38,3.23,6.69,3.3,17.54.54,34.73-1.53,51.42-7.16,10.03-3.38,19.51-7.83,28.08-14.06,6.51-4.73,12.23-10.24,16.43-17.18,3.84-6.33,6.12-13.1,5.83-20.6-.31-7.79-2.33-14.37-11.19-16.34-1.34-.3-2.6-.96-4.43-1.66Zm-142.99-93c-3.45,8.55.16,16.2.73,24.09-11.06,2.89-20.28-2.8-30.67-4.6-1.88,2.78-3.93,5.27-5.38,8.08-1.58,3.09-1.42,6.28,1.12,9.06,5.37,5.87,10.63,11.82,16.07,17.62,1.42,1.51,3.12,3.04,6.16,2.41,1.35-3.56.27-7.53.59-11.35.36-4.29.18-8.69,3.84-12.71,2.83,0,6.04.05,9.25-.01,3.54-.07,7.22.68,10.46-1.23,2.56-13.73-1.48-24.5-12.17-31.36Zm-4.68-53.76c-8.34,4.96-8.62,5.23-14.43,13.76,2.94,9.55,6.44,19.16,14.5,26.54,7.06-6.62,13.58-12.74,20.14-18.89-6.48-6.87-13.08-13.86-20.21-21.4Zm-30.77-42.22c-6.9-1.36-12.93-2.49-18.92-3.76-6.22-1.32-11.93-4.65-18.47-5.24-2.55,6.91-1.54,12.89,2.68,17.86,4.89,5.75,11.37,8.64,18.32,8.12,5.56-5.76,10.53-10.91,16.39-16.98Zm-15.49,91.01c-12.41,1.57-18.67,5.52-21.61,13.22,8.57,4.44,17.12,8.86,25.94,13.43,3.08-3.02,7.25-4.59,9.32-8.22-4.66-6.29-8.96-12.09-13.65-18.43Zm43.73-57.01c-5.84-4.5-10.8-7.61-14.83-11.64-3.9-3.91-6.84-8.78-10.4-13.49-4.4,4-5.8,8.31-4.93,13.23,1.5,8.5,5.59,15.43,12.84,20.46,5.73-2.83,11.12-5.49,17.31-8.56Zm25.44-.45c-2.77-5.58-5.4-9.93-7.13-14.62-1.73-4.69-2.47-9.74-3.83-14.58-.24-.84-1.43-1.41-2.22-2.15-6.33,2.57-8.04,7.99-9.41,13.71-1.11,4.64-.11,8.6,3.61,11.66,3.59,2.95,7.28,5.76,10.99,8.68,2.64-.89,4.98-1.68,7.99-2.7Zm-15.17-37.5c-7.67-5.4-15.19-10.69-23.03-16.21-1.44,1.7-2.77,2.93-3.67,4.42-1.1,1.81-1.84,3.84-2.88,6.1,3.93,5.63,7.78,11.15,11.79,16.89,5.96-3.75,11.69-7.36,17.79-11.2Zm30.67,16.73c-4.05,1.62-7.3,3.62-6.08,7.89,1.83,6.41,3.56,13.1,9.4,17.46,3.29-1,6.29-1.9,9.91-3-4.43-7.48-8.55-14.44-13.23-22.35Zm-13.55,25.4c-2.37,1.77-4.24,3.17-6.36,4.76,4.17,6.77,8.59,12.33,14.11,17.47,2.79-1.08,5.24-2.03,7.81-3.03-5.22-6.44-9.96-12.3-15.56-19.2Zm29.47,2.39q-5.02,1.33-7.82,5.4c3.62,5.29,8,9.87,14.08,12.5,1.04.45,2.52-.11,4.58-.26-3.81-6.19-7.14-11.62-10.85-17.64Zm-18.93-31.44c-.99-.82-1.46-1.36-2.05-1.66-1.17-.6-2.7-1.87-3.53-.03-.43.96,0,3.05.77,3.59.72.51,2.42-.31,3.67-.63.27-.07.46-.49,1.13-1.27Z"/>
        <path class="uuid-c2513da4-e212-4fe2-901d-72ec6ea2cf19" d="m260.2,322.2c.3.52.82,1.43,1.34,2.34-.81.36-1.8,1.18-2.37.96-.77-.3-1.22-1.42-1.8-2.19.61-.24,1.23-.48,2.84-1.11Z"/>
        <path class="uuid-c2513da4-e212-4fe2-901d-72ec6ea2cf19" d="m284.21,355.31c.43-1.03.67-2.12.94-2.13.97-.02,1.94.32,2.91.53-.3.61-.49,1.64-.92,1.75-.85.22-1.84-.06-2.92-.15Z"/>
        <path class="uuid-c2513da4-e212-4fe2-901d-72ec6ea2cf19" d="m260,209.93c2.83-.51,3.9-1.02,4.7-.75.74.25,1.19,1.35,1.77,2.07-.89.29-1.82.91-2.64.79-.92-.13-1.76-.92-3.83-2.11Z"/>
        <path class="uuid-c2513da4-e212-4fe2-901d-72ec6ea2cf19" d="m303.16,388.75c-1.45.97-2.24,1.88-3.12,1.96-.78.08-1.65-.76-2.47-1.19.75-.59,1.42-1.5,2.26-1.68.79-.17,1.74.43,3.33.9Z"/>
      </g>
    </g>
  </g>
</svg>