<?xml version="1.0" encoding="UTF-8"?>
<svg id="uuid-d2c4a965-5a52-4426-a415-9330d58a7f48" data-name="Layer 2" xmlns="http://www.w3.org/2000/svg" viewBox="0 0 630.27 607.31">
  <defs>
    <style>
      .uuid-2e4b274f-ae71-4c42-8e08-7b7bd713c445 {
        fill: #fff;
      }

      .uuid-6c2532f4-a72d-423c-9b11-cfd493e98608 {
        fill: #ff203e;
      }
    </style>
  </defs>
  <g id="uuid-5085733d-38d3-45b2-8f96-8b3df84f1223" data-name="hand">
    <g>
      <path class="uuid-6c2532f4-a72d-423c-9b11-cfd493e98608" d="m85.91,31.68l-43.78,31.5s-28.63,27.52-5.04,26.56,52.87-16.03,78.45-12.29c25.58,3.73-3.1-37.89-3.1-37.89l-26.53-7.88Z"/>
      <path d="m92.38,604.82c3.54-25.29,7.07-50.58,10.96-78.35-5.09,2.8-8.48,4.45-11.66,6.45-7.26,4.59-14.05,10.13-21.75,13.76-4.4,2.08-10.22,1.16-15.39,1.59.11-5.1-1.22-10.81.64-15.16,3.59-8.4,8.29-16.54,13.75-23.88,11.73-15.78,23.11-32.06,36.71-46.14,15-15.52,21.49-33.65,24.55-56.59-4.6,3.25-7.7,5.34-10.7,7.57-13.28,9.91-26.4,20.03-39.88,29.66-3.39,2.42-7.78,4.17-11.9,4.64-4.51.51-11.74.76-13.28-1.7-2.39-3.81-2.49-10.58-.81-15.07,2.52-6.76,6.68-13.27,11.42-18.78,25.23-29.36,49.75-59.46,76.81-87.05,13.34-13.6,18.71-27.75,18.85-46.24-2.64-.44-5-.68-7.28-1.24-10.25-2.51-12.79-5.59-9.91-15.21,2.08-6.94,4.9-14.48,9.69-19.61,11.16-11.96,9.31-23.97,2.6-38.56-4.8,4.61-8.95,8.81-13.34,12.76-17.8,16.02-35.47,32.18-53.63,47.77-5.02,4.31-11.27,7.79-17.55,9.86-4.74,1.56-12.74,2.38-15.11-.24-3.35-3.7-4.6-11.25-3.55-16.5,1.54-7.64,4.8-15.51,9.3-21.88,20.2-28.58,41.05-56.7,61.78-84.89,3.61-4.9,7.76-9.4,12.36-14.93-9.69-27.87-18.97-55.8-29.17-83.39-5.23-14.15-15.91-16.34-27.03-5.76-6.15,5.85-11.76,12.79-15.81,20.23-9.38,17.23-23.31,24.39-42.5,22.51-6.55-.64-13.14-.84-21.58-1.35,1.87-5.27,2.49-8.8,4.24-11.64,10.29-16.77,20.92-33.32,31.28-50.05C47.21,8.52,63.6.02,86.22,0c48.33-.04,95.31,9.09,142.46,17.79,30.81,5.68,61.62,11.59,92.64,15.9,30.74,4.26,61.27-1.38,91.85-4.6,42.76-4.51,85.37-10.83,128.67-8.99,17.49.74,29.17,6.42,34.75,23.78,16.54,51.45,33.67,102.71,50.26,154.15,5.68,17.59,3.7,35.33-1.71,52.63-10.26,32.84-18.98,66.33-31.8,98.15-15.15,37.63-16.09,75.36-8.71,114.04,6.78,35.58,14.46,70.99,21.72,106.48.47,2.28.73,4.61,1.19,7.55-3,.81-5.29,2.02-7.52,1.93-20.86-.83-41.71-2.17-62.58-2.75-12.56-.35-21.11-5.69-25.47-17.42-7.07-18.99-14.08-37.99-20.93-57.06-2.05-5.71-3.5-11.64-6.51-21.82-2.39,7.53-4.22,10.97-4.5,14.54-1.61,20.21-3.12,40.44-4.12,60.69-.84,16.96-3.16,19.93-19.65,17.16-47.5-7.99-95.44-8.84-143.38-9.53-56.99-.82-112.47,10.11-167.55,23.13-11.75,2.78-22.65,9.21-33.85,14.18-4.88,2.17-9.51,4.91-14.25,7.38-1.62-.83-3.23-1.66-4.85-2.49ZM145.84,43.09c4.66,10.25,8.02,16.75,10.63,23.54,18.49,48.13,37.04,96.25,55.12,144.54,6.92,18.49,5.81,37.46.11,56.14-6.99,22.92-14.04,45.82-21.4,68.62-20.96,64.96-39.27,130.6-51.74,197.77-1.02,5.51-1.02,11.22-1.68,18.97,101.06-34.61,202.66-29.02,304.89-28.28.55-4.66.7-8.86,1.59-12.9,4.97-22.75,8.36-46.04,15.64-68.03,9.42-28.44,16.82-30.54,46.07-19.22,11.66,37.44,14.9,77.85,32.72,114.8h32.04c-6.27-29.51-13.33-58.12-18.25-87.09-6.57-38.72-5.3-76.69,11.17-113.81,13.17-29.69,22.87-60.91,34.45-91.33,6.66-17.5,6.45-34.88.45-52.31-12.8-37.17-25.71-74.3-38.77-111.38-3.02-8.58-6.8-16.89-10.33-25.57-3.53.26-5.9.39-8.26.61-56.89,5.3-113.69,11.87-170.68,15.53-50.6,3.25-100.46-5.64-149.96-15.58-23.34-4.69-46.65-9.5-73.81-15.03Z"/>
      <path d="m125.83,304.11c-1.42,3.58-3.4,11.43-7.39,18.08-11.22,18.69-26.87,33.32-45.06,45.18-3.55,2.31-7.57,4.24-11.64,5.35-11.78,3.22-18.14-2.9-14.96-14.62,1.42-5.22,3.47-10.87,6.95-14.82,14.1-16.03,28.68-31.64,43.51-46.99,3.27-3.39,8.03-5.7,12.52-7.47,11.29-4.44,16.47-.71,16.06,15.29Z"/>
      <path class="uuid-6c2532f4-a72d-423c-9b11-cfd493e98608" d="m145.84,43.09c27.15,5.53,50.47,10.34,73.81,15.03,49.5,9.94,99.36,18.84,149.96,15.58,56.99-3.67,113.79-10.23,170.68-15.53,2.36-.22,4.73-.35,8.26-.61,3.53,8.68,7.31,16.99,10.33,25.57,13.06,37.08,25.97,74.21,38.77,111.38,6,17.42,6.21,34.81-.45,52.31-11.58,30.42-21.27,61.64-34.45,91.33-16.47,37.12-17.74,75.09-11.17,113.81,4.92,28.97,11.98,57.58,18.25,87.09h-32.04c-17.81-36.95-21.06-77.36-32.72-114.8-29.25-11.32-36.65-9.22-46.07,19.22-7.29,21.99-10.67,45.28-15.64,68.03-.88,4.04-1.03,8.24-1.59,12.9-102.24-.74-203.83-6.34-304.89,28.28.65-7.75.65-13.45,1.68-18.97,12.47-67.17,30.78-132.82,51.74-197.77,7.36-22.8,14.4-45.7,21.4-68.62,5.7-18.68,6.82-37.65-.11-56.14-18.08-48.29-36.63-96.41-55.12-144.54-2.61-6.79-5.97-13.29-10.63-23.54Z"/>
    </g>
    <path class="uuid-2e4b274f-ae71-4c42-8e08-7b7bd713c445" d="m343.84,254.52l-98.48-83.07,26.13-39.53c12.73,28.14,37.52,58.28,63.64,81.73l28.14,24.12,38.19-32.16c28.81-24.79,55.6-50.24,76.37-75.7l36.85,54.26-107.86,90.44,98.48,82.4-25.46,39.53c-12.06-26.8-34.17-53.59-56.94-76.37l-35.51-29.48-31.49,27.47c-28.14,24.79-61.63,55.6-82.4,81.06l-37.52-54.93,107.86-89.77Z"/>
  </g>
</svg>