<?xml version="1.0" encoding="UTF-8"?>
<svg id="uuid-b1ba721f-9a3d-47e9-9226-fcb812cb3e63" data-name="Layer 2" xmlns="http://www.w3.org/2000/svg" viewBox="0 0 545.31 648.69">
  <defs>
    <style>
      .uuid-4a7a9164-ad95-4081-813d-8bb8fbb2c4c1 {
        fill: #fff;
      }

      .uuid-b4636d17-5b80-4214-b572-2c169ba1436d {
        fill: #ff203e;
      }
    </style>
  </defs>
  <g id="uuid-003ae2cf-65b5-4c1d-a50b-0d9983214b43" data-name="achtergronden + Layer 15 Image">
    <path class="uuid-b4636d17-5b80-4214-b572-2c169ba1436d" d="m484.43,647.91c-5.88,1.76-10.02.18-14.11-1.21-3.64-1.24-6.12-4.03-7.47-7.5-1.57-4.03-3.08-8.17-3.88-12.4-1.67-8.77-6.37-15.24-13.64-20.14-12.12-8.17-25.17-14.52-38.99-19.14-13.67-4.56-27.33-3.91-40.21,2.69-10,5.13-19.64,10.96-29.35,16.65-4.7,2.75-9.16,5.89-13.76,8.82-5.61,3.57-11.53,5.86-18.39,5.88-5.05.02-10.09,1.09-15.15,1.56-16.73,1.54-33.46.62-50.06-1.15-22.38-2.4-44.64-5.9-66.96-8.85-15.86-2.09-31.77-4.37-47.71-1.08-9.94,2.05-19.75,4.69-29.6,7.13-2.05.51-4.03,1.29-6.37,2.05-3.98-4.34-.85-9.99-3.75-15.45-1.54,4.76-2.79,8.43-3.9,12.15-.89,2.98-2.61,5.24-5.54,6.28-15.7,5.57-31.28,11.51-47.59,15.16-.28.06-.64-.24-1.59-.64,0-1.39-.39-3.17.07-4.69,2.08-6.95,4.22-13.88,6.66-20.72,4.89-13.74,5.81-27.57,1.76-41.67-5.01-17.42-9.95-34.87-14.91-52.3-2.78-9.76-5.44-19.56-8.38-29.28-3.7-12.24-1.44-22.95,7.73-32,10.04-9.91,13.27-22.16,12.45-35.82-.26-4.34-.29-8.74-1.06-13-1.92-10.7-3.77-21.44-6.43-31.97-6.14-24.26-12.96-48.34-19.06-72.61-2.2-8.76-3.26-17.82-4.65-26.77-1.88-12.07.95-23.11,8.11-32.94,5.98-8.21,12.22-16.22,18.44-24.26,2.21-2.86,4.68-5.51,7.21-8.47-.18-1.8-.21-3.59-.57-5.32-5.4-25.54-11.02-51.04-16.22-76.62-3.17-15.59-2.41-31.07,3.56-46.03,4.16-10.42,8.37-20.82,12.65-31.45,3.36,0,6.26-.46,8.95.09,6.39,1.32,12.75,2.9,18.99,4.82,4.23,1.3,7.92.68,11.38-1.69,2.99-2.04,5.86-4.29,8.67-6.58,3.38-2.75,6.73-5.55,9.95-8.47,8.95-8.11,19.64-10.62,31.32-9.67,6.89.56,13.67,1.84,20.06,4.71,1.94.87,3.96,1.55,6.52,2.54,2.27-3.18,4.55-5.94,6.35-8.99,6.72-11.41,16.74-15.41,29.55-13.76,11.89,1.53,23.87,2.46,35.69,4.37,25.89,4.2,51.32,2.45,76.73-3.71,20.11-4.87,40.39-9.02,60.67-13.15,7.8-1.59,15.78-2.38,23.72-3.26,2.39-.26,4.89.4,8.2.73-1.68,5.25-3.15,9.87-5.12,16.03,6.51-4.77,11.65-8.54,17.2-12.61,7.1,2.27,14.23,3.89,20.8,6.77,30.36,13.31,59.37,29.11,85.52,49.61,9.4,7.37,17.93,15.86,26.56,24.16,3.62,3.48,6.45,7.77,9.86,11.96-.97,2.55-1.58,5.01-2.77,7.13-12.69,22.65-21.37,46.8-27.63,71.91-1.22,4.89-2.39,9.87-6.17,14.5-9.13,1.77-18.82-.16-28.54.74,8.77,5.29,19.27,5.62,28.72,10.75.11,2.07.61,4.57.28,6.96-.65,4.66-1.55,9.31-2.74,13.87-5.13,19.65-10.25,39.3-15.7,58.87-2.14,7.67-4.61,15.33-7.9,22.56-3.59,7.91-2.51,14.41,2.53,21.25,5.37,7.29,9.95,15.16,14.83,22.8,10.16,15.9,12.06,33.09,8.12,51.25-2.23,10.28-4.28,20.59-6.3,30.91-2.94,15.03-1.61,29.6,5.05,43.54,2.97,6.22,5.78,12.52,8.84,18.69,1.86,3.75,2.41,7.23.99,11.43-6.71,19.94-13.12,39.98-19.59,60-3.01,9.29-6.13,18.55-8.77,27.95-1.06,3.79-1.02,7.89-1.41,11.86-.52,5.26.49,11.01-5.57,14.23-.89.47-1.36,2.65-1.23,3.95.41,3.95,1.22,7.86,1.85,11.79.73,4.57,1.43,9.15,2.22,14.25Z"/>
  </g>
  <g id="uuid-834ece6c-2f15-4f40-844d-3454acbcd591" data-name="schaar Image">
    <g>
      <path class="uuid-4a7a9164-ad95-4081-813d-8bb8fbb2c4c1" d="m264.36,272.09c-.09,7.74,4.56,11.28,9.22,14.82,1.16.88,2.29,1.81,3.54,2.54,15.07,8.87,25.97,21.91,36.02,35.83,3.4,4.71,6.57,9.62,10.4,13.95,9.91,11.22,22.48,14.15,36.62,10.2,13.35-3.73,20.83-15.78,18.32-29.27-3.49-18.72-21.46-34.14-35.81-35.28-5.05-.4-10.13-.55-15.19-.44-7.99.16-15.96.73-23.95.93-2.85.07-5.72-.46-8.44-.7-3.07-4.6-4.36-8.8-.72-13.21,10.59-1.05,21.02-2.49,31.49-3.04,22.33-1.18,40.39,7.25,53.7,25.31,5.96,8.08,9.16,17.3,9.85,27.28,1.53,22.04-12.76,39.54-34.73,42.76-14.86,2.18-27.34-1.93-36.69-14.01-3.55-4.59-6.78-9.43-10.26-14.07-5.87-7.84-11.6-15.8-17.84-23.34-3.44-4.15-7.57-7.85-11.84-11.18-5.67-4.42-8.94-4.06-14.5.54-.55.46-.91,1.16-1.47,1.6-4.59,3.55-11.09,4.01-14.86-.25-6.85-7.75-15.86-9.62-25.24-11.3-6.06-1.09-12.08-2.49-18.06-3.96-10.76-2.64-18.94-8.92-24.83-18.2-2.14-3.37-4.35-6.72-6.1-10.3-11.94-24.44-23.85-48.9-35.55-73.46-2.64-5.54-4.71-11.42-6.44-17.32-2.54-8.66-2.28-17.23,2.68-25.19,3.07-4.92,6.03-9.92,9.34-14.67,1.17-1.69,3.02-3.26,4.91-4.05,6.9-2.85,10.48-1.45,14.18,5.23,1.76,3.17,3.49,6.38,4.93,9.7,13.89,31.99,30.46,62.63,46.79,93.4,6.46,12.18,12.69,24.48,19.2,36.64,2,3.74,3.72,7.81,7.88,10.95,2.84-3.07,5.47-5.91,8.69-9.39,4.09.26,8.71.56,14.79.95Zm-39.69,8.52c-.72-2.08-1.01-3.48-1.65-4.7-15.53-29.54-30.99-59.11-46.72-88.55-7.19-13.46-13.95-27.08-19.48-41.3-1-2.56-2.43-4.95-3.66-7.41-6.27,2.82-5.14,7.52-4.27,10.79-1.13,3.28-5.9,2.02-4.26,6.39,2.99.92,6.16,1.69,9.15,2.9,1.43.58,2.53,2,3.64,2.92-3.38,5.29-9.19,2.02-13.26,4.88,2.69,3.08,6.17,2.71,9.19,3.61,3.43,1.02,6.75,2.4,10.06,3.77.51.21,1.1,1.37.93,1.8-.36.89-1.14,2.18-1.86,2.25-4.22.42-8.46.53-13.76.8,1.83,2.1,3.44,3.19,3.87,4.64.55,1.85.13,3.98.13,5.54,4.51,3.54,10.69,1.15,14.35,5.42-2.12,4.11-7.28.53-9.22,4.1,1.81,3.49,7.58.78,8.27,5.79-1.82,1.21-3.56,2.37-5.78,3.85,1.26,1.21,2.37,2.05,3.2,3.12.79,1.03,2.08,2.6,1.77,3.38-1.27,3.2.19,5.69,1.49,8.24,5.28,10.34,10.42,20.75,16.02,30.91,2.61,4.73,5.84,9.21,9.36,13.32,8.32,9.69,19.43,13.05,32.48,13.55Zm22.83,8.83c.11,4.73,2.44,7.4,6.19,7.1,5.76-.46,9.37-3.29,9.18-7.18-.23-4.65-3.49-8.31-7.09-7.98-5.31.49-8.38,3.48-8.28,8.07Z"/>
      <path class="uuid-4a7a9164-ad95-4081-813d-8bb8fbb2c4c1" d="m273.15,265.38h-20.23c-1.72-4.65-3.51-8.95-4.91-13.38-13.87-43.89-27.68-87.79-41.5-131.69-1.63-5.18-3.24-10.38-4.77-15.59-1.23-4.18-.18-7.87,2.71-11.07,2.95-3.27,6.24-4.5,10.67-2.76,11.86,4.65,23.35,10,33.94,17.12,7.45,5.01,12.89,11.61,15.24,20.48,8.45,31.87,16.8,63.77,25.49,95.57,2.62,9.57.9,17.83-4.99,25.56-3.95,5.18-7.76,10.47-11.67,15.76Zm-34.04-87.27c1.2,3.44,3.82,2.55,5.74,3.14,2.08.64,4.22,1.09,6.34,1.55,2.13.46,4.38.57,6.37,1.34,1.77.69,4.47.18,5.14,3.58-6.37,1.61-12.77-1.91-19.12-.05q2.74,4.13,1.84,9.16c3.23,1.23,6.47,2.47,11.29,4.32-4.03,1.55-6.49,2.48-8.93,3.48-.17.07-.13.65-.23,1.23.89.43,1.86.84,2.77,1.36.91.52,1.75,1.14,2.62,1.71-3.75,6.22-3.86,6.25-2.17,11.82,3.06,10.06,6.2,20.09,9.47,30.08.86,2.63,2.28,5.08,3.65,8.04,4.82-3.05,6.42-7.67,9.06-11.45,6.22-8.9,7.66-18.61,4.95-29.03-3.2-12.28-6.38-24.55-9.6-36.82-.46-1.75-.75-3.66-1.68-5.15-1.31-2.11-3.83-3.67-4.56-5.88-.7-2.11.8-4.88.32-7.14-.82-3.87-2.33-7.62-3.71-11.36-8.38-22.69-11.25-25.91-32.71-36.6-1.43-.71-3.01-2.33-5.48.31,3.05,10.88,4.45,22.72,9.16,34.22,4.54,1.26,9.04,2.58,13.57,3.76,9.42,2.45,9.43,2.42,13.71,6.49-6.57,1.52-12.7-3.16-19.16-.47,5.03,3.71,11.63,3.01,15.97,8.34-6.17,3.05-11.81-1.43-18.72.96,4.72,2.3,8.11,3.96,12.88,6.29-3.91,1.23-6.33,1.99-8.78,2.75Z"/>
      <path class="uuid-4a7a9164-ad95-4081-813d-8bb8fbb2c4c1" d="m218.46,309.09c4.07,2.85,4.92,5.91,5.03,9.28.1,2.91-1.12,4.88-3.94,5.77-4.15,1.31-8.38,2.36-12.57,3.56-7.42,2.13-14.14,5.63-20.16,10.46-5.98,4.8-9.3,10.95-9.81,18.66-.51,7.78.69,15.21,4.24,22.16,5.29,10.35,13.75,17.67,23.46,23.63,5.69,3.49,11.34,2.71,15.91-1.98,2.98-3.06,5.6-6.67,7.55-10.46,3.18-6.2,4.57-13.07,4.48-20.01-.18-14.49-.64-28.98-1.2-43.46-.25-6.54-.83-13.07,1.12-19.43.61-1.99,1.82-3.8,2.74-5.67,7.29,3.2,8.95,5.29,7.23,11.21-3.37,11.56-2.15,22.95.13,34.43,1.42,7.11,2.8,14.23,3.8,21.4.59,4.28.8,8.7.51,13.01-1.3,19.31-12.85,32.46-31.88,36.12-16.29,3.13-30-.27-40.36-18.37-9.93-17.34-10.64-35.89-3.59-54.58,3.75-9.93,11.17-16.88,19.86-22.44,8.56-5.48,18.08-9.03,27.43-13.27Z"/>
      <path class="uuid-4a7a9164-ad95-4081-813d-8bb8fbb2c4c1" d="m168.53,187.37c-4.05-.56-6.07-.69-7.98-1.22-.42-.12-.9-2.16-.55-2.48,2.28-2.15,4.58-1.42,8.53,3.71Z"/>
      <path class="uuid-4a7a9164-ad95-4081-813d-8bb8fbb2c4c1" d="m256.94,195.1c-.54-.75-1.11-1.53-1.67-2.31.63-.22,1.44-.81,1.83-.6.73.39,1.22,1.24,1.81,1.9-.57.29-1.14.58-1.97,1.01Z"/>
      <path class="uuid-4a7a9164-ad95-4081-813d-8bb8fbb2c4c1" d="m261.47,178.08c-3.32.29-4.46.5-5.57.41-.36-.03-.67-.84-1-1.29.56-.29,1.14-.86,1.66-.81.93.1,1.82.58,4.91,1.68Z"/>
    </g>
  </g>
  <g id="uuid-e1188bde-103c-44c2-860e-4d60d46c988c" data-name="boekje + Layer 16 Image">
    <g>
      <path class="uuid-4a7a9164-ad95-4081-813d-8bb8fbb2c4c1" d="m117.72,550.41c-.36,2.24-.46,3.9-.31,4.99.15,1.09.73,1.78,1.74,2.06,1,.28,2.55.39,4.63.34l-.21,1.86c-1.41,0-3.17.07-5.27.22-2.1.15-4.22.32-6.35.5-2.37.2-4.56.41-6.57.61-2.01.2-3.67.42-5,.66l.3-1.87c2-.29,3.54-.67,4.64-1.13,1.09-.46,1.93-1.27,2.5-2.42.57-1.15,1.04-2.85,1.4-5.09l8.16-46.31c.41-2.3.52-3.98.3-5.04-.21-1.05-.81-1.74-1.79-2.05-.98-.31-2.5-.41-4.58-.3l.3-1.87c1.22-.04,2.87-.12,4.94-.24,2.07-.12,4.3-.28,6.67-.48,2.13-.18,4.24-.39,6.34-.64,2.09-.24,3.87-.46,5.32-.64l-.3,1.87c-2.06.24-3.66.61-4.78,1.1-1.12.5-1.96,1.3-2.5,2.42-.55,1.12-1.03,2.83-1.44,5.14l-8.16,46.31Zm15.26-24.67c-3.27,1.2-5.51,1.7-6.72,1.5-1.21-.2-1.86-.73-1.93-1.58-.07-.85.47-1.48,1.63-1.89,1.16-.41,3.45-.3,6.88.33l.14,1.64Zm15.65,27.99c1.58-.14,2.84-.83,3.78-2.07.93-1.24,1.72-3.12,2.37-5.63l1.15-4.79,1.83-.16-1.77,7.23c-.87,3.45-2.15,6.04-3.84,7.78-1.69,1.74-3.84,2.72-6.46,2.95-2.86.25-4.99-.49-6.4-2.21-1.4-1.72-2.13-4.29-2.18-7.72l-.25-10.37c-.09-3.18-.34-5.61-.76-7.29-.42-1.68-.99-2.95-1.71-3.81-.72-.86-1.62-1.61-2.72-2.25l.1-.93c1.8.21,3.46.47,4.99.77,1.53.3,2.88.87,4.06,1.72,1.18.85,2.12,2.21,2.83,4.08.71,1.87,1.15,4.51,1.33,7.93l.52,10.35c.05,1.34.26,2.45.61,3.3.35.86,1.19,1.23,2.53,1.12Zm4.43-59.78c-1.07,1.14-1.93,2.67-2.59,4.59-.66,1.93-1.26,4.02-1.81,6.27-.54,2.25-1.17,4.53-1.9,6.83-.72,2.3-1.69,4.42-2.9,6.36s-2.79,3.57-4.73,4.87c-1.94,1.3-4.41,2.05-7.39,2.24l.1-.93c3.32-.59,5.92-1.8,7.78-3.61,1.87-1.82,3.3-3.99,4.31-6.53,1.01-2.54,1.82-5.17,2.45-7.89.62-2.72,1.3-5.25,2.02-7.58.72-2.33,1.78-4.2,3.2-5.61.96-.94,1.89-1.59,2.78-1.94s1.73-.56,2.52-.63c2.13-.18,3.64.22,4.52,1.22.88,1,1.33,2.23,1.33,3.7,0,.74-.14,1.58-.43,2.52s-.78,1.78-1.48,2.52c-.7.74-1.66,1.15-2.88,1.26-1.34.12-2.32-.21-2.94-.99s-.94-1.65-.96-2.63c-.01-.86.21-1.81.67-2.86.46-1.05,1.06-1.98,1.78-2.77-.06,0-.11,0-.14.01-.03,0-.08,0-.14.01-.79.13-1.4.32-1.84.57-.44.25-.89.58-1.34.99Z"/>
      <path class="uuid-4a7a9164-ad95-4081-813d-8bb8fbb2c4c1" d="m172.14,555.81l-7.96.48,8.59-39.9c.2-.75.35-1.57.45-2.46.1-.89,0-1.65-.28-2.28-.28-.62-.91-.91-1.89-.85-1.34.08-2.49.81-3.45,2.18-.96,1.38-1.97,3.9-3.03,7.57l-.98,3.46-1.74.11,1.88-6.81c1.11-3.92,2.61-6.55,4.52-7.89,1.91-1.34,3.84-2.07,5.79-2.19,1.83-.11,3.18.21,4.05.95.87.74,1.39,1.74,1.56,2.98.17,1.24.16,2.62-.02,4.13-.18,1.51-.41,3.01-.69,4.49l-6.81,36.03Zm3.05-19.28c1.8-5.62,3.59-10.34,5.38-14.19,1.79-3.84,3.58-6.96,5.4-9.37,1.81-2.4,3.71-4.17,5.69-5.3,1.98-1.13,4.07-1.76,6.26-1.89,2.86-.17,4.87.39,6.02,1.7,1.15,1.31,1.73,3.02,1.73,5.13,0,2.11-.29,4.32-.88,6.62l-7.25,27.24c-.45,1.68-.59,3.05-.44,4.11.16,1.06.9,1.55,2.25,1.47,1.16-.07,2.26-.78,3.31-2.13,1.05-1.35,2.1-3.89,3.16-7.63l.98-3.46,1.74-.11-1.88,6.82c-.7,2.61-1.63,4.63-2.8,6.04-1.17,1.42-2.42,2.43-3.76,3.03s-2.65.94-3.93,1.02c-1.46.09-2.68-.08-3.66-.51-.98-.43-1.73-1.03-2.27-1.79-.74-1.06-1.04-2.48-.9-4.26.14-1.78.51-3.76,1.11-5.94l7.1-26.68c.25-.87.45-1.91.59-3.11.14-1.2.03-2.26-.33-3.19-.36-.93-1.27-1.34-2.74-1.26-1.46.09-2.98.82-4.55,2.2-1.57,1.38-3.17,3.3-4.79,5.75-1.63,2.46-3.19,5.37-4.7,8.73-1.51,3.37-2.92,7.06-4.24,11.09-1.32,4.03-2.48,8.31-3.49,12.83l1.87-12.96Z"/>
      <path class="uuid-4a7a9164-ad95-4081-813d-8bb8fbb2c4c1" d="m226.5,513.47c1.11-3.84.6-5.71-1.53-5.62-1.4.06-2.62.88-3.65,2.46-1.03,1.57-2.09,3.98-3.16,7.2l-1.13,3.44-1.74.08,2.08-6.79c.8-2.6,1.81-4.6,3.03-6,1.22-1.4,2.54-2.39,3.95-2.97,1.41-.58,2.73-.9,3.95-.96,1.95-.09,3.4.25,4.35,1,.95.75,1.55,1.76,1.79,3.04.24,1.27.24,2.67,0,4.17-.24,1.51-.57,2.98-1,4.4l-8.56,28.17c-.53,1.8-.67,3.19-.41,4.19.26,1,.97,1.47,2.13,1.42,1.22-.05,2.35-.78,3.39-2.17,1.04-1.39,2.15-3.89,3.33-7.49l1.13-3.44,1.74-.08-2.08,6.79c-.75,2.42-1.7,4.34-2.86,5.77-1.16,1.43-2.43,2.46-3.81,3.1-1.38.64-2.77,1-4.17,1.06-2.62.12-4.42-.42-5.39-1.59s-1.38-2.75-1.22-4.71c.16-1.96.58-4.06,1.28-6.29l8.56-28.17Zm1.75-24.56c.23-1.6.98-3.01,2.24-4.23,1.26-1.22,2.65-1.86,4.18-1.93,1.59-.07,2.85.46,3.78,1.57.94,1.12,1.29,2.48,1.05,4.08-.24,1.6-.98,3.01-2.24,4.23-1.26,1.22-2.68,1.86-4.27,1.93-1.53.07-2.76-.46-3.69-1.58-.94-1.12-1.29-2.48-1.05-4.08Z"/>
      <path class="uuid-4a7a9164-ad95-4081-813d-8bb8fbb2c4c1" d="m260.54,490.39c1.46-.1,2.91-.26,4.34-.49,1.43-.22,2.75-.56,3.96-1.03l-18.2,70.98c-.66,2.58-.25,4.31,1.24,5.19,1.49.88,3.61,1.28,6.36,1.2l-.5,1.94c-1.22-.03-2.95-.06-5.18-.09-2.23-.03-4.6-.01-7.1.06-1.89.05-3.82.15-5.77.3s-3.41.26-4.39.35l.5-1.94c2.2-.06,3.77-.52,4.73-1.37.95-.85,1.71-2.35,2.26-4.51l17.75-70.6Zm-18.26,28.92c2.32-2.39,4.48-4.75,6.49-7.1,2.01-2.35,3.95-5.13,5.82-8.36,1.87-3.23,3.74-7.28,5.62-12.16l.32,1.46c-1.23,4.19-2.73,7.88-4.51,11.08-1.78,3.2-3.73,6.09-5.85,8.68-2.13,2.6-4.41,5.12-6.85,7.57l-1.04-1.16Zm32.43-13.64c-1.59.04-3.34,1.21-5.27,3.49-1.92,2.28-3.85,5.36-5.79,9.23-1.94,3.87-3.75,8.21-5.41,13.03-1.67,4.81-3.04,9.8-4.12,14.96l1.38-9.94c2.4-8.07,4.76-14.57,7.07-19.49,2.31-4.92,4.67-8.52,7.08-10.78,2.41-2.27,4.96-3.44,7.65-3.51,2.87-.08,5.2.93,7,3.01,1.8,2.09,2.76,5.3,2.88,9.64.08,2.75-.22,5.78-.89,9.1-.67,3.32-1.71,6.62-3.12,9.89-1.41,3.28-3.16,6.31-5.25,9.08-2.09,2.78-4.52,5.01-7.28,6.71-2.76,1.69-5.86,2.59-9.27,2.68-1.83.05-3.48-.45-4.95-1.51-1.47-1.06-2.47-2.62-3.02-4.68l.68-1.85c.92,2.24,1.95,3.8,3.11,4.68,1.15.88,2.5,1.31,4.02,1.26,2.07-.06,4.04-.92,5.89-2.59,1.85-1.67,3.53-3.87,5.04-6.6,1.51-2.73,2.82-5.74,3.92-9.04,1.1-3.3,1.93-6.59,2.48-9.88.55-3.28.79-6.3.71-9.05-.07-2.69-.51-4.67-1.31-5.97-.8-1.29-1.87-1.92-3.21-1.88Z"/>
      <path class="uuid-4a7a9164-ad95-4081-813d-8bb8fbb2c4c1" d="m312.24,489.52c1.47-.06,2.92-.18,4.35-.37,1.43-.18,2.76-.49,3.98-.92l-20.14,70.46c-.73,2.57-.37,4.31,1.1,5.22,1.47.92,3.57,1.37,6.32,1.37l-.55,1.92c-1.22-.06-2.95-.14-5.18-.23-2.23-.09-4.6-.14-7.1-.14-1.89,0-3.82.05-5.77.14-1.95.09-3.42.17-4.4.23l.55-1.92c2.2,0,3.79-.41,4.76-1.24.98-.82,1.77-2.31,2.38-4.44l19.68-70.09Zm-19.05,28.41c2.38-2.32,4.61-4.63,6.69-6.92,2.07-2.29,4.09-5.02,6.04-8.2,1.95-3.18,3.94-7.18,5.95-12l.28,1.46c-1.34,4.16-2.95,7.8-4.81,10.95-1.86,3.15-3.89,5.99-6.09,8.52-2.2,2.54-4.55,5-7.05,7.38l-1.01-1.19Zm32.8-12.74c-1.59,0-3.38,1.12-5.36,3.34-1.98,2.23-4,5.25-6.04,9.07-2.05,3.82-3.97,8.11-5.77,12.87-1.8,4.76-3.31,9.71-4.53,14.84l1.65-9.9c2.62-8,5.16-14.43,7.6-19.29,2.44-4.86,4.9-8.38,7.37-10.58,2.47-2.2,5.05-3.3,7.74-3.3,2.87,0,5.18,1.07,6.92,3.2,1.74,2.14,2.61,5.38,2.61,9.71,0,2.75-.38,5.77-1.14,9.07-.76,3.3-1.89,6.57-3.39,9.8-1.5,3.24-3.33,6.22-5.49,8.93-2.17,2.72-4.66,4.89-7.46,6.51-2.81,1.62-5.92,2.43-9.34,2.43-1.83,0-3.47-.55-4.9-1.65-1.44-1.1-2.4-2.69-2.89-4.76l.73-1.83c.86,2.26,1.85,3.85,2.98,4.76,1.13.92,2.46,1.37,3.99,1.37,2.08,0,4.06-.81,5.95-2.43,1.89-1.62,3.63-3.77,5.22-6.46,1.59-2.69,2.98-5.67,4.17-8.93s2.11-6.54,2.75-9.8c.64-3.27.96-6.28.96-9.02,0-2.69-.38-4.69-1.15-6-.77-1.31-1.82-1.97-3.16-1.97Z"/>
      <path class="uuid-4a7a9164-ad95-4081-813d-8bb8fbb2c4c1" d="m349.56,530.14c3.46-1.04,6.6-2.07,9.42-3.1,2.82-1.03,5.07-2.15,6.77-3.38,2.26-1.69,4.08-3.76,5.45-6.22,1.37-2.46,2.11-5.18,2.22-8.17.06-1.77-.02-2.9-.24-3.4-.23-.5-.58-.75-1.07-.77-1.53-.05-3.2.56-5.02,1.84-1.82,1.28-3.63,3.06-5.42,5.35-1.79,2.29-3.46,4.9-5,7.84-1.54,2.94-2.8,6.09-3.78,9.44-.98,3.36-1.53,6.71-1.65,10.07-.11,3.11.39,5.38,1.5,6.79,1.11,1.42,2.61,2.16,4.5,2.23,2.2.08,4.54-.51,7.03-1.76,2.49-1.25,4.96-3.55,7.4-6.88l1.44.79c-1.23,1.97-2.83,3.87-4.79,5.69-1.96,1.82-4.14,3.29-6.53,4.39-2.39,1.1-4.9,1.61-7.53,1.51-2.44-.09-4.56-.65-6.36-1.7s-3.15-2.54-4.05-4.5c-.91-1.96-1.31-4.34-1.21-7.15.1-2.62.69-5.55,1.78-8.78,1.09-3.23,2.6-6.45,4.52-9.65,1.92-3.2,4.18-6.13,6.78-8.79,2.6-2.66,5.46-4.75,8.57-6.29,3.11-1.54,6.41-2.24,9.89-2.12,1.89.07,3.48.63,4.75,1.68,1.28,1.05,1.88,2.59,1.8,4.6-.09,2.44-.89,4.69-2.4,6.74-1.51,2.05-3.47,3.91-5.89,5.56-2.41,1.66-5.02,3.1-7.81,4.35-2.8,1.24-5.52,2.31-8.18,3.19-2.66.88-5.01,1.59-7.04,2.13l.15-1.55Z"/>
      <path class="uuid-4a7a9164-ad95-4081-813d-8bb8fbb2c4c1" d="m390.42,552.72l-7.93-.85,15.13-37.9c.32-.7.6-1.49.85-2.35.25-.86.28-1.63.11-2.29-.17-.66-.75-1.05-1.72-1.15-1.34-.14-2.59.38-3.76,1.58-1.17,1.2-2.59,3.52-4.25,6.96l-1.55,3.24-1.73-.19,2.99-6.41c1.75-3.68,3.67-6.02,5.78-7.03,2.1-1,4.13-1.4,6.07-1.19,1.82.2,3.1.73,3.83,1.61.74.88,1.08,1.95,1.04,3.2-.04,1.25-.28,2.61-.71,4.07-.43,1.46-.91,2.9-1.43,4.32l-12.73,34.38Zm6.23-18.5c2.71-5.24,5.27-9.6,7.67-13.09,2.4-3.49,4.7-6.27,6.89-8.34,2.19-2.07,4.35-3.49,6.5-4.28,2.14-.78,4.31-1.06,6.49-.82,2.85.31,4.74,1.2,5.66,2.68.91,1.48,1.2,3.26.85,5.34-.35,2.08-1.01,4.21-1.98,6.38l-11.69,25.65c-.72,1.58-1.1,2.91-1.12,3.98-.02,1.07.63,1.68,1.97,1.82,1.15.12,2.36-.39,3.62-1.55,1.26-1.16,2.72-3.49,4.39-6.99l1.55-3.24,1.73.19-2.99,6.4c-1.13,2.46-2.38,4.29-3.77,5.49-1.39,1.2-2.79,1.99-4.22,2.36s-2.77.49-4.05.35c-1.46-.16-2.63-.53-3.52-1.12-.89-.59-1.53-1.3-1.94-2.14-.55-1.17-.61-2.61-.18-4.35.43-1.73,1.13-3.62,2.08-5.67l11.45-25.12c.39-.82.76-1.81,1.1-2.97.34-1.16.41-2.23.21-3.2-.2-.97-1.03-1.54-2.49-1.7-1.46-.16-3.07.31-4.85,1.41-1.78,1.1-3.67,2.72-5.68,4.87-2.01,2.15-4.04,4.76-6.09,7.82-2.05,3.07-4.06,6.47-6.03,10.22-1.97,3.75-3.83,7.77-5.58,12.07l4.01-12.47Z"/>
    </g>
  </g>
</svg>