<?xml version="1.0" encoding="UTF-8"?>
<svg id="uuid-75becf17-2d49-48aa-8d45-944f7075732e" data-name="Layer 2" xmlns="http://www.w3.org/2000/svg" viewBox="0 0 495.62 184.25">
  <defs>
    <style>
      .uuid-0028ee0a-29a5-461a-b34b-7095621fd01e {
        fill: #ff203e;
      }
    </style>
  </defs>
  <g id="uuid-3a0229e2-93ba-407e-b91a-fa334e2f26fd" data-name="tijdlijn Image">
    <g>
      <path class="uuid-0028ee0a-29a5-461a-b34b-7095621fd01e" d="m296.44,126.09c-.14,1.36-.24,2.91-.28,4.66-.04,1.75-.1,3.62-.15,5.62,0,1.57.04,3.81.13,6.72.09,2.91.29,5.9.59,8.96-3.99.87-8.47,1.93-13.43,3.17-4.97,1.25-9.39,2.37-13.26,3.38-1.7.44-3.89,1.01-6.56,1.7-2.67.69-5.55,1.46-8.64,2.3-3.09.84-6.21,1.7-9.38,2.56-3.17.86-6.13,1.69-8.9,2.49l-.02-2.47c2.59-.84,4.56-1.68,5.92-2.53,1.35-.85,2.25-2.07,2.7-3.68.45-1.6.7-3.9.75-6.89l.51-61.62c.03-3.06-.19-5.26-.66-6.59-.47-1.32-1.37-2.08-2.7-2.28-1.33-.19-3.32.02-5.98.62l-.02-2.47c1.65-.34,3.79-.82,6.45-1.42,2.65-.6,5.49-1.3,8.51-2.08,2.71-.7,5.39-1.44,8.04-2.21,2.65-.77,4.86-1.42,6.62-1.96l.02,2.47c-2.61.76-4.59,1.58-5.93,2.47-1.34.89-2.26,2.12-2.76,3.69-.5,1.58-.77,3.9-.8,6.96l-.51,61.62c-.05,2.99.16,5.17.64,6.53.48,1.36,1.39,2.1,2.74,2.2,1.35.11,3.34-.18,5.97-.87l8.48-2.2c4.88-1.26,8.59-2.97,11.13-5.12,2.54-2.15,4.39-5.06,5.54-8.75,1.15-3.69,2-8.45,2.55-14.3l2.67-.69Z"/>
      <path class="uuid-0028ee0a-29a5-461a-b34b-7095621fd01e" d="m309.64,89.08c-.61-5.2-2.18-7.2-4.71-6-1.66.79-2.71,2.4-3.16,4.82-.44,2.42-.5,5.86-.16,10.3l.39,4.73-2.06.98-.94-9.25c-.36-3.55-.15-6.48.61-8.79.76-2.31,1.85-4.17,3.25-5.6,1.41-1.42,2.83-2.47,4.28-3.16,2.31-1.1,4.23-1.43,5.76-1.01,1.53.43,2.76,1.34,3.7,2.76s1.64,3.09,2.12,5.04c.48,1.94.82,3.88,1.04,5.82l3.99,38.35c.27,2.44.82,4.2,1.64,5.27.82,1.07,1.91,1.28,3.29.63,1.45-.69,2.44-2.13,2.99-4.34.55-2.21.62-5.78.22-10.73l-.39-4.73,2.06-.98.94,9.25c.32,3.3.15,6.1-.52,8.42-.67,2.31-1.68,4.21-3.01,5.68-1.34,1.48-2.84,2.61-4.5,3.4-3.11,1.47-5.55,1.75-7.32.82-1.77-.93-3.06-2.62-3.87-5.07-.81-2.45-1.36-5.2-1.66-8.25l-3.99-38.35Zm-10.38-30.54c-.53-2.05-.35-4.13.56-6.24.9-2.11,2.26-3.59,4.06-4.45,1.88-.89,3.67-.9,5.37-.02,1.7.88,2.81,2.34,3.34,4.39.53,2.05.34,4.13-.56,6.24-.9,2.11-2.29,3.61-4.17,4.5-1.81.86-3.56.85-5.26-.03-1.7-.87-2.81-2.34-3.34-4.39Z"/>
      <path class="uuid-0028ee0a-29a5-461a-b34b-7095621fd01e" d="m357.7,122.61l-9.51,4.31-8.16-52.83c-.11-1.01-.31-2.08-.6-3.22-.3-1.14-.77-2.02-1.4-2.66-.64-.63-1.54-.68-2.71-.16-1.6.73-2.67,2.16-3.2,4.28-.53,2.13-.58,5.69-.16,10.68l.41,4.69-2.08.94-.89-9.22c-.48-5.32.13-9.24,1.84-11.77,1.71-2.53,3.72-4.33,6.06-5.38,2.19-.99,3.99-1.24,5.4-.74,1.41.5,2.51,1.47,3.3,2.92.79,1.44,1.42,3.13,1.9,5.07.48,1.94.9,3.87,1.26,5.82l8.53,47.26Zm-5.29-25.01c-.43-7.71-.44-14.34-.06-19.87.39-5.53,1.13-10.2,2.22-13.99,1.09-3.79,2.58-6.84,4.48-9.15,1.89-2.31,4.15-4.06,6.78-5.25,3.42-1.55,6.14-1.8,8.16-.74,2.02,1.06,3.52,2.88,4.52,5.46.99,2.58,1.67,5.42,2.02,8.51l3.88,36.72c.24,2.26.7,4.01,1.39,5.23.69,1.23,1.83,1.47,3.44.75,1.38-.63,2.4-2.01,3.06-4.15.65-2.14.75-5.75.3-10.81l-.41-4.69,2.08-.94.89,9.22c.37,3.52.17,6.43-.6,8.71-.77,2.28-1.83,4.1-3.19,5.46-1.36,1.36-2.8,2.39-4.33,3.09-1.75.79-3.32,1.15-4.71,1.08-1.4-.07-2.6-.45-3.61-1.13-1.4-.95-2.43-2.54-3.1-4.79-.67-2.24-1.14-4.84-1.43-7.79l-3.8-35.96c-.1-1.18-.34-2.55-.73-4.08-.39-1.54-1.02-2.78-1.9-3.75-.88-.96-2.19-1.05-3.94-.26-1.75.79-3.26,2.4-4.53,4.82-1.27,2.42-2.33,5.52-3.17,9.28-.84,3.76-1.4,8.06-1.67,12.88-.27,4.82-.27,10.01,0,15.55s.85,11.32,1.74,17.33l-3.77-16.74Z"/>
      <path class="uuid-0028ee0a-29a5-461a-b34b-7095621fd01e" d="m410.98,99.36l-10.11,2.62,2.91-83.44c.09-2.83-.51-4.74-1.8-5.73-1.29-.99-3.83-.99-7.63,0l.06-2.62c4.24-1.18,7.96-2.62,11.15-4.32,3.2-1.7,6.04-3.65,8.52-5.87l-3.12,99.36Zm28.04-15.2c.13,1.79.45,3,.95,3.66.5.66,1.37.82,2.61.5,1.55-.4,2.77-1.65,3.68-3.74.9-2.09,1.52-5.54,1.85-10.33l.28-4.66,2.21-.57-.59,9.2c-.2,3.36-.8,6.09-1.78,8.21-.98,2.11-2.25,3.75-3.81,4.89-1.56,1.15-3.27,1.96-5.13,2.45-2.48.64-4.72.29-6.72-1.05-2-1.34-3.08-4.06-3.23-8.15l-.5-10.53c-.23-4.73-1.58-7.92-4.03-9.56-2.45-1.64-6.99-1.85-13.61-.62l-.12-.46c2.88-1,5.88-1.77,9-2.33,3.12-.56,6.01-.63,8.69-.21,2.67.42,4.89,1.5,6.66,3.23,1.77,1.73,2.74,4.35,2.91,7.86l.69,12.22Zm-3.12-54.11c-.93.24-1.68.6-2.26,1.08-.58.48-1.12,1.03-1.62,1.66-1.17,1.54-2,3.43-2.5,5.67-.5,2.24-.96,4.61-1.38,7.11-.42,2.51-1.12,4.94-2.08,7.29-.96,2.36-2.48,4.47-4.56,6.33-2.08,1.86-5.07,3.26-8.96,4.18l-1.13.42-.1-1.34c3.73-1.22,6.57-2.78,8.52-4.69,1.94-1.91,3.34-4.01,4.19-6.29.85-2.29,1.47-4.62,1.85-6.99.38-2.37.82-4.65,1.32-6.85.5-2.2,1.41-4.12,2.71-5.79,1.11-1.44,2.19-2.49,3.22-3.13,1.03-.64,2.05-1.09,3.06-1.35,2.71-.7,4.74-.51,6.1.59,1.36,1.09,2.2,2.59,2.53,4.49.16.95.16,2.06,0,3.35s-.62,2.48-1.37,3.58c-.75,1.1-1.9,1.86-3.44,2.26-1.71.44-3.04.23-4.01-.63-.97-.86-1.57-1.93-1.82-3.19-.21-1.1-.12-2.39.24-3.84.37-1.46.93-2.78,1.7-3.97l-.12.03-.12.03Z"/>
      <path class="uuid-0028ee0a-29a5-461a-b34b-7095621fd01e" d="m462.54,85.63c.66.27,1.38.48,2.15.63.77.15,1.92.16,3.43.05,3.51-.25,6.33-1.52,8.45-3.8,2.12-2.28,3.04-5.41,2.75-9.4-.18-2.47-.82-4.89-1.91-7.26-1.09-2.37-2.91-5.06-5.46-8.09-2.02-2.42-3.96-4.91-5.83-7.46-1.87-2.55-2.94-5.66-3.2-9.33-.25-3.43.38-6.46,1.87-9.1,1.49-2.63,3.61-4.77,6.33-6.41,2.73-1.64,5.77-2.58,9.12-2.82,2.31-.17,4.61-.05,6.88.35,2.27.4,4.2,1.28,5.79,2.65,1.58,1.37,2.48,3.49,2.68,6.36.05.72-.07,1.59-.35,2.61-.29,1.02-.8,1.92-1.55,2.7-.75.78-1.8,1.21-3.15,1.31-1.28.09-2.43-.29-3.45-1.13-1.02-.85-1.59-2.03-1.7-3.55-.1-1.44.1-2.83.6-4.19.5-1.36,1.23-2.71,2.17-4.07-1.59-.85-3.62-1.18-6.09-1-2.95.21-5.35,1.39-7.21,3.53-1.85,2.14-2.65,5-2.39,8.59.13,1.84.53,3.43,1.19,4.79.66,1.36,1.58,2.75,2.77,4.19,1.19,1.44,2.62,3.26,4.3,5.46,2.21,2.89,4.1,5.68,5.66,8.38,1.56,2.7,2.45,5.6,2.67,8.71.26,3.67-.44,6.99-2.11,9.96-1.67,2.97-4,5.36-7,7.18-3,1.82-6.37,2.87-10.12,3.14-2.71.2-5.34-.02-7.87-.64-2.53-.62-4.64-1.73-6.32-3.33-1.68-1.6-2.62-3.84-2.83-6.71-.08-1.12.17-2.32.76-3.6.59-1.29,1.76-1.99,3.52-2.12,1.92-.14,3.33.54,4.24,2.04.91,1.5,1.43,3.21,1.57,5.12.09,1.28.07,2.42-.05,3.43-.13,1.01-.24,1.96-.33,2.85Z"/>
    </g>
  </g>
  <g id="uuid-e6bc9b2d-8f6b-4d42-852e-4ec8b0e0ce1e" data-name="kettiung + Layer 17 Image">
    <g>
      <path class="uuid-0028ee0a-29a5-461a-b34b-7095621fd01e" d="m91.22,86.39c5.59,4.23,12,6.7,18.23,9.92,3.92-1.67,6.14-5.11,8.89-7.86,9.81-9.85,21.01-17.81,33.23-24.34,3.83-2.04,7.83-3.84,11.9-5.33,7.18-2.62,8.77-1.8,14.06,3.91,5.88,6.34,12.18,12.29,19.06,19.18.36,13.14-3.48,26.11-10.62,38.22-1.72,2.93-4.14,4.73-7.64,5.51-5.61,1.26-11.38,2.28-16.87,6.12,0,1.86.08,3.97-.02,6.06-.14,2.89-.21,5.81-.67,8.66-1.83,11.47-8.14,18.87-19.58,22.09-7.46,2.1-14.92,2.78-22.6,2.55-5.83-.18-10.28-2.72-14.35-6.72-6.47-6.35-13.18-12.46-19.92-18.51-1.76-1.58-4.02-2.61-7-4.49-.47,3.53-1.07,5.91-1.06,8.29.09,14.51-8.13,23.88-19.97,30.01-15.78,8.16-31.14,4.75-45.18-4.78-6.94-4.72-9.47-12.64-11.03-20.6-.32-1.64.23-3.6.84-5.25,9.25-25.25,14.72-51.51,20.88-77.6,1.83-7.75,3.95-15.43,6.11-23.1,2.15-7.64,6.63-13.69,13.42-17.82,5.87-3.58,11.9-6.89,17.9-10.26,2.72-1.52,5.47-1.35,8.35-.12,8.76,3.75,16.84,8.52,23.49,15.41,7.67,7.95,9.06,17.89,8.26,28.29-.15,2.02-1.81,3.9-2.62,5.9-2.15,5.31-5.18,10.35-5.51,16.64Zm8.11,22.25c-2.33-.87-4.68-1.67-6.98-2.62-1.94-.8-2.76-3.92-6.57-3.17,3.38,4.64,4.99,9.42,8.6,12.81,1.68-2.63,3.16-4.95,4.57-7.33,1.74-1.55,4.75-1.87,4.99-5.59-2.22-1.67-4.66-3.52-7.11-5.37.14,4.19.29,8,2.5,11.26Zm-41.75-10.12c.21-1.68.64-3.37.52-5.03-.04-.57-1.43-1.07-2.25-1.51-.14-.07-.74.32-.78.55-.09.64-.21,1.42.06,1.95.71,1.39,1.62,2.69,2.45,4.02.07.61.14,1.22.21,1.82h-5.18c-.65,1.8-1.43,3.47-1.82,5.22-.44,1.97.24,3.6,2.43,4.11,1.7.4,2.51-.55,3.2-2.04.68-1.46,1.78-2.73,2.61-3.95,5.1,1.76,6.34,5.78,7.69,9.43,1.34,3.62,3.48,6.12,6.79,8.06,12.94,7.59,24.38,17.03,34.33,28.26.44.5,1.24.69,1.87,1.02,1.65-.51,3.29-1.01,5.51-1.69,2.28,2.8,4.49,5.59,6.83,8.27.28.32,1.26.04,2.45.04.95-2.2-1.2-6.04,2.11-6.99,5.25-.17,5.68,7.02,11.68,6.22v-10.15c3.46-1.62,4.51.76,5.98,2.16,1.42,1.35,2.47.86,3.4-.53-.2-4.25-4.12-7.85-2.47-11.89,1.96-3.18,5.09,2.56,6.63-2.35-4.42-3.93-10.37-5.86-15.42-9.16-2.01-1.31-4.33-2.15-7.45-3.66.43,4.18.76,7.31,1.02,9.85,3.33,2.14,5.99,3.84,9.26,5.94-1.83,3.24-3.34,5.89-4.58,8.08-7.1.88-12.28-1.52-17.2-4.83-19.56-13.17-39.64-25.64-56.46-42.23-1.34.39-2.39.69-3.43.99Zm19.97,5.13c.91-1.3,1.83-2.09,2.09-3.06,3.1-11.54,6.13-23.1,9.1-34.67.35-1.37.61-2.96.26-4.28-2.75-10.54-7.63-19.5-18.09-24.46-5.44-2.58-10.42-2.51-15.27,1.23-7.58,5.85-14.27,12.53-17.3,21.82-3.59,11-7.04,22.09-9.78,33.32-4.38,17.92-8.14,36-12.27,54.52,2.15,5.1,4.64,10.73,6.88,16.45,1.16,2.96,3.13,5.06,6.05,5.73,5.63,1.29,11.33,2.39,17.06,3.12,6.5.82,11.27-2.35,14.37-7.81,5.22-9.21,7.78-19.31,10.05-29.35-3.43-3.33-6.45-5.74-10.82-6.98-1.07,2-2.22,3.81-3.05,5.76-2.68,6.34-5.24,12.73-7.85,19.1-4.65,11.37-5.43,11.7-16.65,6.64-.6-.27-.98-1.02-1.95-2.09.27-6.96-2.81-14.21-1.79-21.91,2.05-.28,3.74-.51,6.03-.82,0-2.11-.18-4.24.06-6.32.2-1.69.38-4.14,1.47-4.84,4.28-2.72,3.84-6.46,3.33-10.53-.44-3.52-1.88-7.08-.07-10.65,1.6-.44,3.18-.87,5.07-1.39-1.36-5.45-2.74-10.66-3.95-15.91-.42-1.82-.1-3.59,1.92-4.2,3.64.21,3.44,5.36,6.48,5.56,1.81-5.26,3.4-9.9,4.68-13.63-1.78-6.03-3.33-11.17-4.74-16.34-.09-.32.86-.93,1.77-1.86,2.13,1.51,4.31,3.06,6.46,4.59,2.31-2.54-.08-4.43.04-6.43.09-1.58.54-3.15.86-4.9,6.6,1.97,12.4,3.71,17.79,5.32,2.25,4.28,2,8.21,1.6,12.23-1.01,10.16-4.03,19.85-6.73,29.62-.17.63.12,1.39.27,2.76,1.92,1.36,4.2,2.97,6.6,4.67Zm92.65-37.42c-1.54,0-2.34-.21-2.95.03-24.53,9.67-45.17,24.53-60.76,45.97-1.85,2.54-3,5.58-4.62,8.67,5.76,4.7,10.94,8.87,17.73,11.11,3.12-4.9,2.51-9.51,1.3-14.11-.74-2.79-1.91-5.47-2.64-8.26-.24-.91.03-2.66.59-2.93,1.09-.52,2.64-.6,3.83-.26,2.48.71,3.75,4.8,7.38,2.75q-2.93-7.44-2.24-11.98c5.68-.91,6.55,6.35,12.05,6.9.82-5.45-5.83-9.4-3.32-15.22,6.64-.48,8.01,6.94,13.27,8.49,1.39-4.39-4.66-8.13-.54-12.33,3.94-.33,5.28,3.31,7.84,5.09.46.32,1.29.12,1.98.17,2.29-2.62-2.43-6.39,1.8-9,4.75,1.37,7.37,5.24,9,9.64,1.67,4.53,1.94,9.26-1.39,13.39-.35.43-1.21.46-1.88.68-1.53-2.13-3.1-4.32-4.64-6.46-8.26,5.17-15.85,9.92-23.73,14.85,5.61,4.32,11.01,9.04,16.85,12.06,7.36-3.1,14-5.9,21.1-8.89,4.55-10.17,9.39-20.65,10.7-32.53-5.78-6.17-11.44-12.21-16.72-17.84Zm-127.93,82.98c6.04-7.68,8.54-16.39,10.06-25.76-1.98-1-3.51-1.77-5.47-2.75-3.57,9.52-7.17,18.44-4.59,28.52Zm24.92-81.51c-.61,0-.99-.12-1.2.02-5.89,4.09-7.29,10.57-8.39,16.92-.39,2.27,1.26,4.93,5.19,4.01,1.2-6.93,4.16-13.62,4.39-20.95Z"/>
      <path class="uuid-0028ee0a-29a5-461a-b34b-7095621fd01e" d="m44.75,67.81c3.65.85,4.42,3.38,4.13,6.46-.05.52-.84,1.21-1.41,1.36-.58.16-1.51-.04-1.95-.45-2.33-2.17-3.04-4.59-.78-7.38Z"/>
      <path class="uuid-0028ee0a-29a5-461a-b34b-7095621fd01e" d="m35.98,118.22c-1.37.98-2.28,1.64-3.19,2.29-.68-1.01-1.93-2.04-1.88-3.01.05-.91,1.46-1.75,2.28-2.61.77.92,1.54,1.84,2.79,3.33Z"/>
      <path class="uuid-0028ee0a-29a5-461a-b34b-7095621fd01e" d="m29.28,129.77c-1.06.54-2.13,1.44-2.55,1.21-.72-.41-1.51-1.61-1.38-2.33.11-.67,1.38-1.13,2.14-1.69.51.8,1.02,1.6,1.79,2.81Z"/>
      <path class="uuid-0028ee0a-29a5-461a-b34b-7095621fd01e" d="m110.72,139.45c1.02,1.68,1.94,2.65,2.15,3.76.1.54-1.12,1.34-1.75,2.02-.78-.9-1.81-1.71-2.22-2.75-.19-.49.83-1.46,1.81-3.03Z"/>
    </g>
  </g>
</svg>