<?xml version="1.0" encoding="UTF-8"?>
<svg id="uuid-80cec3fa-b222-4e29-a850-886da7406cbe" data-name="Layer 2" xmlns="http://www.w3.org/2000/svg" viewBox="0 0 432.75 607.9">
  <defs>
    <style>
      .uuid-e21f0e89-7dff-4052-aefc-1a0b8ee15170 {
        fill: #ff203e;
      }
    </style>
  </defs>
  <g id="uuid-de2b2338-bebd-4e32-84e7-75dd2ec7dd2b" data-name="achtergronden + Layer 15 Image">
    <path d="m87.29,11.25h0,0m-6.85,13.52c.95.41,1.89.81,2.83,1.22,12.64,5.44,25.71,11.06,38.14,17,19.92,9.54,39.22,19.69,55.47,28.36,16.64,8.88,34.24,13.73,52.34,14.42,5.71.22,11.61.54,17.31.86,7.19.4,14.62.81,22.07,1.03,8.18.24,15.25,2.36,21.63,6.48,6.85,4.43,13.69,8.87,20.53,13.32,5.64,3.67,11.28,7.33,16.93,10.99,2.3,1.49,4.62,2.96,6.86,4.38,2.39,1.51,4.64,2.94,6.9,4.4,9.6,6.24,20.47,10.29,32.31,12.03,8.18,1.21,16.27,1.94,24.1,2.65l1.91.17c.78.07,1.56.14,2.33.2-2.14,2.92-4.33,5.67-6.43,8.23-3.97,4.85-7.47,9.33-10.68,13.69-8.35,11.33-8.56,25.64-.56,37.34,3.25,4.76,6.77,9.81,10.86,14.69,2.74,3.27,2.92,5.27,2.27,8.24-.52,2.4-1.01,4.79-1.48,7.1-1.42,6.96-2.79,13.65-4.83,19.67l-13.16,4.64,1.62,15.68.14,1.35.11,1.03,1.62,15.66,2.57.35c-.47,14.68,1.27,30.41,5.35,48.87,2.21,9.97,2.22,19.44.03,28.94-1.95,8.47-3.9,17.08-5.79,25.4-1.21,5.33-2.42,10.67-3.64,16-3.41,14.93-10.12,28.33-20.52,40.95-4,4.85-7,9.09-9.46,13.34-8.18,14.18-6.79,29.67,3.71,41.43,2.04,2.28,4.01,4.51,5.8,6.71,1.68,2.07,1.89,3.07,1.89,3.07,0,0,0,0,0,0,0,.07-.06.37-.27.88-.45,1.07-.76,1.99-.97,2.63-7.72,15.92-9.96,33.67-6.8,54.06-2.08-2.09-3.61-4.17-4.76-6.41-2.29-4.46-4.92-8.45-7.24-11.96-.81-1.23-1.57-2.39-2.3-3.52-5.16-8.1-13.77-12.93-23.03-12.93-1.57,0-3.15.14-4.71.41-6.65,1.16-12.01,2.5-16.88,4.22-3.96,1.4-7.58,3.06-10.77,4.53-1.83.84-3.57,1.64-5.2,2.31-6.34,2.62-12.01,3.99-17.34,4.18-.26,0-.52.01-.78.01-3.24,0-5.76-.71-8.2-2.31-3.48-2.29-6.55-4.35-8.9-6.49-12.88-11.72-28.27-20.66-47.05-27.34-5.71-2.03-11.42-3.85-16.94-5.61l-3.29-1.05c-.58-.19-1.15-.36-1.71-.53.57-3.92.21-9.41-3.82-15.09h0s-15-24.14-15-24.14l-17.64,22.51c-.9,1.15-1.38,1.57-2.64,2.68-.43.38-.89.78-1.39,1.23-10.29.31-19.45,2.77-26.38,4.92-7.14,2.22-12.56,3.75-17.58,4.98-.56.14-1.14.21-1.72.21-2.4,0-4.69-1.18-6.14-3.16-1.31-1.8-2.62-3.59-3.95-5.43l-1.86-2.55-5.99-8.23h-10.18c-.69,0-1.39-.01-2.07-.02-.9-.02-1.8-.03-2.7-.03-1.49,0-2.77.04-4.02.12-4.11.26-7.73.38-11.05.38-6.9,0-12.94-.56-18.37-1.7.98-3.52,2.24-7.19,3.54-10.95l.38-1.1c2.1-6.08,4.82-12.38,7.71-19.04,1.41-3.25,2.86-6.61,4.34-10.16l3.27-7.85-3.38-7.8c-.31-.71-.67-1.53-1.08-2.43-.89-1.99-1.9-4.25-2.75-6.43-1.18-3.05-2.29-6.1-3.32-9.11,2.13-2.36,4.28-4.52,6.41-6.44,18.47-16.63,29.99-38.47,36.24-68.71,2.82-13.66-.31-25.89-2.59-34.81-1.84-7.17-3.78-14.37-5.66-21.34-2.29-8.5-4.66-17.28-6.79-25.87-5.03-20.18-3.06-40.88,6.02-63.26,9.85-24.29,8.58-33.95-7.15-54.37l-.89-1.16c-1.1-1.44-2.24-2.93-3.52-4.49-1.5-1.83-2.76-4.2-1.81-9.13,2.48-12.77,5.5-27.84,9.08-42.77,4.7-19.57,12.52-38.03,20.55-54.44m281.05,489.91h0,0M71.31,0c-.83.94-1.44,1.4-1.75,2.01-12.11,23.22-22.98,46.96-29.12,72.54-3.47,14.45-6.43,29.04-9.27,43.63-1.8,9.29-.23,18.07,5.99,25.63,1.38,1.68,2.69,3.43,4.02,5.16,11.42,14.84,11.47,17.37,4.46,34.66-9.91,24.44-13.35,49.66-6.89,75.61,3.94,15.84,8.43,31.53,12.48,47.34,2.16,8.44,4.2,17,2.38,25.8-4.57,22.1-12.75,42.34-30.04,57.9-3.5,3.15-6.78,6.58-9.85,10.15-3.5,4.08-4.95,8.89-3.23,14.2,1.45,4.47,3.03,8.91,4.73,13.29,1.42,3.67,3.11,7.24,4.12,9.58-4.55,10.93-9.07,20.46-12.49,30.36-3.5,10.15-7.21,20.42-6.82,31.42,5.18,3.42,10.32,5.01,15.63,6.27,8.13,1.92,16.32,2.58,24.55,2.58,4.09,0,8.2-.17,12.31-.42.92-.06,1.84-.08,2.76-.08,1.58,0,3.17.05,4.77.05,2,2.75,3.91,5.38,5.83,8.01,5.27,7.22,13.61,11.36,22.29,11.36,2.14,0,4.31-.25,6.45-.78,6.32-1.54,12.57-3.38,18.79-5.31,7.32-2.28,14.69-4.03,22.43-4.06,2.51,0,5.01-.52,7.42-.79,4.12-5.25,6.28-5.53,10.38-10.76.6.97,1.01,1.35.93,1.54-1.19,3.04-.66,1.31-1.9,4.32-4.02,9.73-3.3,11.4,6.87,14.96,3.42,1.2,6.97,2.03,10.43,3.14,6.57,2.11,13.15,4.16,19.65,6.47,14.85,5.28,28.53,12.58,40.29,23.29,3.47,3.16,7.43,5.82,11.37,8.41,5.82,3.83,12.23,5.6,19.18,5.6.5,0,1,0,1.5-.03,8.49-.31,16.49-2.47,24.26-5.68,5.03-2.08,9.87-4.66,14.99-6.47,4.41-1.56,9.04-2.57,13.66-3.38.43-.08.85-.11,1.26-.11,2.51,0,4.68,1.36,6.16,3.68,2.92,4.59,6.13,9.05,8.61,13.87,3.76,7.33,9.29,12.88,15.76,17.74,8.8,6.62,18.85,10.6,30.36,15.18,0-5.74.32-10.09-.08-14.37-.58-6.13-1.36-12.29-2.62-18.31-3.5-16.76-3.62-33.13,4.22-48.88.48-.97.72-2.06,1.14-3.06,3.81-9.09,1.35-17.03-4.55-24.29-2.06-2.53-4.22-4.97-6.39-7.4-5.1-5.72-4.88-11.93-1.31-18.12,2.16-3.75,4.81-7.27,7.57-10.62,11.98-14.54,20.39-30.82,24.58-49.22,3.15-13.79,6.26-27.59,9.43-41.37,2.9-12.59,2.81-25.1,0-37.75-3.62-16.34-5.91-32.85-4.57-49.69.31-3.92.05-7.88.05-12.3-1.65-.22-3.18-.43-4.65-.63-.13-1.29-.11-1.1-.25-2.39,2.14-.75,4.35-1.53,6.67-2.35,6.03-12.06,8-25.36,10.83-38.44,2.09-9.65-.23-17.84-6.48-25.32-3.49-4.17-6.61-8.65-9.69-13.14-3.2-4.68-3.24-9.57.16-14.19,3.23-4.38,6.6-8.66,10.04-12.87,7.62-9.3,14.65-18.98,19.52-30.04.84-1.91,1.27-4.01,2.11-6.75-2.71-.9-4.95-2.11-7.28-2.35-7.95-.81-15.95-1.17-23.91-1.89-8.32-.76-16.65-1.47-24.9-2.69-8.69-1.28-16.9-4.19-24.34-9.02-4.57-2.97-9.2-5.83-13.78-8.79-12.5-8.09-24.97-16.23-37.47-24.32-9.7-6.27-20.31-9.34-31.89-9.68-13.07-.39-26.13-1.39-39.2-1.89-15.54-.59-29.95-4.75-43.68-12.08-18.58-9.91-37.26-19.66-56.25-28.75-17.34-8.3-35.13-15.65-52.76-23.34-1.9-.83-4.04-1.11-5.97-1.62h0Z"/>
  </g>
  <g id="uuid-477e088c-6bb4-4978-ae00-1893cfc1b048" data-name="vlag Image">
    <g>
      <path class="uuid-e21f0e89-7dff-4052-aefc-1a0b8ee15170" d="m355.35,298.54c-3.43-3.77-5.84-6.38-8.2-9.04-2.6-2.92-5.77-4.37-9.7-3.72-7.87,1.31-15.85,2.22-23.54,4.22-3.66.95-7.08,3.65-10.07,6.19-9.47,8-17.56,17.32-25.06,27.15-1.32,1.73-2.58,3.51-3.82,5.3-2.03,2.91-4.71,4.44-8.34,4.06-6.63-.7-13.12.27-19.34,2.34-5.39,1.79-9.98.82-14.37-2.34-1.77-1.27-3.57-2.52-5.18-3.97-5.71-5.14-6.18-7.28-2.71-14.15,2.94-5.83,6.23-11.48,9.19-17.3,3.18-6.27,2.15-10.19-3.69-13.76-2.13-1.3-4.58-2.27-7.01-2.83-20.06-4.59-40.29-5.09-60.62-2.09-1.34.2-2.6,1-4.55,1.78.52,3.38.83,6.56,1.52,9.65,7.73,34.34,15.53,68.66,23.28,102.99.64,2.82,1.34,5.67,1.49,8.54.06,1.07-1.17,2.78-2.2,3.19-1.09.42-3.09.08-3.91-.72-1.5-1.47-2.79-3.38-3.52-5.35-1.62-4.42-2.96-8.96-4.21-13.5-14.45-52.49-29.77-104.71-46.77-156.44-6-18.26-10.66-36.95-16.04-55.42-1.92-6.6-4.17-13.1-6.33-19.87-5.96-1.68-11.04-4.05-13.28-10.26-1.49-4.13-1.78-7.87,1.3-11.16,5.2-5.56,10.41-11.13,16.02-16.27,2-1.83,5.07-3.07,7.8-3.43,5.74-.75,11.58-.84,17.38-1.02,3.21-.1,5.4,1.66,6.94,4.44,3.38,6.13,3.66,10.11.89,19.13,2-.33,3.69-.5,5.32-.89,20.2-4.88,40.66-7.77,61.48-7.54,26.5.29,51.87,5.72,75.95,16.97,4.51,2.11,7.89,4.96,9.61,9.74,2.21,6.14,4.68,12.19,6.92,18.32,1.81,4.95,1.6,9.78-.28,14.84-4.81,12.91-9.24,25.97-13.8,38.98-.58,1.67-1.06,3.37-1.51,4.82,1.81,2.38,3.53,1.09,5.17.65,1.05-.28,2.11-.58,3.11-1.01,13.25-5.67,25.64-2.8,37.44,4.1,18.39,10.76,27.69,27.23,29.15,48.19.34,4.9,1.37,10.07-1.86,16.5Zm-66.93-118.96c0,.29-.08.6,0,.87.06.2.31.34.48.51-.21-.43-.42-.86-.63-1.29-.08-7.23-4.64-12.83-7.01-19.24-2.8-7.57-8.33-11.24-16.23-12.6-17.92-3.07-35.83-5.75-54.09-5.22-16,.47-31.87,1.89-47.4,6.03-8.82,2.35-17.26,5.62-25.21,10.06-6.27,3.5-7.02,5.08-5.39,12.39,5.85,26.18,11.8,52.34,17.84,78.48.54,2.33,1.94,4.46,2.73,6.23,1.48.37,2.18.67,2.88.69,1.45.05,2.91.05,4.34-.1,17.95-1.84,35.48,1.13,52.95,4.64,8.71,1.75,16.7,4.95,22.43,12.26.8,1.02,2.11,1.63,4.08,3.1.21-3.52.25-5.96.53-8.37.21-1.86.89-3.52,3.35-3.68,4.43,3.06,2.14,9.05,5.67,14.1.13-3.15.42-4.94.24-6.69-1.35-13.34-2.78-26.67-4.21-40.01-.27-2.52-.81-5.02-.88-7.54-.03-.84.85-2.2,1.59-2.43.78-.24,2.23.3,2.81.99,3.17,3.79,3.82,8.57,4.47,13.2.95,6.69,1.51,13.44,2.23,20.17,1.44-5.03,1.63-10.08,2.28-15.06.24-1.87,1.57-3.6,2.44-5.48,2.16,1.15,3.6,1.91,5.53,2.93.09-2.58.3-4.72.22-6.85-.4-10.95-2.59-21.56-6.23-31.9-.91-2.59-2.56-5.28-.59-8.17,2.9-.55,4.13,1.31,5.17,3.18,1.05,1.89,1.98,3.88,2.73,5.92.87,2.38,1.57,4.82,2.2,7.28.54,2.1.67,4.32,1.34,6.37.61,1.87-.28,4.4,2.91,5.9.31-1.89,1.08-3.63.75-5.14-1.44-6.72-3.21-13.38-4.82-20.06-2.72-11.32-9.45-18.5-21.13-20.72-1.4-.27-2.85-.76-4.03-1.52-.77-.5-1.1-1.69-1.99-3.16,1.93-.72,3.55-1.87,5.11-1.8,10.69.47,19.97,3.8,25.34,13.94,2.03,3.84,3.75,7.84,5.64,11.75.71,1.48,1.5,2.92,2.25,4.38,1.31-1.74,1.43-3.11,1.07-4.34-1.85-6.26-3.84-12.47-5.73-18.71-.84-2.77-1.81-5.53-2.25-8.37-.17-1.07.8-2.53,1.66-3.43.28-.3,2.21.31,2.73,1,1.73,2.3,3.16,4.82,4.7,7.27,1.72,2.74,3.43,5.48,5.15,8.22Zm59.88,98.46c-3.38-12.42-8.65-21.15-17.25-27.58-5.2-3.89-10.93-7.08-16.46-10.53-4.63-2.89-9.55-3.38-14.53-1.09-5.58,2.57-10.97,5.58-16.6,8-7.23,3.11-11.3,8.6-13.6,15.89-2.39,7.58-4.97,15.12-7.75,22.57-3.93,10.54-5.82,21.96-13.99,30.7,8.31-1.64,16.01-3.16,24.23-4.78,2.08-3.7,4.12-7.95,6.73-11.82,3.83-5.67,7.8-11.29,12.19-16.53,8.67-10.33,20.03-14.81,33.5-15.23,6.23-.19,11.35,1.31,16.07,5.09,1.84,1.47,3.83,2.75,7.45,5.31Zm-108.51,30.56c1.17.07,1.66.24,1.83.08,1.16-1.1,2.32-2.22,3.29-3.47.17-.22-.41-1.45-.88-1.66-2.33-1-2.88,1.15-3.81,2.45-.35.49-.23,1.3-.42,2.59Z"/>
      <path class="uuid-e21f0e89-7dff-4052-aefc-1a0b8ee15170" d="m248.27,199.69c4.14-1.51,6.02.98,7.17,3.38,3.28,6.82,7.18,13.71,3.5,21.84-1.24-.5-2.3-.61-2.44-1.04-2.77-7.95-5.44-15.93-8.22-24.18Z"/>
      <path class="uuid-e21f0e89-7dff-4052-aefc-1a0b8ee15170" d="m238.08,248.14c.76-1.37,1.14-2.4,1.84-3.14.33-.35,1.52-.43,1.88-.12,2.29,1.94,2.85,6.02,1.08,8.76-.3.46-2.51.46-2.7.09-.93-1.82-1.48-3.83-2.1-5.58Z"/>
      <path class="uuid-e21f0e89-7dff-4052-aefc-1a0b8ee15170" d="m252.25,186.63c-3.63,1.77-6.29.55-8.67-1.76-.4-.39-.54-1.38-.35-1.93.18-.52.95-1.18,1.48-1.19,3.35-.06,6.24.74,7.55,4.88Z"/>
      <path class="uuid-e21f0e89-7dff-4052-aefc-1a0b8ee15170" d="m263.47,155.46c1.55.79,2.6,1.13,3.38,1.79.44.37.8,1.47.56,1.88-.46.79-1.3,1.7-2.11,1.86-.93.18-2.2-.15-2.98-.72-.74-.53-1.65-1.97-1.4-2.47.49-1,1.73-1.64,2.55-2.33Z"/>
    </g>
  </g>
  <g id="uuid-a624421a-0d76-47ce-ac47-f2fcd67cda09" data-name="boekje + Layer 16 Image">
    <g>
      <path class="uuid-e21f0e89-7dff-4052-aefc-1a0b8ee15170" d="m139.29,447.86l.9-1.66,3.99,1.02c4.38,1.12,8.23,1.46,11.56,1.01,3.33-.44,6.19-1.52,8.58-3.25,2.39-1.72,4.37-3.91,5.93-6.57,1.56-2.66,2.76-5.64,3.61-8.96.89-3.49.68-6.3-.63-8.44-1.32-2.13-3.99-3.71-8.01-4.74-1.72-.44-3.15-.57-4.3-.39-1.15.18-2.17.74-3.08,1.67-.9.94-1.88,2.34-2.92,4.22l-22.96,41.04c-.94,1.71-1.58,3.11-1.92,4.19-.34,1.08-.14,1.98.59,2.7.73.72,2.27,1.42,4.62,2.08l-.81,1.68c-1.33-.47-2.97-.96-4.92-1.49-1.95-.53-3.95-1.06-6.02-1.59-2.31-.59-4.5-1.13-6.58-1.63-2.08-.5-3.75-.85-5.03-1.05l.81-1.68c2.04.4,3.67.56,4.89.49,1.21-.07,2.28-.55,3.21-1.45.92-.9,1.92-2.35,3-4.34l22.96-41.04c1.02-1.76,1.65-3.19,1.9-4.29.25-1.1,0-2.02-.76-2.75-.76-.73-2.23-1.38-4.42-1.93l.9-1.66c1.17.36,2.78.84,4.84,1.42,2.06.59,4.06,1.13,6.01,1.63,2.13.54,4.28,1.06,6.46,1.55,2.17.49,4.36,1.02,6.55,1.58,5.98,1.53,10.1,3.89,12.37,7.08,2.27,3.2,2.9,6.81,1.87,10.83-1.18,4.62-3.64,8.38-7.38,11.31-3.74,2.92-8.4,4.79-13.96,5.61-5.57.82-11.67.38-18.29-1.31l-3.55-.91Z"/>
      <path class="uuid-e21f0e89-7dff-4052-aefc-1a0b8ee15170" d="m191.26,447.95c2.26-3.3,2.35-5.24.3-5.82-1.35-.38-2.76.02-4.24,1.19-1.47,1.17-3.22,3.13-5.25,5.85l-2.15,2.92-1.68-.47,4.1-5.8c1.57-2.22,3.16-3.81,4.76-4.76,1.6-.95,3.16-1.48,4.68-1.59,1.52-.11,2.87,0,4.05.33,1.88.53,3.16,1.3,3.83,2.31.67,1.01.92,2.16.75,3.44-.17,1.28-.6,2.61-1.3,3.96-.7,1.36-1.47,2.65-2.32,3.87l-16.93,24.09c-1.07,1.54-1.63,2.83-1.7,3.85-.07,1.03.46,1.7,1.58,2.01,1.18.33,2.47,0,3.9-1s3.26-3.02,5.51-6.07l2.15-2.92,1.68.47-4.1,5.8c-1.47,2.06-2.97,3.59-4.52,4.59-1.55.99-3.08,1.58-4.58,1.76-1.51.18-2.94.08-4.29-.3-2.53-.71-4.07-1.77-4.62-3.2-.55-1.42-.45-3.04.31-4.86.76-1.82,1.82-3.68,3.18-5.58l16.93-24.09Zm9.33-22.79c.72-1.45,1.87-2.55,3.45-3.32,1.58-.76,3.1-.94,4.57-.53,1.53.43,2.56,1.32,3.1,2.68.54,1.36.45,2.76-.27,4.21-.72,1.45-1.87,2.55-3.45,3.32-1.58.76-3.13.93-4.66.5-1.47-.41-2.48-1.3-3.01-2.65-.54-1.36-.45-2.76.27-4.2Z"/>
      <path class="uuid-e21f0e89-7dff-4052-aefc-1a0b8ee15170" d="m203.86,492.39l-7.64-2.28,21.77-34.52c.44-.63.86-1.35,1.26-2.16.4-.8.57-1.55.52-2.23-.05-.68-.55-1.17-1.48-1.45-1.29-.38-2.62-.09-3.99.87-1.37.96-3.19,2.99-5.44,6.07l-2.11,2.91-1.67-.5,4.11-5.75c2.39-3.3,4.71-5.25,6.96-5.86,2.25-.6,4.31-.62,6.19-.07,1.76.52,2.92,1.29,3.48,2.28.56,1,.71,2.11.44,3.33-.27,1.23-.75,2.52-1.44,3.87s-1.42,2.68-2.19,3.98l-18.77,31.5Zm9.49-17.06c3.62-4.66,6.93-8.48,9.93-11.48,3-2.99,5.76-5.31,8.29-6.94,2.53-1.64,4.92-2.64,7.17-3.02,2.25-.38,4.43-.26,6.53.37,2.75.82,4.44,2.04,5.07,3.67.63,1.62.59,3.43-.13,5.41-.72,1.98-1.75,3.96-3.1,5.91l-16.17,23.09c-1,1.42-1.61,2.66-1.82,3.71-.22,1.05.32,1.77,1.6,2.15,1.11.33,2.39.04,3.84-.86,1.45-.91,3.31-2.93,5.59-6.08l2.11-2.91,1.67.5-4.11,5.75c-1.55,2.21-3.12,3.79-4.71,4.71-1.58.93-3.11,1.45-4.57,1.55-1.46.1-2.81-.03-4.04-.39-1.4-.42-2.49-1-3.26-1.74-.77-.74-1.27-1.56-1.51-2.46-.33-1.25-.12-2.68.62-4.31.74-1.63,1.77-3.36,3.08-5.2l15.83-22.62c.54-.73,1.08-1.64,1.62-2.72.54-1.08.81-2.12.79-3.11-.02-.99-.74-1.7-2.14-2.12-1.41-.42-3.08-.25-5.03.51-1.95.76-4.11,2.01-6.48,3.76-2.37,1.75-4.84,3.94-7.41,6.58-2.57,2.64-5.17,5.63-7.79,8.96s-5.18,6.95-7.68,10.85l6.21-11.53Z"/>
      <path class="uuid-e21f0e89-7dff-4052-aefc-1a0b8ee15170" d="m249.37,504.7c.39.38.84.73,1.35,1.05.51.32,1.32.65,2.42,1,2.56.81,4.92.7,7.06-.32,2.15-1.02,3.68-2.99,4.59-5.9.57-1.81.8-3.7.69-5.69-.11-1.99-.65-4.41-1.6-7.27-.75-2.29-1.44-4.6-2.04-6.93-.61-2.34-.49-4.84.35-7.52.79-2.5,2.08-4.48,3.88-5.93s3.9-2.38,6.3-2.77c2.4-.4,4.82-.21,7.27.56,1.69.53,3.29,1.26,4.79,2.18,1.5.92,2.62,2.09,3.36,3.51.74,1.42.78,3.17.12,5.27-.17.52-.49,1.11-.98,1.75-.49.65-1.11,1.14-1.86,1.48-.75.34-1.62.36-2.61.04-.93-.29-1.64-.88-2.13-1.77-.49-.89-.56-1.89-.21-3,.33-1.05.86-1.99,1.6-2.81.74-.82,1.63-1.58,2.69-2.28-.89-1.05-2.24-1.86-4.04-2.42-2.16-.68-4.19-.52-6.11.48-1.92,1-3.28,2.81-4.11,5.43-.42,1.34-.59,2.58-.5,3.73.09,1.15.35,2.4.79,3.75.44,1.35.94,3.05,1.52,5.09.76,2.67,1.31,5.18,1.66,7.53.35,2.35.17,4.66-.55,6.93-.84,2.68-2.28,4.84-4.29,6.48-2.02,1.64-4.35,2.68-6.99,3.13s-5.33.25-8.07-.62c-1.98-.62-3.78-1.51-5.41-2.66-1.62-1.15-2.8-2.53-3.55-4.14-.74-1.61-.78-3.46-.12-5.56.26-.82.77-1.6,1.55-2.34.78-.75,1.81-.92,3.09-.52,1.4.44,2.21,1.32,2.43,2.64.22,1.32.12,2.68-.32,4.08-.29.93-.63,1.74-1,2.42-.38.68-.72,1.33-1.04,1.93Z"/>
    </g>
  </g>
</svg>