<?xml version="1.0" encoding="UTF-8"?>
<svg id="uuid-ddf396b7-c224-4c2a-bd09-bf6489192df3" data-name="Layer 2" xmlns="http://www.w3.org/2000/svg" viewBox="0 0 383.28 491.18">
  <defs>
    <style>
      .uuid-b3bb6901-d6a9-4b31-b037-206c7d497288 {
        fill: #fff;
      }

      .uuid-d56ee0f1-228d-476f-b448-606e2757b13d {
        fill: #ff203e;
      }
    </style>
  </defs>
  <g id="uuid-f3ed066a-1872-4bba-9abe-6423dd623c73" data-name="achtergronden + Layer 15 Image">
    <path class="uuid-d56ee0f1-228d-476f-b448-606e2757b13d" d="m146.51,438.19c-2.41,0-2.68,2.12-3.38,3.63-1.49,3.24-2.75,6.59-4.3,10.38-3.56-.85-6.69-1.5-9.77-2.36-5.94-1.66-11.88-3.35-17.78-5.17-11.25-3.47-21.34-1.55-30.87,5.45-11.12,8.17-22.56,15.91-33.93,23.73-6.58,4.53-13.22,8.98-19.98,13.23-5.04,3.17-10.67,4.62-16.65,3.93-5.74-.66-7.59-2.76-7.7-8.4-.04-2.17,0-4.36.24-6.52,1.1-10.09,2.53-20.14,3.34-30.25.46-5.74.28-11.58-.2-17.33-1.61-19.16-3.53-38.29-5.27-57.44-1.35-14.93,2.49-28.82,9.06-42.03,3.39-6.82,6.89-13.64,11.02-20.02,7.63-11.82,7.54-23.29-.94-34.35-5.62-7.32-7.75-15.42-7.6-24.4.08-4.72-.11-9.44-.03-14.15.35-20.15-4.39-39.6-8.12-59.19-1.22-6.41-2.3-12.85-3.36-19.29-.92-5.61.29-10.78,3.34-15.6,2.72-4.29,5.23-8.72,7.89-13.05,4.57-7.43,6.12-15.2,4.34-23.95-2.39-11.72-4.22-23.57-5.91-35.41-1.13-7.89-1.67-15.88-2.29-23.83-.13-1.69.52-3.44.9-5.63,2.51-.15,4.62-.54,6.68-.35,6.51.6,13.07,1.04,19.48,2.24,12.46,2.33,23.2,7.96,32.04,17.29,8.51,8.97,10.8,9.5,21.72,3.93,10.34-5.27,20.32-11.26,30.34-17.13,5.99-3.51,12.13-6.62,18.89-8.25,2.75-.67,5.63-.76,8.65-1.13,2.05,3,3.85,5.65,6.25,9.17,1.02-3.63-.45-5.96-1.12-8.4-.76-2.74-1.31-5.55-1.88-8.04,12.79-10.38,30.53-15.38,45.15-12.92,3.22.54,6.46,1.13,9.58,2.08,8.19,2.49,15.76,1.27,22.99-3.11,5.28-3.2,10.63-6.28,15.94-9.43,6.39-3.79,13.33-5.48,20.71-6.05,5.67-.44,9.97,1.58,13.16,6.01,2.11,2.94,4.11,6.01,5.76,9.23,8.95,17.45,17.81,34.92,20.76,54.69.45,3.03,2.34,6.08,4.24,8.61,5.46,7.25,11.34,14.18,16.9,21.35,3.33,4.3,6.65,8.64,9.47,13.28,3.35,5.51,4.19,11.32,1.49,17.66-3.69,8.66-6.35,17.78-10.29,26.31-4.49,9.73-5.61,19.37-2.38,29.57,1.31,4.15,2.64,8.31,3.56,12.55.58,2.67,2.17,4.98,1.44,8.26-.46,2.08,2.46,4.71,3.13,7.29.82,3.13.9,6.46,1.23,9.71.3,2.89.6,5.78.74,8.67.14,2.9.26,5.82.07,8.71-.62,9.52,2.57,17.85,7.79,25.54,4.48,6.61,9.27,13.02,13.66,19.68,9.39,14.22,9.74,19.05,2.65,34.38-2.13,4.61-4.59,9.06-6.98,13.54-2.21,4.15-4.52,8.24-7.02,12.78,1.89,1.9,3.5,3.81,5.4,5.36,3.94,3.21,8.06,6.19,12.05,9.34,10.36,8.18,15.25,19.13,16.1,32.07.33,5.07.44,10.16.83,15.22.89,11.57,1.6,23.17,4.53,34.49.52,2,.6,4.12.99,6.91-2.36,0-4.15.38-5.69-.08-3.11-.93-6.1-2.3-9.13-3.53-5.04-2.05-10.02-4.28-15.12-6.19-11.27-4.23-22.66-4.73-34.13-.7-4.45,1.56-8.89,3.22-13.45,4.38-5.79,1.46-8.9-.23-11.13-5.76-1.08-2.67-1.7-5.53-2.52-8.31-1.35-4.61-3.42-8.84-7.06-12.06-10.92-9.63-17.45-8.22-26.36-2.13-2.39,1.63-4.55,3.62-6.74,5.51-4.68,4.03-9.46,7.95-13.94,12.2-12.97,12.32-28.28,18.6-46.21,18.98-11.25.24-22.48,1.27-33.73,1.63-4.27.14-8.75.29-13.07-2.59.42-4.77.85-9.69,1.29-14.62,2.27-.81,1.95-2.83,2.18-4.6.28-.18.61-.32.82-.56.13-.15.08-.46.12-.7-.21.51-.42,1.02-.63,1.54-2.65.55-2.7,2.41-2.28,4.5Z"/>
  </g>
  <g id="uuid-6d607338-5534-40d6-8566-51b07263eae9" data-name="tijdlijn Image">
    <g>
      <path class="uuid-b3bb6901-d6a9-4b31-b037-206c7d497288" d="m137.88,116.97c10.01,8.9,18.71,16.64,27.6,24.54-.86,1.74-2.62.87-3.78.29-3.8-1.87-7.45-4.04-11.17-6.06-1.66-.9-3.35-1.73-5.95-3.06-.03,2.68-.71,4.83.07,6.11,1.43,2.36,3.71,4.21,7.12,7.86-4.11-1.21-6.14-1.93-8.24-2.38-1.43-.3-3.2,2.2-2.4,3.39,1.07,1.58,2.24,3.24,3.75,4.35,3.33,2.44,6.9,4.56,11.34,7.43-6.37.39-9.95-4.03-14.78-4.46-2.02,2.23-1.24,4.37.59,5.98,2.66,2.34,5.63,4.34,8.51,6.53-.76.45-4.23,1.34-5.42,1.15.25,1.35.19,2.62.71,3.56,2.58,4.65,6.22,8.36,10.74,11.19,2.45,1.54,4.9,3.08,7.27,4.57.37,4.17-.75,7.43-3.62,10.76-2.49,0-5.37.1-8.25-.02-11.91-.48-21.6,4.18-29.64,12.68-7.82,8.28-12.48,18.25-15.48,29.09-.66,2.38-.37,4.65,1.49,6.33,3.63,3.26,7.12,6.79,11.18,9.43,14.29,9.31,30.23,13.67,47.18,14.4,5.21.22,10.47.05,15.67-.37,1.53-.12,2.95-1.71,5.16-3.08-6.83-2.64-13.26.77-19.82-2.49,4-2.82,8.05-1.53,11.62-2.31,3.44-.75,6.87-1.6,11.64-2.73-1.87-1.61-2.59-2.69-3.54-2.94-1.68-.44-3.5-.38-5.62-.56,2.32-3.85,7.46-2.32,8.93-6.2-1.48-2.35-3.54-1.41-5.33-1.48-1.63-.06-3.27.14-4.9.05-1.78-.1-3.55-.4-6.25-.72,5.71-4.54,13.21-.69,17.85-5.87-2.98-4.35-7.94.07-11.11-3.68,3.53-1.41,6.9-2.75,10.45-4.17q-2.58-2.83-7.51-3.85c.67-2.85,3.7-2.2,5.79-3.99,1.27-4.66-1.65-8.34-4.36-11.88-1.76-2.3-4.16-4.12-6.36-6.06-1.75-1.55-3.45-3.1-3.27-5.69.19-2.85,1.69-4.84,4.74-6.32,12.09,4.82,21.67-.73,30.56-8.83,6.64-6.05,11.57-13.25,15.13-21.45,1.29-2.96,2.58-5.92,3.87-8.9h4.83c.38.91.94,1.59.8,2.03-3.75,11.67-9.83,22.02-18.24,30.91-6.2,6.56-13.84,10.8-22.64,12.95-1.79.44-3.54,1.04-6.08,1.79,1.34,2.62,2.32,4.56,3.33,6.48,2.28,4.32,4.92,8.49,6.8,12.98,4.03,9.6,5.15,19.57,1.96,29.65-1.67,5.27-3.44,10.58-5.91,15.5-2.9,5.78-7.6,9.82-14.48,10.27-24.22,1.58-46.84-3.24-66.73-17.69-4.69-3.41-8.58-7.97-12.59-12.24-3.08-3.28-3.99-7.01-2.51-11.71,2.65-8.41,5.3-16.78,9.18-24.74,6.8-13.92,17.77-22.22,33-24.98,2.18-.39,4.33-.93,6.12-1.32,1.27-2.41-.08-3.57-1.03-4.83-1.78-2.34-3.66-4.6-5.38-6.98-4.65-6.48-7.63-13.67-8.65-21.59-1.58-12.25.76-23.84,6.03-36.64Z"/>
      <path class="uuid-b3bb6901-d6a9-4b31-b037-206c7d497288" d="m140.68,108.67c1.72-2.55,3.36-4.94,4.95-7.37,3.54-5.37,8.37-7.39,14.91-7.43,12.34-.09,23.88,2.96,35.13,7.42,11.23,4.45,21.89,10.11,32.15,16.48,5.57,3.45,10.61,7.54,14.9,12.55,2.69,3.15,3.97,6.64,3.71,10.76-.35,5.46-2.87,8.68-8.49,8.68-6.47,0-13.03-.63-19.4-1.79-24.06-4.35-46.24-13.41-66.3-27.44-4.24-2.97-8.77-5.74-11.56-11.86Zm23.77-1.35c12.27,16.85,50.03,32.52,66.36,27.51-1.96-4.43-5.66-7.08-9.32-9.55-13.1-8.87-27.52-14.78-42.94-18.24-2.85-.64-5.78-1.22-8.68-1.29-1.72-.04-3.47.97-5.42,1.57Z"/>
      <path class="uuid-b3bb6901-d6a9-4b31-b037-206c7d497288" d="m122.04,227.64c2.62,1.65,5.25,3.3,7.73,4.85,2.32-1.23,1.73-2.85,1.13-4.33-1.46-3.6-3.13-7.12-4.52-10.75-.64-1.68,0-3.18,1.7-4.07,1.72-.9,3.21-.38,4.35.97,1.05,1.23,1.91,2.63,2.79,3.99,2.92,4.52,7.63,6.02,12.46,6.71,1.96.28,4.59-.8,6.17-2.14,2.17-1.84,4.14-4.29,5.29-6.87,3.44-7.71,6.64-15.53,9.54-23.46,1.71-4.68.93-6.12-3.25-8.95-3.47-2.35-7.52-3.93-10.03-7.83.78-2.73,1.57-5.48,2.38-8.31,1.9-.75,3.69-1.46,5.88-2.33,1.65,1.34,3.85,2.44,5.04,4.2,4.51,6.71,11.2,8.52,18.62,8.88,3.25.16,6.52.07,9.78.12,1.95.03,3.91.05,5.86.17,1.73.11,3.27.82,3.71,2.59.52,2.1-.39,3.98-2.21,4.99-1.35.75-3.06,1.24-4.6,1.2-4.87-.11-9.74-.52-14.61-.81-2.38-.14-3.57,1.16-4.08,3.31l.22-.22c-5.6,1.23-8.98,4.83-10.96,10.05-2.42,6.37-5.01,12.67-7.46,19.03-.58,1.5-1.04,3.09-1.27,4.68-.78,5.39.32,7.53,5.18,10.24,1.4.78,2.88,1.4,4.8,2.32-.54,2.26-.39,4.93-1.65,6.35-4.35,4.9-7.34,10.27-8.51,16.75-.46,2.53-2.82,3.55-5.18,3.67-1.92.09-3.91-.21-5.8-.65-12.83-2.99-24.64-8.14-34.68-16.87-.43-.38-.54-1.12-.85-1.82,1.69-1.76,2.64.25,3.78.83,1.44.73,2.7,1.96,4.2,2.4,1.39.42,3,.09,5.01.09-1.48-6.45-7.78-8.31-10.43-13.59h5.14c1.56-2.1.11-3.8-.38-5.59,0,0-.24.21-.24.21Zm75.08-44.92c-7.29-3.83-7.99-3.84-11.3-.05q7.13,4.02,11.3.05Zm-66,56.9c-1.13-1.3-1.83-2.3-2.73-3.05-.35-.29-1.55-.21-1.69.06-.39.74-.77,1.81-.5,2.48.3.75,1.26,1.51,2.06,1.69.65.14,1.49-.57,2.87-1.18Z"/>
      <path class="uuid-b3bb6901-d6a9-4b31-b037-206c7d497288" d="m91.87,248.68c4.96,5.18,9.44,10.78,14.86,15.25,5.48,4.53,11.61,8.48,17.97,11.68,6.05,3.05,12.63,5.32,19.22,6.98,6.91,1.73,14.08,2.95,21.19,3.24,7.05.29,14.16-.86,21.09-1.36,1.69,3.47-.2,5.44-2.19,7.08-2.83,2.33-6.29,3.19-9.91,3.74-8.83,1.35-17.67,1.05-26.34-.48-16.52-2.91-32.13-8.52-46.07-18.1-5.39-3.71-10.47-7.78-14.14-13.35-1.5-2.27-2.49-4.64-1.83-7.35.79-3.29,2.39-5.99,6.16-7.32Z"/>
      <path class="uuid-b3bb6901-d6a9-4b31-b037-206c7d497288" d="m172.59,256.23c-.3.44-.53,1.15-.91,1.24-.47.11-1.07-.3-1.61-.48.38-.6.76-1.21,1.15-1.81.46.35.92.69,1.38,1.05Z"/>
      <path class="uuid-b3bb6901-d6a9-4b31-b037-206c7d497288" d="m159.94,148.68c.23.21.45.42.68.64-.42.24-.82.55-1.27.7-.15.05-.43-.34-.66-.53.42-.27.84-.53,1.26-.8Z"/>
      <path class="uuid-b3bb6901-d6a9-4b31-b037-206c7d497288" d="m181.15,189.76c.38.27.77.54,1.15.82-.15-.12-.32-.23-.45-.37-.18-.21-.32-.44-.48-.66,0,0-.22.22-.22.22Z"/>
      <path class="uuid-b3bb6901-d6a9-4b31-b037-206c7d497288" d="m122.27,227.43c-.28-.49-.58-.97-.81-1.49-.04-.08.28-.32.43-.49.06.72.12,1.44.16,2.18-.02.02.22-.2.22-.2Z"/>
    </g>
  </g>
  <g id="uuid-6ad2cce0-9380-4fe1-bef7-9d1d3994d4ef" data-name="boekje + Layer 16 Image">
    <g>
      <path class="uuid-b3bb6901-d6a9-4b31-b037-206c7d497288" d="m93.06,347.52c1.37-.29,2.48-.09,3.31.61.83.7,1.38,1.64,1.63,2.84.29,1.38.15,2.7-.42,3.98-.57,1.28-1.38,2.4-2.42,3.37-1.29,1.27-3.06,2.41-5.32,3.42-2.25,1.01-4.99,1.85-8.22,2.54-2.51.53-5.03.93-7.57,1.18-2.54.26-5.04.46-7.5.61-2.47.15-4.89.33-7.28.56-2.39.23-4.72.58-6.99,1.06-1.85.39-3.73.88-5.63,1.48-1.9.59-3.26,1.32-4.08,2.18.6.5,1.16,1.21,1.67,2.13.51.92.86,1.83,1.05,2.73.25,1.2.14,2.44-.33,3.72-.48,1.29-1.49,2.1-3.04,2.42-1.31.28-2.39.07-3.22-.63-.83-.7-1.39-1.7-1.67-3.02-.25-1.19-.19-2.5.2-3.93.38-1.42,1.41-2.78,3.07-4.07,1.23-.95,2.61-1.74,4.13-2.38,1.52-.63,2.97-1.13,4.37-1.49,1.39-.36,2.41-.61,3.07-.75,3.58-.76,7-1.27,10.26-1.52,3.25-.25,6.5-.5,9.72-.75,3.23-.25,6.57-.74,10.04-1.47,2.75-.58,5.03-1.24,6.84-1.97s3.38-1.67,4.69-2.82l.04.65c-.72-.47-1.47-1.11-2.23-1.91-.76-.81-1.27-1.78-1.51-2.91-.25-1.19-.13-2.39.36-3.59.5-1.2,1.49-1.96,2.98-2.27Zm-28.97,17.94c1.1-.11,2.07-.19,2.9-.24.83-.05,1.66-.1,2.5-.15.83-.05,1.8-.13,2.9-.24l-2.74,53.31c-.12,2.4.01,4.2.39,5.39.38,1.2,1.2,1.92,2.47,2.15,1.27.23,3.16.11,5.68-.36l.02,1.87c-1.58.21-3.57.55-5.96,1.03-2.4.48-4.88.99-7.45,1.53-2.57.54-5.03,1.08-7.38,1.61-2.35.53-4.24,1.01-5.64,1.43l-.02-1.87c2.48-.65,4.37-1.38,5.67-2.19,1.29-.8,2.22-1.91,2.76-3.3.55-1.4.92-3.24,1.12-5.53l2.78-54.44Z"/>
      <path class="uuid-b3bb6901-d6a9-4b31-b037-206c7d497288" d="m101.13,382.79c.58-3.96-.18-5.74-2.28-5.36-1.38.25-2.48,1.23-3.28,2.93-.81,1.7-1.53,4.22-2.16,7.57l-.65,3.57-1.71.31,1.14-7.01c.44-2.69,1.17-4.81,2.19-6.36,1.02-1.55,2.19-2.71,3.51-3.48,1.32-.77,2.58-1.26,3.78-1.48,1.92-.35,3.41-.22,4.45.4,1.04.62,1.77,1.54,2.18,2.77.41,1.23.6,2.61.57,4.13-.03,1.53-.16,3.03-.39,4.5l-4.65,29.07c-.28,1.85-.23,3.25.16,4.21.39.95,1.16,1.33,2.3,1.12,1.2-.22,2.22-1.09,3.06-2.61.84-1.52,1.6-4.14,2.29-7.87l.65-3.57,1.71-.31-1.14,7.01c-.41,2.5-1.1,4.53-2.05,6.1-.96,1.57-2.07,2.77-3.35,3.59-1.28.82-2.61,1.36-3.99,1.61-2.58.47-4.44.19-5.56-.85-1.12-1.04-1.74-2.54-1.85-4.5-.11-1.97.02-4.1.41-6.41l4.65-29.07Zm-1.61-24.57c.01-1.62.56-3.11,1.65-4.49,1.08-1.38,2.38-2.2,3.88-2.48,1.56-.29,2.88.06,3.96,1.04,1.08.98,1.61,2.28,1.6,3.9-.02,1.62-.56,3.12-1.65,4.49-1.08,1.38-2.41,2.21-3.97,2.5-1.5.27-2.79-.08-3.87-1.06-1.08-.98-1.61-2.28-1.6-3.9Z"/>
      <path class="uuid-b3bb6901-d6a9-4b31-b037-206c7d497288" d="m111.47,438.2l.13-1.42c3.76-.82,6.7-2.98,8.8-6.46,2.11-3.48,3.37-7.99,3.8-13.51l4.13-38.79c.26-2.15.21-3.63-.15-4.44-.35-.81-1.07-1.12-2.16-.94-1.14.19-2.16,1.06-3.04,2.6-.89,1.54-1.64,4.13-2.26,7.77l-.61,3.54-1.72.29,1.05-6.96c.58-3.88,1.76-6.62,3.54-8.22s3.77-2.59,6-2.97c2.53-.43,4.31-.09,5.33,1,1.02,1.1,1.59,2.63,1.7,4.59.11,1.96.05,4.05-.2,6.26l-2.79,25.84c-.21,3.13-.65,6.15-1.31,9.05-.66,2.9-1.56,5.59-2.72,8.08-1.16,2.49-2.59,4.74-4.29,6.76-1.65,1.95-3.61,3.64-5.88,5.08-2.27,1.44-4.72,2.38-7.37,2.83Zm15.9-84.08c-.26-1.57.11-3.22,1.11-4.97,1.01-1.75,2.47-2.79,4.4-3.11,1.38-.23,2.57.01,3.56.75.99.73,1.6,1.76,1.82,3.08.27,1.63-.11,3.3-1.15,5.03-1.04,1.73-2.52,2.75-4.45,3.08-1.33.22-2.48-.03-3.47-.76-.99-.73-1.6-1.76-1.82-3.08Z"/>
      <path class="uuid-b3bb6901-d6a9-4b31-b037-206c7d497288" d="m158.52,411.24c1.51-.23,3.08-1.38,4.71-3.45,1.63-2.07,3.2-4.78,4.7-8.12,1.5-3.35,2.79-7.09,3.86-11.24,1.07-4.15,1.77-8.38,2.11-12.69l.12,9.99c-1.41,6.58-3,11.91-4.76,16.01-1.76,4.1-3.7,7.16-5.84,9.18-2.13,2.02-4.5,3.23-7.1,3.62-1.87.28-3.59.09-5.14-.57-1.55-.66-2.85-1.81-3.9-3.44-1.05-1.63-1.78-3.81-2.19-6.53-.44-2.9-.45-6.09-.02-9.59.43-3.49,1.27-7,2.53-10.53,1.26-3.53,2.91-6.82,4.94-9.88,2.04-3.06,4.41-5.63,7.13-7.7,2.71-2.08,5.73-3.37,9.05-3.87,1.39-.21,2.77.12,4.13,1,1.37.87,2.27,2.36,2.71,4.45l-.45,1.92c-.57-2.14-1.41-3.6-2.52-4.39-1.11-.79-2.27-1.09-3.47-.91-2.29.35-4.4,1.47-6.3,3.36-1.91,1.9-3.54,4.27-4.9,7.13-1.36,2.86-2.46,5.98-3.31,9.35-.85,3.37-1.39,6.76-1.61,10.16-.23,3.4-.12,6.55.32,9.45.4,2.66,1.03,4.58,1.89,5.78.86,1.2,1.96,1.7,3.28,1.5Zm19.37-9.14c-.21,1.45-.18,2.76.08,3.93.27,1.16,1.07,1.64,2.4,1.44,1.21-.18,2.22-1.03,3.04-2.54.82-1.51,1.54-4.08,2.17-7.7l.58-3.52,1.72-.26-1.08,6.93c-.36,2.53-1.04,4.56-2.04,6.1-1,1.54-2.13,2.68-3.37,3.43-1.25.75-2.47,1.21-3.68,1.39-3.62.55-5.79-.88-6.49-4.3-.21-.96-.3-2.09-.28-3.39.02-1.3.12-2.74.32-4.31l5.62-50.98c.23-2.13-.09-3.63-.96-4.49-.87-.86-2.79-1.06-5.75-.61l.26-1.98c3.31-.56,6.19-1.35,8.63-2.37,2.44-1.02,4.72-2.27,6.84-3.77l-8.02,67Z"/>
      <path class="uuid-b3bb6901-d6a9-4b31-b037-206c7d497288" d="m202.69,398.61c-.25,1.82-.22,3.22.1,4.19.32.97,1.05,1.38,2.2,1.23,1.21-.16,2.25-.99,3.13-2.5.88-1.5,1.69-4.06,2.44-7.67l.73-3.52,1.73-.23-1.39,6.93c-.48,2.41-1.19,4.36-2.13,5.88-.94,1.51-2.03,2.66-3.28,3.44-1.25.78-2.67,1.28-4.24,1.49-2,.27-3.52.08-4.56-.55-1.04-.63-1.75-1.57-2.13-2.81s-.53-2.62-.46-4.14c.07-1.52.23-3.03.46-4.54l8.25-51.1c.33-2.14.07-3.64-.79-4.52-.86-.87-2.77-1.11-5.73-.71l.38-1.99c3.32-.5,6.21-1.24,8.67-2.22,2.46-.98,4.79-2.2,7-3.66l-10.38,67.01Z"/>
      <path class="uuid-b3bb6901-d6a9-4b31-b037-206c7d497288" d="m229.13,363.48c.83-3.91.18-5.74-1.94-5.49-1.4.17-2.55,1.07-3.46,2.72-.91,1.65-1.79,4.12-2.62,7.42l-.87,3.52-1.73.21,1.58-6.92c.61-2.66,1.47-4.73,2.58-6.21,1.12-1.48,2.35-2.57,3.72-3.25,1.36-.68,2.65-1.1,3.87-1.24,1.94-.23,3.41,0,4.42.68,1,.68,1.67,1.65,2,2.9.33,1.25.44,2.64.31,4.16-.13,1.52-.35,3.01-.67,4.46l-6.46,28.72c-.4,1.83-.43,3.23-.1,4.21.33.98,1.07,1.4,2.22,1.26,1.21-.14,2.29-.95,3.22-2.41.93-1.46,1.86-4.03,2.77-7.71l.87-3.52,1.73-.21-1.58,6.92c-.57,2.47-1.38,4.45-2.43,5.96-1.05,1.51-2.24,2.63-3.57,3.38-1.33.74-2.69,1.2-4.08,1.36-2.61.31-4.44-.09-5.49-1.19s-1.58-2.64-1.56-4.61c.01-1.97.28-4.09.81-6.37l6.46-28.72Zm-.06-24.63c.12-1.61.76-3.07,1.92-4.38,1.17-1.31,2.51-2.05,4.03-2.23,1.58-.19,2.87.24,3.89,1.29,1.02,1.05,1.47,2.38,1.35,3.99-.12,1.61-.76,3.07-1.92,4.38-1.17,1.31-2.54,2.05-4.12,2.24-1.52.18-2.78-.25-3.8-1.3-1.02-1.05-1.47-2.38-1.35-3.99Z"/>
      <path class="uuid-b3bb6901-d6a9-4b31-b037-206c7d497288" d="m235.83,419.38l.23-1.4c3.81-.57,6.88-2.52,9.22-5.86,2.33-3.34,3.9-7.75,4.7-13.23l6.72-38.43c.4-2.13.45-3.6.15-4.43-.3-.83-.99-1.19-2.09-1.08-1.15.12-2.23.92-3.21,2.4-.99,1.48-1.91,4.01-2.78,7.6l-.84,3.49-1.73.17,1.52-6.88c.84-3.83,2.2-6.48,4.08-7.96,1.88-1.48,3.94-2.33,6.19-2.56,2.55-.26,4.3.2,5.25,1.36.95,1.16,1.41,2.73,1.39,4.69-.02,1.97-.22,4.04-.61,6.23l-4.51,25.59c-.42,3.11-1.06,6.09-1.91,8.94-.85,2.85-1.93,5.47-3.26,7.88-1.32,2.4-2.9,4.56-4.74,6.46-1.78,1.84-3.85,3.4-6.21,4.68-2.36,1.28-4.87,2.06-7.55,2.33Zm21.49-82.83c-.16-1.58.32-3.21,1.44-4.89,1.12-1.68,2.65-2.62,4.6-2.81,1.4-.14,2.57.19,3.51.98.94.8,1.48,1.86,1.61,3.2.17,1.64-.33,3.29-1.48,4.94-1.15,1.65-2.7,2.57-4.65,2.77-1.34.13-2.48-.2-3.42-.99-.94-.79-1.48-1.86-1.61-3.2Z"/>
      <path class="uuid-b3bb6901-d6a9-4b31-b037-206c7d497288" d="m282.27,397.47l-7.96.48,8.61-39.89c.2-.75.35-1.57.45-2.46.1-.89,0-1.65-.27-2.28-.28-.62-.91-.91-1.89-.85-1.34.08-2.49.81-3.45,2.18-.96,1.37-1.97,3.9-3.03,7.57l-.98,3.46-1.74.11,1.88-6.81c1.11-3.92,2.62-6.55,4.53-7.89,1.91-1.34,3.84-2.07,5.79-2.18,1.83-.11,3.18.21,4.05.95.87.74,1.39,1.74,1.56,2.98s.16,2.62-.03,4.13c-.18,1.51-.42,3.01-.69,4.49l-6.82,36.02Zm3.06-19.28c1.8-5.62,3.6-10.34,5.39-14.18,1.79-3.84,3.59-6.96,5.4-9.37,1.81-2.4,3.71-4.17,5.69-5.3,1.98-1.13,4.07-1.76,6.26-1.89,2.87-.17,4.87.39,6.02,1.7,1.15,1.31,1.73,3.02,1.73,5.13,0,2.11-.29,4.32-.89,6.62l-7.26,27.24c-.45,1.68-.6,3.05-.44,4.11.16,1.06.9,1.55,2.25,1.47,1.16-.07,2.26-.78,3.31-2.13,1.05-1.35,2.11-3.89,3.17-7.62l.99-3.46,1.74-.1-1.88,6.81c-.7,2.61-1.63,4.63-2.8,6.04-1.17,1.42-2.42,2.43-3.76,3.03-1.34.6-2.65.94-3.93,1.02-1.46.09-2.68-.08-3.66-.51-.98-.43-1.73-1.03-2.27-1.79-.74-1.06-1.04-2.48-.9-4.26.14-1.78.51-3.76,1.11-5.94l7.11-26.68c.25-.87.45-1.91.59-3.11.14-1.2.03-2.26-.33-3.19-.36-.93-1.27-1.35-2.74-1.26s-2.98.82-4.55,2.2c-1.57,1.38-3.17,3.3-4.79,5.75-1.63,2.45-3.2,5.36-4.71,8.73-1.51,3.37-2.92,7.06-4.24,11.09s-2.48,8.3-3.49,12.83l1.88-12.96Z"/>
    </g>
  </g>
</svg>