<?xml version="1.0" encoding="UTF-8"?>
<svg id="uuid-b0d5f7e1-b793-49e0-9b88-64258df56643" data-name="Layer 2" xmlns="http://www.w3.org/2000/svg" viewBox="0 0 7596.97 3887.43">
  <defs>
    <style>
      .uuid-60808b12-0709-44db-a245-eea00b0caa6c {
        fill: #fff;
      }

      .uuid-6dc63457-ed46-49ca-8906-d22f1659d5df {
        fill: none;
      }
    </style>
  </defs>
  <g id="uuid-70086bee-5fc9-42d3-9152-1703a7e45962" data-name="hand">
    <g>
      <path class="uuid-60808b12-0709-44db-a245-eea00b0caa6c" d="m7402.93,2900.77c-21.65-33.9-25.23-67.29-10.66-105.78,27.25-71.97,51.66-145.04,75.77-218.14,8.9-26.98,14.87-55.1,19.99-83.1,8.43-46.08-1.04-91.64-9.09-136.63-21.45-76.99,13.58-1990.93,46.93-2251-31.04-13.34-64.98-27.92-102.72-44.14,22.88,0,41.1,1.51,58.98-.33,33.27-3.41,47.21-20.3,46.31-53.3-.08-2.78-.22-5.57-.4-8.35H28.95C4.17,96.01-6.48,193.73,4.03,293.93c5.6,53.36,10.95,106.76,17.28,160.04,11.32,95.39,22.81,935.23,35.15,1030.49,11.45,88.4,25.63,176.45,27.63,265.84l-19.5,49.77c-2.44,23.17-2.28,46.7-1.96,70.05.31,23.09,6.39,30.48,27.85,38.09,10.6,3.76,21.42,6.87,32.05,10.54,19.8,6.84,39.54,13.88,59.3,20.84-6.98,3.3-12.85,2.6-18.65,1.55-24.67-4.46-49.18-10.25-74.03-13.23-26.57-3.19-33.17,3.52-32.46,29.53.4,14.66,1.94,29.33,3.69,43.91,9.77,81.27,34.09,632.99,60.52,709.95,9.14,26.63,11.48,51.16,6.2,80.04-15.08,82.48-26.83,165.73-35.87,249.12-11.71,108.05-9.46,216.12,12.49,323.13,14.77,72.03,30.23,143.92,44.44,216.06,6.94,35.22,5.11,69.99-5.21,105.16-9.69,33.02-15.02,67.41-20.78,101.45-1.9,11.21.84,23.21,1.41,33.91,53.56,14.62,102.8,13.79,151.9-2.83,40.09-13.58,81.19-16.58,122.97-9.17,42.56,7.55,85.35,14.03,127.61,23,19.51,4.14,35.8,1.14,51.38-10.01,10.56-7.55,21.27-14.92,31.4-23.02,39.89-31.89,80.96-62.5,118.94-96.55,35.39-31.72,75.11-36.55,118.53-27.91,11.41,2.27,23.59,7.01,32.54,14.2,31.01,24.89,60.79,51.32,90.97,77.25,7.87,6.76,15.44,13.86,23.23,20.71,10.56,9.28,21.29,9.84,32.88,1.36,11.52-8.43,23.54-16.16,35.35-24.2.6.72,1.2,1.44,1.8,2.15-10.5,17.11-21,34.21-31.71,51.65,42.33,33.72,86.51,57.96,136.41,60.13,75.11,3.27,150.62,1.34,225.8-2.04,86.42-3.88,172.68-11.64,258.99-17.93,66.35-4.83,133.07-5.04,198.55-20.32,16.91-3.95,36.38-1.34,53.84,2.29,63.5,13.2,1672.14,28.6,1735.59,42.07,19.28,4.09,39.42,7.15,58.99,6.34,67.45-2.79,134.87-6.75,202.2-11.62,128.62-9.31,257.23-18.82,385.73-29.72,58.58-4.97,117-12.46,175.23-20.68,36.5-5.16,70.57-19.65,98.84-43.21,18.49-15.41,38.41-21.76,61.11-24.88,57.47-7.91,114.1-.06,170.49,8.98,78.57,12.59,156.85,26.96,235.31,40.25,26.54,4.5,29.89,2.3,42.5-22.21,17.42-33.85,34.85-67.69,52.43-101.45,2.84-5.45,6.5-10.48,9.78-15.7.75,9.62-1.64,17.66-4.45,25.55-9.86,27.71-20.39,55.19-29.53,83.13-3.32,10.15-3.48,21.33-5,31.54,6.38,2.7,9.45,4.35,12.73,5.33,61.57,18.46,124.57,28.72,188.53,34.53,28.26,2.57,55.19-.83,81.75-9.6,33.67-11.11,67.67-21.38,100.75-34.03,52.67-20.14,106.5-21.91,161.07-12.66,137.31,23.26,1254.59,46.12,1391.54,71.37,51.13,9.43,101.41,8.69,152.33,2.47,109.93-13.42,219.88-26.64,329.83-39.94,14.6-1.77,29.29-2.99,43.8-5.36,16.44-2.69,18.61-6.32,17.75-22.15-.99-18.12-2.19-36.29-1.89-54.42,1.83-110,8.97-219.71,22.34-328.89,5.72-46.7.93-90.68-16.02-134.79-50.01-130.16-100.21-260.15-175.72-378.37Z"/>
      <path d="m7402.93,2900.77c-21.65-33.9-25.23-67.29-10.66-105.78,27.25-71.97,51.66-145.04,75.77-218.14,8.9-26.98,14.87-55.1,19.99-83.1,8.43-46.08-1.04-91.64-9.09-136.63-21.45-76.99,13.58-1990.93,46.93-2251-31.04-13.34-64.98-27.92-102.72-44.14,22.88,0,41.1,1.51,58.98-.33,33.27-3.41,47.21-20.3,46.31-53.3-.08-2.78-.22-5.57-.4-8.35h-38.04c.86,6.99,1.78,13.85,2.74,20.54-66.76-12.62-130.85-2.37-194.73,7.38-28.91,4.41-57.89,11.1-85.5,20.63-30.77,10.62-81.81-8.27-76.5,23.62,2.67,16.06-5.95,7.15-1.1,22.76,3.14,10.08,51.95-10.81,63.16-11.32,15.56-.7,31.16-.14,46.74-.58,65.37-1.82,129.68,5.24,192.36,24.15,19.73,5.95,38.66,14.54,58.88,22.27-1.26,16.21-2.99,30.63-3.41,45.09,0,0-96.87,1864.69-59.95,2122.03,6.33,41.06,12.15,82.19,17.84,123.34,4.22,30.51,2.6,60.56-10.38,89.06-35.14,77.13-70.47,154.17-105.74,231.23-4.67,10.21-9.98,20.15-14.06,30.59-8.04,20.56-4.97,38.93,5.7,59.21,60.04,114.07,118.47,228.99,177.3,343.69,4.33,8.44,7.06,17.7,11.24,26.24,26.01,53.15,50.34,182.8,45.16,241.02-8.83,99.12-14.44,198.53-21.39,297.81-.77,11.04-1.49,22.08-2.12,31.54-65.9,8.29-206.43,25.96-269.79,34.5-32.57,4.39-65.12,9.47-97.3,16.07-52.88,10.84-105.29,6.17-157.34-3.63-70.54-13.28-140.61-29.03-211.12-42.47-78.16-14.9-1136.5-28.28-1214.77-42.59-11.87-2.17-24.33-4.02-35.03-9.13-17.59-8.42-32.39-4.59-49.15,2.84-42.63,18.92-85.56,37.42-129.33,53.44-57.47,21.03-117.4,18.46-177.19,13.22-3.2-.28-49.83-7.19-54.39-8.75,2.01-5.75,30.22-94.99,32.06-99.56,32.53-80.77,34.65-121.68,47.04-207.59,1.55-10.72.21-21.85.21-33.72-30.9-4.03-5.76-8.07-35.36-11.93-26.38,49.8-38.44,139.54-65.75,188.35-26.94,48.16-55.88,95.19-82.83,140.83-42.98-10.59-97.25-17.82-138.47-26.47-78.14-16.4-157.55-22.49-237.19-25.73-23.36-.95-46.75-1.26-70.07-2.81-18.21-1.21-32.42,4.39-41.47,20.54-14.16,25.28-37.03,38.82-63.95,44.86-28.62,6.42-57.66,12.55-86.81,14.7-133.79,9.89-267.68,18.55-401.56,27.24-77.73,5.05-155.47,10.11-233.28,13.68-63.26,2.9-126.24-1.22-188.73-12.51-24.44-4.42-1598.65,9.46-1619.69-2.89-36.77-21.58-76.23-28.81-118.98-21.69-78.49,13.07-197.12,13.85-275.9,25.07-76.23,10.85-171.65-4.39-248.06,5.15-69.81,8.72-139.66,12.98-209.16-3-6.74-1.55-13.47-3.17-20.14-5.01-1.37-.38-2.44-1.88-4.94-3.93,9.99-12.72,87.25-57.82,96.87-70.92,8.18-11.15,15.25-23.11,23.28-34.38,7.23-10.15,6.21-19.67-2.04-28.03-10.17-10.3-21.14-19.8-32.29-30.14-46.99,25.87-104.46,87.39-155.32,99.38-24.13-39.62-69.82-66.37-112.18-82.61-73.52-28.19-144.77-22.07-211.82,18.48-39.94,24.16-37.83,43.88-76.46,70.18-22.88,15.58-45.4,31.68-68.66,47.95-22.14-8-89.75-21.98-111.86-28.99-43.29-13.71-87.53-23.29-132.73-12.08-21.53,5.34-42.27,14.75-62.56,24.07-28.8,13.23-37.82,15.34-69.16,8.56,4.32-14.9-.26-56.77,5.06-69.19,9.54-22.23,18.83-44.97,31.82-65.18,12.52-19.47,12.04-36.82,6.53-58.35-21.24-82.95-61.61-213.14-80.54-296.65-25.28-111.54,8.84-233.96,16.41-347.63,2.87-43.09,6.81-86.1,10.59-133.31,12.48,9.64,30.79,74.99,33.83,83.73,38.74,111.17,80.47,221.15,129.64,328.2,20.58,44.82,41.59,89.44,61.89,134.38,5.68,12.57,10.98,25.65,13.87,39.05,4.1,19.04,16.4,28.95,37.42,39.77-4.28-24.48-6.97-44.52-11.36-64.19-19.07-85.6-72.09-157.91-102.36-239.88-48.28-130.73-100.59-259.79-157.87-386.87-33.97-75.37-49.11-625.53-62.44-706.96-2.33-14.23-11.61-64.96-12.47-80.59,35.36-7.97,67.66-2.02,99.46,5.31,31.86,7.35,63.17,17.06,96.96,26.34,4.27-16.84,33.82-10.53,38.56-29.23-50.84-35.94-104.07-65.65-164.31-81.19-38.38-9.9-38.47-9.42-38.64-49.55,0,0,25.33-128.29,6.94-244.7-15.83-121.84-32.86-987.99-50.63-1109.56-9.88-67.61-23.7-134.66-33.23-202.32C24.56,185.14,31.31,91.35,62.01,0H28.95C4.17,96.01-6.48,193.73,4.03,293.93c5.6,53.36,10.95,106.76,17.28,160.04,11.32,95.39,22.81,935.23,35.15,1030.49,11.45,88.4,25.63,176.45,27.63,265.84l-19.5,49.77c-2.44,23.17-2.28,46.7-1.96,70.05.31,23.09,6.39,30.48,27.85,38.09,10.6,3.76,21.42,6.87,32.05,10.54,19.8,6.84,39.54,13.88,59.3,20.84-6.98,3.3-12.85,2.6-18.65,1.55-24.67-4.46-49.18-10.25-74.03-13.23-26.57-3.19-33.17,3.52-32.46,29.53.4,14.66,1.94,29.33,3.69,43.91,9.77,81.27,34.09,632.99,60.52,709.95,9.14,26.63,11.48,51.16,6.2,80.04-15.08,82.48-26.83,165.73-35.87,249.12-11.71,108.05-9.46,216.12,12.49,323.13,14.77,72.03,30.23,143.92,44.44,216.06,6.94,35.22,5.11,69.99-5.21,105.16-9.69,33.02-15.02,67.41-20.78,101.45-1.9,11.21.84,23.21,1.41,33.91,53.56,14.62,102.8,13.79,151.9-2.83,40.09-13.58,81.19-16.58,122.97-9.17,42.56,7.55,85.35,14.03,127.61,23,19.51,4.14,35.8,1.14,51.38-10.01,10.56-7.55,21.27-14.92,31.4-23.02,39.89-31.89,80.96-62.5,118.94-96.55,35.39-31.72,75.11-36.55,118.53-27.91,11.41,2.27,23.59,7.01,32.54,14.2,31.01,24.89,60.79,51.32,90.97,77.25,7.87,6.76,15.44,13.86,23.23,20.71,10.56,9.28,21.29,9.84,32.88,1.36,11.52-8.43,23.54-16.16,35.35-24.2.6.72,1.2,1.44,1.8,2.15-10.5,17.11-21,34.21-31.71,51.65,42.33,33.72,86.51,57.96,136.41,60.13,75.11,3.27,150.62,1.34,225.8-2.04,86.42-3.88,172.68-11.64,258.99-17.93,66.35-4.83,133.07-5.04,198.55-20.32,16.91-3.95,36.38-1.34,53.84,2.29,63.5,13.2,1672.14,28.6,1735.59,42.07,19.28,4.09,39.42,7.15,58.99,6.34,67.45-2.79,134.87-6.75,202.2-11.62,128.62-9.31,257.23-18.82,385.73-29.72,58.58-4.97,117-12.46,175.23-20.68,36.5-5.16,70.57-19.65,98.84-43.21,18.49-15.41,38.41-21.76,61.11-24.88,57.47-7.91,114.1-.06,170.49,8.98,78.57,12.59,156.85,26.96,235.31,40.25,26.54,4.5,29.89,2.3,42.5-22.21,17.42-33.85,34.85-67.69,52.43-101.45,2.84-5.45,6.5-10.48,9.78-15.7.75,9.62-1.64,17.66-4.45,25.55-9.86,27.71-20.39,55.19-29.53,83.13-3.32,10.15-3.48,21.33-5,31.54,6.38,2.7,9.45,4.35,12.73,5.33,61.57,18.46,124.57,28.72,188.53,34.53,28.26,2.57,55.19-.83,81.75-9.6,33.67-11.11,67.67-21.38,100.75-34.03,52.67-20.14,106.5-21.91,161.07-12.66,137.31,23.26,1254.59,46.12,1391.54,71.37,51.13,9.43,101.41,8.69,152.33,2.47,109.93-13.42,219.88-26.64,329.83-39.94,14.6-1.77,29.29-2.99,43.8-5.36,16.44-2.69,18.61-6.32,17.75-22.15-.99-18.12-2.19-36.29-1.89-54.42,1.83-110,8.97-219.71,22.34-328.89,5.72-46.7.93-90.68-16.02-134.79-50.01-130.16-100.21-260.15-175.72-378.37Z"/>
    </g>
    <rect class="uuid-6dc63457-ed46-49ca-8906-d22f1659d5df" x="0" width="7594.66" height="3887.3"/>
  </g>
</svg>