<?xml version="1.0" encoding="UTF-8"?>
<svg id="uuid-fcadc0b0-6697-4ba8-9ca1-2471339cc6cc" data-name="Layer 2" xmlns="http://www.w3.org/2000/svg" viewBox="0 0 352.66 382.97">
  <defs>
    <style>
      .uuid-ed86f0be-80e9-40ed-854c-e005b815b2c6 {
        fill: #ff203e;
      }
    </style>
  </defs>
  <g id="uuid-50494216-6e47-4b9c-b370-8ec0be0fb98d" data-name="vlag Image">
    <g>
      <path class="uuid-ed86f0be-80e9-40ed-854c-e005b815b2c6" d="m349.68,244.2c-4.47-4.92-7.62-8.32-10.7-11.79-3.39-3.81-7.53-5.7-12.66-4.85-10.26,1.71-20.67,2.9-30.7,5.5-4.77,1.24-9.23,4.76-13.14,8.07-12.35,10.43-22.9,22.59-32.69,35.42-1.72,2.26-3.36,4.58-4.99,6.91-2.65,3.79-6.14,5.79-10.88,5.29-8.64-.92-17.12.35-25.23,3.05-7.03,2.34-13.02,1.07-18.75-3.05-2.3-1.66-4.65-3.29-6.76-5.18-7.45-6.71-8.06-9.49-3.54-18.46,3.83-7.61,8.13-14.97,11.99-22.57,4.15-8.17,2.8-13.29-4.82-17.94-2.77-1.69-5.97-2.96-9.15-3.69-26.17-5.98-52.55-6.64-79.07-2.73-1.75.26-3.39,1.3-5.93,2.33.68,4.41,1.08,8.55,1.99,12.58,10.08,44.79,20.25,89.55,30.37,134.33.83,3.68,1.75,7.4,1.94,11.13.07,1.4-1.52,3.63-2.87,4.16-1.42.55-4.03.1-5.1-.94-1.96-1.91-3.64-4.41-4.59-6.98-2.12-5.77-3.86-11.68-5.49-17.61-18.84-68.46-38.82-136.57-61.01-204.04-7.83-23.81-13.9-48.2-20.92-72.28-2.51-8.6-5.43-17.08-8.26-25.91-7.78-2.19-14.4-5.29-17.32-13.38-1.94-5.38-2.32-10.26,1.7-14.55,6.79-7.25,13.58-14.52,20.89-21.22,2.61-2.39,6.61-4,10.17-4.47C41.66.35,49.27.24,56.84,0c4.18-.13,7.05,2.17,9.05,5.79,4.41,7.99,4.78,13.19,1.16,24.95,2.61-.43,4.81-.65,6.94-1.17,26.35-6.37,53.03-10.13,80.19-9.83,34.57.38,67.65,7.47,99.06,22.14,5.89,2.75,10.29,6.46,12.53,12.7,2.88,8.01,6.1,15.9,9.03,23.89,2.36,6.46,2.09,12.76-.37,19.36-6.28,16.84-12.05,33.87-18,50.83-.76,2.17-1.38,4.4-1.97,6.28,2.36,3.1,4.6,1.42,6.74.85,1.37-.36,2.75-.76,4.05-1.32,17.29-7.39,33.44-3.65,48.83,5.35,23.99,14.04,36.12,35.51,38.03,62.85.45,6.4,1.79,13.13-2.42,21.52Zm-87.29-155.15c-.01.38-.11.79,0,1.14.08.26.4.45.62.67-.27-.56-.54-1.12-.82-1.68-.1-9.43-6.06-16.74-9.14-25.09-3.65-9.88-10.86-14.66-21.17-16.43-23.37-4.01-46.74-7.5-70.55-6.8-20.87.61-41.56,2.46-61.83,7.87-11.5,3.07-22.51,7.33-32.89,13.12-8.17,4.56-9.16,6.63-7.03,16.16,7.63,34.15,15.4,68.26,23.27,102.36.7,3.04,2.53,5.82,3.57,8.13,1.93.48,2.84.87,3.76.9,1.88.07,3.79.07,5.66-.13,23.41-2.39,46.28,1.48,69.06,6.06,11.36,2.28,21.78,6.45,29.25,15.99,1.04,1.33,2.75,2.13,5.32,4.04.27-4.59.33-7.77.69-10.92.27-2.42,1.16-4.59,4.37-4.8,5.78,3.99,2.79,11.8,7.4,18.39.17-4.11.54-6.45.31-8.72-1.76-17.4-3.62-34.79-5.49-52.18-.35-3.29-1.05-6.55-1.15-9.84-.03-1.1,1.11-2.87,2.07-3.17,1.02-.32,2.91.4,3.66,1.29,4.13,4.95,4.98,11.17,5.83,17.22,1.23,8.73,1.96,17.53,2.91,26.31,1.88-6.56,2.12-13.14,2.97-19.65.32-2.44,2.05-4.69,3.19-7.15,2.82,1.5,4.69,2.49,7.22,3.83.12-3.36.39-6.15.29-8.93-.52-14.29-3.38-28.12-8.13-41.6-1.19-3.38-3.34-6.89-.77-10.66,3.79-.71,5.38,1.7,6.74,4.15,1.37,2.47,2.58,5.06,3.56,7.72,1.14,3.1,2.05,6.29,2.87,9.49.7,2.74.87,5.64,1.75,8.31.79,2.44-.36,5.73,3.79,7.69.4-2.47,1.4-4.74.98-6.7-1.87-8.77-4.19-17.45-6.28-26.17-3.54-14.76-12.32-24.13-27.56-27.03-1.83-.35-3.72-.99-5.26-1.99-1.01-.65-1.44-2.2-2.59-4.12,2.52-.93,4.63-2.43,6.66-2.34,13.95.61,26.05,4.95,33.05,18.18,2.65,5.01,4.9,10.23,7.36,15.33.93,1.93,1.95,3.81,2.93,5.71,1.7-2.26,1.86-4.05,1.39-5.65-2.41-8.16-5.01-16.26-7.48-24.4-1.1-3.61-2.36-7.21-2.93-10.91-.22-1.4,1.05-3.3,2.16-4.48.37-.39,2.88.41,3.56,1.31,2.25,3,4.12,6.29,6.13,9.48,2.24,3.57,4.48,7.14,6.71,10.72Zm78.1,128.42c-4.41-16.2-11.28-27.59-22.5-35.97-6.79-5.07-14.26-9.23-21.46-13.73-6.04-3.77-12.46-4.4-18.94-1.42-7.28,3.35-14.3,7.27-21.66,10.44-9.43,4.06-14.74,11.22-17.74,20.73-3.12,9.89-6.48,19.72-10.1,29.43-5.12,13.74-7.58,28.65-18.25,40.03,10.84-2.14,20.88-4.12,31.61-6.24,2.71-4.82,5.37-10.37,8.78-15.42,4.99-7.4,10.17-14.73,15.9-21.56,11.31-13.48,26.13-19.32,43.69-19.86,8.13-.25,14.81,1.71,20.96,6.64,2.4,1.92,5,3.58,9.72,6.93Zm-141.52,39.86c1.52.09,2.16.32,2.38.11,1.51-1.43,3.02-2.89,4.29-4.53.22-.29-.53-1.9-1.15-2.16-3.05-1.31-3.76,1.51-4.96,3.2-.45.64-.31,1.7-.55,3.38Z"/>
      <path class="uuid-ed86f0be-80e9-40ed-854c-e005b815b2c6" d="m210.02,115.27c5.4-1.97,7.85,1.28,9.35,4.41,4.28,8.9,9.37,17.88,4.56,28.48-1.62-.65-2.99-.8-3.19-1.35-3.62-10.37-7.1-20.78-10.73-31.54Z"/>
      <path class="uuid-ed86f0be-80e9-40ed-854c-e005b815b2c6" d="m196.73,178.45c.99-1.78,1.49-3.13,2.4-4.1.43-.46,1.98-.56,2.45-.16,2.99,2.53,3.72,7.85,1.41,11.42-.39.6-3.28.6-3.52.12-1.22-2.37-1.93-5-2.74-7.28Z"/>
      <path class="uuid-ed86f0be-80e9-40ed-854c-e005b815b2c6" d="m215.21,98.24c-4.73,2.31-8.21.72-11.31-2.29-.52-.5-.71-1.79-.46-2.52.24-.68,1.24-1.54,1.92-1.55,4.37-.08,8.15.97,9.84,6.36Z"/>
      <path class="uuid-ed86f0be-80e9-40ed-854c-e005b815b2c6" d="m229.85,57.58c2.02,1.03,3.39,1.47,4.41,2.33.57.48,1.04,1.92.74,2.45-.61,1.03-1.69,2.22-2.76,2.42-1.22.24-2.87-.19-3.89-.93-.96-.69-2.15-2.56-1.83-3.22.64-1.31,2.26-2.13,3.33-3.04Z"/>
    </g>
  </g>
</svg>