<?xml version="1.0" encoding="UTF-8"?>
<svg id="uuid-55c2d348-0ceb-4dd5-a045-98a2eae8f3fe" data-name="Layer 2" xmlns="http://www.w3.org/2000/svg" viewBox="0 0 349.6 405">
  <defs>
    <style>
      .uuid-132c2325-b1c9-4314-a8aa-3a6c71a57a34 {
        fill: #ff203e;
      }
    </style>
  </defs>
  <g id="uuid-0b820308-05d2-4f93-8308-f52514626bc8" data-name="hand">
    <g id="uuid-c4a679de-d31e-417e-8621-ee2b44757108" data-name="Inserted Image + Inserted Image Image">
      <g>
        <path class="uuid-132c2325-b1c9-4314-a8aa-3a6c71a57a34" d="m97.39,191.69c.72-6.23,1.75-12.42,2.02-18.64.12-2.71-.94-5.66-2.12-8.19-1.43-3.06-3.54-5.79-5.37-8.66-7.93-12.41-14.09-25.51-15.61-40.64-12.9-11.98-25.43-24.32-26.56-44.14-5.66-1.52-11.31-2.7-16.7-4.58-7.3-2.54-14.94-4.74-21.51-8.65C-1.06,50.7-3.83,31.04,5.66,19.88c1.67-1.96,4.87-3.31,7.52-3.62,5.45-.65,10.51,1.05,15.04,4.37,9.17,6.72,19.64,10.61,30.58,13.21,5.11,1.22,10.41,1.66,14.83,2.33,3.61-3.16,1.17-5.19.31-7.11-1.3-2.91-1.15-5.65-.03-8.45,1.26-3.15,2.34-6.41,3.94-9.39,7.16-13.42,20.46-14.96,30.67-3.69,3.26,3.6,6.53,7.2,9.91,10.69,1.68,1.73,3.63,3.21,5.65,4.98,1.79.15,3.74.58,5.63.41,8.06-.73,13.7,2.32,18.32,9.16,5.53,8.19,13.76,13.69,22.67,17.87,5.67,2.66,9.02,6.64,10.94,12.7,3.1,9.81,8.36,18.56,15.66,25.99,1.69,1.72,3.19,3.66,4.53,5.66,7.27,10.87,14.46,21.8,22.11,33.36-.03,56.55,27.8,100.79,67.68,139.07,13.39,12.85,28.66,23.23,45.65,31,9.97,4.56,13.29,10.72,12.1,22.08-1.14,10.8-4.57,20.84-11.19,29.63-8.88,11.81-19.6,21.51-32.52,28.79-21.44,12.08-44.58,19.05-68.7,23.16-12.49,2.13-25.06,3.46-37.76,2.72-10.18-.6-20.29-1.62-29.22-5.67-3.27-4.65-2.01-9.09-1.34-13.3,2.48-15.57,1.48-31.05-1.27-46.42-4.78-26.71-17.89-49.05-37.06-68-5.65-5.58-12.41-9.65-20.14-11.25-21.73-4.48-37.64-17.3-50.94-34.17-2.11-2.67-4.36-5.23-6.46-7.91-11.92-15.25-26.45-27.04-44.77-33.86-1.77-.66-3.45-1.53-6-2.68,5.03-10.96,14.04-16.4,24.33-19.25,12.29-3.4,25.03-3,37.67-1.24,4.33.6,6.66,3.66,8.99,6.82,4.32,5.86,8.44,11.88,13.04,17.52,2.66,3.27,5.67,6.65,11.36,6.3Zm125.36,155.63c-5.45,8.01-13.18,9.03-20.49,10.95-3.74.98-7.6,1.52-11.39,2.34-2.15.47-3.58,1.89-2.65,4.04.41.94,2.39,1.93,3.47,1.74,8.11-1.39,16.28-2.67,24.23-4.74,19.32-5.01,37.95-11.81,54.61-23.14,8.49-5.77,16.02-12.53,21.53-21.34,7.87-12.58,6.85-30.73-6.86-40.11-13.26-9.07-24.29-20.78-34.84-32.86-1.59-1.82-2.88-3.92-3.76-5.13-8.39,0-15.26-.77-21.91.14-24.87,3.38-43.84,14.85-52.24,39.93-.76,2.28-1.38,4.77-2.77,6.65-1.52,2.07-3.85,3.56-5.92,5.38,2.41,4.53,3.96,8.76,6.64,12.08,2.54,3.16,6.27,5.37,8.96,7.58-.56,2.61-.94,4.37-1.27,5.9,5.83,3.58,13.16.07,18.64,6.06-5.6.54-10.26,1-16.54,1.61,8.06,7.59,17.38,2.03,25.25,6.63-2.15,1.1-3.68,2.38-5.36,2.65-3.82.59-7.71.68-11.58.98-2.17.17-3.61.99-2.98,3.88,3.75,1.17,7.66,2.39,11.72,3.66-1.98,5.14-8.9,2.04-10.69,8,6.42,1.54,12.15.49,17.77-.05,6.18-.59,12.29-1.85,18.44-2.81Zm-29.92-187.24c4.42-3.54,8.32,1.47,12.26.4.74-.2,1.3-1.08,1.94-1.64-.43-4.7-7.85-4.42-7.12-9.94,1.46-1.64,2.89-3.26,4.34-4.89-7.61-7.47-18.45-2.2-26.36-7.7,7.44-7.87,17.42-1.49,25.99-5.82-6.03-8.45-14.37-5.37-21.3-5.33-21.33.11-44.23,12.09-53.58,27.46,2.77,2.44,5.64,4.92,8.47,7.47,13.88,12.49,19.29,28.71,20.26,46.73.39,7.34-1.41,9.81-8.16,11.68-4.64,1.29-9.48,1.9-14.26,2.65-3.28.52-6.6.77-10.8,1.24-2.21,10.83-2.34,21.32-.09,31.81.47,2.19,1.84,4.8,3.62,5.98,8.39,5.57,17.07,10.72,26.01,16.24,1.7-2.33,3.18-4.21,4.51-6.2,9.88-14.7,23.47-24.54,40.43-29.17,10.72-2.92,21.82-4.4,32.75-6.57,2.6-.52,5.88.53,7.43-3.17-5.35-9.6-11.52-18.95-15.91-29.07-4.18-9.63-8.94-18.04-18.88-22.59-.57-.26-.62-1.66-.97-2.71,2.5-1.01,5.01-2.02,7.82-3.15-3.35-8.64-14.1-6.46-18.43-13.69Zm117.2,134.85c0,4.21-.21,7.44.04,10.65.66,8.62-1.49,16.61-6.75,23.23-4.78,6.02-10.23,11.69-16.15,16.59-8.64,7.16-18.81,11.93-29.3,15.91-18.78,7.12-38.32,10.39-58.27,11.73-2.78.19-6.23-1.19-8.49,3.22,8.59.29,16.78.52,24.97.87,1.91.08,3.88.46,3.75,3.76-2.18.3-4.46.75-6.76.91-2.9.21-5.82.24-8.74.27-2.43.03-4.87-.17-7.28-.01-2.45.16-5.38-1.04-7.81,2.12,6.03,4.06,12.4,3.64,18.52,4.34,1.77.2,4.01.3,3.4,4.24-8.21.27-16.64.54-25.38.82,1.92,5.25,5.86,4.32,8.96,4.42,23.48.73,46.49-2.05,68.84-9.58,13.42-4.52,26.11-10.48,37.59-18.82,8.71-6.33,16.36-13.7,21.99-22.99,5.14-8.48,8.2-17.53,7.8-27.57-.41-10.43-3.12-19.23-14.98-21.88-1.79-.4-3.48-1.29-5.93-2.23Zm-191.4-124.49c-4.62,11.45.22,21.69.97,32.25-14.81,3.87-27.15-3.74-41.05-6.16-2.52,3.71-5.27,7.06-7.2,10.82-2.12,4.13-1.9,8.4,1.5,12.13,7.18,7.85,14.23,15.83,21.52,23.58,1.9,2.02,4.18,4.07,8.24,3.23,1.8-4.77.36-10.08.79-15.2.49-5.75.25-11.63,5.14-17.01,3.79,0,8.09.07,12.38-.02,4.75-.1,9.66.92,14-1.65,3.42-18.38-1.98-32.8-16.3-41.98Zm-6.26-71.96c-11.17,6.64-11.54,7-19.32,18.41,3.94,12.78,8.62,25.65,19.4,35.53,9.45-8.86,18.18-17.05,26.96-25.29-8.68-9.19-17.51-18.55-27.05-28.65Zm-41.19-56.51c-9.24-1.82-17.3-3.33-25.33-5.03-8.32-1.76-15.97-6.22-24.73-7.02-3.41,9.25-2.06,17.26,3.59,23.9,6.54,7.7,15.22,11.57,24.52,10.87,7.44-7.7,14.1-14.6,21.94-22.73Zm-20.74,121.83c-16.62,2.1-24.99,7.39-28.93,17.69,11.48,5.94,22.92,11.87,34.73,17.98,4.12-4.05,9.71-6.15,12.48-11-6.24-8.42-11.99-16.19-18.28-24.67Zm58.54-76.32c-7.82-6.03-14.46-10.18-19.85-15.59-5.22-5.24-9.16-11.76-13.92-18.06-5.88,5.36-7.76,11.13-6.59,17.72,2.01,11.38,7.48,20.66,17.19,27.39,7.67-3.79,14.88-7.35,23.18-11.45Zm34.06-.61c-3.71-7.47-7.23-13.3-9.54-19.57-2.31-6.28-3.3-13.04-5.13-19.51-.32-1.12-1.91-1.89-2.98-2.87-8.47,3.43-10.76,10.7-12.6,18.35-1.49,6.22-.14,11.51,4.84,15.6,4.8,3.95,9.75,7.71,14.71,11.62,3.54-1.2,6.66-2.25,10.7-3.62Zm-20.31-50.2c-10.27-7.23-20.33-14.31-30.83-21.7-1.93,2.28-3.71,3.92-4.92,5.92-1.47,2.43-2.46,5.14-3.86,8.17,5.26,7.53,10.42,14.93,15.78,22.61,7.97-5.02,15.65-9.85,23.82-15Zm41.06,22.39c-5.43,2.17-9.77,4.85-8.13,10.56,2.45,8.58,4.77,17.54,12.58,23.37,4.4-1.33,8.42-2.55,13.27-4.02-5.93-10.02-11.44-19.33-17.71-29.92Zm-18.13,34.01c-3.17,2.37-5.68,4.25-8.51,6.37,5.59,9.07,11.49,16.51,18.89,23.39,3.74-1.45,7.02-2.72,10.45-4.05-6.99-8.63-13.34-16.46-20.83-25.7Zm39.46,3.2q-6.72,1.77-10.47,7.23c4.84,7.08,10.7,13.21,18.85,16.73,1.4.6,3.38-.15,6.13-.35-5.1-8.29-9.56-15.55-14.52-23.61Zm-25.34-42.08c-1.32-1.09-1.95-1.82-2.74-2.23-1.57-.8-3.61-2.51-4.72-.04-.58,1.29,0,4.08,1.04,4.81.97.68,3.24-.42,4.91-.84.37-.09.61-.66,1.52-1.7Z"/>
        <path class="uuid-132c2325-b1c9-4314-a8aa-3a6c71a57a34" d="m179.27,298.02c.4.7,1.1,1.92,1.79,3.13-1.08.48-2.4,1.58-3.17,1.28-1.03-.41-1.63-1.9-2.41-2.93.82-.32,1.64-.64,3.8-1.48Z"/>
        <path class="uuid-132c2325-b1c9-4314-a8aa-3a6c71a57a34" d="m211.41,342.34c.58-1.38.9-2.84,1.25-2.85,1.29-.03,2.59.43,3.89.7-.4.82-.66,2.19-1.23,2.34-1.14.3-2.46-.08-3.91-.2Z"/>
        <path class="uuid-132c2325-b1c9-4314-a8aa-3a6c71a57a34" d="m179,147.74c3.79-.68,5.22-1.37,6.29-1,.99.34,1.6,1.8,2.38,2.77-1.19.39-2.43,1.21-3.54,1.06-1.24-.17-2.35-1.23-5.12-2.83Z"/>
        <path class="uuid-132c2325-b1c9-4314-a8aa-3a6c71a57a34" d="m236.77,387.11c-1.95,1.3-3,2.51-4.17,2.63-1.04.1-2.2-1.01-3.31-1.59,1-.79,1.91-2.01,3.02-2.24,1.05-.23,2.33.58,4.46,1.21Z"/>
      </g>
    </g>
  </g>
</svg>