<?xml version="1.0" encoding="UTF-8"?>
<svg id="uuid-3f2d0c12-564a-41ad-911a-8e423b4a377e" data-name="Layer 2" xmlns="http://www.w3.org/2000/svg" viewBox="0 0 540.56 648.42">
  <defs>
    <style>
      .uuid-29a3d40b-2cc9-46c7-abba-11bfed558a93 {
        fill: #fff;
      }

      .uuid-412135f7-c5ef-4893-80c8-a198339f16ab {
        fill: #ff203e;
      }
    </style>
  </defs>
  <g id="uuid-7c1c7190-68ea-47fb-b9f2-24dab56af07d" data-name="achtergronden + Layer 15 Image">
    <path class="uuid-412135f7-c5ef-4893-80c8-a198339f16ab" d="m521.04,6.03c0,.96.28,2.11-.04,3.06-5.4,16.11-10.87,32.2-16.49,48.77-5.18-.92-10.06-1.79-16.56-2.95,4.22,5.28,9.68,5.81,13.28,9.14,1.66,2.95-.28,5.56-1.18,8.19-3.16,9.22-3.51,18.42-.67,27.8,1.99,6.59,3.65,13.29,5.42,19.95.75,2.8,1.38,5.63,2.11,8.44,1.72,6.61-.19,12.25-4.84,16.95-3.56,3.61-7.38,6.99-11.24,10.28-3.6,3.05-7.45,5.8-11.12,8.77-4.01,3.24-7.18,7.12-8.95,12.6,5.1,7.41,4.65,16.36,5.82,24.89,2.17,15.8,3.86,31.67,5.69,47.52,1.41,12.21-1.01,23.81-5.67,35.07-2.64,6.37-4.92,12.89-7.76,19.16-2.62,5.78-2.23,11.05.61,16.66,6.22,12.3,12.45,24.62,18.04,37.22,7.64,17.23,14.79,34.69,21.97,52.13,5.64,13.7,7.64,28.01,5.62,42.69-1.08,7.8-.14,15.15,2.73,22.38,3.61,9.09,7,18.28,10.83,27.28,3.68,8.67,7.8,17.15,11.94,26.19-2.09.93-3.94,2.19-5.95,2.56-16.78,3.08-33.53,6.36-50.4,8.87-26.22,3.9-52.58,6.91-78.42,13-7.06,1.66-14.01,1.13-20.14-2.25-9.77-5.39-19.28-4.42-29.41-1.46-21.25,6.21-42.65,11.93-63.99,17.82-1.71.47-3.47.75-4.6,1-3.98-1.29-4.61-4.28-5.57-6.97-2.41-6.78-4.74-13.59-7.09-20.36-3.37.39-2.71,2.62-2.86,4.07-.65,6.13-.92,12.31-1.68,18.43-.61,4.92-2.03,6.03-7.16,6.34-2.9.18-5.81.07-8.72.1-26.88.23-53.77.52-80.65.65-4.18.02-7.92,1.01-11.22,3.44-3.51,2.58-6.84,5.39-10.34,7.99-5.22,3.89-10.51,7.69-15.78,11.52-1.47,1.06-3.01,2.02-4.43,3.14-17.1,13.5-34.14,27.07-51.29,40.51-5.69,4.46-11.66,8.53-19,11.82-2.44-6.99-4.95-13.38-6.92-19.94-6.19-20.52-10.86-41.38-14.28-62.54-2.36-14.6-.37-28.06,8.28-40.45,5.19-7.43,9.67-15.35,14.46-23.06,1.34-2.16,2.74-4.29,3.94-6.52,4.02-7.45,3.52-10.49-2.82-16.11-2.71-2.4-5.67-4.5-9.11-7.21,1.23-1.78,2.08-3.76,3.56-5,8.88-7.47,17.92-14.77,26.89-22.14,1.89-1.55,3.71-3.18,6.82-5.85-11.32.72-19.71,5.01-28.11,8.99-8.5,4.03-16.72,8.62-25.26,13.07-12.39-6.29-21.38-15.01-23.81-29.2-3.55-20.73-7.52-41.4-10.66-62.19C-1.9,325.87,0,281.19,1.19,236.58c.84-31.56,2.41-63.11,2.99-94.67.26-14.35,4.59-27.01,11.96-38.96.57-.93,1.12-1.88,1.79-2.73,5.68-7.23,6.73-14.22-.54-21.22-2.4-2.31-3.55-5.35-2.85-8.94,4.17-21.36,8.28-42.73,16.66-62.82,16.37-3.07,31.86,3.2,40.86,16.38,8.25,12.08,10.46,13.12,24.32,8.83,14.81-4.58,29.82-6,45.22-4.76,7.66.61,15.04,2.14,22.33,4.56,28.39,9.43,55.1,22.6,80.97,37.35,7.48,4.27,13.8,4.72,21.54,2.03,12.34-4.28,24.88-8.02,37.44-11.6,8.37-2.38,16.89-4.24,25.41-6.03,3.15-.66,6.48-.59,9.73-.66,6.1-.13,11.34,1.93,15.71,6.29,2.53,2.52,5.31,4.8,8.7,7.83,1.17-2.54,2.13-4.31,2.81-6.17,1.86-5.11,3.44-10.32,5.42-15.38,2.81-7.18,7.77-12.13,15.49-14.01,8.11-1.97,16.1-4.62,24.31-5.92,11.22-1.78,21.09-6.09,28.74-14.24,8.43-8.99,18.63-12.27,30.42-11.64,14.14.76,28.27,1.79,42.39,2.84,2.8.21,5.83.36,8.04,3.12Z"/>
  </g>
  <g id="uuid-dc29ea95-ba49-4a2d-ba4b-c7be67be3f0f" data-name="boekje + Layer 16 Image">
    <g>
      <path class="uuid-29a3d40b-2cc9-46c7-abba-11bfed558a93" d="m146.66,466.75c5.62-1.44,10.07-1.48,13.35-.11,3.28,1.37,5.36,3.77,6.24,7.2.77,3.02.58,5.95-.58,8.8-1.16,2.85-2.92,5.48-5.27,7.87-2.35,2.4-4.91,4.46-7.69,6.18,5.67-.51,9.91.28,12.71,2.37,2.8,2.09,4.65,4.88,5.55,8.37.82,3.19.76,6.16-.18,8.89-.94,2.73-2.49,5.19-4.63,7.38-2.15,2.19-4.69,4.07-7.63,5.64-2.94,1.57-6.01,2.77-9.2,3.59-2.25.58-4.6,1.13-7.05,1.66-2.45.53-5.21,1.19-8.29,1.98-1.36.35-2.72.71-4.07,1.09-1.35.38-2.6.73-3.75,1.05-1.15.33-2.12.62-2.94.89l-.1-1.87c1.98-.63,3.49-1.27,4.52-1.91,1.03-.64,1.74-1.58,2.12-2.81.38-1.23.56-2.98.55-5.25l.44-47.02c-.04-1.88-.17-3.38-.39-4.49-.22-1.11-.83-1.83-1.83-2.18-1-.34-2.66-.22-4.96.37v-1.89c.83-.15,1.82-.36,2.95-.62,1.13-.26,2.37-.54,3.71-.86,1.34-.31,2.66-.63,3.96-.97,2.07-.53,4.12-1.09,6.15-1.67,2.03-.58,4.13-1.15,6.32-1.71Zm-8.95,35.2l-.03-1.6,6.92-1.77c3.61-.92,6.51-2.53,8.69-4.83,2.19-2.29,3.65-4.95,4.39-7.98.74-3.03.72-6.05-.05-9.07-.89-3.49-2.31-5.89-4.25-7.19-1.94-1.3-4.6-1.52-7.97-.65-2.6.67-4.33,1.54-5.2,2.61-.86,1.07-1.28,2.99-1.27,5.76l-.36,48.42c-.02,1.9.1,3.4.35,4.5.25,1.1.82,1.79,1.71,2.07.89.28,2.34.16,4.35-.36,5.21-1.33,9.18-3.11,11.92-5.32s4.48-4.85,5.21-7.91c.73-3.06.61-6.48-.36-10.26-.64-2.48-1.62-4.49-2.96-6-1.33-1.52-3.05-2.51-5.16-2.98-2.11-.47-4.64-.33-7.6.43l-8.34,2.14Z"/>
      <path class="uuid-29a3d40b-2cc9-46c7-abba-11bfed558a93" d="m185.01,503.19c3.13-1.81,5.94-3.53,8.45-5.19,2.5-1.65,4.44-3.27,5.81-4.85,1.81-2.17,3.1-4.6,3.87-7.31.77-2.71.86-5.53.28-8.46-.35-1.74-.69-2.82-1.02-3.25-.34-.43-.74-.6-1.22-.5-1.5.3-2.98,1.28-4.46,2.94-1.48,1.66-2.82,3.82-4.04,6.46-1.22,2.64-2.24,5.57-3.06,8.78-.82,3.22-1.32,6.57-1.5,10.06-.18,3.49.06,6.89.72,10.18.61,3.06,1.62,5.14,3.02,6.26,1.41,1.12,3.04,1.5,4.9,1.13,2.16-.43,4.3-1.54,6.43-3.34,2.13-1.79,4-4.6,5.61-8.41l1.58.43c-.74,2.2-1.86,4.42-3.35,6.65-1.49,2.23-3.27,4.15-5.34,5.78-2.07,1.63-4.4,2.7-6.97,3.21-2.4.48-4.59.42-6.58-.18s-3.65-1.75-4.98-3.45c-1.33-1.7-2.28-3.92-2.82-6.68-.51-2.58-.61-5.56-.29-8.96.32-3.39,1.04-6.87,2.17-10.43,1.13-3.56,2.65-6.93,4.57-10.11,1.92-3.18,4.21-5.88,6.89-8.1,2.67-2.21,5.72-3.66,9.13-4.34,1.86-.37,3.53-.19,5.01.54,1.48.73,2.42,2.09,2.82,4.06.48,2.4.22,4.77-.78,7.12-1,2.35-2.48,4.6-4.44,6.77-1.97,2.17-4.17,4.18-6.6,6.03-2.43,1.86-4.84,3.52-7.23,4.99-2.39,1.47-4.51,2.71-6.36,3.7l-.21-1.54Z"/>
      <path class="uuid-29a3d40b-2cc9-46c7-abba-11bfed558a93" d="m245.39,506.64c-1.62,2.5-3.53,4.67-5.74,6.49s-4.69,2.97-7.46,3.44c-2.77.47-5.05.35-6.84-.34-1.79-.69-3.18-1.77-4.17-3.25-.99-1.47-1.63-3.08-1.93-4.83-.5-2.95-.17-6.13.99-9.55,1.16-3.42,2.85-6.9,5.07-10.47,2.22-3.56,4.72-7.03,7.49-10.41,2.78-3.38,5.51-6.44,8.21-9.19l1.4-.51c-.9.52-1.84,1.19-2.82,2.01-.98.82-1.93,1.62-2.84,2.43-.92.8-1.82,1.51-2.71,2.13-.89.61-1.75.99-2.6,1.13-1.15.19-2.19-.02-3.13-.63-.94-.62-1.92-.84-2.95-.67-.96.16-1.71.71-2.23,1.63-.53.92-.94,2.5-1.25,4.72l-.52,3.53-1.72.29.97-6.95c.61-3.76,1.51-6.4,2.71-7.93,1.2-1.53,2.58-2.43,4.15-2.7,1.14-.19,2.17-.06,3.09.41.92.47,1.83.92,2.74,1.35.91.44,1.94.56,3.08.36,1.45-.24,2.7-.69,3.77-1.33,1.07-.64,2.06-1.54,2.99-2.69l.98-1.93,2.05.58c-2.7,3.12-5.26,6.4-7.68,9.84-2.43,3.44-4.53,6.97-6.3,10.58-1.78,3.61-3.07,7.27-3.87,10.96-.8,3.7-.9,7.35-.29,10.97.51,3.01,1.31,5.04,2.42,6.1,1.11,1.05,2.41,1.45,3.92,1.2,1.81-.3,3.61-1.18,5.41-2.63,1.8-1.45,3.46-3.38,4.97-5.81l.65,1.66Zm10.85,3.19c2.95-.5,5.38-1.77,7.3-3.83,1.91-2.05,3.37-4.55,4.36-7.47.99-2.92,1.61-6,1.84-9.23.23-3.23.16-6.28-.2-9.16-.36-2.88-.98-5.27-1.86-7.17-1.19-.05-2.49-.28-3.92-.69-1.43-.41-2.72-1.09-3.87-2.04-1.15-.95-1.86-2.24-2.14-3.87-.26-1.57-.03-2.75.7-3.56.73-.8,1.52-1.28,2.36-1.42.9-.15,1.75-.02,2.53.41.78.43,1.53,1.08,2.23,1.95.7.87,1.38,1.92,2.02,3.14.64,1.22,1.21,2.57,1.7,4.03,1.06,2.61,1.81,5.61,2.26,9,.45,3.39.51,6.87.17,10.42-.33,3.56-1.16,6.93-2.48,10.13s-3.2,5.9-5.65,8.1c-2.45,2.21-5.57,3.63-9.36,4.27-1.93.33-3.77.26-5.51-.19-1.75-.45-3.27-1.49-4.57-3.13s-2.22-4.05-2.75-7.25c-.45-2.65-.45-5.31,0-7.99.45-2.68,1.19-5.16,2.23-7.44,1.04-2.28,2.21-4.15,3.52-5.61,1.3-1.46,2.59-2.29,3.85-2.51.9-.15,1.64.07,2.2.65.56.59,1,1.36,1.32,2.33.32.97.55,1.9.7,2.81.55,3.25.22,6.72-.99,10.39-1.21,3.67-3.44,7.24-6.7,10.7l-.73-1.55c2.46-2.7,4.26-5.79,5.41-9.27,1.15-3.48,1.46-6.81.92-10-.2-1.2-.49-2.19-.87-2.97-.38-.77-.9-1.1-1.56-.99-.96.16-1.92,1.11-2.86,2.85-.95,1.74-1.66,3.87-2.13,6.4-.47,2.53-.49,5.11-.04,7.76.36,2.17.98,4.23,1.83,6.19.86,1.96,2.01,3.5,3.47,4.62,1.46,1.12,3.21,1.5,5.26,1.16Z"/>
      <path class="uuid-29a3d40b-2cc9-46c7-abba-11bfed558a93" d="m285.76,485.46c3.21-1.65,6.11-3.24,8.69-4.76,2.58-1.53,4.6-3.04,6.04-4.56,1.92-2.07,3.32-4.44,4.22-7.11.9-2.67,1.13-5.48.69-8.44-.26-1.75-.55-2.85-.86-3.3-.31-.45-.71-.63-1.2-.56-1.51.22-3.04,1.13-4.6,2.72-1.56,1.59-3.01,3.67-4.35,6.25-1.35,2.58-2.51,5.45-3.49,8.62-.98,3.17-1.64,6.5-1.99,9.97-.35,3.48-.27,6.88.22,10.2.46,3.08,1.36,5.22,2.71,6.41,1.35,1.19,2.96,1.64,4.83,1.37,2.18-.32,4.37-1.33,6.59-3.02,2.22-1.69,4.22-4.39,6.02-8.12l1.56.51c-.85,2.16-2.08,4.32-3.67,6.47-1.6,2.15-3.47,3.99-5.62,5.51-2.15,1.52-4.53,2.48-7.12,2.86-2.42.36-4.6.19-6.56-.51-1.96-.7-3.56-1.93-4.81-3.68-1.25-1.76-2.08-4.03-2.49-6.81-.39-2.6-.34-5.58.15-8.96.49-3.38,1.38-6.81,2.68-10.31,1.3-3.5,2.99-6.79,5.06-9.88,2.07-3.09,4.5-5.67,7.28-7.75,2.78-2.08,5.89-3.38,9.33-3.89,1.87-.28,3.53-.02,4.98.79,1.45.8,2.32,2.2,2.61,4.2.36,2.42-.02,4.77-1.13,7.07-1.11,2.29-2.7,4.48-4.77,6.54-2.07,2.07-4.37,3.97-6.89,5.7-2.52,1.73-5.01,3.28-7.46,4.63-2.45,1.35-4.63,2.48-6.54,3.38l-.14-1.55Z"/>
      <path class="uuid-29a3d40b-2cc9-46c7-abba-11bfed558a93" d="m336.71,478.31l2.28-.22c-2.01,1.51-3.87,2.89-5.58,4.14-1.71,1.25-3.08,2.38-4.11,3.38-1.03,1-1.5,1.9-1.39,2.69.08.61.58,1.11,1.5,1.51.92.4,2.38.71,4.38.93l6.86.82c2,.22,3.82.54,5.45.96,1.63.42,2.96,1.06,4,1.9,1.04.84,1.67,2.05,1.88,3.63.21,1.51-.06,3.29-.8,5.33s-2.03,4.08-3.88,6.12c-1.85,2.04-4.36,3.86-7.53,5.47-3.17,1.6-7.12,2.73-11.84,3.38-3.15.43-5.83.5-8.06.22-2.23-.28-3.94-.86-5.14-1.75-1.2-.88-1.89-1.99-2.07-3.32-.13-.97,0-2.02.4-3.15.4-1.13,1.06-2.27,1.98-3.42.92-1.14,2.13-2.26,3.61-3.36,1.48-1.1,3.27-2.1,5.37-3l.82,1.28c-2.08,1.46-3.45,2.97-4.1,4.54s-.87,3.08-.67,4.53c.33,2.42,1.42,4.04,3.26,4.87,1.84.83,4,1.07,6.48.73,2-.27,4.01-.87,6.04-1.8,2.03-.92,3.88-2.04,5.55-3.35,1.67-1.31,2.96-2.73,3.85-4.27.9-1.54,1.24-3.07,1.04-4.58-.12-.91-.49-1.47-1.11-1.7-.62-.22-1.61-.4-2.98-.52l-14.37-1.64c-1.5-.17-2.77-.62-3.79-1.38-1.03-.75-1.65-1.89-1.85-3.4-.17-1.21.09-2.51.76-3.9.67-1.39,2.08-3.01,4.23-4.88,2.15-1.87,5.32-4.13,9.52-6.8Zm1.23-28.19c3.57-.49,6.57-.08,9,1.22,2.43,1.3,3.89,3.74,4.37,7.31.4,2.9-.03,5.89-1.27,8.96-1.24,3.07-3.22,5.73-5.94,7.98-2.71,2.25-6.1,3.65-10.15,4.21-3.33.46-6.24.04-8.73-1.26-2.49-1.29-3.96-3.63-4.43-7.02-.22-1.63-.13-3.57.27-5.82.4-2.24,1.22-4.45,2.47-6.63,1.24-2.17,3.03-4.08,5.37-5.73,2.33-1.64,5.35-2.72,9.04-3.22Zm-.14,1.68c-1.94.26-3.49,1.05-4.67,2.35-1.18,1.3-2.09,2.88-2.73,4.72-.64,1.84-1.06,3.74-1.26,5.67-.2,1.94-.28,3.69-.25,5.26.03,1.57.09,2.71.19,3.44.27,1.94.89,3.27,1.89,4,.99.73,2.22.99,3.67.79,2.3-.31,4.06-1.26,5.3-2.85,1.23-1.59,2.1-3.46,2.61-5.63.5-2.16.75-4.29.74-6.39,0-2.09-.11-3.84-.3-5.23-.28-2.06-.78-3.65-1.49-4.79-.71-1.14-1.94-1.58-3.7-1.34Zm7.23,2.16l-1.72-.41c.57-2.17,1.77-4.19,3.61-6.04,1.84-1.85,3.88-2.94,6.12-3.24,1.57-.22,2.9.05,3.99.79,1.09.75,1.76,2.06,2.02,3.93.23,1.7-.02,2.99-.76,3.9-.74.9-1.59,1.42-2.56,1.55-.97.13-1.94-.06-2.9-.57-.96-.52-1.63-1.46-2-2.82-.37-1.37-.22-3.21.45-5.52l1.22.11c-2.41,1.32-4.09,2.58-5.03,3.79-.94,1.21-1.75,2.72-2.43,4.54Z"/>
      <path class="uuid-29a3d40b-2cc9-46c7-abba-11bfed558a93" d="m365.54,474.27c3.25-1.58,6.18-3.11,8.79-4.58,2.61-1.47,4.66-2.95,6.13-4.43,1.96-2.03,3.42-4.37,4.37-7.02.96-2.64,1.25-5.45.87-8.42-.22-1.76-.49-2.86-.79-3.32-.3-.45-.7-.65-1.18-.59-1.52.19-3.07,1.07-4.65,2.62-1.59,1.56-3.08,3.61-4.48,6.16-1.4,2.55-2.63,5.4-3.67,8.55-1.05,3.15-1.78,6.46-2.2,9.93-.42,3.47-.42,6.87,0,10.2.39,3.09,1.25,5.24,2.57,6.46,1.32,1.22,2.93,1.71,4.8,1.47,2.18-.28,4.4-1.23,6.65-2.88,2.25-1.64,4.32-4.3,6.19-7.99l1.55.54c-.9,2.15-2.17,4.28-3.81,6.39-1.64,2.12-3.55,3.91-5.73,5.39-2.18,1.48-4.58,2.38-7.18,2.71-2.42.31-4.61.09-6.55-.65-1.94-.74-3.52-2-4.73-3.79-1.21-1.79-1.99-4.07-2.35-6.86-.33-2.6-.22-5.59.34-8.96.56-3.36,1.53-6.78,2.9-10.25,1.38-3.47,3.13-6.72,5.27-9.77,2.14-3.04,4.62-5.57,7.44-7.59,2.82-2.02,5.96-3.25,9.41-3.69,1.88-.24,3.53.06,4.96.89,1.43.83,2.27,2.25,2.52,4.25.31,2.42-.12,4.77-1.28,7.04-1.16,2.27-2.8,4.42-4.91,6.44-2.11,2.02-4.45,3.88-7.01,5.55-2.56,1.68-5.08,3.17-7.56,4.47-2.48,1.3-4.69,2.38-6.61,3.24l-.1-1.56Z"/>
      <path class="uuid-29a3d40b-2cc9-46c7-abba-11bfed558a93" d="m410.44,489.62l-7.92.92,6.38-40.31c.16-.76.26-1.58.31-2.48.05-.9-.09-1.65-.4-2.26-.32-.61-.96-.86-1.93-.74-1.34.16-2.44.95-3.32,2.37-.88,1.43-1.75,4-2.61,7.73l-.79,3.5-1.73.2,1.5-6.91c.89-3.98,2.25-6.69,4.08-8.13,1.83-1.44,3.72-2.28,5.66-2.5,1.82-.21,3.19.03,4.1.72.91.69,1.48,1.66,1.72,2.89.24,1.23.3,2.61.2,4.13-.1,1.52-.25,3.03-.44,4.52l-4.81,36.35Zm1.99-19.42c1.49-5.71,3.02-10.53,4.59-14.46,1.57-3.93,3.2-7.15,4.87-9.65,1.68-2.5,3.47-4.37,5.39-5.61,1.92-1.24,3.97-1.98,6.15-2.24,2.85-.33,4.89.12,6.11,1.37,1.22,1.24,1.89,2.92,2.01,5.02.12,2.11-.05,4.33-.52,6.66l-5.74,27.6c-.36,1.7-.43,3.08-.21,4.13.21,1.05.99,1.5,2.32,1.34,1.15-.13,2.22-.9,3.19-2.31.97-1.41,1.89-4,2.74-7.79l.79-3.5,1.73-.2-1.5,6.91c-.55,2.65-1.38,4.71-2.46,6.19-1.09,1.48-2.29,2.56-3.59,3.23-1.31.67-2.59,1.09-3.87,1.23-1.46.17-2.68.07-3.68-.31-1-.38-1.78-.93-2.36-1.66-.8-1.01-1.17-2.41-1.13-4.2.04-1.79.3-3.78.78-5.99l5.62-27.03c.2-.88.34-1.93.42-3.14.07-1.21-.09-2.26-.51-3.17-.41-.9-1.35-1.27-2.8-1.1-1.46.17-2.93.99-4.42,2.45-1.49,1.46-2.98,3.47-4.47,6.01-1.49,2.54-2.89,5.53-4.21,8.98-1.32,3.44-2.53,7.21-3.62,11.3-1.09,4.09-2.02,8.43-2.78,13l1.16-13.05Z"/>
    </g>
  </g>
  <g id="uuid-278ca94e-9a2a-4ad9-ac88-4f9abec85ce7" data-name="hand">
    <g id="uuid-982d39d5-c1cd-43db-9601-8f6b7929f0ff" data-name="Inserted Image + Inserted Image Image">
      <g>
        <path class="uuid-29a3d40b-2cc9-46c7-abba-11bfed558a93" d="m199.03,242.77c.54-4.66,1.31-9.28,1.51-13.92.09-2.03-.7-4.23-1.59-6.12-1.06-2.28-2.64-4.33-4.01-6.47-5.92-9.27-10.53-19.06-11.66-30.36-9.64-8.95-19-18.17-19.84-32.97-4.23-1.14-8.45-2.02-12.48-3.42-5.46-1.9-11.16-3.54-16.07-6.46-9.41-5.6-11.48-20.29-4.39-28.63,1.25-1.47,3.64-2.47,5.62-2.71,4.07-.48,7.85.78,11.24,3.26,6.85,5.02,14.67,7.93,22.84,9.87,3.82.91,7.78,1.24,11.08,1.74,2.7-2.36.87-3.88.23-5.31-.97-2.17-.86-4.22-.02-6.31.94-2.36,1.75-4.79,2.94-7.02,5.35-10.02,15.29-11.18,22.91-2.76,2.44,2.69,4.87,5.38,7.4,7.98,1.26,1.3,2.71,2.4,4.22,3.72,1.34.11,2.79.44,4.21.31,6.02-.55,10.24,1.73,13.69,6.84,4.13,6.12,10.28,10.22,16.93,13.35,4.24,1.99,6.74,4.96,8.17,9.49,2.32,7.33,6.25,13.86,11.7,19.41,1.26,1.28,2.39,2.73,3.39,4.23,5.43,8.12,10.8,16.29,16.52,24.92-.02,42.25,20.76,75.3,50.56,103.89,10,9.6,21.41,17.35,34.1,23.16,7.45,3.41,9.93,8.01,9.04,16.5-.85,8.07-3.42,15.57-8.36,22.14-6.63,8.82-14.64,16.07-24.3,21.5-16.02,9.02-33.31,14.23-51.32,17.31-9.33,1.59-18.72,2.59-28.21,2.03-7.6-.45-15.16-1.21-21.83-4.24-2.44-3.47-1.5-6.79-1-9.93,1.86-11.63,1.11-23.2-.95-34.67-3.57-19.96-13.36-36.64-27.68-50.8-4.22-4.17-9.27-7.21-15.04-8.4-16.23-3.34-28.12-12.93-38.05-25.52-1.57-2-3.26-3.91-4.82-5.91-8.91-11.39-19.76-20.2-33.45-25.29-1.32-.49-2.58-1.15-4.48-2,3.76-8.19,10.49-12.25,18.17-14.38,9.18-2.54,18.7-2.24,28.14-.93,3.23.45,4.98,2.74,6.71,5.09,3.23,4.38,6.31,8.88,9.74,13.09,1.99,2.44,4.24,4.97,8.49,4.71Zm93.65,116.26c-4.07,5.98-9.85,6.74-15.31,8.18-2.79.73-5.68,1.13-8.51,1.75-1.6.35-2.67,1.41-1.98,3.02.3.7,1.79,1.44,2.59,1.3,6.06-1.04,12.16-2,18.1-3.54,14.43-3.75,28.35-8.83,40.8-17.29,6.35-4.31,11.97-9.36,16.09-15.95,5.88-9.4,5.12-22.95-5.13-29.96-9.9-6.78-18.15-15.53-26.03-24.55-1.19-1.36-2.15-2.93-2.81-3.83-6.27,0-11.4-.57-16.37.1-18.58,2.52-32.75,11.09-39.03,29.83-.57,1.71-1.03,3.56-2.07,4.97-1.14,1.55-2.88,2.66-4.42,4.02,1.8,3.38,2.96,6.54,4.96,9.03,1.9,2.36,4.68,4.01,6.69,5.66-.42,1.95-.7,3.26-.95,4.41,4.35,2.68,9.83.05,13.92,4.53-4.18.41-7.67.75-12.36,1.2,6.02,5.67,12.98,1.52,18.86,4.95-1.6.82-2.75,1.78-4.01,1.98-2.85.44-5.76.51-8.65.73-1.62.13-2.7.74-2.23,2.9,2.8.87,5.72,1.79,8.75,2.73-1.48,3.84-6.65,1.52-7.98,5.98,4.8,1.15,9.08.36,13.27-.04,4.62-.44,9.18-1.38,13.77-2.1Zm-22.35-139.88c3.31-2.65,6.22,1.1,9.16.3.56-.15.97-.8,1.45-1.23-.32-3.51-5.86-3.3-5.32-7.43,1.09-1.22,2.16-2.43,3.24-3.65-5.69-5.58-13.78-1.65-19.69-5.75,5.55-5.88,13.02-1.11,19.42-4.35-4.5-6.31-10.73-4.01-15.91-3.98-15.93.08-33.04,9.03-40.03,20.51,2.07,1.82,4.22,3.68,6.33,5.58,10.37,9.33,14.41,21.45,15.14,34.91.29,5.48-1.06,7.33-6.1,8.73-3.47.96-7.09,1.42-10.65,1.98-2.45.39-4.93.57-8.07.92-1.65,8.09-1.75,15.93-.06,23.76.35,1.63,1.38,3.59,2.7,4.47,6.27,4.16,12.75,8.01,19.43,12.13,1.27-1.74,2.37-3.15,3.37-4.63,7.38-10.99,17.53-18.34,30.21-21.79,8.01-2.18,16.3-3.29,24.47-4.91,1.94-.39,4.39.39,5.55-2.37-3.99-7.17-8.6-14.16-11.88-21.72-3.12-7.2-6.68-13.48-14.1-16.88-.43-.2-.46-1.24-.73-2.03,1.87-.75,3.74-1.51,5.84-2.35-2.51-6.45-10.53-4.82-13.77-10.23Zm87.55,100.74c0,3.14-.15,5.56.03,7.95.49,6.44-1.12,12.41-5.04,17.36-3.57,4.5-7.64,8.73-12.07,12.4-6.46,5.35-14.05,8.91-21.89,11.88-14.03,5.32-28.63,7.76-43.53,8.76-2.07.14-4.65-.89-6.34,2.41,6.42.22,12.54.39,18.65.65,1.42.06,2.9.34,2.8,2.81-1.63.23-3.33.56-5.05.68-2.17.16-4.35.18-6.53.21-1.81.02-3.64-.13-5.44,0-1.83.12-4.02-.78-5.83,1.58,4.51,3.04,9.26,2.72,13.83,3.24,1.32.15,3,.22,2.54,3.17-6.14.2-12.43.4-18.96.61,1.43,3.92,4.38,3.23,6.69,3.3,17.54.54,34.73-1.53,51.42-7.16,10.03-3.38,19.51-7.83,28.08-14.06,6.51-4.73,12.23-10.24,16.43-17.18,3.84-6.33,6.12-13.1,5.83-20.6-.31-7.79-2.33-14.37-11.19-16.34-1.34-.3-2.6-.96-4.43-1.66Zm-142.99-93c-3.45,8.55.16,16.2.73,24.09-11.06,2.89-20.28-2.8-30.67-4.6-1.88,2.78-3.93,5.27-5.38,8.08-1.58,3.09-1.42,6.28,1.12,9.06,5.37,5.87,10.63,11.82,16.07,17.62,1.42,1.51,3.12,3.04,6.16,2.41,1.35-3.56.27-7.53.59-11.35.36-4.29.18-8.69,3.84-12.71,2.83,0,6.04.05,9.25-.01,3.54-.07,7.22.68,10.46-1.23,2.56-13.73-1.48-24.5-12.17-31.36Zm-4.68-53.76c-8.34,4.96-8.62,5.23-14.43,13.76,2.94,9.55,6.44,19.16,14.5,26.54,7.06-6.62,13.58-12.74,20.14-18.89-6.48-6.87-13.08-13.86-20.21-21.4Zm-30.77-42.22c-6.9-1.36-12.93-2.49-18.92-3.76-6.22-1.32-11.93-4.65-18.47-5.24-2.55,6.91-1.54,12.89,2.68,17.86,4.89,5.75,11.37,8.64,18.32,8.12,5.56-5.76,10.53-10.91,16.39-16.98Zm-15.49,91.01c-12.41,1.57-18.67,5.52-21.61,13.22,8.57,4.44,17.12,8.86,25.94,13.43,3.08-3.02,7.25-4.59,9.32-8.22-4.66-6.29-8.96-12.09-13.65-18.43Zm43.73-57.01c-5.84-4.5-10.8-7.61-14.83-11.64-3.9-3.91-6.84-8.78-10.4-13.49-4.4,4-5.8,8.31-4.93,13.23,1.5,8.5,5.59,15.43,12.84,20.46,5.73-2.83,11.12-5.49,17.31-8.56Zm25.44-.45c-2.77-5.58-5.4-9.93-7.13-14.62-1.73-4.69-2.47-9.74-3.83-14.58-.24-.84-1.43-1.41-2.22-2.15-6.33,2.57-8.04,7.99-9.41,13.71-1.11,4.64-.11,8.6,3.61,11.66,3.59,2.95,7.28,5.76,10.99,8.68,2.64-.89,4.98-1.68,7.99-2.7Zm-15.17-37.5c-7.67-5.4-15.19-10.69-23.03-16.21-1.44,1.7-2.77,2.93-3.67,4.42-1.1,1.81-1.84,3.84-2.88,6.1,3.93,5.63,7.78,11.15,11.79,16.89,5.96-3.75,11.69-7.36,17.79-11.2Zm30.67,16.73c-4.05,1.62-7.3,3.62-6.08,7.89,1.83,6.41,3.56,13.1,9.4,17.46,3.29-1,6.29-1.9,9.91-3-4.43-7.48-8.55-14.44-13.23-22.35Zm-13.55,25.4c-2.37,1.77-4.24,3.17-6.36,4.76,4.17,6.77,8.59,12.33,14.11,17.47,2.79-1.08,5.24-2.03,7.81-3.03-5.22-6.44-9.96-12.3-15.56-19.2Zm29.47,2.39q-5.02,1.33-7.82,5.4c3.62,5.29,8,9.87,14.08,12.5,1.04.45,2.52-.11,4.58-.26-3.81-6.19-7.14-11.62-10.85-17.64Zm-18.93-31.44c-.99-.82-1.46-1.36-2.05-1.66-1.17-.6-2.7-1.87-3.53-.03-.43.96,0,3.05.77,3.59.72.51,2.42-.31,3.67-.63.27-.07.46-.49,1.13-1.27Z"/>
        <path class="uuid-29a3d40b-2cc9-46c7-abba-11bfed558a93" d="m260.2,322.2c.3.52.82,1.43,1.34,2.34-.81.36-1.8,1.18-2.37.96-.77-.3-1.22-1.42-1.8-2.19.61-.24,1.23-.48,2.84-1.11Z"/>
        <path class="uuid-29a3d40b-2cc9-46c7-abba-11bfed558a93" d="m284.21,355.31c.43-1.03.67-2.12.94-2.13.97-.02,1.94.32,2.91.53-.3.61-.49,1.64-.92,1.75-.85.22-1.84-.06-2.92-.15Z"/>
        <path class="uuid-29a3d40b-2cc9-46c7-abba-11bfed558a93" d="m260,209.93c2.83-.51,3.9-1.02,4.7-.75.74.25,1.19,1.35,1.77,2.07-.89.29-1.82.91-2.64.79-.92-.13-1.76-.92-3.83-2.11Z"/>
        <path class="uuid-29a3d40b-2cc9-46c7-abba-11bfed558a93" d="m303.16,388.75c-1.45.97-2.24,1.88-3.12,1.96-.78.08-1.65-.76-2.47-1.19.75-.59,1.42-1.5,2.26-1.68.79-.17,1.74.43,3.33.9Z"/>
      </g>
    </g>
  </g>
</svg>