<?xml version="1.0" encoding="UTF-8"?>
<svg id="uuid-51caac8d-91f7-4e19-a2ff-f43363eb3124" data-name="Layer 2" xmlns="http://www.w3.org/2000/svg" viewBox="0 0 389.32 405.42">
  <defs>
    <style>
      .uuid-a66c46a8-4cc6-4e63-ba33-8d3448449503 {
        fill: #ff203e;
      }
    </style>
  </defs>
  <g id="uuid-9a0cf9d4-6071-4275-9380-c9db18f8a129" data-name="schaar Image">
    <g>
      <path class="uuid-a66c46a8-4cc6-4e63-ba33-8d3448449503" d="m181.35,180.11c8.96-4.38,10.34-11.8,11.71-19.21.34-1.84.75-3.69.87-5.55,1.47-22.5,10.15-42.62,20.33-62.25,3.44-6.64,7.26-13.15,10.02-20.07,7.16-17.92,3.24-34.09-9.51-48.07-12.04-13.2-30.26-14.82-44.33-4.09-19.52,14.88-26.84,44.52-19.83,61.7,2.47,6.04,5.25,11.98,8.31,17.75,4.82,9.1,10.11,17.95,14.97,27.03,1.73,3.24,2.79,6.84,4.09,10.12-3.51,6.2-7.59,10.13-14.79,8.49-7.35-11.58-15.06-22.75-21.77-34.48-14.31-25.02-15.1-50.7-2.04-76.5,5.85-11.55,14.6-20.58,25.69-27.17,24.48-14.55,52.91-8.26,69.37,15.16,11.13,15.84,13.64,32.58,5.17,50.36-3.22,6.75-6.91,13.27-10.24,19.98-5.61,11.31-11.46,22.52-16.51,34.08-2.78,6.37-4.65,13.27-6,20.11-1.79,9.1.52,12.64,9.03,16.37.85.37,1.86.37,2.69.76,6.75,3.22,11.06,10.43,8.34,17.25-4.95,12.38-1.87,23.84,1.64,35.61,2.27,7.61,4.14,15.35,5.92,23.09,3.2,13.92.73,26.97-6.53,39.15-2.63,4.42-5.21,8.91-8.31,12.99-21.21,27.93-42.44,55.84-63.93,83.55-4.85,6.26-10.41,12.05-16.2,17.47-8.49,7.94-18.51,12.62-30.55,11.53-7.44-.68-14.91-1.19-22.31-2.23-2.63-.37-5.51-1.58-7.51-3.3-7.29-6.28-7.75-11.22-2.2-19.35,2.63-3.86,5.32-7.71,8.3-11.3,28.75-34.56,54.41-71.41,80.35-108.06,10.27-14.51,20.81-28.82,31.03-43.36,3.14-4.47,6.83-8.81,8.03-15.42-5.19-1.49-9.97-2.86-15.85-4.55-2.07-4.86-4.41-10.35-7.5-17.58Zm32.84,40.74c-1.97,2.03-3.42,3.18-4.45,4.63-24.98,35.02-50.05,69.98-74.8,105.17-11.31,16.08-23.07,31.77-36.23,46.4-2.37,2.63-4.29,5.67-6.4,8.51,6.88,5.58,11.64,1.55,14.9-1.35,4.43-.6,5.75,5.62,9.83,1.2-.68-3.97-1.63-8.07-1.97-12.21-.16-1.99.83-4.07,1.25-5.89,8.05.82,7.66,9.41,13.31,12.44,1.98-4.89-.46-8.67-1.18-12.68-.82-4.53-1.16-9.16-1.5-13.77-.05-.7.93-2.07,1.53-2.12,1.23-.1,3.17.05,3.67.83,2.93,4.61,5.52,9.43,8.91,15.38,1.36-3.32,1.68-5.82,3.09-7.15,1.81-1.7,4.5-2.46,6.3-3.37,1.45-7.25-4.89-12.97-2.08-19.67,5.96.06,4.83,8.07,10.07,8.24,2.97-4.11-3.5-9.18,1.86-12.88,2.45,1.39,4.79,2.72,7.78,4.42.66-2.15.98-3.92,1.73-5.49.72-1.51,1.78-3.91,2.87-4.01,4.41-.4,6.43-3.52,8.62-6.5,8.84-12.07,17.84-24.03,26.28-36.38,3.93-5.75,7.22-12.07,9.9-18.5,6.32-15.21,3.75-29.94-3.26-45.25Zm-3.09-31.41c5.38-2.87,7.1-7.1,4.57-11.24-3.87-6.36-9.22-8.88-13.6-6.39-5.21,2.96-7.54,8.84-5.07,12.79,3.65,5.83,8.88,7.63,14.09,4.85Z"/>
      <path class="uuid-a66c46a8-4cc6-4e63-ba33-8d3448449503" d="m168.52,173.88c4.32,8.58,7.87,15.6,11.74,23.28-4.35,4.67-8.27,9.23-12.55,13.41-42.46,41.44-84.98,82.81-127.5,124.2-5.02,4.89-10.06,9.75-15.17,14.54-4.1,3.84-8.95,4.77-14.32,3.31-5.48-1.49-8.8-4.57-9.37-10.68-1.53-16.35-2.04-32.68.01-49,1.44-11.49,5.88-21.57,14.73-29.43,31.78-28.23,63.65-56.35,95.21-84.81,9.5-8.57,20-11.39,32.31-9.09,8.25,1.54,16.55,2.86,24.91,4.29Zm-80.69,89.83c3.27-3.37.71-5.88.28-8.42-.47-2.76-1.19-5.49-1.89-8.2-.7-2.72-1.89-5.37-2.15-8.11-.24-2.43-2.39-5.25,1.14-7.99,5.55,6.4,5.22,15.81,11.04,22.04q3.16-5.56,9.48-7.44c-.45-4.43-.91-8.88-1.59-15.5,4.13,3.74,6.63,6.03,9.19,8.26.18.16.83-.23,1.54-.45-.02-1.28-.11-2.63-.04-3.98.07-1.34.29-2.68.44-4.01,9.33.71,9.44.82,14.87-4.36,9.8-9.36,19.52-18.8,29.13-28.35,2.53-2.52,4.52-5.58,7.14-8.87-6.31-3.78-12.55-2.94-18.43-3.78-13.85-1.99-25.87,1.98-36.29,11.15-12.27,10.8-24.56,21.6-36.81,32.42-1.75,1.54-3.77,2.99-4.95,4.92-1.66,2.73-2,6.53-4.12,8.66-2.02,2.03-6.08,1.91-8.41,3.78-3.99,3.19-7.41,7.1-10.92,10.86-21.25,22.81-23.29,27.98-23.15,58.89,0,2.06-.94,4.82,3.54,6.13,10.76-9.83,23.57-18.31,34.08-30.4-1.18-5.96-2.27-11.9-3.55-17.8-2.64-12.27-2.68-12.26-.48-19.55,5.57,6.68,3.73,16.46,10.58,22.33,1.35-7.94-3.29-15.13.33-23.23,7.09,5.33,5.21,14.43,11.97,20.99-.09-6.76-.15-11.63-.23-18.48,3.68,3.78,5.96,6.13,8.26,8.5Z"/>
      <path class="uuid-a66c46a8-4cc6-4e63-ba33-8d3448449503" d="m250.57,211.46c.92-6.34,3.95-9.09,7.76-11.18,3.29-1.8,6.26-1.54,8.93,1.19,3.91,4.02,7.58,8.28,11.39,12.4,6.76,7.31,14.69,13,23.74,17.13,8.99,4.1,18,4.36,27.17.46,9.24-3.93,17.11-9.62,23.04-17.74,8.84-12.09,12.36-26.08,13.58-40.72.72-8.57-3.46-14.63-11.51-17.16-5.25-1.65-10.93-2.58-16.42-2.62-8.98-.07-17.69,2.32-25.63,6.45-16.58,8.61-32.99,17.55-49.33,26.6-7.38,4.09-14.56,8.54-23.01,9.98-2.64.45-5.42.11-8.12.13-.55-10.25.89-13.37,8.7-14.83,15.26-2.84,27.66-10.84,39.55-20.13,7.36-5.76,14.75-11.49,22.43-16.8,4.58-3.17,9.55-5.96,14.68-8.13,22.98-9.71,44.83-4.05,60.08,15.74,13.05,16.93,17.1,34.68,2.28,57.12-14.2,21.49-35.13,33.08-60.74,35.8-13.6,1.45-25.91-3.06-37.36-9.83-11.27-6.67-20.89-15.57-31.2-23.87Z"/>
      <path class="uuid-a66c46a8-4cc6-4e63-ba33-8d3448449503" d="m139.44,339.58c1.7,4.98,2.73,7.39,3.22,9.9.11.55-1.97,2.29-2.54,2.08-3.8-1.37-4.3-4.45-.68-11.97Z"/>
      <path class="uuid-a66c46a8-4cc6-4e63-ba33-8d3448449503" d="m97.03,233.33c-.54,1.06-1.11,2.16-1.68,3.26-.62-.59-1.76-1.19-1.75-1.76.02-1.07.72-2.12,1.13-3.19.66.49,1.33.97,2.3,1.69Z"/>
      <path class="uuid-a66c46a8-4cc6-4e63-ba33-8d3448449503" d="m74.81,238c2.26,3.66,3.16,4.84,3.71,6.17.18.44-.58,1.25-.9,1.9-.66-.47-1.66-.81-1.89-1.44-.42-1.13-.39-2.44-.91-6.63Z"/>
    </g>
  </g>
</svg>