<?xml version="1.0" encoding="UTF-8"?>
<svg id="uuid-5dd53b16-7efb-4c63-8784-7924a22bc705" data-name="Layer 2" xmlns="http://www.w3.org/2000/svg" viewBox="0 0 432.75 607.9">
  <defs>
    <style>
      .uuid-b500540e-6941-4c93-a181-0718807d966b {
        fill: #fff;
      }

      .uuid-2a45c210-8ab7-42f1-9561-fa408a61369a {
        fill: #ff203e;
      }
    </style>
  </defs>
  <g id="uuid-f56d7ec2-66a3-44bc-98ca-d335a3c19ed4" data-name="achtergronden + Layer 15 Image">
    <path class="uuid-2a45c210-8ab7-42f1-9561-fa408a61369a" d="m377.01,607.9c-11.51-4.58-21.56-8.56-30.36-15.18-6.46-4.86-12-10.41-15.76-17.74-2.48-4.83-5.68-9.28-8.61-13.87-1.72-2.7-4.38-4.1-7.42-3.57-4.61.81-9.25,1.82-13.66,3.38-5.12,1.81-9.96,4.39-14.99,6.47-7.76,3.21-15.76,5.38-24.26,5.68-7.53.27-14.45-1.47-20.69-5.58-3.94-2.59-7.9-5.25-11.37-8.41-11.76-10.7-25.44-18.01-40.29-23.29-6.49-2.31-13.08-4.36-19.65-6.47-3.46-1.11-7.01-1.94-10.43-3.14-10.17-3.56-10.89-5.23-6.87-14.96,1.25-3.02,2.49-6.03,3.68-9.07.08-.19-.33-.58-.93-1.54-4.09,5.23-8.03,10.26-12.15,15.51-2.4.27-4.91.78-7.42.79-7.73.03-15.1,1.78-22.43,4.06-6.24,1.94-12.51,3.78-18.85,5.33-11.87,2.89-21.47-.74-28.67-10.61-1.92-2.63-3.83-5.26-5.83-8.01-2.55,0-5.05-.13-7.54.02-12.38.78-24.69.71-36.86-2.16-5.31-1.25-10.45-2.84-15.63-6.27-.39-11,3.32-21.28,6.82-31.42,3.42-9.9,7.93-19.42,12.49-30.36-1.01-2.34-2.7-5.91-4.12-9.58-1.7-4.38-3.29-8.82-4.73-13.29-1.72-5.32-.27-10.13,3.23-14.2,3.07-3.57,6.35-7,9.85-10.15,17.28-15.56,25.47-35.81,30.04-57.9,1.82-8.79-.22-17.36-2.38-25.8-4.05-15.81-8.54-31.51-12.48-47.34-6.46-25.95-3.02-51.17,6.89-75.61,7.01-17.28,6.97-19.82-4.46-34.66-1.33-1.73-2.64-3.47-4.02-5.16-6.22-7.57-7.79-16.34-5.99-25.63,2.83-14.59,5.8-29.18,9.27-43.63,6.14-25.57,17.01-49.32,29.12-72.54.32-.61.92-1.07,1.75-2.01,1.93.51,4.07.79,5.97,1.62,17.63,7.69,35.42,15.04,52.76,23.34,18.99,9.09,37.68,18.84,56.25,28.75,13.73,7.33,28.14,11.48,43.68,12.08,13.07.5,26.13,1.5,39.2,1.89,11.58.34,22.2,3.41,31.89,9.68,12.5,8.08,24.97,16.23,37.47,24.32,4.57,2.96,9.21,5.83,13.78,8.79,7.44,4.83,15.65,7.74,24.34,9.02,8.25,1.22,16.59,1.94,24.9,2.69,7.96.72,15.96,1.09,23.91,1.89,2.34.24,4.58,1.44,7.28,2.35-.84,2.73-1.26,4.83-2.11,6.75-4.88,11.06-11.9,20.74-19.52,30.04-3.45,4.21-6.82,8.49-10.04,12.87-3.4,4.62-3.36,9.51-.16,14.19,3.07,4.49,6.2,8.98,9.69,13.14,6.26,7.47,8.57,15.67,6.48,25.32-2.84,13.08-4.8,26.38-10.83,38.44-4.11,1.45-7.84,2.76-11.51,4.06,3.03.41,6.12.82,9.73,1.31,0,4.42.26,8.38-.05,12.3-1.34,16.84.95,33.35,4.57,49.69,2.8,12.65,2.89,25.16,0,37.75-3.17,13.78-6.28,27.58-9.43,41.37-4.2,18.4-12.61,34.68-24.59,49.22-2.76,3.35-5.41,6.87-7.57,10.62-3.57,6.19-3.8,12.4,1.31,18.12,2.17,2.43,4.34,4.88,6.39,7.4,5.9,7.26,8.36,15.19,4.55,24.29-.42,1-.65,2.09-1.14,3.06-7.84,15.75-7.72,32.13-4.22,48.88,1.26,6.03,2.04,12.18,2.62,18.31.4,4.28.08,8.63.08,14.37Z"/>
  </g>
  <g id="uuid-f72e789f-028f-4693-8919-4eb81ee53844" data-name="vlag Image">
    <g>
      <path class="uuid-b500540e-6941-4c93-a181-0718807d966b" d="m358.48,277.91c-3.93-3.23-6.7-5.47-9.42-7.76-3-2.52-6.34-3.49-10.14-2.28-7.6,2.43-15.36,4.49-22.68,7.57-3.48,1.47-6.47,4.64-9.07,7.57-8.21,9.28-14.88,19.67-20.88,30.49-1.06,1.9-2.04,3.85-3.02,5.79-1.59,3.17-4.02,5.07-7.67,5.22-6.66.26-12.95,2.16-18.8,5.11-5.07,2.55-9.76,2.26-14.56-.24-1.93-1-3.89-1.98-5.7-3.18-6.39-4.26-7.16-6.31-4.73-13.61,2.07-6.19,4.51-12.26,6.6-18.45,2.24-6.66.66-10.39-5.64-13.08-2.29-.98-4.86-1.58-7.35-1.78-20.52-1.64-40.61.78-60.29,6.68-1.3.39-2.42,1.36-4.24,2.42,1.01,3.27,1.77,6.37,2.9,9.33,12.61,32.86,25.28,65.7,37.91,98.55,1.04,2.7,2.14,5.42,2.7,8.23.21,1.06-.75,2.92-1.72,3.47-1.01.58-3.05.53-3.98-.15-1.7-1.23-3.25-2.95-4.25-4.79-2.25-4.14-4.22-8.44-6.12-12.75-21.87-49.85-44.57-99.32-68.87-148.05-8.57-17.2-15.88-35.03-23.87-52.52-2.85-6.25-6.01-12.36-9.14-18.74-6.14-.8-11.51-2.42-14.62-8.23-2.07-3.87-2.9-7.53-.32-11.23,4.35-6.25,8.7-12.52,13.5-18.41,1.71-2.1,4.57-3.77,7.22-4.52,5.57-1.58,11.34-2.5,17.05-3.52,3.16-.56,5.59.86,7.5,3.39,4.23,5.58,5.09,9.48,3.64,18.8,1.93-.62,3.58-1.03,5.13-1.65,19.29-7.75,39.11-13.56,59.75-16.34,26.27-3.54,52.15-1.82,77.61,5.83,4.77,1.44,8.52,3.76,10.91,8.25,3.07,5.76,6.39,11.39,9.49,17.13,2.51,4.64,3,9.45,1.86,14.73-2.9,13.47-5.39,27.03-8.03,40.56-.34,1.73-.56,3.49-.8,4.99,2.13,2.09,3.65.57,5.21-.1,1-.43,2-.88,2.93-1.45,12.3-7.52,24.97-6.47,37.64-1.35,19.75,7.99,31.33,22.94,35.8,43.47,1.05,4.8,2.81,9.76.54,16.59Zm-83.4-108.05c.03.29,0,.61.12.86.09.19.36.3.54.44-.27-.4-.54-.79-.81-1.19-1.12-7.15-6.45-12.03-9.71-18.02-3.86-7.09-9.87-9.92-17.88-10.12-18.17-.45-36.29-.52-54.28,2.65-15.77,2.77-31.26,6.47-46.04,12.81-8.39,3.6-16.27,8.05-23.5,13.59-5.69,4.36-6.21,6.04-3.54,13.04,9.57,25.06,19.24,50.09,28.98,75.08.87,2.23,2.56,4.14,3.61,5.77,1.52.15,2.25.35,2.95.27,1.44-.16,2.88-.37,4.28-.72,17.49-4.41,35.27-4,53.06-3.05,8.87.48,17.24,2.49,23.96,8.9.93.89,2.32,1.31,4.49,2.48-.3-3.51-.61-5.93-.69-8.36-.06-1.87.38-3.61,2.78-4.13,4.82,2.38,3.42,8.64,7.65,13.13-.33-3.14-.3-4.95-.73-6.65-3.26-13.01-6.6-25.99-9.94-38.98-.63-2.45-1.52-4.85-1.96-7.34-.15-.83.52-2.3,1.22-2.64.74-.35,2.25-.02,2.92.58,3.68,3.29,5.01,7.93,6.33,12.42,1.9,6.49,3.43,13.09,5.12,19.64.7-5.19.16-10.21.08-15.24-.03-1.88,1.03-3.78,1.63-5.77,2.3.82,3.84,1.37,5.9,2.1-.28-2.56-.39-4.71-.77-6.81-1.98-10.78-5.68-20.96-10.77-30.66-1.28-2.43-3.3-4.86-1.76-8,2.8-.96,4.27.7,5.57,2.4,1.32,1.72,2.52,3.56,3.55,5.46,1.21,2.22,2.25,4.55,3.23,6.89.83,2,1.29,4.18,2.24,6.11.87,1.76.36,4.39,3.73,5.42.03-1.92.54-3.75,0-5.2-2.39-6.45-5.11-12.77-7.66-19.16-4.32-10.81-12.02-16.95-23.9-17.46-1.42-.06-2.93-.34-4.21-.93-.84-.38-1.34-1.51-2.42-2.84,1.81-.99,3.24-2.36,4.79-2.52,10.65-1.08,20.31.87,27.08,10.14,2.56,3.51,4.85,7.22,7.28,10.82.92,1.36,1.9,2.67,2.86,4.01,1.04-1.91.97-3.28.43-4.44-2.73-5.92-5.6-11.78-8.38-17.69-1.23-2.62-2.59-5.21-3.43-7.95-.32-1.04.43-2.62,1.15-3.64.24-.34,2.23,0,2.84.6,2.04,2.03,3.82,4.32,5.7,6.51,2.1,2.46,4.19,4.92,6.28,7.39Zm73.47,88.79c-5.14-11.8-11.61-19.68-21.05-24.8-5.71-3.1-11.84-5.43-17.8-8.04-5-2.19-9.94-1.96-14.53,1.02-5.15,3.35-10.05,7.1-15.27,10.32-6.71,4.12-9.94,10.14-11.17,17.69-1.27,7.85-2.73,15.67-4.41,23.45-2.37,10.99-2.58,22.57-9.42,32.39,7.99-2.82,15.39-5.44,23.29-8.23,1.52-3.96,2.93-8.46,4.95-12.67,2.97-6.16,6.09-12.3,9.68-18.12,7.09-11.48,17.68-17.55,30.95-19.9,6.14-1.09,11.42-.34,16.64,2.71,2.03,1.19,4.19,2.17,8.14,4.18Zm-102.96,45.9c1.16-.1,1.67,0,1.82-.18.99-1.26,1.97-2.53,2.75-3.91.14-.24-.62-1.38-1.11-1.51-2.46-.65-2.69,1.56-3.41,2.98-.27.53-.04,1.32-.04,2.63Z"/>
      <path class="uuid-b500540e-6941-4c93-a181-0718807d966b" d="m238.26,195.55c3.88-2.09,6.09.1,7.58,2.31,4.23,6.28,9.09,12.53,6.61,21.1-1.3-.32-2.36-.27-2.57-.67-3.89-7.46-7.68-14.98-11.63-22.74Z"/>
      <path class="uuid-b500540e-6941-4c93-a181-0718807d966b" d="m235.17,244.96c.56-1.46.78-2.54,1.37-3.38.27-.39,1.44-.65,1.84-.39,2.55,1.59,3.69,5.55,2.33,8.51-.23.5-2.42.82-2.66.48-1.19-1.66-2.02-3.58-2.88-5.22Z"/>
      <path class="uuid-b500540e-6941-4c93-a181-0718807d966b" d="m240.3,182.06c-3.33,2.28-6.15,1.45-8.83-.49-.45-.32-.73-1.28-.63-1.86.1-.54.77-1.3,1.29-1.39,3.31-.54,6.29-.17,8.17,3.74Z"/>
      <path class="uuid-b500540e-6941-4c93-a181-0718807d966b" d="m246.91,149.59c1.65.56,2.73.74,3.6,1.28.49.3,1.01,1.34.83,1.77-.35.85-1.04,1.87-1.82,2.14-.9.32-2.2.17-3.06-.28-.81-.42-1.92-1.71-1.74-2.24.34-1.06,1.48-1.87,2.19-2.68Z"/>
    </g>
  </g>
  <g id="uuid-98398315-032f-4cab-b1c1-6119733dccc5" data-name="boekje + Layer 16 Image">
    <g>
      <path class="uuid-b500540e-6941-4c93-a181-0718807d966b" d="m133.42,453.56l.9-1.66,3.99,1.02c4.38,1.12,8.23,1.46,11.56,1.01,3.33-.44,6.19-1.52,8.58-3.25,2.39-1.72,4.37-3.91,5.93-6.57,1.56-2.66,2.76-5.64,3.61-8.96.89-3.49.68-6.3-.63-8.44-1.32-2.13-3.99-3.71-8.01-4.74-1.72-.44-3.15-.57-4.3-.39-1.15.18-2.17.74-3.08,1.67-.9.94-1.88,2.34-2.92,4.22l-22.96,41.04c-.94,1.71-1.58,3.11-1.92,4.19-.34,1.08-.14,1.98.59,2.7.73.72,2.27,1.42,4.62,2.08l-.81,1.68c-1.33-.47-2.97-.96-4.92-1.49-1.95-.53-3.95-1.06-6.02-1.59-2.31-.59-4.5-1.13-6.58-1.63-2.08-.5-3.75-.85-5.03-1.05l.81-1.68c2.04.4,3.67.56,4.89.49,1.21-.07,2.28-.55,3.21-1.45.92-.9,1.92-2.35,3-4.34l22.96-41.04c1.02-1.76,1.65-3.19,1.9-4.29.25-1.1,0-2.02-.76-2.75-.76-.73-2.23-1.38-4.42-1.93l.9-1.66c1.17.36,2.78.84,4.84,1.42,2.06.59,4.06,1.13,6.01,1.63,2.13.54,4.28,1.06,6.46,1.55,2.17.49,4.36,1.02,6.55,1.58,5.98,1.53,10.1,3.89,12.37,7.08,2.27,3.2,2.9,6.81,1.87,10.83-1.18,4.62-3.64,8.38-7.38,11.31-3.74,2.92-8.4,4.79-13.96,5.61-5.57.82-11.67.38-18.29-1.31l-3.55-.91Z"/>
      <path class="uuid-b500540e-6941-4c93-a181-0718807d966b" d="m185.38,453.66c2.26-3.3,2.35-5.24.3-5.82-1.35-.38-2.76.02-4.24,1.19-1.47,1.17-3.22,3.13-5.25,5.85l-2.15,2.92-1.68-.47,4.1-5.8c1.57-2.22,3.16-3.81,4.76-4.76,1.6-.95,3.16-1.48,4.68-1.59,1.52-.11,2.87,0,4.05.33,1.88.53,3.16,1.3,3.83,2.31.67,1.01.92,2.16.75,3.44-.17,1.28-.6,2.61-1.3,3.96-.7,1.36-1.47,2.65-2.32,3.87l-16.93,24.09c-1.07,1.54-1.63,2.83-1.7,3.85-.07,1.03.46,1.7,1.58,2.01,1.18.33,2.47,0,3.9-1s3.26-3.02,5.51-6.07l2.15-2.92,1.68.47-4.1,5.8c-1.47,2.06-2.97,3.59-4.52,4.59-1.55.99-3.08,1.58-4.58,1.76-1.51.18-2.94.08-4.29-.3-2.53-.71-4.07-1.77-4.62-3.2-.55-1.42-.45-3.04.31-4.86.76-1.82,1.82-3.68,3.18-5.58l16.93-24.09Zm9.33-22.79c.72-1.45,1.87-2.55,3.45-3.32,1.58-.76,3.1-.94,4.57-.53,1.53.43,2.56,1.32,3.1,2.68.54,1.36.45,2.76-.27,4.21-.72,1.45-1.87,2.55-3.45,3.32-1.58.76-3.13.93-4.66.5-1.47-.41-2.48-1.3-3.01-2.65-.54-1.36-.45-2.76.27-4.2Z"/>
      <path class="uuid-b500540e-6941-4c93-a181-0718807d966b" d="m197.99,498.1l-7.64-2.28,21.77-34.52c.44-.63.86-1.35,1.26-2.16.4-.8.57-1.55.52-2.23-.05-.68-.55-1.17-1.48-1.45-1.29-.38-2.62-.09-3.99.87-1.37.96-3.19,2.99-5.44,6.07l-2.11,2.91-1.67-.5,4.11-5.75c2.39-3.3,4.71-5.25,6.96-5.86,2.25-.6,4.31-.62,6.19-.07,1.76.52,2.92,1.29,3.48,2.28.56,1,.71,2.11.44,3.33-.27,1.23-.75,2.52-1.44,3.87s-1.42,2.68-2.19,3.98l-18.77,31.5Zm9.49-17.06c3.62-4.66,6.93-8.48,9.93-11.48,3-2.99,5.76-5.31,8.29-6.94,2.53-1.64,4.92-2.64,7.17-3.02,2.25-.38,4.43-.26,6.53.37,2.75.82,4.44,2.04,5.07,3.67.63,1.62.59,3.43-.13,5.41-.72,1.98-1.75,3.96-3.1,5.91l-16.17,23.09c-1,1.42-1.61,2.66-1.82,3.71-.22,1.05.32,1.77,1.6,2.15,1.11.33,2.39.04,3.84-.86,1.45-.91,3.31-2.93,5.59-6.08l2.11-2.91,1.67.5-4.11,5.75c-1.55,2.21-3.12,3.79-4.71,4.71-1.58.93-3.11,1.45-4.57,1.55-1.46.1-2.81-.03-4.04-.39-1.4-.42-2.49-1-3.26-1.74-.77-.74-1.27-1.56-1.51-2.46-.33-1.25-.12-2.68.62-4.31.74-1.63,1.77-3.36,3.08-5.2l15.83-22.62c.54-.73,1.08-1.64,1.62-2.72.54-1.08.81-2.12.79-3.11-.02-.99-.74-1.7-2.14-2.12-1.41-.42-3.08-.25-5.03.51-1.95.76-4.11,2.01-6.48,3.76-2.37,1.75-4.84,3.94-7.41,6.58-2.57,2.64-5.17,5.63-7.79,8.96s-5.18,6.95-7.68,10.85l6.21-11.53Z"/>
      <path class="uuid-b500540e-6941-4c93-a181-0718807d966b" d="m243.49,510.41c.39.38.84.73,1.35,1.05.51.32,1.32.65,2.42,1,2.56.81,4.92.7,7.06-.32,2.15-1.02,3.68-2.99,4.59-5.9.57-1.81.8-3.7.69-5.69-.11-1.99-.65-4.41-1.6-7.27-.75-2.29-1.44-4.6-2.04-6.93-.61-2.34-.49-4.84.35-7.52.79-2.5,2.08-4.48,3.88-5.93s3.9-2.38,6.3-2.77c2.4-.4,4.82-.21,7.27.56,1.69.53,3.29,1.26,4.79,2.18,1.5.92,2.62,2.09,3.36,3.51.74,1.42.78,3.17.12,5.27-.17.52-.49,1.11-.98,1.75-.49.65-1.11,1.14-1.86,1.48-.75.34-1.62.36-2.61.04-.93-.29-1.64-.88-2.13-1.77-.49-.89-.56-1.89-.21-3,.33-1.05.86-1.99,1.6-2.81.74-.82,1.63-1.58,2.69-2.28-.89-1.05-2.24-1.86-4.04-2.42-2.16-.68-4.19-.52-6.11.48-1.92,1-3.28,2.81-4.11,5.43-.42,1.34-.59,2.58-.5,3.73.09,1.15.35,2.4.79,3.75.44,1.35.94,3.05,1.52,5.09.76,2.67,1.31,5.18,1.66,7.53.35,2.35.17,4.66-.55,6.93-.84,2.68-2.28,4.84-4.29,6.48-2.02,1.64-4.35,2.68-6.99,3.13s-5.33.25-8.07-.62c-1.98-.62-3.78-1.51-5.41-2.66-1.62-1.15-2.8-2.53-3.55-4.14-.74-1.61-.78-3.46-.12-5.56.26-.82.77-1.6,1.55-2.34.78-.75,1.81-.92,3.09-.52,1.4.44,2.21,1.32,2.43,2.64.22,1.32.12,2.68-.32,4.08-.29.93-.63,1.74-1,2.42-.38.68-.72,1.33-1.04,1.93Z"/>
    </g>
  </g>
</svg>