<?xml version="1.0" encoding="UTF-8"?>
<svg id="uuid-6d32ce4a-f980-42b6-82b8-7086db6db9b3" data-name="Layer 2" xmlns="http://www.w3.org/2000/svg" viewBox="0 0 5924.55 771.73">
  <defs>
    <style>
      .uuid-56c85dff-a9c3-4844-8a8f-d40490789ac0 {
        fill: #fff;
      }
    </style>
  </defs>
  <g id="uuid-c0f936f0-f797-458b-a1fd-e1706f1b5b0e" data-name="hand">
    <path class="uuid-56c85dff-a9c3-4844-8a8f-d40490789ac0" d="m8.26,381.12c-2.45-20.64-4.53-41.32-6.69-62-4.91-46.83,2.1-92.26,16.27-136.82,1.28-4.03,3.34-7.82,5.39-12.51,7.14,3.05,13.4,5.72,19.67,8.4l.56-.86c-3.42-3.13-6.98-6.11-10.24-9.4-8.44-8.52-12.24-18.29-7.49-30.13,3.37-8.38,6.01-17.18,10.33-25.04,14.84-26.98,24.79-55.65,31.39-85.61.7-3.19,1.95-6.26,3.26-10.39,2.75,2.19,4.75,3.74,6.7,5.35,20.57,17.06,43.8,29.68,68.18,40.21,3.26,1.41,8.02.97,11.54-.22,7.91-2.68,15.59-6.11,23.15-9.7,20.56-9.76,42.06-15.51,64.89-16.1,24.13-.63,48.26-1.47,72.39-2.01,4.58-.1,9.18.76,13.8,1.18,3.71,13.98-1.69,26.46-3.21,41.74,3.45-4.46,5.57-6.9,7.34-9.57,5.92-8.95,11.82-17.91,17.5-27.01,2.72-4.35,6.06-6.58,11.43-6.61,12.74-.09,25.47-.8,38.21-1.08,8.87-.19,17.27,1.83,25.15,6.02,21.07,11.19,42.17,22.32,63.25,33.48,1.1.58,2.15,1.24,3.19,1.93,7.88,5.27,14.89,5.72,23.9.54,25.56-14.69,51.76-28.27,77.96-41.8,20.04-10.34,40.86-19.27,63.72-20.27,15.66-.68,31.55-.31,47.11,1.51,55.59,6.5,879.91,14.19,935.5,20.69,41.61,4.86,83.37,8.48,125.04,12.85,9.32.98,18.61,2.49,27.82,4.24,7.36,1.4,8.51,4.11,4.33,10.29-3.06,4.52-4.23,8.61-2.27,14.01,1.65,4.53,1.04,4.75-5.04,14.3.55.3,1.07.77,1.65.86,11.31,1.89,22.11,1,33.07-3.27,4.43-1.73,10.57.36,15.78,1.42,4.99,1.02,8.51-.24,11.07-4.52,2.12-3.54,4.26-6.82,9.4-5.86,1.07.2,3.02-1.31,3.68-2.51,3.07-5.58,7.98-5.75,13.09-4.49,11.48,2.83,20.24-.32,26.87-10.38,1.86-2.82,5.4-5.52,8.64-6.29,21.5-5.08,43.09-9.85,64.74-14.27,17.85-3.64,35.42-1.17,52.58,4.23,15.66,4.92,28.22,3.06,43.98,7.59,13.14,3.77,2320.74,14.53,2334.23,16.77,10.5,1.74,21.32-.41,29.84-6.64,17.44-12.75,37.73-14.95,57.93-17.51,43.22-5.48,86.49-10.66,129.79-15.48,9.55-1.06,19.32-.16,29.3-.16,4.55,10.44,2.95,21.42,6,32.13,2.02-9.44,4.67-18.81,5.83-28.35.82-6.79,3.93-10.53,10.04-11.99,14.97-3.59,29.87-7.66,45.03-10.18C4776.21,3.28,5733.54.48,5785.54.05c35.2-.3,70.41.85,105.62,1.15,8.7.08,17.4-.62,26.11-.93,1.92-.07,3.85-.01,7.28-.01-.7,5.06-1.07,9.2-1.87,13.25-6.27,31.89-13.14,63.67-18.8,95.67-5.12,28.93-3.51,58.15-1.08,87.28.33,4.01.78,8.02.89,12.04.35,12.78-5.05,19.33-17.94,20.65-6.93.71-13.99.13-22.85.13,14.62,6.28,27.77,11.93,39.79,17.1,3.54,67.12,6.7,132.75,21.12,197.13l-3.13,272.21c-.12,7.02.35,14.06.73,21.08.33,6.13-.51,7.54-6.88,8.58-5.62.92-11.31,1.39-16.97,2.08-42.59,5.15-85.18,10.27-127.77,15.47-19.72,2.41-39.2,2.69-59.01-.96-53.05-9.78-1800.74-18.64-1853.93-27.65-21.14-3.58-41.99-2.89-62.4,4.91-12.82,4.9-25.99,8.88-39.03,13.18-10.29,3.4-20.72,4.71-31.67,3.72-24.78-2.25-49.18-6.23-73.03-13.38-1.27-.38-2.46-1.02-4.93-2.06.59-3.95.65-8.29,1.94-12.22,3.54-10.82,7.62-21.47,11.44-32.2,1.09-3.06,2.01-6.17,1.72-9.9-1.27,2.02-2.69,3.97-3.79,6.08-6.81,13.08-13.56,26.19-20.31,39.3-4.89,9.49-6.18,10.35-16.46,8.6-30.39-5.15-60.72-10.72-91.16-15.59-21.84-3.5-43.78-6.54-66.04-3.48-8.79,1.21-16.51,3.67-23.67,9.64-10.95,9.13-24.15,14.74-38.29,16.74-22.56,3.19-45.19,6.09-67.88,8.01-49.77,4.22-99.6,7.91-149.42,11.51-26.08,1.89-52.2,3.42-78.33,4.5-7.58.31-15.38-.87-22.85-2.46-24.58-5.22-2320.18-11.18-2344.78-16.3-6.76-1.41-14.31-2.41-20.86-.89-25.36,5.92-51.21,6-76.91,7.87-33.44,2.44-66.85,5.44-100.33,6.95-29.12,1.31-58.37,2.06-87.47.79-19.33-.84-36.45-10.23-52.84-23.29,4.15-6.75,8.21-13.38,12.28-20.01l-.8-.76c-4.54,3.09-9.16,6.06-13.59,9.3-4.49,3.29-8.65,3.07-12.74-.53-3.02-2.65-5.95-5.4-9-8.02-11.69-10.04-23.23-20.28-35.24-29.93-3.47-2.78-8.18-4.62-12.6-5.5-16.82-3.35-32.21-1.48-45.92,10.81-14.71,13.19-30.62,25.05-46.07,37.4-3.92,3.14-8.07,5.99-12.16,8.92-6.03,4.32-12.34,5.48-19.9,3.88-16.37-3.48-32.95-5.99-49.43-8.91-16.18-2.87-32.11-1.71-47.63,3.55-19.02,6.44-38.09,6.76-58.84,1.1-.22-4.15-1.28-8.79-.54-13.14,2.23-13.19,4.3-26.51,8.05-39.3,4-13.62,4.7-27.09,2.02-40.74L8.26,381.12Z"/>
    <path d="m8.26,381.12c-2.45-20.64-4.53-41.32-6.69-62-4.91-46.83,2.1-92.26,16.27-136.82,1.28-4.03,3.34-7.82,5.39-12.51,7.14,3.05,13.4,5.72,19.67,8.4l.56-.86c-3.42-3.13-6.98-6.11-10.24-9.4-8.44-8.52-12.24-18.29-7.49-30.13,3.37-8.38,6.01-17.18,10.33-25.04,14.84-26.98,24.79-55.65,31.39-85.61.7-3.19,1.95-6.26,3.26-10.39,2.75,2.19,4.75,3.74,6.7,5.35,20.57,17.06,43.8,29.68,68.18,40.21,3.26,1.41,8.02.97,11.54-.22,7.91-2.68,15.59-6.11,23.15-9.7,20.56-9.76,42.06-15.51,64.89-16.1,24.13-.63,48.26-1.47,72.39-2.01,4.58-.1,9.18.76,13.8,1.18,3.71,13.98-1.69,26.46-3.21,41.74,3.45-4.46,5.57-6.9,7.34-9.57,5.92-8.95,11.82-17.91,17.5-27.01,2.72-4.35,6.06-6.58,11.43-6.61,12.74-.09,25.47-.8,38.21-1.08,8.87-.19,17.27,1.83,25.15,6.02,21.07,11.19,42.17,22.32,63.25,33.48,1.1.58,2.15,1.24,3.19,1.93,7.88,5.27,14.89,5.72,23.9.54,25.56-14.69,51.76-28.27,77.96-41.8,20.04-10.34,40.86-19.27,63.72-20.27,15.66-.68,31.55-.31,47.11,1.51,55.59,6.5,879.91,14.19,935.5,20.69,41.61,4.86,83.37,8.48,125.04,12.85,9.32.98,18.61,2.49,27.82,4.24,7.36,1.4,8.51,4.11,4.33,10.29-3.06,4.52-4.23,8.61-2.27,14.01,1.65,4.53,1.04,4.75-5.04,14.3.55.3,1.07.77,1.65.86,11.31,1.89,22.11,1,33.07-3.27,4.43-1.73,10.57.36,15.78,1.42,4.99,1.02,8.51-.24,11.07-4.52,2.12-3.54,4.26-6.82,9.4-5.86,1.07.2,3.02-1.31,3.68-2.51,3.07-5.58,7.98-5.75,13.09-4.49,11.48,2.83,20.24-.32,26.87-10.38,1.86-2.82,5.4-5.52,8.64-6.29,21.5-5.08,43.09-9.85,64.74-14.27,17.85-3.64,35.42-1.17,52.58,4.23,15.66,4.92,28.22,3.06,43.98,7.59,13.14,3.77,2320.74,14.53,2334.23,16.77,10.5,1.74,21.32-.41,29.84-6.64,17.44-12.75,37.73-14.95,57.93-17.51,43.22-5.48,86.49-10.66,129.79-15.48,9.55-1.06,19.32-.16,29.3-.16,4.55,10.44,2.95,21.42,6,32.13,2.02-9.44,4.67-18.81,5.83-28.35.82-6.79,3.93-10.53,10.04-11.99,14.97-3.59,29.87-7.66,45.03-10.18C4776.21,3.28,5733.54.48,5785.54.05c35.2-.3,70.41.85,105.62,1.15,8.7.08,17.4-.62,26.11-.93,1.92-.07,3.85-.01,7.28-.01-.7,5.06-1.07,9.2-1.87,13.25-6.27,31.89-13.14,63.67-18.8,95.67-5.12,28.93-3.51,58.15-1.08,87.28.33,4.01.78,8.02.89,12.04.35,12.78-5.05,19.33-17.94,20.65-6.93.71-13.99.13-22.85.13,14.62,6.28,27.77,11.93,39.79,17.1,3.54,67.12,6.7,132.75,21.12,197.13l-3.13,272.21c-.12,7.02.35,14.06.73,21.08.33,6.13-.51,7.54-6.88,8.58-5.62.92-11.31,1.39-16.97,2.08-42.59,5.15-85.18,10.27-127.77,15.47-19.72,2.41-39.2,2.69-59.01-.96-53.05-9.78-1800.74-18.64-1853.93-27.65-21.14-3.58-41.99-2.89-62.4,4.91-12.82,4.9-25.99,8.88-39.03,13.18-10.29,3.4-20.72,4.71-31.67,3.72-24.78-2.25-49.18-6.23-73.03-13.38-1.27-.38-2.46-1.02-4.93-2.06.59-3.95.65-8.29,1.94-12.22,3.54-10.82,7.62-21.47,11.44-32.2,1.09-3.06,2.01-6.17,1.72-9.9-1.27,2.02-2.69,3.97-3.79,6.08-6.81,13.08-13.56,26.19-20.31,39.3-4.89,9.49-6.18,10.35-16.46,8.6-30.39-5.15-60.72-10.72-91.16-15.59-21.84-3.5-43.78-6.54-66.04-3.48-8.79,1.21-16.51,3.67-23.67,9.64-10.95,9.13-24.15,14.74-38.29,16.74-22.56,3.19-45.19,6.09-67.88,8.01-49.77,4.22-99.6,7.91-149.42,11.51-26.08,1.89-52.2,3.42-78.33,4.5-7.58.31-15.38-.87-22.85-2.46-24.58-5.22-2320.18-11.18-2344.78-16.3-6.76-1.41-14.31-2.41-20.86-.89-25.36,5.92-51.21,6-76.91,7.87-33.44,2.44-66.85,5.44-100.33,6.95-29.12,1.31-58.37,2.06-87.47.79-19.33-.84-36.45-10.23-52.84-23.29,4.15-6.75,8.21-13.38,12.28-20.01l-.8-.76c-4.54,3.09-9.16,6.06-13.59,9.3-4.49,3.29-8.65,3.07-12.74-.53-3.02-2.65-5.95-5.4-9-8.02-11.69-10.04-23.23-20.28-35.24-29.93-3.47-2.78-8.18-4.62-12.6-5.5-16.82-3.35-32.21-1.48-45.92,10.81-14.71,13.19-30.62,25.05-46.07,37.4-3.92,3.14-8.07,5.99-12.16,8.92-6.03,4.32-12.34,5.48-19.9,3.88-16.37-3.48-32.95-5.99-49.43-8.91-16.18-2.87-32.11-1.71-47.63,3.55-19.02,6.44-38.09,6.76-58.84,1.1-.22-4.15-1.28-8.79-.54-13.14,2.23-13.19,4.3-26.51,8.05-39.3,4-13.62,4.7-27.09,2.02-40.74L8.26,381.12Zm1745.63-252.93c8.32-9.63,14.53-23.87,22.66-32.25,6.37-6.56,15.43-27.05,12.64-36.17-7.64-.37-15.34-.45-22.98-1.15-39.73-3.63-79.5-6.95-119.16-11.27-56.31-6.13-880.19-15.31-936.37-22.51-26.68-3.42-76.58,3.27-101.32,14.45-38.85,17.56-75.67,36.5-112.44,57.96-31.84,18.58-62.54,39.11-94.35,57.76-28.9,16.95-59.03,31.83-87.88,48.86-60.05,35.45-119.72,71.54-182.58,101.94-3.42,1.66-7.02,2.94-10.64,4.44-3.48-11.28,4.67-5.5,12.05-10.84,2.76-2,5.68-3.78,8.62-5.5,27.04-15.82,54.12-31.55,81.15-47.39,71.73-42.04,143.42-84.13,215.16-126.16,13.27-7.78,26.65-15.38,41.09-23.71-32.16-24.02-39.83-50.67-78.49-52.56-41.84-3.92-41.16,10.12-42.71,13.07-6.89,10.29-16.56,13.07-20.05,30.07-5.78,4.92-7.23,20.13-13.39,16.51-2.31-1.36-4.52-2.86-6.78-4.31-4.16-2.67.79-9.05,1.43-13.94,1.48-11.29,2.37-22.65,3.34-34,.22-2.51-.22-5.08-.38-8.03-14.16,1.12-48.92-.71-62.23.62-25.53,2.55-50.35,7.61-72.65,21.37-5.69,3.51-11.86,6.24-17.77,9.41-8.47,4.54-17.66,5.46-26.36,2.38-21.52-7.63-42.77-16.06-58.94-33.32-1.94-2.07-4.24-3.79-6.11-5.44-11.33,27.68-33.76,84.49-45.12,112.27,2.87,3.58,6.17,7.77,9.54,11.89,7.2,8.82,16.73,15.27,27.07,20.14,10.34,4.86,16.38,6.93,19.77,11.09,2.28,2.79,5.48,4.8,3.2,9.47-1.97,4.02-12.94-2.93-16.1-3.23-12.3-1.16-16.51-6.28-28.76-7.84-3.86-.49-14.63.24-18.85-.72-1.7,4.38-3.11,7.74-4.31,11.18-12.63,36.19-15.5,73.39-10.18,111.13,3.69,26.21,9.05,52.18,12.87,78.37l52.32,266.68c2.14,8.34,2.32,15.06-2.53,22.6-5.03,7.83-8.63,16.64-12.33,25.25-2.06,4.81-.29,21.03-1.96,26.8,12.14,2.62,15.64,1.81,26.79-3.32,7.86-3.61,15.89-7.25,24.23-9.32,17.51-4.34,34.65-.63,51.42,4.68,8.56,2.71,34.76,8.13,43.33,11.23,9.01-6.3,17.74-12.54,26.6-18.57,14.96-10.19,14.15-17.83,29.62-27.18,25.97-15.71,53.57-18.08,82.05-7.16,16.41,6.29,34.11,16.65,43.46,32,19.7-4.64,41.97-28.47,60.17-38.5,4.32,4.01,8.57,7.69,12.51,11.68,3.2,3.24,3.59,6.92.79,10.86-3.11,4.37-5.85,9-9.02,13.32-3.73,5.08-33.66,22.55-37.53,27.47.97.79,1.38,1.37,1.92,1.52,2.58.71,5.19,1.34,7.8,1.94,26.92,6.19,53.98,4.54,81.02,1.16,29.6-3.7,66.56,2.21,96.09-2,30.52-4.34,76.47-4.65,106.88-9.71,16.56-2.76,31.84.04,46.09,8.4,8.15,4.78,2290.42-.59,2299.88,1.12,24.21,4.37,48.6,5.97,73.11,4.85,30.14-1.38,60.26-3.35,90.37-5.3,51.86-3.37,103.73-6.72,155.56-10.55,11.3-.83,22.54-3.21,33.63-5.7,10.43-2.34,19.29-7.58,24.77-17.38,3.5-6.26,9.01-8.42,16.06-7.96,9.03.6,18.1.72,27.14,1.09,30.85,1.26,61.61,3.61,91.88,9.97,15.97,3.35,36.99,6.15,53.64,10.25,10.44-17.68,21.65-35.9,32.09-54.55,10.58-18.91,15.25-53.67,25.47-72.96,11.47,1.5,1.73,3.06,13.7,4.62,0,4.6.52,8.91-.08,13.06-4.8,33.28-5.62,49.13-18.22,80.42-.71,1.77-11.64,36.34-12.42,38.57,1.77.6,19.83,3.28,21.07,3.39,23.16,2.03,46.38,3.03,68.64-5.12,16.96-6.21,33.59-13.37,50.1-20.7,6.49-2.88,12.22-4.36,19.04-1.1,4.14,1.98,8.97,2.7,13.57,3.54,30.32,5.54,1755.18,10.73,1785.45,16.5,27.31,5.21,54.46,11.31,81.78,16.45,20.17,3.8,40.47,5.6,60.95,1.4,12.47-2.55,25.07-4.52,37.69-6.22,24.55-3.31,78.98-10.15,104.51-13.37.25-3.67.52-7.94.82-12.22l4.04-270.01c-15.46-58.52-23.48-110.95-21.74-171.26.16-5.6.83-11.19,1.32-17.47-7.83-3-15.17-6.32-22.81-8.63-24.28-7.33-49.19-10.06-74.52-9.35-6.03.17-12.08-.05-18.11.22-4.34.2-23.25,8.29-24.47,4.38-1.88-6.04,1.46-2.59.42-8.82-2.06-12.35,17.71-5.04,29.63-9.15,10.7-3.69,21.92-6.28,33.12-7.99,24.75-3.77,49.57-7.75,75.44-2.86-8.27-57.46-7.45-145.46,16.52-197.9-2.72-.61-4.28-1.2-5.87-1.28-28.8-1.33-57.62-3.92-86.41-3.61-63.54.67-1050.24,7.41-1112.52,19.61-6.03,1.18-17.26,4.84-19.2,10.55-5.6,16.48-3.57,31.61-9.59,47.94-1.16,3.16-2.38,24.36-5.02,25.21-7.9,2.54,1.01,1.57-8.05-1.24-4.08-19.61-2.9-51.99-4.94-59.55s-19.37-5.44-20.34-5.38c-34.14,2.17-68.8,12.78-102.59,18.33-29.42,4.83-55.31-9.2-81.33,7.28-.28.18-.6.31-.9.44-18.66,8.42-38.12,10.9-57.92,5.76-17.47-4.53-2326.11-9.94-2343.18-15.83-20.04-6.92-39.79-14.18-61.64-11.03-17.91,2.58-35.92,4.48-53.83,7.04-3.12.44-6.94,1.85-8.82,4.13-11.05,13.4-10.77,20.05-27.73,14.82-3.5,5.88-19.99-2.79-23.21,2.61-4.31-1.94-11.2,12.19-15.04,10.46-6.39,5.74-13.95,7.98-22.01,6.97-5.13-.64-10.58.99-15.85,1.77-5.94.88-11.92,3.08-17.75,2.67-7.9-.55-14.56,1.4-20.81,5.68-5.25,3.6-10.82,20.32-16.04,23.96"/>
  </g>
</svg>