<?xml version="1.0" encoding="UTF-8"?>
<svg id="uuid-cfdc6cae-aeaa-427e-a7f1-7cd5cba76b70" data-name="Layer 2" xmlns="http://www.w3.org/2000/svg" viewBox="0 0 7594.66 529.89">
  <defs>
    <style>
      .uuid-32e4fc30-1b6c-4e9d-9cd6-6e48a0a7a8e1 {
        fill: #fff;
      }

      .uuid-040ee814-f3ca-46f9-989c-621d11948c77 {
        fill: none;
      }
    </style>
  </defs>
  <g id="uuid-92b7c7d6-7559-4056-8566-0bb8f10db78f" data-name="hand">
    <g>
      <path class="uuid-32e4fc30-1b6c-4e9d-9cd6-6e48a0a7a8e1" d="m7563.45.7c-22.47.8-44.94,2.6-67.39,2.4-90.89-.79-181.79-3.74-272.66-2.97-134.24,1.13-268.23,8.35-400.89,30.44L632.84,93.72c-58.93,1.54-114.42,16.37-167.51,41.57-19.51,9.26-39.35,18.13-59.76,25.04-9.09,3.08-21.39,4.2-29.8.57-62.94-27.18-122.9-59.76-176-103.8-5.02-4.16-10.19-8.15-17.29-13.81-3.39,10.64-6.61,18.57-8.43,26.81-17.05,77.33-42.73,151.34-81.03,220.99-11.16,20.3-17.97,43.01-26.67,64.65-12.28,30.54-2.47,55.78,19.32,77.77,8.35,8.42,17.46,16.08,26.23,24.08-.41.8-.82,1.6-1.23,2.4-16.17-6.9-32.34-13.8-50.77-21.67-5.28,12.12-10.61,21.89-13.92,32.3-6.26,19.68-11.96,39.44-17.08,59.26h7499.1c-.49-7.58-1.27-15.15-1.9-22.72-6.27-75.2-10.44-150.63,2.78-225.31,14.63-82.6,32.35-164.65,48.54-246.97,2.06-10.46,3.01-21.15,4.82-34.21-8.86,0-13.83-.15-18.79.03Z"/>
      <path d="m7563.45.7c-22.47.8-44.94,2.6-67.39,2.4-90.89-.79-181.79-3.74-272.66-2.97-134.24,1.13-268.23,8.35-400.89,30.44L632.84,93.72c-58.93,1.54-114.42,16.37-167.51,41.57-19.51,9.26-39.35,18.13-59.76,25.04-9.09,3.08-21.39,4.2-29.8.57-62.94-27.18-122.9-59.76-176-103.8-5.02-4.16-10.19-8.15-17.29-13.81-3.39,10.64-6.61,18.57-8.43,26.81-17.05,77.33-42.73,151.34-81.03,220.99-11.16,20.3-17.97,43.01-26.67,64.65-12.28,30.54-2.47,55.78,19.32,77.77,8.35,8.42,17.46,16.08,26.23,24.08-.41.8-.82,1.6-1.23,2.4-16.17-6.9-32.34-13.8-50.77-21.67-5.28,12.12-10.61,21.89-13.92,32.3-6.26,19.68-11.96,39.44-17.08,59.26h33.06c.74-2.2,1.48-4.39,2.24-6.58,3.1-8.87,6.75-17.55,11.13-28.86,10.9,2.49,38.7.59,48.65,1.86,31.63,4.05,42.51,17.25,74.25,20.25,8.15.77,36.49,18.73,41.56,8.34,5.88-12.05-2.37-17.23-8.26-24.44-8.75-10.71-24.34-16.06-51.02-28.62s-51.31-29.22-69.88-51.98c-8.7-10.66-17.22-21.46-24.62-30.7,29.34-71.69,87.23-218.35,116.48-289.81,4.82,4.26,10.77,8.71,15.77,14.04,41.75,44.55,96.6,66.32,152.15,86.01,22.47,7.96,46.19,5.58,68.04-6.13,15.25-8.17,31.18-15.22,45.87-24.29,57.55-35.53,121.62-48.58,187.53-55.17,0,0,6018.46,1.09,6625.28-86.87,84.82-6.95,148.71,5.89,223.06,9.32,4.09.19,8.11,1.72,15.14,3.3-59.09,129.26-63.69,342.24-45.39,490.34h38.04c-.49-7.58-1.27-15.15-1.9-22.72-6.27-75.2-10.44-150.63,2.78-225.31,14.63-82.6,32.35-164.65,48.54-246.97,2.06-10.46,3.01-21.15,4.82-34.21-8.86,0-13.83-.15-18.79.03Z"/>
    </g>
    <rect class="uuid-040ee814-f3ca-46f9-989c-621d11948c77" y=".67" width="7594.66" height="529.22"/>
  </g>
</svg>