<?xml version="1.0" encoding="UTF-8"?>
<svg id="uuid-d50b01ac-e328-4f91-97bc-9211889249dd" data-name="Layer 2" xmlns="http://www.w3.org/2000/svg" viewBox="0 0 5071.48 3198.77">
  <defs>
    <style>
      .uuid-66c00d9c-73a7-4ad9-83a0-70680be3483c {
        fill: #fff;
      }
    </style>
  </defs>
  <g id="uuid-8a4f1b85-8e7f-47c6-9960-9d4052d8206f" data-name="hand">
    <g>
      <path class="uuid-66c00d9c-73a7-4ad9-83a0-70680be3483c" d="m4987.39,1663.04c2,89.4,16.19,177.45,27.63,265.84,12.34,95.26,23.82,190.64,35.15,286.03,6.33,53.28,11.68,106.68,17.28,160.04,12.68,120.89-5.42,238.17-42,353.18-3.31,10.41-8.63,20.18-13.92,32.3-18.43-7.87-34.6-14.77-50.77-21.67-.41.8-.82,1.6-1.23,2.4,8.77,8.01,17.88,15.66,26.23,24.08,21.79,21.99,31.6,47.23,19.32,77.77-8.7,21.64-15.51,44.35-26.67,64.65-38.3,69.66-63.98,143.66-81.03,220.99-1.82,8.24-5.04,16.17-8.43,26.81-7.1-5.66-12.27-9.64-17.29-13.81-53.1-44.04-113.06-76.62-176-103.8-8.41-3.63-20.71-2.51-29.8.57-20.41,6.92-40.25,15.78-59.76,25.04-53.08,25.21-108.58,40.03-167.51,41.57-62.3,1.63-124.58,3.79-186.88,5.19-11.82.26-23.7-1.96-35.62-3.04-9.59-36.09,4.37-68.29,8.28-107.74-8.89,11.52-14.38,17.8-18.94,24.69-15.28,23.09-30.5,46.24-45.18,69.71-7.02,11.23-15.64,16.98-29.51,17.07-32.88.23-65.74,2.07-98.63,2.79-22.9.5-44.57-4.73-64.91-15.54-54.23-28.81-108.56-57.45-162.83-86.2-3.05-1.62-6.01-3.44-8.89-5.36-20.25-13.47-38.28-14.57-61.46-1.25-65.97,37.91-133.61,72.98-201.25,107.9-51.73,26.7-105.47,49.75-164.5,52.32-40.44,1.76-81.45.8-121.62-3.9-143.51-16.77-286.65-36.64-430.16-53.4-107.42-12.55-215.2-21.9-322.77-33.17-24.06-2.52-48.04-6.42-71.81-10.95-18.99-3.62-21.97-10.61-11.17-26.55,7.9-11.67,10.92-22.21,5.85-36.17-4.25-11.69-2.67-12.27,13.01-36.91-1.42-.77-2.76-1.98-4.27-2.23-29.21-4.89-57.09-2.57-85.37,8.45-11.42,4.45-27.28-.92-40.74-3.67-12.88-2.63-21.96.62-28.57,11.67-5.48,9.15-11,17.59-24.26,15.12-2.75-.51-7.79,3.37-9.5,6.49-7.92,14.41-20.59,14.85-33.79,11.59-29.64-7.3-52.24.84-69.36,26.79-4.8,7.28-13.94,14.25-22.3,16.23-55.51,13.12-111.23,25.43-167.12,36.84-46.07,9.4-91.42,3.02-135.74-10.92-40.42-12.71-80.16-27.69-120.86-39.37-33.93-9.74-68.54-17.75-103.35-23.53-27.1-4.5-55.04,1.06-77.03,17.14-45.03,32.93-97.4,38.58-149.55,45.19-111.58,14.14-223.26,27.51-335.04,39.97-24.65,2.75-49.88.4-75.64.4-11.74-26.94-7.61-55.29-15.49-82.94-5.2,24.37-12.07,48.55-15.05,73.19-2.12,17.52-10.16,27.17-25.91,30.95-38.64,9.25-77.12,19.77-116.25,26.29-132.66,22.1-266.65,29.32-400.89,30.44-90.87.76-181.77-2.19-272.66-2.97-22.45-.19-44.93,1.6-67.39,2.4-4.96.18-9.93.03-18.79.03,1.81-13.06,2.76-23.75,4.82-34.21,16.19-82.32,33.91-164.37,48.54-246.97,13.22-74.69,9.06-150.11,2.78-225.31-.86-10.35-2.02-20.7-2.3-31.07-.9-33,13.04-49.89,46.31-53.3,17.88-1.83,36.11-.33,58.98-.33-37.74-16.22-71.68-30.8-102.72-44.14,33.35-260.07,68.39-955.47,46.93-1032.46-8.05-44.99-17.52-90.55-9.09-136.63,5.13-28,11.09-56.12,19.99-83.1,24.11-73.1,48.52-146.18,75.77-218.14,14.57-38.49,10.99-71.89-10.66-105.78-75.51-118.22-125.71-248.2-175.72-378.37C1.37,564.18-3.42,520.2,2.3,473.5c13.37-109.18,20.52-218.89,22.34-328.89.3-18.12-.9-36.29-1.89-54.42-.86-15.83,1.31-19.46,17.75-22.15,14.5-2.37,29.19-3.6,43.8-5.36,109.94-13.29,219.9-26.51,329.83-39.94,50.91-6.22,101.2-6.95,152.33,2.47,136.95,25.25,274.34,48.11,411.64,71.37,54.57,9.25,108.4,7.47,161.07-12.66,33.09-12.65,67.09-22.92,100.75-34.03,26.56-8.77,53.49-12.17,81.75-9.6,63.96,5.81,126.96,16.07,188.53,34.53,3.27.98,6.35,2.63,12.73,5.33-1.53,10.21-1.68,21.39-5,31.54-9.15,27.94-19.68,55.43-29.53,83.13-2.81,7.89-5.19,15.93-4.45,25.55,3.28-5.22,6.94-10.25,9.78-15.7,17.58-33.76,35.01-67.61,52.43-101.45,12.61-24.51,15.96-26.71,42.5-22.21,78.46,13.29,156.74,27.66,235.31,40.25,56.39,9.04,113.02,16.89,170.49,8.98,22.7-3.12,42.62-9.47,61.11-24.88,28.27-23.56,62.34-38.06,98.84-43.21,58.23-8.22,116.65-15.71,175.23-20.68,128.49-10.9,257.11-20.42,385.73-29.72,67.33-4.87,134.76-8.84,202.2-11.62,19.57-.81,39.71,2.24,58.99,6.34,63.45,13.47,126.49,28.87,189.99,42.07,17.46,3.63,36.93,6.23,53.84,2.29,65.47-15.28,132.19-15.49,198.55-20.32,86.31-6.29,172.56-14.04,258.99-17.93,75.18-3.38,150.69-5.32,225.8-2.04,49.91,2.18,94.08,26.41,136.41,60.13-10.7,17.44-21.21,34.54-31.71,51.65.6.72,1.2,1.44,1.8,2.15,11.8-8.04,23.83-15.77,35.35-24.2,11.59-8.48,22.32-7.92,32.88,1.36,7.79,6.85,15.37,13.95,23.23,20.71,30.18,25.93,59.96,52.36,90.97,77.25,8.95,7.19,21.13,11.92,32.54,14.2,43.42,8.65,83.14,3.82,118.53-27.91,37.98-34.04,79.05-64.65,118.94-96.55,10.13-8.1,20.84-15.47,31.4-23.02,15.58-11.14,31.87-14.15,51.38-10.01,42.26,8.97,85.05,15.45,127.61,23,41.78,7.41,82.88,4.4,122.97-9.17,49.09-16.63,98.33-17.46,151.9-2.83.57,10.7,3.3,22.7,1.41,33.91-5.76,34.04-11.1,68.42-20.78,101.45-10.31,35.17-12.14,69.94-5.21,105.16,14.21,72.14,29.67,144.03,44.44,216.06,21.95,107.01,24.2,215.08,12.49,323.13-9.04,83.38-20.79,166.64-35.87,249.12-5.28,28.88-2.94,53.41,6.2,80.04,26.42,76.96,50.75,154.59,60.52,235.86,1.75,14.58,3.29,29.25,3.69,43.91.71,26.01-5.89,32.71-32.46,29.53-24.85-2.98-49.35-8.77-74.03-13.23-5.8-1.05-11.67-1.75-18.65,1.55,19.76,6.96,39.5,14,59.3,20.84,10.63,3.67,21.45,6.78,32.05,10.54,21.46,7.61,27.54,14.99,27.85,38.09.32,23.35.47,46.88-1.96,70.05l-19.5,49.77Z"/>
      <path d="m4987.39,1663.04c2,89.4,16.19,177.45,27.63,265.84,12.34,95.26,23.82,190.64,35.15,286.03,6.33,53.28,11.68,106.68,17.28,160.04,12.68,120.89-5.42,238.17-42,353.18-3.31,10.41-8.63,20.18-13.92,32.3-18.43-7.87-34.6-14.77-50.77-21.67-.41.8-.82,1.6-1.23,2.4,8.77,8.01,17.88,15.66,26.23,24.08,21.79,21.99,31.6,47.23,19.32,77.77-8.7,21.64-15.51,44.35-26.67,64.65-38.3,69.66-63.98,143.66-81.03,220.99-1.82,8.24-5.04,16.17-8.43,26.81-7.1-5.66-12.27-9.64-17.29-13.81-53.1-44.04-113.06-76.62-176-103.8-8.41-3.63-20.71-2.51-29.8.57-20.41,6.92-40.25,15.78-59.76,25.04-53.08,25.21-108.58,40.03-167.51,41.57-62.3,1.63-124.58,3.79-186.88,5.19-11.82.26-23.7-1.96-35.62-3.04-9.59-36.09,4.37-68.29,8.28-107.74-8.89,11.52-14.38,17.8-18.94,24.69-15.28,23.09-30.5,46.24-45.18,69.71-7.02,11.23-15.64,16.98-29.51,17.07-32.88.23-65.74,2.07-98.63,2.79-22.9.5-44.57-4.73-64.91-15.54-54.23-28.81-108.56-57.45-162.83-86.2-3.05-1.62-6.01-3.44-8.89-5.36-20.25-13.47-38.28-14.57-61.46-1.25-65.97,37.91-133.61,72.98-201.25,107.9-51.73,26.7-105.47,49.75-164.5,52.32-40.44,1.76-81.45.8-121.62-3.9-143.51-16.77-286.65-36.64-430.16-53.4-107.42-12.55-215.2-21.9-322.77-33.17-24.06-2.52-48.04-6.42-71.81-10.95-18.99-3.62-21.97-10.61-11.17-26.55,7.9-11.67,10.92-22.21,5.85-36.17-4.25-11.69-2.67-12.27,13.01-36.91-1.42-.77-2.76-1.98-4.27-2.23-29.21-4.89-57.09-2.57-85.37,8.45-11.42,4.45-27.28-.92-40.74-3.67-12.88-2.63-21.96.62-28.57,11.67-5.48,9.15-11,17.59-24.26,15.12-2.75-.51-7.79,3.37-9.5,6.49-7.92,14.41-20.59,14.85-33.79,11.59-29.64-7.3-52.24.84-69.36,26.79-4.8,7.28-13.94,14.25-22.3,16.23-55.51,13.12-111.23,25.43-167.12,36.84-46.07,9.4-91.42,3.02-135.74-10.92-40.42-12.71-80.16-27.69-120.86-39.37-33.93-9.74-68.54-17.75-103.35-23.53-27.1-4.5-55.04,1.06-77.03,17.14-45.03,32.93-97.4,38.58-149.55,45.19-111.58,14.14-223.26,27.51-335.04,39.97-24.65,2.75-49.88.4-75.64.4-11.74-26.94-7.61-55.29-15.49-82.94-5.2,24.37-12.07,48.55-15.05,73.19-2.12,17.52-10.16,27.17-25.91,30.95-38.64,9.25-77.12,19.77-116.25,26.29-132.66,22.1-266.65,29.32-400.89,30.44-90.87.76-181.77-2.19-272.66-2.97-22.45-.19-44.93,1.6-67.39,2.4-4.96.18-9.93.03-18.79.03,1.81-13.06,2.76-23.75,4.82-34.21,16.19-82.32,33.91-164.37,48.54-246.97,13.22-74.69,9.06-150.11,2.78-225.31-.86-10.35-2.02-20.7-2.3-31.07-.9-33,13.04-49.89,46.31-53.3,17.88-1.83,36.11-.33,58.98-.33-37.74-16.22-71.68-30.8-102.72-44.14,33.35-260.07,68.39-955.47,46.93-1032.46-8.05-44.99-17.52-90.55-9.09-136.63,5.13-28,11.09-56.12,19.99-83.1,24.11-73.1,48.52-146.18,75.77-218.14,14.57-38.49,10.99-71.89-10.66-105.78-75.51-118.22-125.71-248.2-175.72-378.37C1.37,564.18-3.42,520.2,2.3,473.5c13.37-109.18,20.52-218.89,22.34-328.89.3-18.12-.9-36.29-1.89-54.42-.86-15.83,1.31-19.46,17.75-22.15,14.5-2.37,29.19-3.6,43.8-5.36,109.94-13.29,219.9-26.51,329.83-39.94,50.91-6.22,101.2-6.95,152.33,2.47,136.95,25.25,274.34,48.11,411.64,71.37,54.57,9.25,108.4,7.47,161.07-12.66,33.09-12.65,67.09-22.92,100.75-34.03,26.56-8.77,53.49-12.17,81.75-9.6,63.96,5.81,126.96,16.07,188.53,34.53,3.27.98,6.35,2.63,12.73,5.33-1.53,10.21-1.68,21.39-5,31.54-9.15,27.94-19.68,55.43-29.53,83.13-2.81,7.89-5.19,15.93-4.45,25.55,3.28-5.22,6.94-10.25,9.78-15.7,17.58-33.76,35.01-67.61,52.43-101.45,12.61-24.51,15.96-26.71,42.5-22.21,78.46,13.29,156.74,27.66,235.31,40.25,56.39,9.04,113.02,16.89,170.49,8.98,22.7-3.12,42.62-9.47,61.11-24.88,28.27-23.56,62.34-38.06,98.84-43.21,58.23-8.22,116.65-15.71,175.23-20.68,128.49-10.9,257.11-20.42,385.73-29.72,67.33-4.87,134.76-8.84,202.2-11.62,19.57-.81,39.71,2.24,58.99,6.34,63.45,13.47,126.49,28.87,189.99,42.07,17.46,3.63,36.93,6.23,53.84,2.29,65.47-15.28,132.19-15.49,198.55-20.32,86.31-6.29,172.56-14.04,258.99-17.93,75.18-3.38,150.69-5.32,225.8-2.04,49.91,2.18,94.08,26.41,136.41,60.13-10.7,17.44-21.21,34.54-31.71,51.65.6.72,1.2,1.44,1.8,2.15,11.8-8.04,23.83-15.77,35.35-24.2,11.59-8.48,22.32-7.92,32.88,1.36,7.79,6.85,15.37,13.95,23.23,20.71,30.18,25.93,59.96,52.36,90.97,77.25,8.95,7.19,21.13,11.92,32.54,14.2,43.42,8.65,83.14,3.82,118.53-27.91,37.98-34.04,79.05-64.65,118.94-96.55,10.13-8.1,20.84-15.47,31.4-23.02,15.58-11.14,31.87-14.15,51.38-10.01,42.26,8.97,85.05,15.45,127.61,23,41.78,7.41,82.88,4.4,122.97-9.17,49.09-16.63,98.33-17.46,151.9-2.83.57,10.7,3.3,22.7,1.41,33.91-5.76,34.04-11.1,68.42-20.78,101.45-10.31,35.17-12.14,69.94-5.21,105.16,14.21,72.14,29.67,144.03,44.44,216.06,21.95,107.01,24.2,215.08,12.49,323.13-9.04,83.38-20.79,166.64-35.87,249.12-5.28,28.88-2.94,53.41,6.2,80.04,26.42,76.96,50.75,154.59,60.52,235.86,1.75,14.58,3.29,29.25,3.69,43.91.71,26.01-5.89,32.71-32.46,29.53-24.85-2.98-49.35-8.77-74.03-13.23-5.8-1.05-11.67-1.75-18.65,1.55,19.76,6.96,39.5,14,59.3,20.84,10.63,3.67,21.45,6.78,32.05,10.54,21.46,7.61,27.54,14.99,27.85,38.09.32,23.35.47,46.88-1.96,70.05l-19.5,49.77Zm-30.81-86.57c-.17-40.13-.26-39.65-38.64-49.55-60.24-15.53-113.47-45.25-164.31-81.19,4.74-18.7,34.29-12.39,38.56-29.23,33.78,9.29,65.1,18.99,96.96,26.34,31.79,7.33,64.09,13.28,99.46,5.31-.87-15.63-10.14-66.36-12.47-80.59-13.33-81.43-28.47-157.51-62.44-232.88-57.28-127.08-109.59-256.14-157.87-386.87-30.27-81.97-83.29-154.28-102.36-239.88-4.38-19.67-7.08-39.72-11.36-64.19,21.02,10.82,33.32,20.73,37.42,39.77,2.89,13.4,8.19,26.48,13.87,39.05,20.3,44.94,41.31,89.57,61.89,134.38,49.17,107.05,90.9,217.02,129.64,328.2,3.05,8.74,21.35,74.1,33.83,83.73,3.78-47.21,7.72-90.22,10.59-133.31,7.57-113.67,41.69-236.09,16.41-347.63-18.93-83.52-59.3-213.7-80.54-296.65-5.51-21.53-5.99-38.88,6.53-58.35,13-20.21,22.28-42.96,31.82-65.18,5.33-12.42.74-54.28,5.06-69.19-31.35-6.77-40.36-4.66-69.16,8.56-20.29,9.32-41.02,18.72-62.56,24.07-45.2,11.21-89.44,1.63-132.73-12.08-22.11-7-89.72-20.99-111.86-28.99-23.26,16.27-45.78,32.37-68.66,47.95-38.63,26.3-36.52,46.02-76.46,70.18-67.05,40.56-138.29,46.67-211.81,18.48-42.37-16.24-88.05-42.99-112.19-82.61-50.86,11.99-108.34,73.51-155.32,99.38-11.16-10.34-22.13-19.84-32.29-30.14-8.25-8.36-9.27-17.87-2.04-28.03,8.02-11.27,15.1-23.23,23.28-34.38,9.62-13.11,86.88-58.2,96.87-70.92-2.51-2.04-3.57-3.55-4.94-3.93-6.67-1.84-13.4-3.46-20.14-5.01-69.5-15.99-139.35-11.72-209.16-3.01-76.41,9.54-171.83-5.7-248.06,5.15-78.77,11.22-197.41,12-275.9,25.07-42.75,7.12-82.2-.11-118.98-21.69-21.05-12.35-49.66,1.53-74.1-2.89-62.49-11.29-125.47-15.41-188.73-12.51-77.81,3.57-155.55,8.64-233.28,13.68-133.88,8.69-267.77,17.35-401.56,27.24-29.16,2.16-58.2,8.28-86.81,14.7-26.91,6.04-49.79,19.58-63.95,44.86-9.05,16.15-23.26,21.75-41.47,20.54-23.32-1.55-46.71-1.86-70.07-2.81-79.64-3.24-159.05-9.32-237.19-25.73-41.22-8.65-95.49-15.87-138.47-26.47-26.95,45.64-55.89,92.67-82.83,140.83-27.3,48.81-39.36,138.55-65.75,188.35-29.61-3.86-4.47-7.9-35.36-11.93,0-11.87-1.33-23,.21-33.72,12.39-85.91,14.51-126.82,47.04-207.59,1.84-4.57,30.05-93.81,32.06-99.56-4.56-1.55-51.18-8.47-54.39-8.75-59.79-5.24-119.73-7.81-177.19,13.22-43.78,16.02-86.7,34.52-129.33,53.44-16.76,7.44-31.56,11.26-49.15,2.84-10.7-5.12-23.15-6.96-35.03-9.13-78.27-14.31-156.72-27.69-234.88-42.59-70.51-13.44-140.58-29.19-211.12-42.47-52.06-9.8-104.47-14.46-157.34-3.63-32.18,6.6-64.73,11.67-97.3,16.07-63.37,8.55-203.89,26.21-269.8,34.5-.63,9.46-1.35,20.5-2.12,31.54-6.95,99.29-12.57,198.69-21.39,297.81-5.18,58.22,19.15,187.87,45.16,241.02,4.18,8.54,6.9,17.79,11.24,26.24,58.83,114.71,117.27,229.62,177.3,343.69,10.67,20.28,13.74,38.65,5.7,59.21-4.08,10.43-9.39,20.38-14.06,30.59-35.27,77.07-70.6,154.1-105.74,231.23-12.98,28.5-14.6,58.55-10.38,89.06,5.69,41.15,11.51,82.29,17.84,123.34,36.92,257.33-59.95,903.48-59.95,903.48-.42,14.46-2.15,28.88-3.41,45.09,20.22,7.73,39.15,16.32,58.88,22.27,62.68,18.91,126.99,25.96,192.36,24.15,15.57-.43,31.18.13,46.74-.58,11.21-.51,60.02-21.4,63.16-11.32,4.85,15.6-3.77,6.69-1.1,22.76,5.31,31.89-45.73,13-76.5,23.62-27.61,9.53-56.58,16.22-85.5,20.63-63.89,9.74-127.97,20-194.73,7.38,21.36,148.33,19.23,375.51-42.65,510.87,7.03,1.58,11.06,3.11,15.14,3.3,74.35,3.43,148.75,10.11,223.06,9.32,164.03-1.74,373.83-19.12,534.6-50.63,15.57-3.05,44.56-12.51,49.57-27.23,14.45-42.53,9.21-81.61,24.75-123.75,3.01-8.15,6.14-62.89,12.96-65.08,20.39-6.55-2.61-4.04,20.79,3.21,10.54,50.62,7.49,134.22,12.74,153.73,5.26,19.52,50,14.05,52.51,13.89,88.13-5.6,177.59-32.99,264.82-47.31,75.94-12.46,142.78,23.75,209.95-18.81.73-.46,1.54-.79,2.33-1.14,48.18-21.73,98.41-28.13,149.53-14.87,45.1,11.7,89.72,25.66,133.78,40.88,51.72,17.87,102.72,36.59,159.11,28.46,46.23-6.67,92.72-11.57,138.97-18.16,8.05-1.15,17.91-4.77,22.77-10.67,28.51-34.59,27.79-51.76,71.6-38.26,9.04-15.18,51.6,7.2,59.91-6.75,11.13,5.02,28.9-31.47,38.81-27,16.49-14.83,36.02-20.6,56.81-18,13.25,1.65,27.3-2.56,40.93-4.58,15.33-2.27,30.78-7.95,45.81-6.89,20.41,1.43,37.58-3.61,53.72-14.66,13.55-9.28,27.93-52.47,41.42-61.85,6.1-4.24,12.6-7.91,21.33-13.34,12.34,18.01-2.06,8.06,9.43,24.82-21.47,24.86-37.52,61.62-58.5,83.25-16.43,16.94-39.83,69.84-32.62,93.38,19.73.95,39.6,1.17,59.33,2.98,102.56,9.38,205.22,17.95,307.59,29.1,145.36,15.84,287.36,39.53,432.39,58.11,68.87,8.82,197.69-8.45,261.56-37.31,100.29-45.32,195.34-94.23,290.25-149.62,82.19-47.97,161.45-100.95,243.55-149.09,74.62-43.76,152.38-82.16,226.86-126.13,155.02-91.52,309.05-184.68,471.32-263.15,8.83-4.27,18.13-7.59,27.47-11.45,8.85,28.73-11.49,14.61-30.31,27.43-7.15,4.87-14.37,9.68-21.83,14.05-70.2,41.07-140.52,81.92-210.69,123.04-185.16,108.52-370.24,217.17-555.41,325.68-34.26,20.08-68.79,39.71-106.06,61.21,83.03,62,102.82,130.8,202.61,135.68,108,10.12,106.24-26.13,110.25-33.75,17.79-26.56,42.75-33.75,51.75-77.62,14.93-12.7,18.66-51.98,34.57-42.62,5.95,3.5,11.68,7.39,17.49,11.12,10.74,6.9-2.03,23.36-3.68,35.99-3.81,29.13-6.11,58.47-8.62,87.77-.56,6.49.57,13.12.98,20.72,36.57-2.88,126.29,1.82,160.64-1.61,65.91-6.58,129.98-19.64,187.53-55.17,14.69-9.07,30.62-16.12,45.87-24.29,21.85-11.71,45.58-14.1,68.04-6.13,55.55,19.69,110.4,41.46,152.15,86.01,5,5.33,10.94,9.78,15.77,14.04,29.24-71.46,87.14-218.12,116.48-289.81-7.4-9.24-15.92-20.05-24.62-30.7-18.57-22.76-43.19-39.43-69.88-51.98-26.69-12.55-42.28-17.9-51.02-28.62-5.89-7.21-14.14-12.4-8.26-24.44,5.07-10.39,33.41,7.57,41.56,8.34,31.74,3,42.62,16.2,74.25,20.25,9.95,1.27,37.75-.63,48.65,1.86,4.38-11.31,8.04-19.99,11.13-28.86,32.61-93.43,40.01-189.44,26.28-286.87-9.54-67.66-23.35-134.7-33.23-202.32-17.77-121.57-34.8-243.26-50.63-365.1-18.39-116.41,6.94-244.7,6.94-244.7Z"/>
    </g>
  </g>
</svg>