<?xml version="1.0" encoding="UTF-8"?>
<svg id="uuid-cd1c91ea-82be-493b-9c39-615e0aec660c" data-name="Layer 2" xmlns="http://www.w3.org/2000/svg" viewBox="0 0 5352.03 1047.89">
  <defs>
    <style>
      .uuid-1b83cb81-3217-4802-868d-52474f49a584 {
        fill: #fff;
      }

      .uuid-f71e767a-a643-4ee4-b514-bdc752a8a6c3 {
        fill: #ff203e;
      }
    </style>
  </defs>
  <g id="uuid-5818886f-6486-4363-b97c-ef73dae1f74f" data-name="Layer 8 Image">
    <g>
      <path class="uuid-1b83cb81-3217-4802-868d-52474f49a584" d="m3914.69,527.38c-4.43,1.69-8.74,3.33-12.58,4.8-1.53,2.87-.11,4.72.64,6.7,11.77,30.88,21.13,62.54,30.69,94.15.42,1.39.74,2.82.95,4.25,3.92,26.99,12.15,53.03,17.62,79.67,4.24,20.69,6.15,41.63,5.73,62.76-.26,13.21-2.33,26.03-8.22,37.99-1.84,3.74-2.06,7.26-1.4,11.48,1.51,9.75.87,19.48-2.87,28.87-3.51,8.81-7.83,17.15-13.06,25.05-3.78,5.72-8.71,9.05-15.71,10.53-14.62,3.09-29.41,4.68-44.2,6.1-54.95,5.28-108.1,17.5-158.86,39.53-7.3,3.17-14.98,5.45-22.51,8.05-3.25,1.12-6.27.6-9.39-1.06-21.75-11.59-45.15-12.23-68.99-10.34-28.3,2.25-54.71,11.04-80.08,23.13-8.67,4.13-17.54,6.66-26.93,7.99-26.96,3.82-53.92,7.59-80.84,11.67-30.5,4.62-60.95,9.62-91.44,14.31-26.19,4.03-52.39,7.97-78.61,11.76-19.4,2.8-38.81,5.55-58.28,7.83-18.76,2.2-37.62,4.18-56.53,2.98-8.63-.55-17.17-2.69-25.7-4.4-2.01-.4-3.95-1.77-5.65-3.06-20.72-15.65-44.35-24.44-69.52-29.62-15.27-3.14-30.74-5.52-45.82-9.4-17.91-4.6-35.41-10.78-53.25-15.66-25.55-6.98-51.23-13.58-77.42-17.75-14.68-2.34-29.56-3.46-44.31-5.36-6.45-.83-12.98-1.72-19.21-3.5-18.9-5.39-38.2-8.76-57.61-11.35-18.34-2.46-36.77-4.8-55.23-5.69-19.57-.94-39.22-.19-58.84,0-6.53.06-13.07.6-19.59,1.03-15.58,1.02-31.15,2.14-46.73,3.14-2.87.18-5.81.35-8.63-.05-30.54-4.38-61.06-8.89-91.58-13.36-10.05-1.47-20.09-3.11-30.17-4.35-4.3-.53-8.75-.68-13.04-.22-13.35,1.43-26.68,3.11-39.99,4.91-18.34,2.48-36.68,5.03-54.98,7.77-31.94,4.78-63.94,9.22-95.76,14.75-40.39,7.02-80.6,15.1-120.93,22.51-42.55,7.81-84.11,19.29-125.27,32.52-38.34,12.33-77.07,23.44-114.91,37.3-15.03,5.5-30.14,10.57-45.86,13.56-7.83,1.49-15.77,2.69-23.71,3.3-35.55,2.7-71.1,3.47-106.72.81-26.89-2.01-53.34-6.2-79.27-13.49-8.67-2.44-17.17-5.46-25.07-8-.67-1.05-1.01-1.34-1.03-1.65-.99-17-3.18-33.94-1.72-51.04,1.27-14.82,1.98-29.69,3.08-44.53,1.91-25.77,5.77-51.18,14.75-75.59.49-1.33.61-2.79,1.19-5.61-1.02-.66-2.53-1.65-4.05-2.63-9.45-6.11-18.92-12.21-28.35-18.35-4.09-2.66-8.12-3.48-13.29-2.8-35.28,4.58-70.08,11.89-105.12,17.76-2.51.42-5.06.57-7.57.96-7.95,1.24-15.36,3.77-22.37,7.96-20.93,12.52-43.15,22.46-65.98,30.92-9.83,3.65-20.06,6.38-30.29,8.74-16.97,3.92-33.97,7.58-50.71,12.53-22.99,6.79-46.67,10.73-70.12,15.58-12.43,2.57-24.7,5.95-37.15,8.47-14.58,2.96-29.31,5.2-43.91,8.08-16.73,3.3-33.35,7.18-50.1,10.42-24.44,4.74-49.16,5.05-73.82,2.66-13.54-1.31-26.01.35-37.66,7.44-1.24.75-2.54,1.42-3.84,2.04-3.51,1.66-7.01,1.77-10.4-.29-4.03-2.45-8.06-4.91-12.05-7.43-21.82-13.79-44.07-26.8-68.07-36.49-10.07-4.07-20.52-7.22-30.75-10.89-3.22-1.15-6.36-1.39-9.59-.32-18.42,6.15-37.73,7.34-56.79,9.59-27.43,3.24-54.65,7.68-81.47,14.1-55.4,13.25-110.8,26.54-165.9,40.97-52.99,13.88-105.55,29.36-158.37,43.89-23.43,6.45-47.08,12.11-70.54,18.47-13.36,3.62-26.89,5.94-40.64,7.32-17.34,1.74-34.62,4.09-51.98,5.54-19.21,1.6-38.52,2.22-57.73.52-20.09-1.77-39.26-7.08-56.65-17.76-9.9-6.08-19.85-12.07-29.73-18.2-2.77-1.72-5.42-3.67-7.98-5.68-11.78-9.24-13.03-11.05-11.18-25.77,2.85-22.66,6.33-45.25,9.84-67.83,5.4-34.77,11.16-69.47,16.55-104.24,4.94-31.9,9.79-63.82,14.31-95.78,3.5-24.78,6.56-49.63,9.57-74.47,2.14-17.65,4.05-35.32,5.75-53.02.62-6.47.99-13.09.37-19.54-2.12-22.03-4.58-44.02-7.2-66-2.36-19.81-4.98-39.59-7.7-59.35-3.16-23-6.43-45.98-9.85-68.94-6.26-41.97-12.85-83.9-18.94-125.89-4.38-30.15-8.28-60.37-12.2-90.59-1.82-14.02-3.29-28.09-4.72-42.16-.4-3.93-.06-7.93-.06-12.08,5.14-5.35,11.95-6.44,18.7-7.68.71-.13,1.45-.06,2.18-.1,15.31-1.02,30.05.54,44.92,5.36,31.39,10.18,63.2,19.05,94.9,28.25,20.2,5.86,40.39,11.82,61.21,15.23,8.95,1.47,17.91,2.91,26.8,4.68,3.93.78,7.16-.64,10.44-2.12,9.92-4.49,19.75-9.15,29.67-13.64,38.72-17.52,78.24-32.84,119.29-44.2,11.27-3.12,22.62-4.92,34.14-5.96,12.66-1.15,25.36-1.86,38.05-2.57,2.46-.14,5.21.04,7.43.99,16.02,6.87,33.03,8.85,50.08,9.06,38.52.5,77.06.55,115.58-.14,27.96-.5,55.91-2.23,83.83-3.96,11.56-.72,23.07-2.7,34.55-4.43,20.46-3.09,40.76-6.99,60.67-12.69,3.83-1.1,7.78-2.02,11.39-3.64,8.16-3.68,16.77-4.45,25.52-4.84,11.97-.54,23.94-1.4,35.91-1.81,3.54-.12,7.17.59,10.67,1.35,2.45.53,4.86,1.55,7.08,2.75,23.33,12.57,47.21,24.19,69.05,39.33,10.43,7.23,21.66,13.39,30.74,22.95,6.01.91,12.01.59,18.1-1,16.89-4.41,33.59-9.46,49.37-16.89,20.69-9.74,41.13-20.01,61.56-30.29,5.82-2.93,11.34-6.5,16.79-10.11,7.15-4.74,15.25-6.74,23.42-8.34,6.04-1.18,12.23-1.7,18.38-2.24,9.41-.83,18.83-1.75,28.26-2.06,28.33-.93,56.68-2.54,85-2.12,49.82.75,99.37,5.06,147.96,16.97,45.87,11.25,88.81,29.02,128.35,55.27,26.54,17.62,50.41,38.03,72.02,61.24,10.07,10.82,9.58,10.84,7.78,25.12-1.72,13.61-2.45,27.35-3.68,41.69,3.72-.14,2.98-3.47,6.07-4.85,3.27-.68,7.84.03,12.84.86,1.52,6.72-2.01,12.15-3.52,17.86-1.55,5.85-2.31,12.16-8.24,16.15,5.01,5.04,9.8,7.5,15.84,8.37,17.23,2.48,34.45,5.12,51.59,8.2,28.25,5.09,55.7,13.39,83.18,21.54,19.88,5.89,38.84,14.18,57.97,22.03,4.69,1.93,9.42,3.86,14.3,5.16,3.11.83,4.91,2.52,6.75,4.92,6.9,9.01,11.71,10.43,21.38,5.18,16.02-8.69,32.8-15.6,49.86-21.76,36.6-13.23,71.55-30.22,106.96-46.19,23.18-10.45,46.44-20.74,71-27.58,11.87-3.31,23.95-5.9,35.97-8.66,20.2-4.65,39.88-11.02,59.48-17.63,27.59-9.31,55.82-15.86,84.49-20.75,28.26-4.82,56.49-9.84,84.76-14.59,15.39-2.59,30.87-4.63,46.25-7.26,17.88-3.06,35.7-6.49,53.55-9.75,16.79-3.06,33.59-5.98,50.76-5.9,18.54.08,37.09-.53,55.61.04,15.43.48,29.87,4.73,42.36,14.57,9.41,7.42,19.16,14.41,28.92,21.36,30.55,21.71,62.88,40.5,96.08,57.81,11.27,5.88,22.6,11.63,33.89,17.49,4.46,2.31,8.83,4.36,12,8.92,2.07,2.98,6.43,4.53,9.97,6.29,22.09,11.02,44.22,21.96,66.37,32.86,13.36,6.57,26.81,12.95,40.16,19.53,37.92,18.66,77.51,32.7,118.49,42.94,42.58,10.63,85.13,21.37,127.72,31.94,25.02,6.21,50.45,10.32,75.9,14.36,11.11,1.76,22.22,3.47,33.3,5.42,4.41.78,8.58.57,12.9-.58,7.02-1.87,13.71-4.45,20.46-7.17,19.51-7.86,39.09-15.65,59.02-22.36,75.99-25.58,151.95-51.28,228.76-74.33,12.5-3.75,25.26-6.61,37.89-9.93,1.68-.44,3.28-1.2,5.15-1.91.45-4.23-1.8-7.25-3.37-10.37-17.19-34.41-34.49-68.78-51.68-103.2-3.57-7.14-6.79-14.45-10.18-21.67-4.33-9.21-3.67-18.45.55-27.35,4.52-9.55,10.38-18.32,17.5-26.16,1.07-1.18,3.03-2.58,4.33-2.37,4.29.7,7.39-1.72,9.56-4.22,6-6.92,14.09-10.09,22.01-13.57,24.95-10.94,50.55-20.15,76.38-28.77,34.82-11.62,70.43-20.28,106.2-28.26,36.12-8.06,72.28-15.99,108.58-23.12,20.99-4.13,42.28-6.75,63.49-9.74,15.45-2.18,30.96-4.1,46.48-5.71,11.2-1.16,22.45-1.86,33.7-2.34,14.34-.61,28.15,2.38,41.65,7.01,40.17,13.76,80.42,27.29,120.5,41.32,28.09,9.83,55.94,20.33,83.91,30.51,3.75,1.36,7.58,2.51,11.32,3.9,6,2.22,12.15,2.07,18.29,1.1,3.93-.62,7.82-1.61,11.67-2.66,17.13-4.65,34.01-10.25,51.74-12.6,5.33-.71,10.49-2.85,15.65-4.57,29.98-10.04,60.72-17.14,91.74-22.99,28.51-5.38,57.14-10.1,85.68-15.34,11.41-2.09,22.7-4.8,34.05-7.22,1.77-.38,3.55-1.01,5.33-1.06,21.44-.59,42.8-.43,64.13,2.85,16.44,2.53,30.1,9.59,42.55,20.3,22.57,19.44,45.34,38.65,68.42,57.48,25.05,20.43,50.69,40.13,75.77,60.52,9.56,7.77,18.38,16.45,27.32,24.95,4.3,4.09,6.53,9.49,7.81,15.28,2.55,11.48,2.74,23.12,1.42,34.67-.6,5.25-2.71,10.58-5.21,15.3-6.95,13.15-14.36,26.06-21.78,38.96-15.73,27.38-31.66,54.65-47.31,82.07-3.95,6.91-7.03,14.32-10.77,21.36-1.5,2.82-3.38,5.58-5.63,7.82-25.35,25.19-41.65,55.51-51.7,89.52-3.79,12.84-8.18,25.51-12.38,38.23-.97,2.94-3.21,4.89-6.18,5.63-3.16.78-6.39,1.41-9.63,1.68-3.61.31-7.27.24-10.9.16-24.19-.48-47.72,3.62-70.86,10.3-12.88,3.72-25.74,7.53-38.47,11.27-8.71-4.39-8.74-4.45-17.43-1.25-17.05,6.27-33.73,13.36-49.54,22.4-6.29,3.6-13,6.47-19.33,10.01-20.28,11.32-40.55,22.66-60.66,34.28-4.99,2.89-9.46,6.73-13.97,10.39-1.94,1.57-3.73,3.56-4.94,5.72-1.68,3.01-1.67,6.34.68,9.17,2.25,2.71,5.2,3.94,8.72,2.95,2.09-.58,4.12-1.4,6.12-2.24,21.84-9.18,44.52-15.53,67.81-19.62,8.96-1.58,18.02-1.66,27.03.65,18.32,4.7,37.05,7.04,55.76,9.53,14.32,1.91,27.67,6.47,38.8,15.87,17.87,15.1,37.87,27,58.12,38.36,11.61,6.51,21.1,14.63,30,24.47,25.08,27.77,51.44,54.35,80.85,77.67,4.11,3.26,7.07,7.08,9.42,11.71,3.78,7.44,7.91,14.7,12.09,21.92,1.61,2.77,3.44,5.83,7.38,5.44,2.71-.26,4.82-3.99,4.48-8.97-.38-5.4-1.34-10.79-2.39-16.12-.91-4.62-2.49-9.11-3.41-13.72-3.83-19.2-12.05-36.34-23.3-52.29-10.29-14.59-21.48-28.39-34.2-40.89-3.73-3.66-4.96-7.32-4.3-12.52,1.28-10.07,1.86-20.23,2.55-30.37.23-3.34.79-6.43,2.81-9.2,1.28-1.75,2.27-3.71,3.44-5.55,12.35-19.32,22.74-39.55,30.87-61.06,3.81-10.08,9.89-19.35,15.28-28.79,8.82-15.44,18.16-30.57,26.81-46.1,6.77-12.15,14.59-23.36,24.59-33.08,7.55-7.34,14.91-14.88,22.23-22.46,9.5-9.84,20.64-17.12,33.37-22.03,8.47-3.26,16.88-6.67,25.4-9.79,9.91-3.63,19.55-7.75,28.68-13.1,3.09-1.81,6.52-3.38,10-4.09,14.92-3.03,29.91-5.74,44.89-8.48,2.85-.52,5.83-.39,8.65-1.01,9.64-2.1,16.77,1.63,23.1,8.69,13.91,15.51,26.19,32.03,34.34,51.36,1.41,3.34,2.69,6.78,4.56,9.86,3.81,6.28,9.63,7.55,15.84,3.83.93-.56,1.85-1.19,2.63-1.93,5.41-5.15,12.14-7.81,19.05-10.19,2.73-.94,5.54-1.87,8-3.33,4.3-2.56,6.25-6.85,4.03-11.13-2.68-5.18-2.21-10.51-2.78-15.87-.62-5.85,1.04-10.68,5.36-14.66,4.54.67,6.67,3.76,8.22,7.7,4.5,11.51,8.26,23.21,10.61,35.38,4.2,21.76,7.07,43.67,8.61,65.78.38,5.47-.96,9.62-4.78,13.71-14.54,15.55-25.54,33.48-33.55,53.13-7.52,18.47-14.8,37.06-21.46,55.85-4.81,13.57-14.17,21.53-27.47,25.41-6.24,1.82-12.68,2.97-19.3,4.48-13.34-8.87-25.68-18.95-37.4-29.77-2.02-1.86-3.3-4.72-4.43-7.32-7.51-17.31-14.68-34.75-19.3-53.13-.96-3.84-2.67-7.51-4.18-11.2-2.77-6.78-7.86-10.26-15.23-10.13-4.36.08-8.75.08-13.06.61-33.22,4.07-65.82,10.97-97.53,21.76-4.46,1.52-8.8,3.39-13.13,5.27-4.71,2.05-9.07,4.66-12.16,8.91-2.23,3.06-5.25,4.73-8.77,6.08-5.41,2.07-10.73,4.47-15.83,7.21-3.14,1.69-6.13,3.96-8.59,6.54-4.09,4.28-3.08,9.87,2.2,12.7,2.84,1.52,6.04,2.42,9.15,3.34,4.12,1.22,8.54,1.18,12.29,4.02,1.39,1.05,4.07.42,6.7.59,1.13,5.77,5.4,9.06,9.67,12.49,11.61,9.33,23.15,18.75,34.54,28.34,6.94,5.84,13.53,12.11,20.33,18.12,4.53,4.01,7.31,8.81,8.01,14.95,1.03,9.01,2.88,17.94,3.53,26.96,1.67,23.25.42,46.41-3.35,69.42-1.71,10.44-5.3,20.36-9.3,30.1-14.81,36.1-34.69,69.38-56.46,101.67-8.92,13.23-21.34,20.39-36.2,24.17-14.51,3.69-29.28,5.3-44.27,4.63-8.89-.4-16.94-2.86-24.33-8.21-20.9-15.12-42.23-29.62-64.84-42.1-40.53-22.38-83.18-39.59-127.84-51.81-7.04-1.92-13.74-4.44-20.33-7.58-7.85-3.73-15.97-6.99-24.19-9.8-14.9-5.08-29.19-4.01-42.72,4.87-10.62,6.97-21.53,13.51-32.45,20.03-4.03,2.4-8.28,4.59-12.68,6.18-39.98,14.51-78.57,32.25-117.13,50.04-2.31,1.06-4.63,2.11-6.87,3.31-12.32,6.67-25.63,9.43-39.42,11.43-33.04,4.77-66.17,8.97-98.89,15.84-16.35,3.43-32.98,5.17-49.73,5.57-17.55.42-34.8-2.15-51.96-5.11-29.32-5.06-58.5-10.92-87.84-15.83-11.06-1.85-22.39-2.47-33.61-2.72-6.32-.14-11.26-1.87-15.42-6.41-1.72-1.87-3.64-3.55-5.34-5.45-11.4-12.76-21.47-26.48-30.65-40.93-7.78-12.24-9.75-24.67-4.14-38.28,4.01-9.72,7.19-19.78,11.3-29.46,6.1-14.36,12.63-28.53,19.11-42.73,1.19-2.6,2.44-5.59,4.56-7.25,4.07-3.19,5.63-7.54,6.95-12.02,3.29-11.16,5.47-22.44,5.11-34.25-.59-19.58-.2-39.19-.72-58.78-.31-11.56.11-23.25-3.21-34.56.94-7.16,1.38-14.42,2.94-21.44,2.76-12.41,9.37-22.76,19.01-31.06,4.65-4,9.59-7.65,14.48-11.52,14.22,5.99,28.47,10.18,42.97,13.33,19.85,4.32,39.73,8.47,60.23,8.65,6.86.06,13.86.74,20.53,2.28,17.49,4.05,34.6,2.84,51.64-2.09,17.47-5.06,34.25-11.94,50.96-19.05,8.33-3.54,16.8-6.89,25.46-9.46,11.66-3.46,22.24-8.57,31.8-16.14,5.96-4.72,12.55-8.64,18.87-12.9,14.15-9.54,28.43-18.9,42.43-28.66,9.56-6.66,17.99-14.7,25.86-23.31,7.13-7.8,15.21-14.42,23.93-20.49,36.28-25.29,76.43-41.31,119.38-50.96,10.61-2.38,21.16-5.11,31.63-8.08,21.7-6.15,43.89-9.84,66.1-13.39,4.99-.8,10.15-.57,15.24-.59,11.27-.05,22.54.11,33.8.03,5.81-.04,11.64-.19,17.42-.74,6.16-.59,12.13-1.04,18.36.41,7.54,1.75,14.05-.1,19.04-7.09,4.19-5.86,9.74-10.74,14.55-16.17,2.15-2.43,4.4-4.93,5.87-7.78,3.99-7.69,1.09-15.54-6.79-18.95-2.32-1-4.81-1.66-7.27-2.26-7.38-1.8-14.79-3.52-22.2-5.22-3.17-.73-6.42-1.16-9.56-2.01-2.02-.55-4.47-1.11-5.76-2.53-7.97-8.78-18.76-10.59-29.55-12.17-7.17-1.05-14.46-1.34-21.71-1.88-1.8-.14-3.69-.27-5.43.11-10.77,2.37-21.71,1.87-32.58,1.78-16.83-.14-33.14,2.23-49.45,6.59-18.55,4.97-37.44,8.79-56.33,12.29-36.15,6.68-71.48,16.16-105.74,29.45-17.63,6.84-35.68,12.12-53.91,17.04-13.98,3.77-27.79,8.47-41.22,13.87-33.03,13.28-66.67,24.74-100.7,35.14-7.03,2.15-14.1,3.26-21.46,2.98-7.99-.31-16-.75-23.98-.44-9.78.38-19.52,1.61-29.3,2.23-13.78.88-27.57,1.9-41.37,2.2-25.81.57-51.54,2.32-77.19,4.97-20.26,2.09-40.07,6.69-59.59,12.5-26.78,7.97-53.59,15.83-80.35,23.87-5.2,1.56-10.46,3.27-15.26,5.74-11.27,5.8-17.75,14.66-16.33,28.06.38,3.57.06,7.22.06,12.14Zm-2245,49.54q-3.47,10.89-1.2,16.35c2.25-5.28,1.03-10.08,1.2-16.35Zm2092.96-156.49l.6-.16-.34-.71-.26.88Z"/>
      <path class="uuid-1b83cb81-3217-4802-868d-52474f49a584" d="m5344.39,224.91c0,1.83.41,3.13-.06,3.84-5.63,8.44-11.11,17-17.2,25.1-4.77,6.35-11.47,9.37-19.62,10.24-23.08,2.47-41.73,13.8-57.63,30.16-.46.47-.56,1.29-1.05,2.49,1.77,1.91,3.66,4.04,5.66,6.07,6.88,6.98,13.84,13.89,20.67,20.92,2.27,2.34,4.38,4.86,6.35,7.46,7.04,9.26,6.88,11.75-1.37,20.35-5.03,5.24-10.16,10.38-15.3,15.51-3.39,3.38-4.99,6.97-2.71,11.74,1.07,2.25,1.61,4.8,2.06,7.27.14.74-.84,1.67-1.45,2.8-1.16-.78-2.26-1.17-2.8-1.94-4.59-6.53-9.03-13.17-13.62-19.7-3.33-4.76-4.3-9.91-3-15.52.33-1.41.63-2.83,1.01-4.23,1.85-6.64.92-12.29-3.32-18.3-12.37-17.52-22.64-36.35-31.68-55.79-3.35-7.21-5.8-14.84-8.51-22.34-2.38-6.59-.43-12.06,4.74-16.59,10.21-8.94,21.51-16.07,34.33-20.64,5.65-2.02,11.5-2,17.11-.12,5.14,1.72,10.21,3.82,15.03,6.3,11.28,5.83,22.5,11.81,33.53,18.12,5.04,2.88,9.33,3.01,14.07-.39,4.42-3.17,9.14-5.92,13.76-8.8,3.04-1.9,5.96-4.16,11-4.01Z"/>
      <path class="uuid-1b83cb81-3217-4802-868d-52474f49a584" d="m1669.68,576.92c-.17,6.28,1.05,11.07-1.2,16.35q-2.27-5.46,1.2-16.35Z"/>
      <polygon class="uuid-1b83cb81-3217-4802-868d-52474f49a584" points="3762.64 420.43 3762.9 419.55 3763.25 420.26 3762.64 420.43"/>
    </g>
  </g>
  <g id="uuid-89c64323-c756-40bf-a9b1-c0d841bc0294" data-name="Layer 14 Image">
    <g>
      <path d="m4414.47,86.15c.92-.24,3.06-.64,5.1-1.33,38.9-13.25,78.73-23.08,118.79-31.97,36.51-8.1,73.11-15.83,109.8-23.09,31.01-6.14,62.22-11.1,93.83-13.22,15.74-1.05,31.2.48,46.53,3.94,10.1,2.28,19.19,6.67,27.25,13.11,13.34,10.66,26.66,21.33,39.88,32.13,35.99,29.42,72.04,58.78,107.82,88.46,10.6,8.8,20.41,18.56,30.49,27.98,1.25,1.17,2.39,2.86,2.77,4.49,2.15,9.16,4.14,18.37,6.02,27.59,1.98,9.74,1.41,19.53-.24,29.23-.96,5.65-2.32,11.01-7.12,15.33-3.37,3.04-5.24,7.77-7.66,11.82-8.39,14.01-16.54,28.17-25.12,42.07-19.12,30.96-34.97,63.55-49.41,96.89-3.29,7.59-7.14,15.17-12.04,21.8-21.73,29.39-38.69,61.35-52.64,94.99-5.24,12.65-4.32,11.86-17.21,11.76-2.18-.02-4.38,0-6.53.3-49.68,6.96-98.94,15.98-147.05,30.5-42.7,12.89-80.75,34.27-114.58,63.21-3.28,2.81-6.44,5.75-11.13,9.94,3.36-.4,4.92-.37,6.36-.78,13.96-3.99,27.88-8.12,41.86-12.04,3.82-1.07,7.77-2.12,11.69-2.27,35.9-1.39,71.07,3.1,105.39,13.76,17.05,5.3,33.35,12.45,48.87,21.25,46.76,26.51,89.31,58.39,125.73,98.17,15.26,16.67,28.8,34.58,41.03,53.52,1.93,2.99,3.9,5.95,5.76,8.8,2.71-.78,1.73-2.39,1.54-3.6-1.88-11.91-5.81-23.18-10.71-34.16-10.33-23.16-25.1-43.25-42.65-61.4-3.27-3.38-7.01-6.32-9.4-8.46-3.5-17.86-.86-33.62,2.13-49.33,6.57-34.5,19.18-66.84,35.31-97.93,17.44-33.6,38.12-65.13,60.61-95.52,1.51-2.04,3.19-3.96,4.74-5.97,14.33-18.54,32.27-31.92,54.4-40.25,38.12-14.35,76.67-26.9,116.71-34.92,16.59-3.32,29.02,1.21,39.55,13.86,13.3,15.98,25.19,32.82,34.02,51.7,1.37,2.93,2.75,5.85,4.41,9.36,4.55-1.15,7.45-4.58,11.08-6.62,4.11-2.31,8.16-4.75,12.37-6.88,3.86-1.95,7.9-3.56,12.25-5.5.48-2.38,1.33-4.8,1.39-7.25.25-9.79.47-19.59.29-29.38-.17-9.26-2.8-17.89-8.12-25.58-3.93-5.67-7.55-11.62-12.06-16.79-7.58-8.69-9-17.84-4.06-28.14.62-1.28.96-2.7,1.62-4.61-1.82-2.5-3.76-5.06-5.58-7.71-9.06-13.15-18.38-26.12-27.03-39.53-7.33-11.35-11.58-24.11-15.56-36.99-2.76-8.97-.14-15.53,6.7-21.1,9.89-8.06,20.47-15.06,31.91-20.73,9.25-4.58,18.84-5.65,28.46-1.54,8.33,3.56,16.55,7.43,24.59,11.6,6.76,3.5,13.2,7.62,20.34,11.79,2.65-1.53,5.34-3.27,8.19-4.7,6.14-3.09,12.25-6.27,18.58-8.93,5.65-2.38,11.27-1.56,17.29,2.05-2.36,3.55-4.52,6.81-6.67,10.07-6.39,9.68-13.1,19.18-19.03,29.13-2.87,4.81-6.45,7.46-11.74,8.58-7.46,1.58-14.91,3.21-22.26,5.22-14.9,4.09-28.05,11.56-39.79,20.96-.41,3.23,2.02,4.04,3.4,5.53,8.91,9.55,18.3,18.69,26.63,28.72,8.86,10.67,8.39,12.49-.98,23.1-4.57,5.17-9.2,10.29-13.98,15.26-2.74,2.85-3.87,5.86-3.09,9.82,1.55,7.86,3.25,15.59,7.54,22.55,17.52,28.38,25.58,59.8,30.05,92.45,1.68,12.3,2.01,24.57,1.76,36.91-.08,4.06-.73,7.72-3.1,11.27-3.62,5.42-6.62,11.26-9.97,16.86-21.17,35.42-36.88,73.15-48.15,112.78-.5,1.74-1.1,3.47-1.47,5.24-2.68,12.9-5.71,11.79-15.73,11.23-4.66-.26-9.34-1.42-13.88-2.64-14.51-3.88-27.87-10.33-40.43-18.51-11.5-7.49-20.37-17.43-27.37-29.1-10.57-17.62-17.29-36.7-21.38-56.76-.57-2.8-1.18-5.6-1.87-8.88-2.37,0-4.5-.14-6.61.02-39.02,3.03-76.81,11.68-113.27,25.74-13.52,5.21-26.52,11.78-39.61,18.03-3.89,1.86-7.32,4.69-10.88,7.19-.78.55-1.2,1.61-2.1,2.89,3.28,3.31,7.55,4.47,11.41,6.16,31.17,13.71,56.87,34.59,79.51,59.66,9.73,10.77,13.71,23.83,15.92,37.49,7.71,47.54,1.84,93.24-19.63,136.67-13.06,26.41-28.26,51.49-45.16,75.65-11.64,16.63-26.6,27.48-46.71,30.9-10.73,1.83-21.44,4.1-32.25,5.03-13.36,1.15-25.42-2.37-36.71-10.55-26.19-18.98-53.77-35.88-82.51-50.78-37.18-19.27-75.72-35.25-116.6-44.9-16.59-3.92-33.49-6.49-50.25-9.7-4.47-.85-8.33.04-12.4,2.39-57.44,33.12-117.68,59.98-180.82,80.36-40.87,13.19-82.48,23.26-125,29.24-26.3,3.7-52.77,4.86-79.39,3.6-40-1.89-79.61-6.91-118.99-13.82-13.58-2.38-27-5.7-40.39-8.99-3.76-.92-7.71-2.61-10.67-5.05-17.23-14.18-32.07-30.53-43.64-49.69-2.44-4.03-4.64-8.22-6.73-12.44-3.37-6.79-4.09-13.93-1.77-21.16,1.87-5.86,3.77-11.77,6.3-17.36,6.87-15.21,14.12-30.25,21.14-45.38,5.8-12.51,11.46-25.08,17.26-37.59,1.86-4.02,2.82-8.05,2.72-12.58-.56-26.85-.93-53.7-1.23-80.55-.18-15.97.26-31.95-.24-47.9-.34-10.86,3.41-19.75,10.12-27.91,9.64-11.74,22.05-19.79,35.03-27.34,13.77,3.94,27.3,7.96,40.92,11.68,37.21,10.17,75.12,13.59,113.42,9.41,43.57-4.75,84.28-18.57,121.55-41.88,16.03-10.03,31.56-20.85,45.72-33.38,9.5-8.4,18.32-17.58,27.17-26.68,10.94-11.25,22.88-21.23,36.04-29.77,54.24-35.22,113.03-59.44,176.58-71.52,29.37-5.58,59.21-6.89,89.04-3.86,15.86,1.61,31.63,4.19,48.07,6.42,4.38-4.5,9.05-9.52,13.96-14.28,4.89-4.75,10.03-9.26,15.45-14.24-19.09-13.77-38.94-23.71-61.23-29.09-32.81-7.92-65.59-6.61-98.49-1.4-65.09,10.3-128.7,26.52-191,47.9-47.73,16.38-95.38,32.98-143,49.65-13.35,4.67-26.56,9.78-39.72,14.98-6.17,2.44-12.3,3.83-19.02,3.78-37.1-.32-74.14,1.72-111.06,5.03-48.91,4.38-97.24,12.69-144.9,24.55-28.89,7.19-57.58,15.14-86.35,22.8-3.47.92-6.85,2.17-10.03,3.19-.15,1.26-.53,2.1-.28,2.65,9.9,21.95,15.75,45.17,21.46,68.42,5.55,22.59,8.47,45.64,11,68.73,4.23,38.63,5.69,77.43,7.06,116.23.14,3.99.17,7.99.48,11.97,1.43,18.17.39,36.26-1.56,54.33-.19,1.8-.93,3.76-.46,5.37,2.43,8.4-1.16,15.46-4.31,22.81-4.3,10.06-9.25,19.71-15.81,28.48-2.38,3.18-5.01,6.22-7.81,9.04-5.02,5.06-10.93,7.27-18.35,8.04-47.7,4.96-95.43,10.13-140.76,27.32-9.84,3.73-19.77,7.37-29.22,11.96-14.14,6.87-29.24,10.87-44.05,15.72-3.26,1.07-7.22.78-10.71.21-7.16-1.16-14.41-2.35-21.28-4.59-12.48-4.07-25.04-3.41-37.75-2.27-30.87,2.77-60.93,9.65-90.83,17.43-47.44,12.34-94.95,24.36-142.89,34.64-40.52,8.69-81.35,15.29-122.65,19.14-41.71,3.89-83.4,5.28-125.21,2.22-2.9-.21-6.08-1.04-8.66-.18-4.98,1.67-9.06.15-13.46-1.68-27.18-11.34-55.51-19.39-83.37-28.78-53.46-18.02-108.28-30.47-163.86-39.95-42.63-7.27-85.45-12.98-128.45-17.55-40.83-4.34-81.72-7.9-122.68-10.93-67.15-4.96-134.35-5.97-201.59-3.49-30.86,1.13-61.69,3.31-92.49,5.62-26.44,1.98-52.88,4.33-79.21,7.43-26.32,3.1-52.58,6.94-78.75,11.17-45.9,7.42-91.49,16.49-136.6,27.81-56.02,14.06-111.86,28.84-164.99,51.94-20.99,9.12-43.04,12.82-65.39,15.56-30.76,3.77-61.65,3.78-92.54,1.97-30.54-1.78-60.66-6.32-90.32-13.9-13.37-3.42-26.84-6.43-39.66-11.68-.98-.4-1.91-.95-3.07-1.54-3.66-9.12-5.32-18.77-5.94-28.52-2.96-46.31,4.27-91.12,20.35-134.59,1.23-3.33,2.48-6.66,3.87-10.38-13.52-7.75-27.3-13.08-41.72-16.85-.7-.18-1.46-.17-2.14-.41-9.5-3.35-18.43-3.04-26.32,4.03-35.52,19.21-72.29,35.49-110.59,48.47-86.75,29.4-175.03,53.27-264.4,73.18-32.26,7.19-64.97,12-97.74,16.49-25.62,3.51-51.43,4.13-77.09,6.67-8.32.82-15.57-1.45-22.58-6.06-36.43-24-74.38-45.38-113.45-64.83-6.13-3.05-11.99-4.62-18.76-3.67-19.06,2.67-38.24,4.61-57.22,7.73-74.23,12.23-147.35,29.74-220.35,47.64-62.06,15.22-124.04,30.81-185.8,47.15-42.45,11.24-84.51,23.97-126.68,36.25-6.22,1.81-12.18,4.62-18.11,7.3-7.25,3.28-14.52,6.45-21.48,8.85-3.44-1.73.3-3.46-1.05-4.87-.49-.46-.95-1.26-1.49-1.33-6.42-.84-12.65-3.24-20.21-2.7,4.11,4.75,10.56,3.68,15.26,8.8-3.5-.67-5.59-.9-7.58-1.48-17.78-5.15-35.62-10.05-53.95-12.88-7.89-1.22-15.83-2.16-23.76-3.1-7.56-.89-15.15-1.58-22.72-2.42-12.27-1.36-24.53-2.79-36.8-4.17-2.17-.24-4.36-.29-6.51-.61-6.42-.93-12.83-1.96-19.79-3.03-.93-7.93-1.11-15.97-4.76-23.16-3.6-7.1-7.35-14.11-10.98-21.04,2.46-13.28,4.9-26.44,7.33-39.61,7.77-42.1,17.86-83.69,27.86-125.3,6.69-27.85,12.5-55.91,19.15-83.77,7.41-31.04,15.24-61.97,23.06-92.91,2.49-9.84,5.36-19.59,8.36-29.28,1.33-4.29,1.66-8.5,1.03-12.87-3.16-21.9-6.32-43.79-9.48-65.69-3.99-27.64-7.98-55.28-11.96-82.92-3.98-27.64-7.92-55.28-11.93-82.92-4.01-27.64-8.09-55.26-12.11-82.89-4.02-27.63-8.12-55.26-11.95-82.92-4.23-30.53-8.05-61.12-12.34-91.65-1.35-9.61-.83-19.64-5.67-28.61-1.13-2.09-.3-4.34,1.27-6.02,1.72-1.85,3.56-3.64,5.57-5.17,6.06-4.62,12.35-8.96,18.32-13.7,4.9-3.88,10.44-5.11,16.36-4.48,7.57.81,15.15,1.79,22.61,3.29,65.82,13.18,129.07,34.08,189.44,63.48,5.54,2.7,11.1,5.33,16.97,8.14,8.37-3.46,16.78-6.76,25.06-10.39,15.3-6.69,30.46-13.71,45.79-20.33,15.32-6.62,30.76-12.96,46.18-19.34,8.38-3.47,16.85-6.72,25.25-10.15,13.47-5.48,27.19-10.17,41.43-13.23,6.49-1.39,12.73-1.1,19.32.48,12.34,2.95,24.87,5.25,37.44,7.05,28.42,4.08,56.98,6.51,85.71,7.53,38.18,1.36,76.25.41,114.33-2.35,60.64-4.4,120.52-13.56,179.4-28.75,16.85-4.35,33.47-9.64,50.09-14.83,4.33-1.35,8.4-1.71,12.76-.81,10.73,2.21,21.12,5.46,30.62,10.96,18.61,10.76,35.8,23.35,51.28,38.42,9.14,8.9,17.98,17.92,25.39,28.3.39.54,1.17.81,2.38,1.61,9.18-1.31,18.55-4.14,27.72-7.42,29.63-10.59,56.88-25.65,82.07-44.46,6.98-5.21,13.37-11.58,21.05-15.34,7.67-3.75,16.53-5.32,25.02-7.1,14.92-3.12,29.86-6.39,44.96-8.28,19.09-2.39,38.32-3.83,57.54-5.03,29.8-1.87,59.6-1.25,89.27,2.22,52.26,6.12,103.06,17.81,150.72,40.79,37.24,17.96,70.56,41.85,101.57,68.94,17.51,15.3,33.79,31.92,48.69,49.83,1.16,1.4,2.32,2.79,3.5,4.18,9.14,10.73,11.76,22.82,8.52,36.58-3.41,14.47-6.17,29.08-9.14,43.65-.42,2.04-.4,4.17-.63,6.75,2.27.35,3.98.81,5.7.86,50.59,1.32,99.42,11.89,147.13,28.11,13.74,4.67,27.28,9.94,40.82,15.17,11.6,4.48,22.05,11.05,32.02,18.41,1.73,1.28,3.65,2.29,5.8,3.62,1.67-.63,3.41-1.1,4.98-1.9,50.88-25.99,104.03-46.53,157.86-65.4,67.86-23.79,136.25-45.85,206.09-63.25,57.47-14.32,115.37-26.57,173.93-35.48,29.45-4.48,59.1-7.43,88.83-9.69,23.22-1.76,46.42-3.11,69.7-1.99,23.27,1.12,45.17,6.67,64.79,19.86,16.58,11.14,33.49,21.79,49.99,33.04,9.89,6.74,19.09,14.47,28.92,21.29,18.51,12.86,38.13,23.94,57.87,34.79,44.59,24.49,90.23,46.85,136.92,67.05,27.37,11.84,55.88,20.5,84.17,29.76,33.47,10.96,66.97,21.82,101.3,29.91,48.79,11.49,97.78,21.97,147.27,30.08,10.39,1.7,20.71,3.85,31.01,6,8.05,1.68,15.45.98,23.24-2.38,48.68-21,97.94-40.58,147.92-58.32,54.44-19.32,109.68-36,165.87-49.5,3.46-.83,7.13-1.05,10.25-3.92-1.39-2.92-2.67-5.89-4.19-8.74-19.46-36.5-38.42-73.3-60.2-108.51-4.68-7.56-6.37-15.27-5.22-23.83,1.76-13.12,5.56-25.54,13.24-36.48,6.37-9.08,14.57-16.31,24.71-20.81,30.5-13.54,60.55-28.11,92.58-38.06,33.3-10.35,66.97-19.31,100.79-27.72,43.01-10.69,86.28-20.19,130.01-27.43,33.69-5.58,67.48-10.65,101.55-13.29,19.98-1.55,40.03-.89,59.88,1.53,11.46,1.4,22.66,4.91,33.99,7.42,32.33,7.17,63.6,17.84,94.83,28.63,29.5,10.2,59.01,20.4,88.29,31.22,12.2,4.51,23.8,10.65,36.69,16.51ZM1962.8,354.97c-3.66.92-6.18-1.64-8.98-3.09-20.97-10.84-41.96-21.6-63.91-30.4-42.55-17.05-86.61-26.93-132.53-27.91-12.34-.26-24.7.12-37.04.27-.62,0-1.24.64-2.33,1.24-.48,1.7-1.22,3.73-1.61,5.82-1.92,10.34-3.95,20.67-5.57,31.06-4.18,26.88-8.64,53.72-12.08,80.7-3.03,23.74-5,47.62-7.16,71.46-2.98,32.9-4.8,65.86-5.26,98.9-.74,53.03,1.59,105.96,6.48,158.74,2.31,24.9,6.21,49.66,9.82,74.42,2.61,17.94,5.92,35.77,5.07,54.02-1.03,22.24-5.45,43.87-12.05,65.09-1.95,6.27-4.79,12.13-9.01,17.39-7.04,2.67-14.2,5.24-21.24,8.1-20.65,8.38-39.77,19.47-57.49,32.94-1.62,1.23-3.98,2.2-3.19,5.15.99.28,2.01.62,3.05.85,37.13,8.03,74.76,10.69,112.66,10.2,35.27-.46,70.43-3.02,105.54-6.26,4.28-.39,8.56-1.63,12.66-2.99,18.6-6.18,37.13-12.59,55.71-18.85,106.93-36.04,216.2-62.51,327.73-79.62,39.14-6,78.46-10.63,117.91-14.26,42-3.87,84.08-6.26,126.22-7.42,41.06-1.14,82.12-.68,123.18,1.03,42.87,1.78,85.62,4.95,128.24,9.73,45.13,5.06,89.98,12.04,134.55,20.89,89.65,17.82,177.07,42.97,261.3,78.66,6.5,2.76,13.06,4.07,20.08,4.07,18.54.02,37.07.27,55.61.36,45.2.22,89.92-4.65,134.42-12.24,37.26-6.36,73.96-15.19,110.74-23.77,43.84-10.23,87.59-20.96,132.07-28.18,20.81-3.38,41.74-6.04,62.91-5.27,19.61.72,39.21,1.99,58.58,5.32,5.68.98,10.33.26,15.35-3,23.89-15.51,49.8-26.73,76.92-35.46,26.35-8.48,53.23-14.45,80.41-19.37,12.89-2.33,25.76-4.54,38.95-3.67.99.07,2.04-.62,2.43-.75,5.7-7.81,10.88-15.24,16.44-22.38,2.31-2.96,2.35-5.97,1.85-9.22-1.98-12.9-3.84-25.83-6.15-38.68-1.21-6.73-3.28-13.31-4.68-18.85-4.61-4.72-11.08-4.52-14.49-9.85,3.39-1.63,6.24-3,9.25-4.45.17-4.81-1.01-8.74-4.08-12.74-4.35.44-8.66.75-12.93,1.34-6.12.83-12.18,2.03-18.31,2.73-2.41.28-5.15.2-7.36-.69-5.64-2.27-11.06-5.08-17.74-8.24,3.07-2,4.92-3.69,7.11-4.55,11.83-4.63,23.75-9.02,35.61-13.56,1.92-.73,3.7-1.82,5.99-2.96-1.6-3.81-2.95-7.03-4.25-10.12-2.18,0-3.65-.22-5.04.03-13.58,2.48-27.15,4.95-40.7,7.59-9.98,1.95-19.88,4.3-29.87,6.16-6.19,1.15-7.92.21-12.84-5.21,1.46-3.52,4.45-5.62,7.58-7.43,4.71-2.72,9.48-5.37,14.4-7.71,15.12-7.18,30.91-12.63,46.88-17.58,2.73-.85,5.42-1.85,8.41-2.88-.9-4.7-2.69-8.48-4.85-12-1.98,0-3.46-.26-4.82.04-26.25,5.72-52.64,10.86-78.28,19.11-4.82,1.55-9.84,2.54-14.83,3.52-2.09.41-4.36.4-6.48.09-4.83-.7-6.75-5.24-3.53-8.73,2.42-2.63,5.25-5.12,8.35-6.85,6.33-3.54,12.83-6.83,19.49-9.69,19.7-8.47,39.98-15.39,60.5-21.61,2.37-.72,4.68-1.62,7.82-2.71-1.73-3.7-3.17-6.8-4.81-10.31-3.09.69-5.55,1.15-7.96,1.78-23.89,6.22-47.79,12.45-71.66,18.73-8.08,2.13-16.07,4.6-24.18,6.55-3.1.75-6.48.86-9.67.59-3.6-.31-5.35-4.57-3.15-7.47,1.73-2.28,3.74-4.58,6.11-6.1,6.71-4.29,13.46-8.63,20.59-12.14,21.22-10.47,43.73-17.71,66.08-25.29,3.38-1.15,6.71-2.45,10.76-3.93-1.78-3.07-3.16-5.44-4.67-8.03-3.01.7-5.44,1.29-7.88,1.84-9.57,2.14-19.1,4.43-28.72,6.29-3.5.68-7.25.68-10.82.31-4.15-.43-5.71-5.11-2.77-8.2,2.22-2.33,4.76-4.6,7.6-6.06,6.76-3.48,13.76-6.53,20.71-9.62,3.61-1.61,7.34-2.95,11.67-4.68-2.29-4.21-3.57-8.34-6.88-11.03-1.07-.11-1.82-.36-2.49-.22-24.52,5.13-49.11,9.95-73.52,15.59-12.35,2.86-24.33,7.3-36.53,10.85-4.15,1.21-8.42,2.16-12.7,2.64-1.4.16-3.66-1.2-4.33-2.48-.65-1.24-.36-3.89.59-4.86,3.01-3.07,6.21-6.21,9.91-8.31,7.89-4.46,16-8.6,24.27-12.3,22.22-9.96,45.13-18.17,68.2-25.93,2.35-.79,4.62-1.79,7.49-2.91-1.63-2.96-2.95-5.37-4.4-8-2.13.44-3.86.95-5.61,1.12-5.04.48-10.09.94-15.15,1.16-2.27.1-4.38-.95-5.33-3.14-1.14-2.62-.32-5.2,1.82-6.85,3.42-2.64,7.02-5.1,10.77-7.23,2.77-1.57,5.92-2.49,9.65-4.01-1.36-3.32-2.53-6.19-3.83-9.35-3.03.29-5.56.24-7.96.8-19.1,4.43-38.21,8.84-57.24,13.52-21.56,5.3-42.2,13.43-63.03,20.94-3.75,1.35-7.5,2.79-11.36,3.73-3.68.89-6.48-2.15-5.37-5.88.69-2.32,1.87-4.9,3.65-6.42,3.84-3.28,7.93-6.46,12.4-8.77,8.05-4.16,16.35-7.9,24.73-11.36,27.6-11.39,56.29-19.32,85.24-26.42,3.38-.83,6.7-1.95,10.38-3.03-1.73-4.78-2.85-8.91-5.8-11.49-1.14-.18-1.53-.36-1.85-.28-25.98,6.87-52.02,13.51-77.36,22.55-19.84,7.07-39.65,14.21-59.51,21.22-3.75,1.32-7.62,2.37-11.51,3.23-2.64.59-5.1-.29-6.73-2.58-1.84-2.57-2.18-5.44-.59-8.2,1.07-1.85,2.34-3.76,3.98-5.07,2.82-2.26,5.82-4.41,9.04-6,8.79-4.32,17.62-8.62,26.66-12.4,32.53-13.61,65.89-24.87,99.81-34.52,2.69-.77,5.29-1.87,8.55-3.04-1.58-3.21-2.79-5.68-4.14-8.41-2.96.53-5.45.82-7.87,1.43-10.91,2.76-21.77,5.74-32.72,8.36-4.56,1.09-9.28,1.74-13.96,2.09-2.93.22-5.83-.76-7.33-3.75-1.24-2.47-.24-6.1,2.96-8.63,2.82-2.23,5.95-4.19,9.22-5.68,11.28-5.13,22.96-9.05,35.24-11.05,1.68-.27,3.3-.86,5.53-1.45-1.61-5.86-3.99-10.56-7.24-15.36-3.76.89-7.27,1.57-10.69,2.57-47.8,13.92-95.05,29.4-141.04,48.57-3.35,1.4-6.76,2.71-10.25,3.66-2.4.65-5.02.99-7.49.82-4.76-.33-6.95-4.91-3.92-8.65,2.94-3.61,6.4-6.95,10.12-9.75,9.91-7.44,20.92-13.08,32.05-18.46,23.9-11.57,48.47-21.48,73.63-29.93,15.08-5.06,30.23-9.94,45.77-15.03-.82-5.1-2.78-9.48-6.49-13.03-1.46.24-2.55.28-3.56.6-13.16,4.14-26.31,8.29-39.44,12.51-33.91,10.91-67.08,23.78-99.73,38.01-4.99,2.17-10,4.39-15.17,6.05-3.75,1.2-7.75,1.79-11.69,2.12-2.13.18-4.29-.9-5.26-3.19-.96-2.26-.38-4.52,1.28-5.99,3.51-3.13,7.09-6.26,11.04-8.79,16.84-10.8,34.37-20.33,52.61-28.58,33.15-15,67.27-27.33,102.35-37.01,1.9-.53,3.64-1.65,5.74-2.62-2.2-4.86-3.26-9.46-7.14-12.71-1.68.45-3.07.77-4.43,1.19-54.11,16.8-107.71,35.06-160.16,56.51-48.73,19.92-97.27,40.3-145.84,60.6-12.76,5.33-25.75,9.79-39.17,13.19-6.55,1.66-12.88,1.88-19.38.58-28.14-5.62-56.16-11.69-83.62-20.12-3.81-1.17-7.73-2.04-11.64-2.81-18.88-3.72-37.82-7.12-56.66-11.06-93.87-19.62-184.26-49.76-271.4-89.69-13.23-6.06-26.3-12.53-38.1-21.03-13.29-9.58-27.42-17.77-41.4-26.21-41.38-25-81.87-51.29-119.76-81.42-8.24-6.55-16.73-12.8-25.29-18.94-5-3.59-10.35-6.7-15.58-9.98-8.88-5.58-18.61-7.62-29.06-7.74-17.1-.19-34.12.53-51.16,2.05-28.24,2.5-56.42,5.55-84.37,10.16-30.09,4.97-60.08,10.59-90.08,16.08-41.8,7.65-83.33,16.63-124.41,27.48-59.35,15.68-117.72,34.56-175.85,54.23-53.73,18.18-106.25,39.22-157.26,64.01-2.94,1.43-6.01,2.7-8.65,4.56-1.21.85-1.51,2.98-2.23,4.53l.21-.24Zm-249.42-154.82c2.68-2.05,2.16-3.75.98-5.25-6.28-7.98-12.31-16.19-19.02-23.8-20.72-23.5-43.16-45.1-69.81-62.03-39.75-25.25-81.93-45.35-126.81-59.62-36.52-11.61-73.85-18.75-112.33-19.4-27.27-.46-54.47-.4-81.67,2.34-26.51,2.67-52.41,7.72-77.75,15.89-5.02,1.62-8.78,4.19-12.05,8.55-4.98,6.64-10.54,13-16.64,18.62-28.67,26.4-62.32,43.52-100.22,52.38-4.59,1.07-9.27,2-13.95,2.41-10.9.95-20.16-.88-27.89-10.55-18.97-23.71-43.03-42.09-67.34-59.96-8.99-6.61-18.5-12.67-28.6-16.99-1.86.62-3.28.99-4.61,1.56-43.94,18.68-89.61,31.61-136.35,41.02-31.73,6.39-63.68,11.21-95.99,13.24-21.02,1.32-42.08,2.77-63.13,2.77-20.68,0-41.38-1.37-62.03-2.86-38.52-2.79-76.31-9.85-113.24-21.22-3-.92-5.57-1.1-8.37.19-1.98.91-4.06,1.56-6.09,2.37-50.93,20.23-101.85,40.49-152.8,60.67-3.69,1.46-7.6,2.38-11.41,3.56-4.03,1.25-7.85.88-11.51-1.33-1.55-.94-3.23-1.65-4.84-2.48-18.12-9.34-36.94-17.05-56.57-22.5-26.92-7.47-53.94-14.64-81.05-21.38-19.72-4.9-39.46-9.91-59.75-12.12-11.18-1.22-22.37-2.32-33.56-3.5-5.34-.56-8.85,2.15-11.72,6.06.25,2.08.45,3.88.7,5.68,2.93,21.19,5.87,42.38,8.81,63.57,2.54,18.32,4.7,36.7,7.71,54.95,5.67,34.39,9.24,68.97,11.76,103.72,1.78,24.58,4.8,49.08,7.62,73.58,2.2,19.09,5.19,38.09,7.39,57.18,3.82,33.14,7.29,66.33,12.61,99.28,1.27,7.86,2.89,15.93,2.27,23.74-.66,8.34-.87,16.63-.88,24.94-.03,25.78-1.29,51.48-4.55,77.06-1.74,13.67-3.41,27.35-5.3,41-2.19,15.81-4.11,31.67-6.97,47.36-8.25,45.3-16.66,90.57-25.5,135.76-4.38,22.4-9.83,44.6-14.73,66.9-.19.87.29,1.88.41,2.53,11.23.92,22.08,1.62,32.89,2.73,30.38,3.1,60.63,7.08,89.56,17.47,12.28,4.41,24.52,9.08,36.32,14.6,5,2.34,8.88,3.08,14.24,1.35,38.35-12.37,76.8-24.41,115.26-36.45,89.46-28.01,180.25-50.92,271.72-71.33,39.72-8.86,79.75-16.03,119.84-22.89,32.23-5.52,64.62-9.94,97.18-13.12,6.13-.6,12.49-2.38,18.33-1.34,6.23,1.11,12.03,4.81,17.93,7.58,22.04,10.37,43.4,22,64.2,34.67,10.58,6.44,20.53,13.72,29.31,22.52,2.03,2.03,4.1,4.01,5.92,5.79,25.94,2.87,51.37,1.1,76.71-.69,36.99-2.61,73.67-8.04,110.07-15.07,77.18-14.91,152.58-36.18,226.18-63.75,42.56-15.94,84.23-33.88,123.98-56.02,17.15-9.56,33.83-19.86,49.07-32.34,1.89-1.55,4.26-2.52,5.57-3.28,46.34,18.81,86.75,45.56,125.1,76.73,1.65-5.63.72-8.92-3.81-11.72-16.68-10.29-33.46-20.47-49.59-31.57-11.03-7.59-21.3-16.37-31.44-25.16-5.17-4.48-9.59-9.91-13.86-15.3-3.78-4.77-4.21-8.71-1.99-10.85,3.19-3.09,6.96-1.98,10.19-.45,7.85,3.73,15.81,7.4,23.18,11.96,20.4,12.63,40.17,26.18,58.31,41.96,1.23,1.07,2.48,2.82,4.92.84-.52-5.76.14-11.91-1.53-17.67-10.53-5.77-20.72-11.29-30.85-16.92-15.91-8.85-30.98-18.97-44.77-30.88-3.83-3.31-7.41-6.96-10.81-10.72-1.39-1.53-2.21-3.69-2.89-5.7-.68-2.03.94-4.63,3-5.06,1.76-.36,3.67-.8,5.36-.46,4.6.94,9.27,1.88,13.65,3.52,19.09,7.15,37.32,16.13,54.79,26.62,2.71,1.63,5.46,3.19,8.37,4.89,2.3-3.84,1.09-6.9.12-10.52-2.72-1.71-5.78-3.62-8.83-5.55-11.66-7.4-23.18-15.03-33.47-24.29-2.67-2.4-5.18-5.13-7.14-8.12-2.2-3.36.11-7.81,4.22-7.96,3.9-.15,8.01.17,11.73,1.29,5.54,1.65,10.85,4.11,16.2,6.36,4.96,2.09,9.84,4.35,14.84,6.58,2.34-3.58,1.25-6.57.48-8.45-10.71-8.07-20.9-15.09-30.29-23.04-8.29-7.02-15.82-14.94-23.39-22.75-2.46-2.54-4.34-5.82-5.84-9.06-1.82-3.92,1.21-7.57,5.46-6.64,3.51.77,6.98,2.02,10.27,3.49,12.66,5.62,24.4,12.85,35.79,20.69,1.97,1.36,4.26,2.26,6.99,3.67v-12.56c-1.71-1.38-3.13-2.5-4.52-3.64-13.19-10.87-25.79-22.39-37.14-35.18-3.34-3.76-6.21-8.04-8.69-12.42-2.26-4.01.28-7.6,4.78-6.81,3.86.68,7.75,1.95,11.28,3.66,10.19,4.92,19.24,11.64,28.13,18.57,1.56,1.22,3.49,1.96,5.42,3.02,1.92-6.49.68-11.14-3.8-15.46-6.31-6.08-11-13.5-14.99-21.28-1.64-3.2-2.98-6.63-3.82-10.11-.75-3.07-1.53-6.81,1.91-8.87,3.23-1.93,6.34-.12,9.09,1.73,3.23,2.18,6.33,4.56,10.51,7.6.27-3.19.6-5.17.57-7.15-.02-2.14-.37-4.27-.46-5.26-9.47-9.56-18.32-18.15-26.74-27.14-4.2-4.48-7.87-9.52-11.26-14.65-1.95-2.95-3.21-6.5-4.15-9.95-.99-3.6,1.88-6.68,5.51-6.02,2.8.51,5.64,1.44,8.14,2.79,7.7,4.19,14.48,9.66,20.74,15.79,1.7,1.67,3.5,3.22,5.31,4.87.87-1.14,1.62-1.67,1.64-2.22.11-3.24.06-6.48.06-10.26-2.72-2.49-5.65-5.17-8.59-7.85-9.7-8.82-18.76-18.27-26.18-29.09-3.03-4.42-5.4-9.44-7.26-14.49-1.62-4.4,1.46-7.66,6.28-7.8,4.6-.13,8.67,1.52,12.13,4.2,7.45,5.78,14.62,11.9,21.95,17.83,1.57,1.27,2.57,3.7,6.01,2.74,1.54-4.11,1.47-8.69,1.06-13.68-2.49-2.37-5.09-4.89-7.72-7.35-11.17-10.46-21.46-21.7-30.31-34.18-3.55-5.01-6.49-10.47-9.43-15.87-1.19-2.19-1.97-4.72-2.41-7.18-1.15-6.62,3.03-10.94,9.45-9.21,4.1,1.1,8.29,3.04,11.61,5.65,9.41,7.39,18.38,15.33,27.56,23.01,1.49,1.24,3.15,2.27,5.5,3.94.78-5.32,1.39-9.53,2-13.71-3.05-2.51-5.57-4.55-8.06-6.63-12-10.02-23.71-20.38-33.85-32.31-3.97-4.67-7.27-9.93-10.65-15.07-1.85-2.81-2.35-6.07-1.51-9.42,1.13-4.48,4.44-6.97,8.94-5.78,4.15,1.1,8.25,2.81,12,4.91,11.15,6.24,21.01,14.27,30.44,22.84,2.09,1.89,4.27,3.68,6.77,5.82,2.75-4.44,2.74-8.71,2.77-13.17-2.53-2.27-5.12-4.28-7.32-6.64-5.19-5.56-10.35-11.17-15.19-17.02-1.79-2.17-3.03-4.98-3.88-7.69-1.57-5.04,2.07-8.79,7.14-7.59,5.42,1.28,10.04,4.12,14.29,7.63,2.73,2.25,5.47,4.5,8.79,7.22,1.99-5.25,3.22-9.64,2.5-14.35-21.39-11.85-40.06-26.76-57.17-43.63-4.62-4.56-8.57-9.83-12.58-14.97-2.05-2.63-3.54-6.07-1.26-9.04,2.3-3,6.17-2.37,9.12-1.14,6.34,2.65,12.77,5.35,18.55,8.99,13.86,8.72,26.72,18.8,38.33,30.42,2.75,2.75,5.12,6.06,9.01,7.5,3.04-5.81,3.08-5.8,2.48-12.1-6.72-4.64-13.47-8.91-19.78-13.74-16.18-12.4-31.09-26.24-45.04-41.08-5.21-5.54-9.99-11.53-14.56-17.61-2.13-2.84-3.68-6.26-4.83-9.65-1.36-3.97,1.33-7.21,5.5-7.39,4.92-.22,9.35,1.53,13.46,3.85,16.42,9.3,33.11,18.19,47.84,30.2,8.39,6.85,17,13.44,25.83,20.39,3.34-4.29,3.53-8.81,3.74-13.11-4.24-2.52-8.22-4.38-11.62-7-29.99-23.1-58.11-48.26-83.74-76.14-3.18-3.46-5.95-7.33-8.57-11.23-1.16-1.72-1.75-3.95-2.1-6.03-.32-1.97.88-3.74,2.9-3.86,2.48-.15,5.21-.18,7.45.7,5.39,2.12,10.67,4.58,15.77,7.33,6.07,3.27,11.8,7.16,17.84,10.49,17.29,9.52,32.99,21.2,47.54,34.44,7.23,6.58,14.15,13.48,21.56,20.57Zm3267.41-2.36c-1.69-1.61-2.92-2.94-4.31-4.07-25.38-20.58-50.47-41.54-76.24-61.61-31.8-24.76-64.25-48.66-97.73-71.15-17.09-11.48-35.8-15.66-55.87-14.41-22.86,1.42-45.52,4.67-67.94,9.37-28.42,5.95-56.81,12.08-85.18,18.27-56.38,12.29-113.07,23.2-168.94,37.78-2.95.77-5.6.92-8.48-.03-16.88-5.57-34.01-10.47-50.65-16.68-32.64-12.18-64.98-25.16-97.51-37.65-22.69-8.72-45.42-17.37-68.25-25.71-17.22-6.29-35.09-9.34-53.48-8.26-15.95.93-31.93,1.69-47.78,3.54-24.52,2.86-48.99,6.24-73.38,10.04-34.44,5.36-68.7,11.78-102.45,20.6-49.18,12.85-97.67,28.02-145.78,44.4-31.08,10.58-60.5,24.5-88.03,42.48-8.32,5.44-13.69,12.71-17.39,21.65-1.54,3.73-1.23,6.79,1.08,10.15,5.14,7.47,10.2,15.02,14.88,22.78,39.79,65.95,75.37,134.07,104.84,205.28,13.61,32.88,25.14,66.47,32.01,101.5.2,1.01.9,1.91,1.6,3.33,1.71-.75,3.39-1.26,4.84-2.15,17.69-10.88,36.51-19.5,55.66-27.34,83.97-34.36,171.17-55.4,261.71-62.03,40.66-2.98,81.32-3.14,121.55,5.05,4.21.86,7.7.04,11.47-1.66,31.81-14.26,64.24-27,96.9-39.15,57.18-21.27,114.99-40.63,173.94-56.41,28.77-7.7,57.84-14.21,87.4-18.08,34.33-4.5,68.83-5.68,103.32-2.39,21.77,2.08,43.02,7.1,63.14,15.85,22.12,9.62,42.14,22.7,60.68,38.1,9.3,7.73,17.4,16.41,23.64,26.82,1.81,3.02,4.03,5.8,6.85,9.81,1.37-3.5,2.42-5.66,3.07-7.93,5.38-18.91,13.28-36.83,21.68-54.53,15.63-32.93,34.08-63.97,61.83-89.48-.9-15.25-1.81-30.78-2.71-46.08Zm-5.39,734.48c-5.08-.16-7.15,4.26-10.6,6.15-.01,4.68-3.55,5.79-7.05,7.04-11.68,4.18-23.71,6.86-36.04,8.14-3.59.37-7.28.32-10.87-.05-3.65-.38-7.26-1.49-8.62-5.55-1.07-3.19.78-6.94,5.77-9.4,6.8-3.36,13.92-6.15,21.05-8.77,5.65-2.07,11.53-3.51,17.3-5.23-3.82-.63-7.41-.02-11-.06-3.58-.04-7.22-.44-10.71-1.24-3.03-.7-3.86-5.05-1.32-6.97,2.56-1.93,5.43-3.69,8.43-4.79,11.97-4.4,24.26-7.6,37.05-8.42,2.88-.18,5.81-.06,8.68.22,2.6.25,5.07,1.1,5.67,4.14.56,2.84-.95,5.06-2.95,6.62-1.65,1.29-3.81,2.02-5.84,2.69-5.77,1.9-11.6,3.64-17.4,5.44,3.72.82,7.32.68,10.9.87,2.12.12,4.47.31,6.25,1.3,1.61.89,2.59,2.91,3.88,4.46,12.47-14.35,46.59-77.13,48.65-89.84-2.21.95-4.13,1.75-6.04,2.6-13.29,5.88-26.75,11.29-40.76,15.22-8.8,2.47-17.7,4.02-26.87,3.69-6.61-.24-11.43-2.72-14.94-8.91-21.28-37.63-48.66-70.31-81.1-98.91-44.93-39.61-95.32-69.85-151.99-89.53-27.59-9.58-56.15-14.64-85-18.37-4.04-.52-7.82-.03-11.68,1.61-6.34,2.69-12.88,4.93-19.39,7.18-21.29,7.36-43.12,12.83-64.93,18.4-49.71,12.69-99.89,22.41-151.2,25.69-32.47,2.07-64.66-.47-96.55-6.3-51.79-9.46-100.67-27.82-148.15-50.06-17.39-8.14-34.67-16.55-50.5-27.11-5.05,3.14-6.24,7.33-5.61,12.45.66,5.4,1.17,10.82,1.54,16.25,2.17,32.58,4.17,65.17,6.49,97.74.58,8.2-.53,15.87-3.98,23.27-1.84,3.94-3.64,7.91-5.49,11.85-7.24,15.43-14.8,30.73-21.67,46.33-7.29,16.57-13.94,33.42-20.8,49.97,9.68,19.93,20.44,38.38,32.53,56.09,2.62,3.84,5.78,5.94,10.59,6.57,15.48,2.04,30.93,4.3,46.31,6.96,26.88,4.65,53.96,7.63,81.13,9.57,44.42,3.17,88.57.17,132.48-7.1,33.39-5.52,65.98-14.2,98.41-23.66,56.42-16.45,110.08-39.12,160.29-69.78,5.56-3.39,11.62-5.95,17.42-8.95,5.75-2.97,11.65-3.51,17.96-1.88,10.19,2.63,20.45,4.98,30.68,7.42,50.34,12.01,99,28.73,145.19,52.18,29.91,15.18,58.23,32.8,82.38,56.38,3.48,3.4,7.37,4.19,11.86,4.19,20.78-.05,41.34-2.2,61.66-6.48,2.4-.51,4.84-1.61,6.84-3.03,2.89-2.07,8.92-12,11.66-18.29Zm260.21-377.22c2.44-7.02,2.09-12.65-.36-18.71-2.46-.91-5.24-1.72-7.81-2.97-2.92-1.42-5.83-3-8.42-4.94-2.36-1.76-4.2-4.2-3.26-7.48.77-2.68,2.83-4.1,5.49-4.72,2.06-.47,4.11-.95,6.97-1.61-.95-1.75-1.32-3.5-2.2-3.8-1.63-.57-3.55-.33-5.35-.36-11.31-.22-22.49-1.48-33.28-5-3.03-.99-5.93-2.64-8.56-4.46-2.09-1.44-2.14-5.29-.07-6.74,2.61-1.84,5.51-3.47,8.52-4.49,7.68-2.61,15.73-2.45,23.74-2.47,2.37,0,5.03,1.23,7-1.09.7-3.44-1.75-3.72-3.89-3.82-10.16-.44-20.33-.54-30.47-1.19-4.29-.27-8.59-1.31-12.73-2.55-2.93-.88-3.73-5.4-1.28-7.21,2.87-2.11,6.06-4.29,9.44-5.09,7.74-1.83,15.68-2.83,23.53-4.19,1.27-.22,3.01.38,3.39-1.71-.98-2.48-2.93-1.19-4.54-1.16-10.16.15-20.32.65-30.46.3-3.79-.13-7.65-1.91-11.24-3.47-2.34-1.02-2.79-4.94-.81-6.59,2.46-2.05,5.17-4.03,8.11-5.22,6.41-2.6,13.1-4.29,20.1-4.48,2.02-.05,4.03-.47,6.05-.72-.56-4.49-3.22-3.94-5.74-3.23-12.88,3.64-25.96,2.58-38.96,1.34-4.18-.4-8.35-2.3-12.23-4.13-2.85-1.34-3.34-5.42-.94-7.41,2.72-2.26,5.81-4.58,9.12-5.54,6.59-1.9,13.45-2.86,20.2-4.23,2.35-.48,5.11.52,7.27-2.24-3.09-4.98-7.25-7.54-13.32-6.19-9.57,2.13-19.16,4.16-28.68,6.48-34.71,8.47-68,20.68-99.86,36.96-13.54,6.92-24.76,16.03-34.32,27.83-22.45,27.69-43.12,56.61-61.4,87.19-10.81,18.08-20.44,36.8-27.66,56.65-.65,1.77-.83,3.72-1.54,7.03,2.55-2.26,3.96-3.38,5.22-4.66,14.97-15.1,32.3-26.94,51.04-36.83,7.77-4.1,15.8-7.29,24.64-8.24,2.5-.27,4.98-.98,7.39-1.72,33.71-10.37,67.85-18.67,102.85-23.67,38.01-5.43,76-6.14,114.13-2.11,3.97.42,7.97.67,11.94,1.08,4.28.45,8.54,1,13.24,1.56Zm-.64-75.03c3.09,10.27,6.06,19.59,8.67,29.01,3.5,12.6,5.73,25.44,6.56,38.52.98,15.62-3.05,29.42-14.2,40.79-3.05,3.11-6,6.32-9.19,9.27-15.23,14.12-31.73,26.5-49.98,36.51-2.12,1.16-4.11,2.58-6.2,3.91,10.69,14.08,33.29,26.2,56.12,30.24.83-2.21,1.77-4.49,2.54-6.83,3.4-10.32,6.35-20.81,10.21-30.96,13.16-34.66,27.97-68.51,51.47-97.75,2.53-3.15,2.78-6.42,2.57-10.15-1.56-27.65-7.48-54.53-14.27-81.25-.25-.98-1.51-1.71-2.52-2.8-.44,1.07-.65,1.4-.7,1.74q-2.07,13.98-13.86,20.97c-9.37,5.52-18.58,11.24-27.22,18.76Zm-798.24,185.59c5.34-11.26,10.64-22.75,16.2-34.11,18.84-38.46,40.21-75.53,61.97-112.38,13.65-23.12,27.97-45.84,45.53-66.31,3.78-4.41,7.58-8.8,11.28-13.27.79-.96,2.14-2.05.37-4-1.1.27-2.54.37-3.74.97-10.73,5.3-21.39,10.75-32.14,16.02-4.08,2-6.97,5.06-9.48,8.71-7.59,11.07-15.47,21.94-22.84,33.16-28.53,43.42-53.12,89.05-75.8,135.73-5.7,11.74-11.47,23.45-17.14,35.2-.54,1.12-.54,2.49-1.01,4.87,9.43-1.8,18.17-1.33,26.8-4.6Zm202.98-251.6c-3.7.2-5.76,0-7.65.48-5.62,1.41-11.15,3.22-16.77,4.62-5.2,1.3-8.87,4.22-12.01,8.58-22.24,30.9-43.83,62.19-62.65,95.35-24.54,43.22-46.78,87.54-66.28,133.23-.37.86-.32,1.9-.56,3.53,7.91-.92,15.36-1.62,21.76-4.42,3.1-9.26,5.42-18.04,8.93-26.32,13.02-30.69,26.96-60.96,42.95-90.25,23.56-43.17,51.62-83.08,86.43-118.05,1.7-1.71,3.18-3.65,5.86-6.76Zm-162.42,77.57c-.45-.44-.91-.89-1.36-1.33-7.5,4.97-15.07,9.86-22.46,14.99-1.72,1.2-2.84,3.24-4.3,4.84-6.1,6.7-12.25,13.34-18.32,20.07-2.9,3.22-5.93,6.38-8.39,9.92-14.27,20.63-26.78,42.29-36.97,65.21-9.72,21.85-19.05,43.88-28.47,65.86-.33.78.15,1.91.33,3.59,6.73-.58,13.13-1.14,19.89-1.72,5.19-17.21,12.61-32.94,20.25-48.55,7.49-15.3,14.99-30.62,23.19-45.55,8.38-15.24,17.13-30.33,26.6-44.91,9.43-14.51,19.96-28.31,30-42.41Zm733.42-249.38c4.49,18.68,12.81,37.43,19.61,44.55,30.3-23.55,47.98-29.62,82.15-34.68.66-2.05,1.38-4.31,2.37-7.4-5.53,1.54-9.37-.47-13.28-2.31-9.16-4.34-18.31-8.73-27.54-12.92-5.6-2.54-11.29-4.91-17.05-7.06-7.24-2.7-14.27-1.83-20.88,2.12-8.71,5.21-17.22,10.7-25.38,17.71Zm-667.12,377.08c1.93-1.49,3.31-2.42,4.53-3.52,5.12-4.61,9.98-9.53,15.34-13.84,4.12-3.31,6.7-7.27,8.77-12.08,28.71-66.58,66.32-127.14,120.45-176.44.8-.73,1.7-1.41,2.34-2.27.75-1.01,1.26-2.19,2.55-4.51-9.23.4-17.11.74-24.35,1.06-40.53,41.87-119.2,170.14-129.63,211.59Zm68.91-51.62c.32.57.63,1.14.95,1.71,6.87-3,13.67-6.21,20.66-8.93,3.69-1.44,5.9-3.63,7.38-7.31,2.72-6.71,5.41-13.54,9.09-19.74,10.53-17.78,21.2-35.5,32.48-52.82,11.92-18.31,26.42-34.59,42.26-49.64,6.58-6.25,13.4-12.23,20.09-18.36,1.27-1.17,3.07-2.11,2.33-4.84-4.42-.64-9.07-1.11-13.63-2.02-6.42-1.28-10.95.96-15.09,5.94-22.27,26.8-44.75,53.45-62.98,83.27-14.74,24.11-29.03,48.48-43.53,72.73Zm83.53-28.28c2.35-4.52,4.4-8.74,6.7-12.82,2.31-4.1,4.84-8.07,7.33-12.07,2.3-3.68,4.66-7.34,7.04-10.97,2.58-3.93,5.21-7.85,7.86-11.74,2.65-3.89,5.34-7.76,8.06-11.6,2.72-3.84,5.48-7.66,8.27-11.45,2.79-3.79,5.58-7.58,8.45-11.32,2.87-3.73,5.78-7.44,8.79-11.06,2.78-3.34,5.67-6.59,8.6-9.8,3.17-3.48,6.55-6.78,9.65-10.32,2.93-3.35,7.27-5.65,9.05-10.91-7.31-1.93-13.62-4.6-20.53-3.88-.99.92-1.87,1.57-2.54,2.4-15.48,19.17-30.77,38.48-43.82,59.43-8.62,13.83-17.06,27.77-25.74,41.56-5.4,8.57-11.12,16.94-16.62,25.45-.84,1.29-2.91,2.41-.81,5.13,6.61-1.98,13.45-4.02,20.25-6.05Zm151.39-164.01c-29.07,23.75-104.73,122.53-118.61,154.67,7.24-.42,13.74-2.25,19.69-4.03,3.62-6.65,6.61-12.88,10.25-18.72,18.07-28.96,36.93-57.39,58.39-83.99,11.18-13.86,22.92-27.23,37.12-38.18.48-.37.56-1.24,1.11-2.56-2.42-2.19-5.02-4.54-7.96-7.2Zm112.56,461.22c8.49-11.63,15.47-22.19,23.48-31.9,8.29-10.06,17.26-19.62,26.53-28.8,8.97-8.89,18.7-17.03,28.21-25.6-.61-8.13-.14-16.11-2.89-24.02-4.47.92-7.27,3.93-10.1,6.58-10.86,10.17-21.76,20.32-32.22,30.9-10.78,10.9-19.37,23.51-26.65,36.98q-7.46,13.82-6.72,29.89c.06,1.44.18,2.88.37,5.96Zm-164.94-316.87c16.75-46.68,44.36-84.77,79.95-117.73-2.87-4.56-6.06-8.15-10.52-10.38-23.82,23.05-81.28,108.99-86.34,129.43,5.59-.44,10.93-.85,16.91-1.32Zm-509.53,151.14c6.34-19.26,15.38-36.15,26.08-52.19,4.83-7.24,9.96-14.29,14.84-21.5.84-1.24,2.75-2.51.73-4.94-3.64,1.06-7.35,2.5-11.2,3.18-7.03,1.24-11.52,5.3-14.99,11.3-11.25,19.46-22.72,38.79-34.05,58.21-.28.48.1,1.33.23,2.55,5.67,1.51,11.43,3.43,18.36,3.39Zm42.43,3.6c.9-2.65,1.74-4.98,2.47-7.35.75-2.41,1.33-4.88,2.09-7.29.87-2.75,1.82-5.48,2.81-8.2.87-2.38,1.81-4.73,2.76-7.07.95-2.34,1.95-4.67,2.94-7,1-2.33,2.01-4.64,3.02-6.96,1.01-2.32,2-4.65,3.05-6.95,1.2-2.63,2.43-5.25,3.69-7.85,1.1-2.28,2.24-4.54,3.4-6.78,1.17-2.25,2.35-4.48,3.59-6.69,1.24-2.21,2.53-4.38,3.84-6.55,1.3-2.17,2.63-4.33,3.97-6.47,1.53-2.45,3.09-4.89,4.65-7.32,1.37-2.13,2.91-4.16,4.11-6.38,1.08-2,3.51-3.6,2.54-7.15-3.59,1.85-6.68,3.58-9.88,5.06-4.43,2.05-7.55,5.23-10.03,9.47-16.29,27.8-31.19,56.27-43.14,86.22-.51,1.27-.76,2.65-1.25,4.42,5.3,2.09,10.15,1.39,15.36.85Zm-500.01-140.72c5.53,6.29,9.26,12.92,15.58,17.36,12.81-7.22,26.31-11.45,39.96-15.3,3.39-.96,7.12-1.22,9.95-4.16-.56-7.42-3.23-14.04-6.22-20.46-10.41,1.65-44.89,14.73-59.26,22.57Zm1057.99-121.17c-19.08,15.76-58.04,78.63-65.69,105.59,3.93.71,7.72,1.42,11.87-.06,3.55-7.8,6.85-15.83,10.77-23.55,12.04-23.68,26.47-45.87,42.88-66.78,1.79-2.28,3.57-4.57,5.24-6.94.35-.49.17-1.36.27-2.51-1.49-1.61-3.19-3.44-5.33-5.76Zm121.97,272.76c-28.61,21.98-51.32,46.87-66.23,78.64.94,2.04,1.65,4.1,2.79,5.9,1.06,1.67,1.16,4.25,4.54,4.75.67-1.35,1.51-2.83,2.16-4.39,5.7-13.49,13.74-25.48,23.55-36.28,11.21-12.36,23.04-24.09,36.29-34.31,1.91-1.47,3.61-3.22,5.95-5.35-3.27-3.24-6-5.93-9.06-8.96Zm-73.38-51.13c-8.93,5.31-20.63,17.96-29.28,31.55-9.59,15.07-15.11,27.53-16.07,36.67,3.36,1.97,6.27,5.13,10,6.27,6.96-12.86,13.5-25.32,20.4-37.57,5.93-10.53,14.03-19.23,23.81-26.36,1.44-1.05,2.85-2.15,4.45-3.37-3.77-4.27-8.93-5.13-13.32-7.2Zm-8.69,103.88c11.49-30.23,31.6-53.9,55.8-75.06-2.93-2.33-5.11-4.19-7.43-5.86-1.44-1.03-3.09-1.77-4.52-2.58-22.03,17.03-44.66,51.37-51.45,75.46,1.42,1.85,2.88,3.91,4.51,5.82.66.78,1.7,1.24,3.1,2.21Zm-3327.88,236c18.71-19.47,37.89-34.5,62.5-41.09,1.5-4.72,2.52-9.08,1.65-14.22-2.29.45-4.12.53-5.72,1.16-7.38,2.93-14.76,5.89-22.03,9.08-12.74,5.6-23.48,14.12-33.58,23.5-1.25,1.16-2.44,2.85-2.74,4.46-.9,4.85-1.67,9.78-.09,17.1Zm2309.01-393.75c-1.5-7.59-2.29-15.04-6.31-21.37-7.49,2.18-14.42,4.16-21.33,6.22-7.11,2.11-14.85,1.97-22.38,5.74,2.92,4.8,5.44,9.09,8.11,13.29,1.7,2.68,3.61,5.22,5.15,7.43,12.34-3.8,24-7.38,36.75-11.3Zm325.41,77.31c4.44,2.61,8.66,4.04,13.55,4.09,1.8-4.48,3.22-8.56,5.06-12.44,1.85-3.91,3.99-7.71,6.25-11.4,2.46-4,5.17-7.85,7.86-11.71,2.48-3.56,5.14-6.99,7.62-10.56,2.39-3.44,6.01-6.07,8.03-11.24-6.73.65-12.43.94-18.03,1.88-1.86.31-3.67,2.04-5.1,3.51-1.22,1.26-1.91,3.05-2.75,4.65-7.34,14.08-14.67,28.18-22.49,43.23Zm-2567.21,247.09c2.18-5.06,3.73-9.7,2.5-15.51-2.5.13-4.61.08-6.66.38-17.8,2.65-34.15,9.43-50,17.61-2.53,1.31-5.59,2.14-6.58,5.27-1.24,3.93-2.55,7.93-1.11,12.16,10.38-4.97,20.02-9.89,29.92-14.25,10.09-4.44,21.16-4.53,31.93-5.67Zm3492.04-283.48c1.4-.43,2.87-.63,4.08-1.3,22.23-12.36,42.21-27.82,61.27-44.53.87-.76,1.09-2.25,2.02-4.29-6.01-.29-10.98-.52-15.35-.73-5.69,5.17-10.65,9.93-15.87,14.37-5.23,4.44-10.62,8.72-16.12,12.81-7.83,5.82-15.92,11.27-25.97,13.17.5,4.54,2.77,7.6,5.94,10.49Zm-936.57-13.03c-7.64,12.48-15.13,24.71-23.03,37.63,5,1.91,9.27,3.54,13.91,5.31,2.1-4.17,3.71-7.75,5.66-11.14,2.15-3.76,4.54-7.39,6.96-10.99,2.22-3.3,4.68-6.43,6.93-9.71,2.36-3.44,5.92-6.12,7.73-10.99-6.22-.8-11.52-.33-18.16-.12Zm-304.16,17.79c-.65-7.99-1.58-15.37-4.83-22.61-9.37,2.69-18.38,5.25-27.37,7.88-.61.18-1.06.92-1.93,1.71,3.17,6.61,5.88,13.6,10.83,19.85,7.86-2.31,15.41-4.52,23.3-6.83Zm-2304.74,254.2c3.01,3.25,5.56.6,8.12-.01,2.82-.67,5.57-1.64,8.39-2.35,2.82-.71,5.65-1.39,8.52-1.82,2.87-.44,5.78-.54,8.67-.81,2.74-.25,5.61.24,8.49-.76-1.07-4.21-4.21-5.65-6.58-7.63-12.25-10.19-12.67-10.24-28.54-6.37-.65.16-1.18.78-2.33,1.57-1.51,5.78-3.14,12.06-4.74,18.19Zm3569.33-311.78c-7.89-.46-14.91-1.2-22.01-.49-1.3.13-2.66,1.09-3.72,1.98-4.95,4.16-9.81,8.43-15,12.92-.3,4.23,1.46,7.98,3.5,11.71,11.78-5.55,30.74-18.69,37.23-26.13Zm-172.78,261.83c9.2-2.55,15.97-5.76,22.66-9.11,1.18-.59,2.47-1.8,2.84-3,2.04-6.72,4.02-13.5,3.55-21.1-6.53,4.7-22.54,22.88-29.05,33.21Zm-1088.01-183.24c-5.48,1.74-10.57,3.32-15.63,5.01-.57.19-.94,1.01-2.01,2.24,2.45,5.29,4.07,11.39,8.18,16.92,2.35-.85,4.36-1.45,6.26-2.28,2.2-.96,4.31-2.13,6.38-3.17.07-6.77-1.23-12.58-3.18-18.72Zm235.56-19.42c3.36-8.08,10.04-14.43,12.85-23.66-4.51-.69-8.34-1.27-12.62-1.92-2.16,3.72-4.1,7.12-6.1,10.49-1.95,3.29-3.96,6.54-6.05,9.98,3.9,2.77,7.31,4.59,11.92,5.11Zm1096.67-266.29c6.82-3.66,14.18-12.94,19.68-25.04-1.31-1.66-2.77-3.53-4.22-5.36-10.69,7.35-15.59,17.18-15.47,30.4Zm-1073.55,277.2c6.54-10.79,12.41-20.47,18.72-30.89-3.62-.34-6.69-.64-10.13-.96-5.21,9.62-10.16,18.76-15.36,28.37,2.28,1.17,4.4,2.26,6.76,3.48Zm-49.12-22.08c3.38-5.82,6.53-11.26,9.85-16.99-4.11-2.45-7.75-3.31-12.09-2.49-2.32,4.76-4.6,9.45-7.09,14.55,3.36,1.78,6.14,3.25,9.32,4.93Zm-213.57,70.07c3.58,8.98,6.62,16.62,9.7,24.25.09.22.55.37.86.41.28.04.59-.11.89-.17.87-12.16.17-19.34-2.87-27.85-2.52.99-5.03,1.97-8.57,3.35Zm174.76-91.28c5.52,3.8,9.51,6.72,15,7.99,1.32-4.09,2.52-7.83,3.94-12.23-3.61-1.23-6.92-2.36-11.06-3.77-2.44,2.48-4.69,4.76-7.88,8.01Zm1163.48-280.32c-3.76-4.01-6.9-7.44-10.16-10.77-1-1.02-2.31-1.71-3.85.31.95,1.64,1.82,3.57,3.06,5.22,2.11,2.82,4.44,5.46,6.76,8.27,1.36-.99,2.19-1.59,4.18-3.04Zm-1530.39,31.53c-.25.54-1.13,1.8-.9,2.05.84.92,1.98,1.76,3.16,2.1.48.14,1.88-1,1.95-1.66.2-1.7-1.68-2.86-4.21-2.49Zm6.2,8.83c-.12-.07-.86.78-.82.84.76,1.12,1.56,2.2,2.4,3.25.05.07.79-.21.79-.34.02-.64.11-1.44-.22-1.89-.55-.76-1.36-1.37-2.15-1.85Z"/>
      <path d="m3608.83,490.31c-2.19-.17-3.28-.18-4.34-.35-4.83-.74-6.82-4.67-4.27-8.71,1.14-1.81,2.52-3.57,4.14-4.96,2.45-2.12,5.06-4.13,7.84-5.77,15.99-9.41,32.94-16.62,51.06-20.74,5.22-1.19,10.75-1.15,16.15-1.45,1.75-.1,3.64.29,5.31.89,4.03,1.44,5.54,6.42,2.94,9.79-1.3,1.69-2.92,3.25-4.69,4.42-2.71,1.79-5.59,3.34-8.54,4.71-18.4,8.58-37.51,15.23-57.1,20.51-3.12.84-6.36,1.25-8.5,1.66Z"/>
      <path d="m3752.52,535.51c1.65.4,4.17.74,6.47,1.65,2.84,1.12,3.79,4.94,1.87,7.29-1.35,1.65-2.93,3.29-4.75,4.34-3.42,1.99-6.95,3.98-10.69,5.21-15.78,5.19-31.64,10.12-47.48,15.1-1.72.54-3.5.95-5.28,1.16-2.54.3-5.13.4-6.78-2.17-1.31-2.04-.6-4.97,2.11-7.7,1.77-1.78,3.73-3.43,5.79-4.86,2.36-1.65,4.89-3.09,7.42-4.47,13.46-7.32,27.9-11.85,42.89-14.74,2.47-.48,5.03-.5,8.43-.81Z"/>
      <path d="m3739.41,631.65c-4.25-.1-8.11.34-10.22-3.5-1.53-2.79.42-6.51,5.02-9.67,6.02-4.13,12.69-6.96,19.85-8.1,3.42-.54,7.24-.22,10.58.73,5.26,1.5,6.3,7.21,2.27,11.06-1.54,1.47-3.37,2.75-5.28,3.67-7.22,3.47-14.88,5.33-22.22,5.8Z"/>
      <path d="m1962.59,355.21c1.23-.41,2.96-.39,2.25,1.15-.51,1.1-2.24.51-2.04-1.4,0,0-.21.24-.21.24Z"/>
      <path d="m1059.83,202.28c-4.54-.48-6.98-3.33-9.64-5.71-30.11-26.86-57.59-56.21-82.8-87.66-5.88-7.33-11.16-15.2-16.13-23.19-2.83-4.55-4.76-9.73-6.59-14.8-1.04-2.89,2.11-5.81,5.2-5.08,2.45.58,4.91,1.39,7.12,2.57,3.19,1.71,6.25,3.69,9.18,5.81,29.96,21.77,58.68,45.04,84.89,71.26,3.84,3.84,7.4,7.96,10.97,12.05,2.42,2.77,4.1,5.93,4.36,9.74.77,11.37-1.36,22.33-4.62,33.13-.18.59-.99.98-1.94,1.87Z"/>
      <path d="m959.63,901.37c-1.11-.21-3.32-.36-5.34-1.07-6.82-2.42-13.79-4.56-20.31-7.66-24.96-11.86-48.17-26.68-70.75-42.52-2.96-2.07-5.66-4.52-8.37-6.92-2.32-2.06-3.28-4.75-2.79-7.84,1.3-8.28,10.02-13.78,17.78-11.02,3.4,1.21,6.66,2.87,9.83,4.6,26.79,14.69,51.9,31.84,75.19,51.61,4.09,3.47,7.79,7.61,10.89,11.99,3.1,4.38.3,8.74-6.13,8.83Z"/>
      <path d="m1051.78,245.06c-2.84-1.9-5.09-3.04-6.91-4.67-24.02-21.62-46.16-45.01-65.98-70.53-3.33-4.28-6.36-8.82-9.17-13.46-2.05-3.38-3.68-7.05-5.13-10.73-.42-1.06.02-3.03.82-3.83.81-.81,2.79-1.28,3.85-.86,3.34,1.32,6.75,2.73,9.65,4.8,24.84,17.69,48.38,36.92,69.73,58.74,1.01,1.03,1.88,2.21,2.93,3.21,5.17,4.92,6.73,11.03,5.71,17.85-.8,5.36-1.83,10.69-2.92,16-.19.94-1.22,1.7-2.57,3.48Z"/>
      <path d="m955.53,853.91c-4.92-1.09-9.27-1.64-13.34-3.03-21.67-7.42-42.02-17.49-60.63-30.93-1.46-1.06-2.9-2.18-4.19-3.44-6.63-6.42-5.54-16.39,2.32-21.23,2.55-1.57,5.34-2.24,8.3-1.17,3.05,1.11,6.24,1.97,9.11,3.44,20.39,10.41,39.05,23.42,56.35,38.36,2.44,2.11,4.51,4.68,6.58,7.17,1.69,2.04,2.82,4.79,1.24,6.98-1.3,1.8-3.9,2.67-5.74,3.83Z"/>
      <path d="m953.73,815.66c-2.22-.55-5.13-1-7.83-1.99-15.39-5.65-29.9-12.98-42.93-23-2.55-1.96-4.98-4.27-6.87-6.85-3.12-4.27-2.77-9.13.47-13.04,2.26-2.72,5.14-4.05,8.67-2.87,2.39.8,4.8,1.71,6.98,2.95,15.51,8.82,29.7,19.44,42.57,31.77,2.05,1.97,3.73,4.41,5.22,6.86,1.7,2.8-.22,5.97-3.5,6.17-.72.04-1.44,0-2.78,0Z"/>
      <path d="m956.42,779.67c-.62-.04-1.74.03-2.78-.22-13.45-3.23-26.11-8.23-37.13-16.81-4.78-3.73-6.23-8.62-5.27-14.4.7-4.26,3.65-7.22,8.01-7.46,2.46-.13,5.18.01,7.42.92,13.96,5.69,25.71,14.42,35.1,26.25.45.56.88,1.15,1.22,1.78,3.14,5.65.52,9.91-6.57,9.93Z"/>
      <path d="m1052,262.36c-1.29,5.42-2.15,10.4-3.68,15.17-1.73,5.37-5.95,6.56-9.88,2.72-9.35-9.14-16.91-19.61-22.2-31.62-.57-1.31-.97-2.73-1.21-4.14-.68-4,1.93-7.14,5.9-7.22,1.08-.02,2.22-.1,3.22.19,9.9,2.92,18.6,7.9,24.88,16.19,1.8,2.38,2.07,5.93,2.96,8.71Z"/>
      <path d="m952.44,742.78c-9.65-1.57-18.83-6.13-25.38-15.16-2.08-2.87-2.25-6.05-.39-9.2,1.88-3.18,4.84-4.28,8.31-4,1.77.14,3.62.53,5.23,1.27,7.82,3.56,13.86,9.17,18.26,16.51.55.92.89,1.98,1.21,3.01,1.44,4.65-1.08,7.8-7.25,7.58Z"/>
      <path d="m1628.02,287.73c.76.25,2.57.57,4.13,1.38,6.02,3.14,9.98,8.19,12.7,14.29,1.12,2.51.93,5.1-.79,7.17-1.99,2.4-4.72,3.16-7.84,2.32-7.45-2.01-14.71-10.4-15.5-17.96-.41-3.91,2.53-7.3,7.3-7.21Z"/>
      <path d="m1027.93,288c4.23,1.22,9.4,2.79,13.09,7.08.84.98,1.2,2.68,1.17,4.03-.1,4.89-2.16,9.06-5.53,12.51-1.71,1.75-3.9,1.9-5.86.33-5.26-4.21-8.59-9.68-9.79-16.28-.69-3.78,2.42-7.57,6.91-7.67Z"/>
      <path d="m1598.39,665.41c6.09,1.02,11.35,3.71,14.09,10.01,1.29,2.98.75,5.65-1.41,7.99-2.06,2.24-4.86,2.81-7.93,1.6-4.86-1.92-8.61-5.24-11.6-9.45-1.55-2.18-2.27-4.56-1.04-7.11,1.08-2.23,4.25-3.45,7.87-3.05Z"/>
      <path d="m1623.27,534.12c.5.09,1.62.09,2.55.52,6.78,3.09,10.55,8.47,11.49,15.77.34,2.63-.59,5.06-3.02,6.45-2.54,1.45-4.87.53-6.91-1.22-4.85-4.17-7.4-9.63-8.51-15.79-.47-2.59,1.58-5.41,4.39-5.72Z"/>
      <path d="m4899.7,367.87c.03,8.45-5.72,11.89-11.2,8.27-2.95-1.95-5.7-4.63-7.66-7.56-13.71-20.44-23.13-42.68-26.76-67.11-.57-3.81-.06-7.94.75-11.75.74-3.49,5.08-4.71,7.87-2.55,1.69,1.31,3.32,2.87,4.5,4.64,2.01,3.01,3.91,6.14,5.38,9.44,7.67,17.22,15.34,34.44,22.66,51.81,2.23,5.29,3.35,11.05,4.46,14.82Z"/>
      <path d="m4911.4,343.68c-2.21,1.56-4.53,3.2-6.68,4.71-1.02-.4-2.01-.47-2.25-.92-3.65-7.06-8.05-13.89-10.58-21.34-4.65-13.69-8.41-27.71-12.08-41.7-1.27-4.84-1.29-10.03-1.64-15.08-.15-2.14-.11-4.47.6-6.44.68-1.87,2.02-3.9,3.65-4.92,2.05-1.26,4.49.01,5.76,1.77,2.73,3.79,5.56,7.65,7.43,11.89,6.17,13.97,10.31,28.62,13.08,43.63,1.18,6.4,1.93,12.9,2.65,19.38.31,2.84.05,5.75.05,9.04Z"/>
      <path d="m4923.42,307.4c-4.5-.65-7.15-2.99-9.23-6.09-.8-1.2-1.59-2.45-2.13-3.77-8.13-19.88-13.3-40.47-14.61-61.96-.11-1.78-.12-3.72.48-5.35.56-1.54,1.71-3.37,3.1-3.99,2.21-1,4.14.49,5.5,2.36.64.87,1.15,1.84,1.67,2.79,9.35,17.29,16.38,35.41,19.63,54.86.59,3.55.79,7.18.98,10.78.22,4.25-1.17,7.82-5.39,10.38Z"/>
      <path d="m4963.13,235.57c-2.04,1.01-3.91,1.93-6.13,3.03-.17,2.98-.35,6.07-.53,9.18-1.25-.16-2.26,0-2.5-.36-11.04-16.61-14.56-35.23-14.5-54.77,0-2.89.2-5.81.72-8.65.45-2.49,1.37-5.07,4.2-5.87,2.88-.82,5.1.83,6.38,3.06,2.32,4.05,4.85,8.17,6.07,12.6,2.12,7.66,3.39,15.57,4.85,23.4.8,4.27,1.37,8.58,1.82,12.9.18,1.74-.23,3.54-.39,5.49Z"/>
      <path d="m4941.71,256.79c0,2.89.22,5.8-.07,8.67-.25,2.49-.73,5.07-1.77,7.31-.64,1.39-2.46,3-3.84,3.09-1.44.09-3.19-1.31-4.43-2.46-1.01-.93-1.64-2.4-2.12-3.74-4.19-11.67-6.51-23.7-6.3-36.11.05-2.83.8-5.74,1.74-8.44,1.32-3.8,6.38-4.7,8.7-1.31,2.4,3.51,4.61,7.47,5.59,11.55,1.68,6.98,2.34,14.21,3.43,21.33l-.94.11Z"/>
      <path d="m4927.29,202.64c-.04,6.65-1.5,9.57-4.04,10.07-2.93.57-6.1-2.94-6.08-7.46.01-2.79.68-5.69,1.6-8.34.84-2.43,5.05-2.67,6.28-.34,1.29,2.45,1.94,5.24,2.24,6.08Z"/>
      <path d="m4940.82,882.18c1.95-1.95,2.96-3.52,4.4-4.31,16.65-9.09,34.31-15.67,52.58-20.62,2.31-.63,5.04-.48,7.4.06,2.95.67,4.19,4.31,2.98,7.05-1.56,3.51-4.37,5.81-7.59,7.53-4.46,2.38-9.09,4.46-14.04,6.85.62,3.03,3.74,2.6,5.52,3.85,3.4,2.38,3.61,6.62.33,9.11-1.14.87-2.44,1.6-3.77,2.13-8.87,3.56-18.19,4.9-27.66,5.27-1.71.07-3.54-.63-5.16-1.33-2.47-1.07-3.53-4.44-1.8-6.37,1.65-1.85,3.96-3.12,7.46-5.77-8.01-1.55-14.41,2-20.64-3.45Z"/>
      <path d="m4940.01,901.71c-.63-.18-2.07-.43-3.36-.99-2.83-1.22-3.56-4.9-1.53-7.21,2.93-3.35,7.85-4.43,11.8-2.58,2.61,1.22,3.37,5.05,1.5,7.38-1.96,2.44-4.57,3.38-8.4,3.41Z"/>
      <path d="m5189.67,513.53c5.68-.02,9.89.82,13.33,3.85,3.93,3.47,2.73,9.54-2.17,11.43-5.75,2.22-14.66-.18-18.84-5.07-3.33-3.89-1.62-8.65,3.55-9.71,1.76-.36,3.57-.44,4.14-.51Z"/>
    </g>
  </g>
  <g id="uuid-a0f2e759-ba78-46f9-abd3-3782a7d35ad3" data-name="titel + Layer 18 Image">
    <g>
      <path class="uuid-f71e767a-a643-4ee4-b514-bdc752a8a6c3" d="m828.37,300.96c-6.2,12.11-15.07,22.15-22.82,32.79.73,2.81,3.29,2.86,5.12,3.79,4.85,2.46,9.84,4.65,14.72,7.06,4.56,2.25,7.07,5.91,7.85,11.01,2.17,14.11,1.4,28.21.3,42.33-.25,3.16-1.96,5.36-4.54,7.02-4.57,2.95-9.12,5.95-13.7,8.89-8.38,5.39-15.24,12.25-20.4,20.81-2.25,3.73-4.64,7.37-7.12,10.95-1.42,2.04-3.16,3.85-4.78,5.79-4.2-.14-6.97-2.74-10.17-4.24-10.83-5.08-21.62-10.25-32.5-15.22-2.58-1.18-5.45-1.72-7.87-2.46-7.07,5.85-18.91,19.98-25.44,30.23-1.36,2.14-2.56,4.39-3.99,6.49-2.92,4.27-4.96,5.32-10.18,3.57-5.46-1.83-10.81-4.23-15.83-7.04-5.33-2.99-10.22-6.76-15.76-10.49-1.65,2.2-3.23,4.11-4.59,6.16-4.81,7.26-9.4,14.66-14.36,21.82-4.72,6.81-6.98,7.61-14.69,5-12.11-4.11-23.65-9.32-32.65-18.87-.71-.76-1.77-1.19-2.96-1.97-6.06,4.85-10.26,11.17-14.25,17.6-2.68,4.3-4.86,8.92-7.41,13.31-1.64,2.81-3.35,5.62-5.39,8.14-2.79,3.44-5.53,4.02-9.65,1.97-3.23-1.61-6.38-3.52-9.25-5.7-7.21-5.48-14.24-11.2-21.88-17.24-1.45,1.17-3.31,2.23-4.58,3.78-3.46,4.19-6.92,8.42-9.91,12.94-3.4,5.13-6.46,10.51-9.35,15.94-4.72,8.86-5.7,9.75-17.53,8.25-3.88-.49-7.68-2.13-11.37-3.6-9.56-3.81-17.68-9.89-25.61-16.32-4.49-3.64-5.67-7.82-4.68-13.42,2.8-15.77,3.7-31.75,2.9-47.71-.98-19.55-2.73-39.07-4.22-58.59-.1-1.35-.81-2.65-1.26-4.05-7.65-1.18-13.57,5.26-20.89,4.37.21-12.26,2.48-15.53,12.58-18.89,2.03-.68,4-1.52,5.98-2.34.28-.12.42-.56,1.22-1.69-.75-3.84-1.42-8.47-2.58-12.97-1.15-4.48.09-7.81,3.78-10.39,5.95-4.16,11.92-8.29,17.84-12.5,10.94-7.78,10.04-6.97,9-18.52-.71-7.91-.7-15.88-.99-23.34,6.09-5.33,6.14-5.25,12.4-5.6,0,2.11.47,4.31-.08,6.22-2.4,8.21-1.98,16.53-1.37,24.85.86,11.57,1.94,23.12,2.97,34.67.22,2.47.65,4.92.91,6.9,2.59,1.99,4.7,1.04,6.72.53,9.8-2.48,19.58-5.02,29.91-7.69.39-9.93-1.1-19.86-1.73-29.19-4.78-4.39-9.9-4.38-15.13-4.91-2.64,2.47-5.21,4.89-8.25,7.73-1.79-1.66-3.26-3.02-5.23-4.84,8.53-13.11,16.09-26.28,25.13-38.51,1.94-2.62,4.41-3.63,7.57-3.12,3.94.64,7.88,1.35,11.83,1.9,3.52.49,7.05,1.66,11.18.02,0-1.99.12-4.07-.02-6.13-.39-5.79-1.19-11.57-1.27-17.36-.1-7.18,3.81-10.59,13.06-11.73.24,2.81.68,5.59.68,8.38,0,8.7-.68,17.44-.16,26.11,1.66,27.51,3.58,55,5.72,82.47,1.66,21.33,4.23,42.59,5.55,63.93.67,10.8-.21,21.75-1.05,32.57-.34,4.43.13,7.8,3.81,10.47,2.61,1.9,5.09,3.96,8.19,6.39,2.31-2.07,4.23-4.14,6.49-5.72,2.28-1.6,4.89-2.73,8.07-4.44,2.33-12.75,3.17-26.38,2.19-40.15-.73-10.22-.52-10.37,8.96-14.62,2.22-1,4.39-2.12,7.23-3.5-3.46-2.3-6.22-4.01-8.85-5.91-6.32-4.58-9.84-10.71-9.18-18.62.36-4.29.99-8.69,2.4-12.73,5.3-15.27,14.1-28.55,24.33-40.95,1.95-2.37,4.2-3.7,7.4-3.86,14.14-.71,28.27-1.68,42.42-2.4,4.34-.22,8.73-.09,13.07.17,9.48.58,11.79,2.88,12.8,12.62.67,6.49,1.26,13,1.72,19.51.92,13.03,2.13,26.05,2.43,39.09.25,10.83-.61,21.69-1.01,33.34,4.81,5.71,12.48,8.36,19.27,12.85,1.74-1.13,3.56-1.79,4.62-3.09,9.65-11.76,19.48-23.39,28.07-36.64-7.28-8.05-17.9-11.02-25.94-18.23-.18-2.28-.56-4.78-.55-7.28.03-11.24.26-22.49.22-33.73-.02-4.79,1.67-8.47,5.76-10.95,15.59-9.47,26.69-23.25,36.9-37.96,7.22-10.4,7.59-10.3,19.4-4.85,10.87,5.02,21.83,9.84,32.74,14.76,3.92,1.77,8.15,3.02,11.54,6.74Zm-307.54,169.4c2.87-8.36,2.68-17.74,2.01-27.21-2.06-29.3-3.94-58.62-5.97-87.93-.1-1.48.83-3.7-1.89-4.34-.71,1.33-1.56,2.54-2.03,3.88-1.88,5.34-5.58,8.1-11.19,8.95-4.65.71-9.22,2.01-13.79,3.18-2.7.69-5.34,1.61-8.48,2.57.4,8.94.64,17.26,1.18,25.56,1.32,20.27,2.73,40.54,4.21,60.8.32,4.41.23,8.65-1.4,12.84-.61,1.57-.6,3.37-.83,4.83,9.95,6.3,19.18,10.21,26.62,11.21,1.43-2.16,2.85-4.66,4.63-6.87,1.98-2.46,4.29-4.65,6.93-7.46Zm131.37-115.54c-11.69-3.32-30.89-4.28-41.04-2.11-7.79,13.97-5.88,27.91,5.69,39.67,12.14-5.24,24.41-10.55,37.27-16.1-.5-7.47.75-14.64-1.93-21.46Zm-4.49,92.88c1.36-1.36,2.56-2.21,3.29-3.36,3.39-5.3,5.48-11.12,5.43-17.41-.09-11.59-.48-23.17-.86-34.75-.03-.89-1-1.75-1.95-3.31-7.81,3.79-16.39,5.42-23.43,10.34-1.97,10.85-1.66,21.37-1.64,31.87,0,4.75,1.8,8.36,6.38,10.41,4.26,1.91,8.4,4.07,12.78,6.21Zm151.91-37.29c-1.43-11.32-2.86-22.66-4.26-33.77-5.53-3-9.94-6.9-15.45-8.07-10.5,7.89-15.59,14.03-19.62,23.71,12.2,6.17,24.43,12.38,36.7,18.52.49.25,1.32-.18,2.63-.39Zm-26.34-51.18c5.9-8.85,13.13-15.37,18.18-24.08-9.14-6.3-18.53-10.88-28.44-14.42-1.85-.66-3.9-.77-6.3-1.21-.67,11.12-1.73,21.48.37,32.05,5.13,2.42,10,4.73,16.19,7.66Z"/>
      <path class="uuid-f71e767a-a643-4ee4-b514-bdc752a8a6c3" d="m280.19,484.56c-10.57.11-18.38,3.1-26.19,5.76-7.55,2.58-15.03,5.43-22.32,8.67-7.53,3.34-14.8,7.29-22.1,10.93-3.73-2.65-3.17-6.08-2.99-9.23.25-4.37.98-8.7,3.93-12.23,2.22-2.67,5.37-3.43,8.61-4.21,18-4.34,35.96-8.79,53.94-13.23,1.76-.43,3.5-.98,5.23-1.52,14.32-4.5,10.74-1.42,18.08-13.5,6.41-10.53,12.75-21.12,22.08-29.14.38-11.41-1.23-22.09-2.53-32.41-1.29-.63-1.94-1.25-2.53-1.2-20.98,1.81-41.99,3.54-62.49,8.71-9.53,2.4-18.79,5.56-27.45,10.31-13.47,7.39-22.46,18.11-25.44,33.48-.55,2.82-1.48,5.63-2.71,8.22-.48,1-2.34,1.99-3.45,1.88-1.1-.11-2.52-1.43-2.98-2.56-.8-1.97-1.17-4.18-1.36-6.32-2.02-22.59,1.66-44.07,12.42-64.24,5.06-9.49,11.83-17.4,20.7-23.44,16.07-10.92,33.12-12.58,50.55-3.9,9.73,4.84,18.87,10.86,28.28,16.34,4.33,2.52,8.66,5.03,12.63,7.34,3.24-1.77,2.38-4.12,2.28-6.1-1.24-25.01-2.57-50.01-3.83-75.01-.07-1.41.18-2.83.32-4.75,6.15-2.26,12.23-4.52,18.34-6.68.55-.19,1.34.31,2.06.5,1.95,2.44.44,4.93-.33,7.14-5.23,14.95-7.17,30.34-6.43,46.08,1.02,21.74,1.7,43.52,3.5,65.2,3.46,41.58,7.63,83.09,11.46,124.64.56,6.11.88,12.24,1.32,18.54,5.31,2.12,9.33-1.18,14.28-1.68.17-2.08.52-3.81.42-5.52-2.14-36.21-4.1-72.44-6.58-108.63-1.86-27.19-5.82-54.12-13.45-80.35-3.09-10.62-1.77-13.01,8.47-15.55,15.95-3.96,31.19-9.65,45.85-17.01,1.8-.9,3.99-1.03,6.47-1.63.7,24.22,1.03,47.76,2.17,71.26,1.14,23.55,3.07,47.07,4.7,70.6,1.63,23.48,4.07,46.87,7.71,70.61,7.65.82,14.16-4.55,21.39-2.89,2.16,5.89,1.8,7.87-2.45,9.65-3.66,1.53-7.53,2.65-11.39,3.62-20.78,5.22-41.58,10.31-62.37,15.5-4.53,1.13-9,2.49-13.52,3.75-.95,9.42.11,18.04.88,26.67.45,5.06.87,10.12,1.24,15.19.31,4.27-2.02,6.98-5.76,8.21-3.37,1.11-6.96,1.54-9.91,2.16-3.25-2.77-1.91-5.31-1.22-7.62,3.56-12.01,4.05-24.28,3.43-36.66-.07-1.4-.49-2.79-.84-4.71-5.57.89-10.89,1.78-16.22,2.57-2.33.34-4.44-.16-5.2-2.73-.73-2.46.59-5.36,3.02-6.31,2.7-1.05,5.53-1.75,8.32-2.54,2.44-.68,4.9-1.25,7.35-1.91.33-.09.59-.41,1.57-1.11,1.36-11.04-.89-22.41-1.82-33.84-.98-11.93-1.58-23.9-2.75-35.82-1.13-11.45-1.76-22.98-3.62-36.38-2.39,2.91-3.8,3.99-4.36,5.41-1.87,4.7-3.75,9.44-5.05,14.32-5.99,22.47-9.33,45.46-12.89,68.4-2.18,14.03-5.43,27.74-11.03,40.85-12.1,28.31-34.66,40.79-64.33,42.13-7.63.34-15.36-1.02-22.39-4.05-8.97-3.87-17.63-8.49-26.31-12.99-2.21-1.15-4.19-2.91-5.9-4.74-.85-.9-1.42-2.77-1.07-3.88.33-1.07,1.94-2.3,3.11-2.43,2.85-.34,5.8-.38,8.64-.02,17.07,2.18,31.62-3.03,43.71-15,5.92-5.86,11.71-11.94,16.91-18.44,16.68-20.87,26.98-45.37,40.22-70.53Z"/>
      <path class="uuid-f71e767a-a643-4ee4-b514-bdc752a8a6c3" d="m926.15,456.04c.2,1.59.5,3,.55,4.42,1.44,36.62,2.69,73.24,4.35,109.85,1.27,27.93,4.97,55.63,9.16,83.26.59,3.87,1.75,7.65,2.63,11.41,6.72.91,12.43-3.81,18.66-1.44,2.6,6.6,1.72,8.99-4.15,10.26-14.19,3.05-28.51,5.59-42.6,9.04-14.06,3.44-27.92,7.74-42.29,11.78-.24,2.43-.76,4.52-.6,6.56.78,10.13,1.82,20.24,2.59,30.36.27,3.55.04,7.14.04,10.79-5.87,3.49-11.75,4.71-18.69,5.22-.18-2.28-1.01-4.5-.37-6.18,4.73-12.51,3.94-25.74,5.35-38.67.11-.98-.48-2.04-.88-3.61-2.89.52-5.66.96-8.41,1.55-2.48.54-4.89,1.39-7.38,1.85-3.6.66-5.71-.28-6.34-2.49-1.2-4.24.15-7.36,4.02-8.72,2.39-.84,4.89-1.36,7.36-1.95,3.51-.84,7.04-1.61,11.23-2.57-.04-18.38-2.93-36.28-3.8-54.29-.87-18.09-2.59-36.15-3.92-53.96-2.96-1.29-3.67.54-4.35,2.12-5.64,13.1-8.39,26.98-10.91,40.9-2.97,16.41-5.55,32.9-8.78,49.25-2.47,12.51-7.14,24.34-13.01,35.67-5.24,10.1-12.07,18.98-20.66,26.45-16.9,14.68-36.48,18.75-58,13.91-10.65-2.4-21.01-5.98-30.1-12.24-3.21-2.21-6.01-5.18-8.48-8.22-.83-1.02-.48-3.57.2-5,.41-.86,2.53-1.34,3.83-1.25,2.51.18,4.99.9,7.49,1.36,16.23,2.96,30.21-1.65,42-12.91,4.19-4,7.99-8.44,11.68-12.91,12.95-15.73,24.31-32.57,34.68-50.09,4.62-7.81,9.21-15.63,13.75-23.49,1.05-1.82,1.86-3.79,3.18-6.5-3.35.15-5.83,0-8.22.4-20,3.33-38.4,10.68-55.22,22-2.71,1.82-5.39,3.73-8.27,5.23-3.58,1.86-6.95.18-7.05-3.69-.11-3.94.32-7.94.97-11.84.57-3.42,2.92-5.92,6.12-7.15,3.37-1.3,6.89-2.28,10.42-3.11,18.37-4.34,36.8-8.45,55.14-12.9,16.38-3.98,16.47-4.05,24.78-18.26,4.75-8.13,9.16-16.47,13.38-24.89,2.65-5.28,3.64-11.01,2.12-16.93-1.24-4.84-.08-10.15-2.82-15.34-5.78.54-11.56.72-17.21,1.66-15.39,2.58-30.78,5.25-46.07,8.35-10.71,2.17-20.79,6.42-30.72,10.95-13.91,6.34-22.24,17.05-25.25,31.99-.64,3.17-1.35,6.34-2.33,9.42-.22.68-1.64,1.17-2.58,1.35-.51.1-1.48-.53-1.71-1.06-.73-1.63-1.46-3.33-1.73-5.07-2.85-18.19-2.48-36.33,3.81-53.73,7.14-19.74,20.04-34.37,40.87-40.65,17.69-5.32,34.49-2.87,50.41,6.22,7.25,4.14,14.4,8.45,21.7,12.51,2.77,1.54,5.82,2.58,9.55,4.2,0-3.85.1-6.62-.02-9.38-1.04-23.92-2.05-47.84-3.24-71.75-.27-5.52,1.77-8.95,7.05-10.71,3.75-1.25,7.33-3.17,11.46-2.11,2.29,2.78.73,5.64.28,8.34-1.2,7.15-2.67,14.25-3.99,21.38-2.73,14.77-2.07,29.64-1,44.49,2.56,35.46,5.18,70.92,7.89,106.37,2,26.04,4.18,52.07,6.32,78.1.09,1.05.54,2.06.93,3.47,5.61.43,10.53-1.95,16.18-3.56.24-2.38.83-4.84.69-7.25-.85-14.48-1.66-28.98-2.89-43.43-1.72-20.24-3.43-40.49-5.82-60.66-2.17-18.36-5.11-36.63-7.96-54.89-1.34-8.59-3.34-17.08-4.95-25.62-.6-3.17-1.67-6.38.28-10.11,18.46-7.18,37.35-14.54,56.26-21.82.92-.36,2.1-.05,3.42-.05Z"/>
      <path class="uuid-f71e767a-a643-4ee4-b514-bdc752a8a6c3" d="m1462.84,399.47c-1.89,2.91-3.65,5.62-5.4,8.33-1.58,2.44-3.07,4.93-4.73,7.31-6.82,9.8-8.78,20.5-6.21,32.12.38,1.71.44,3.5.64,5.19-1.13.93-1.85,1.93-2.78,2.22-7.43,2.34-9.63.69-8.91-6.65.42-4.3,1.01-8.58,1.5-12.68-5.89-6.49-13.01-9.69-20.2-12.63-6.3,4.95-7.99,10.49-7.25,17.67,1.45,14.07,2.05,28.22,3.17,42.32.5,6.25-.11,12.33-2.06,18.24-1.86,5.64-.37,9.85,4.63,13.04,4.26,2.72,8.17,6.13,14.09,5.89,2.77-2.95,5.69-6.07,9.09-9.7,1.99,2.06,3.62,3.74,5.05,5.22-.48,1.29-.53,2.15-1,2.61-8.42,8.28-14.15,18.32-19.31,28.79-1.92,3.89-4.32,7.55-6.62,11.25-1.76,2.83-4.44,3.65-7.56,2.75-2.08-.6-4.15-1.35-6.11-2.26-10.99-5.08-20.64-12.05-29.27-20.55-3.75-3.7-5.22-7.07-2.69-12.45,1.93-4.09,2.78-9.14,2.6-13.71-.85-21.39-2.21-42.75-3.44-64.12-.1-1.78-.63-3.53-1-5.45-1.29-.83-2.39-1.9-3.7-2.31-13.21-4.14-12.49-6.95-22.42,6.71-10.45,14.37-19.98,29.41-29.89,44.18-.17.25-.02.7-.02,1.27.96,2.09,2.98,1.38,4.48.96,5.59-1.57,11.1-3.41,16.65-5.1,2.72-.83,5.47-1.56,8.23-2.34,2.06,8.78,0,12.16-7.44,13.54-9.63,1.79-19.22,3.77-28.8,5.82-2.44.52-4.76,1.6-7.29,2.47-2.15,7.7-.95,15.29-.4,22.79.14,1.89,1.68,4.06,3.2,5.4,7,6.17,15.36,9.5,24.55,10.87,3.57.53,6.38-.72,8.61-3.51,1.59-1.98,3.09-4.1,5-5.73.87-.74,2.81-.95,3.93-.52,1.9.73,2.31,2.66,1.78,4.57-.29,1.02-.89,1.96-1.43,2.9-5.83,10.04-11.66,20.07-17.51,30.1-1.28,2.19-2.51,4.42-3.92,6.53-1.97,2.94-4.82,4.55-8.36,4.07-5.38-.74-10.82-1.39-16.04-2.8-13.07-3.55-24.92-9.94-36.49-16.81-4.34-2.58-6.18-5.12-4.46-10.79,2.98-9.82,3.64-19.97,2.53-30.18-.22-2.04-.91-4.04-1.31-5.72-6.4-1.36-10.91,6.1-17.06,2.09,0-1.25-.2-2.35.04-3.34.42-1.75,1.11-3.44,1.86-5.68,4.54-1.47,9.28-3.01,14.28-4.63,0-3.49.3-6.7-.06-9.84-.87-7.56-2.06-15.09-3.09-22.64-1.33-9.81-.66-11.38,7.94-15.35,19.3-8.91,16.68-7.31,26-25.66,2.63-5.17,4.85-10.55,7.49-15.72,2.08-4.08,4.52-5.37,8.93-3.75,7.47,2.73,14.77,5.96,22.01,9.27,4.26,1.95,8.26,4.46,12.49,6.78,6.64-3.38,10.87-8.82,14.86-14.4,3.8-5.31,7.27-10.86,10.91-16.28,1.57-2.34,3.74-3.31,6.57-2.6,10.52,2.61,21.04,5.21,31.9,7.89.88,2.85,1.82,5.87,3.14,10.12,1.67-2.11,2.78-3.25,3.6-4.58,5.18-8.31,10.27-16.68,15.45-24.99,1.96-3.16,4.95-4.6,8.39-3.07,6.28,2.8,12.44,5.9,18.5,9.16,3.45,1.85,7.4,3.21,10.11,8.09Zm-166.58,59.11c-.71,13.47.38,23.79,3.48,31.54,5.98-8.3,12.33-15.55,17.31-24.3-6.25-4.33-12.9-6.52-20.79-7.23Z"/>
      <path class="uuid-f71e767a-a643-4ee4-b514-bdc752a8a6c3" d="m607.28,728.55c.35-3.48.79-5.6.75-7.71-.35-15.23-7.16-90.24-8.88-97.9-3.07-2.17-7-2.81-10.85-3.71-23.36-5.47-46.19-12.68-68.59-21.26-4.38-1.68-8.77-3.6-12.74-6.06-6.8-4.22-8.07-7.79-5.87-15.53,3.78-13.33,9.47-25.85,16.82-37.61.96-1.54,2.05-3,3.2-4.4,3.59-4.37,5.11-4.12,10.11,1.85-.89,2.46-2.03,5.11-2.82,7.86-1.95,6.79-.74,9.97,5.8,13.29,4.51,2.29,9.3,4.12,14.11,5.68,13.81,4.48,27.73,8.61,41.53,13.09,10.01,3.25,19.95,6.7,29.83,10.3,13.49,4.92,21.28,14.72,23.57,28.78.87,5.35,1.53,10.77,1.75,16.18.74,18.12,1.25,36.25,1.84,54.38.04,1.09-.04,2.19.1,3.26.9,6.99-1.12,12.71-6.5,17.53-4.31,3.86-8.03,8.39-12.03,12.6-10.81,11.38-20.21,23.77-27.54,37.68-.84,1.6-1.81,3.14-2.73,4.7-1.68,2.83-4.24,3.87-7.4,3.41-16.31-2.34-31.94-6.8-46.32-15.04-1.87-1.07-3.55-2.53-5.16-3.98-3.47-3.13-5.23-6.71-3.63-11.62,2.06-6.32,1.58-12.83,1.01-19.4-1.7-19.51-3.14-39.04-4.56-58.57-.29-3.95-.04-7.95-.04-11.8,6.1-6.97,14.15-10.6,21.59-15.02,3.71-2.2,7.81-3.82,11.87-5.32,1.53-.57,3.46-.09,5.83-.09.5,3.06,1.29,5.82,1.34,8.59.3,17.81,2.45,35.45,4.39,53.12.59,5.35-.03,10.84-.2,16.26-.06,1.8-.36,3.61-.7,5.39-1.25,6.41,1.6,10.51,7.32,12.89,4.69,1.95,9.4,3.84,14.18,5.56,2.67.96,5.5,1.51,9.64,2.61Z"/>
      <path class="uuid-f71e767a-a643-4ee4-b514-bdc752a8a6c3" d="m1038.75,521.89c-6.03-1.18-12.36-2.41-18.89-3.69-6.09,6.11-9.2,12.58-8.06,21.47,1.74,13.65,2.41,27.44,3.51,41.17.58,7.24,1.04,14.43-.98,21.6-.65,2.32-.1,4.97-.1,8.01,2.66,1.53,5.42,3.2,8.26,4.72,3.2,1.72,6.55,3.16,9.68,4.98,6.28,3.65,6.82,5.71,3.11,12.26-5.01,8.83-10.09,17.63-15.32,26.33-2.87,4.78-5.36,5.96-9.82,3.98-12.64-5.62-24.85-12.01-34.78-21.94-3.25-3.25-4.65-6.66-3.7-11.68,2.36-12.49,2.91-25.17,1.75-37.91-1.19-12.99-2.01-26.02-2.99-39.03-.33-4.34-.51-8.72-3.74-13.14-3.07-1.03-6.8-2.28-10.9-3.66-2.37,2.55-4.44,5-6.74,7.19-1.88,1.79-4.78,1.58-6.96-.17-2.27-1.82-2.82-4.4-1.25-6.73,1.01-1.5,2.29-2.8,3.39-4.24,5.52-7.19,11.03-14.4,16.54-21.6,1.76-2.31,3.51-4.62,5.23-6.96,3.08-4.21,7.03-5.85,12.3-4.92,9.28,1.65,18.62,2.99,28.03,4.47,1.38,2.35,2.64,4.49,3.91,6.63.63-.22,1.5-.24,1.82-.67,5.21-6.96,10.43-13.93,15.5-21,5.53-7.71,5.43-7.61,14.23-5.87,6.4,1.26,12.89,2.05,19.34,3.07,2.86.45,5.75.8,8.55,1.48,6.13,1.49,10.28,5.37,12.12,11.35,1.06,3.43,1.79,7.03,2.12,10.61,2.36,25.68,2.77,51.41,1.56,77.16-.15,3.29-.77,6.54,1.75,9.26,3.23,3.5,6.75,6.78,11.52,7.79,1.91.41,4.37-.18,6.15-1.13,1.84-.98,3.06-3.05,4.72-4.44,1.55-1.29,3.62-1.45,4.85.12.98,1.25,1.47,3.2,1.43,4.83-.03,1.3-1.05,2.67-1.87,3.84-6.62,9.53-13.28,19.04-19.99,28.52-1.25,1.77-2.76,3.36-4.18,5.01-2.44,2.82-5.5,3.37-8.88,2.13-1.69-.62-3.35-1.42-4.89-2.37-8.66-5.31-17.29-10.67-25.9-16.08-1.53-.96-2.97-2.11-4.29-3.33-3.25-2.99-4.54-6.71-2.62-10.81,4.18-8.95,4.03-18.39,3.11-27.78-1.82-18.4-4.08-36.75-6.21-55.12-.12-1.03-.74-2-1.4-3.72Z"/>
      <path class="uuid-f71e767a-a643-4ee4-b514-bdc752a8a6c3" d="m1188.35,485.41c-7.64-1.76-14.59-3.36-21.96-5.05.29-2.1.13-3.62.72-4.76,4.69-9,9.61-17.88,14.28-26.89,2.3-4.44,5.76-6.29,10.61-5.79,9.09.94,17.83,3.34,26.21,6.9,6.63,2.82,9.84,8.59,11.16,15.18,1.34,6.72,2.14,13.61,2.55,20.46.95,15.92,1.52,31.87,2.26,47.8.1,2.17-.1,4.47.54,6.49,2.65,8.4-.65,14.43-6.59,20.23-15.39,15.03-27.77,32.52-39.73,50.3-1.01,1.5-1.92,3.08-2.89,4.61-1.67,2.62-3.94,4.23-7.16,4.16-17.69-.41-34.71-3.44-49.63-13.67-3.51-2.41-6.37-5.76-9.62-8.76.53-2.63.98-4.69,1.37-6.76,1.4-7.51,2.01-15.01,1.39-22.7-1.41-17.34-2.36-34.72-3.58-52.08-.28-3.93-.86-7.85-1.31-11.85-5.33-2.78-10.71-3.32-16.08-4.54-2.25,2.06-4.26,4.13-6.5,5.9-1.6,1.27-3.37.92-4.94-.41-1.93-1.65-2.16-3.64-.61-5.71.22-.29.42-.6.68-.84,9.32-8.82,16.87-18.93,22.44-30.51,2.56-5.32,6.87-7.35,12.55-6.04,8.83,2.04,17.62,4.29,26.42,6.46,3.14.77,5.14,2.66,5.5,5.93.44,3.96.85,7.93,1.09,11.9,1.23,20.26,2.41,40.52,3.6,60.79.4,6.87.79,13.74,1.23,21.49,8.65,7.15,18.14,13.19,31.07,13.22.51-2.16,1.31-3.83,1.22-5.45-1.44-27.15-2.97-54.3-4.58-81.44-.15-2.48-.97-4.93-1.71-8.53Z"/>
      <path class="uuid-f71e767a-a643-4ee4-b514-bdc752a8a6c3" d="m1565.81,384.76c-8.88,10.61-17,20.78-23.45,32.12-.48.85-.31,2.08-.52,3.68,6.33,2.61,12.53,5.63,19.02,7.75,7.83,2.56,10.78,7.72,10.48,15.57-.47,12.31-.78,24.62-1.01,36.93-.1,5.32-2.65,8.79-7.19,11.2-3.52,1.87-6.96,3.88-10.44,5.83-5.13,2.88-9.56,6.54-13.01,11.34-4.65,6.47-9.32,12.93-14,19.39-1.49,2.05-2.96,4.12-4.55,6.08-2.11,2.61-4.97,2.99-7.88,1.83-2.34-.93-4.46-2.4-6.69-3.6-14.65-7.92-28.64-17.12-44.35-23.01-.6-.22-.98-1.02-1.76-1.87-.32-3.11,2.47-4.66,4.27-6.72,5.71-6.54,11.52-13,17.17-19.6,1.35-1.57,2.21-3.55,3.58-5.8-5.53-4.93-11.57-8.16-17.42-11.64-10-5.94-9.66-4.64-9.29-17.14.29-10.13,1.14-20.25,1.62-30.38.26-5.53,2.72-9.64,7.34-12.57,1.22-.78,2.34-1.75,3.62-2.41,13.03-6.74,21.77-17.77,29.69-29.61,1.21-1.81,2.32-3.69,3.58-5.45,3.23-4.52,5.92-5.37,11.17-3.52,1.36.48,2.64,1.2,3.94,1.84,13.68,6.71,27.55,12.95,42.16,17.42.98.3,1.81,1.06,3.92,2.35Zm-31,74.33c-5.28-2.3-10.5-4.58-16.2-7.06-6.42,7.54-13.54,13.68-17.93,22.56,9.34,10.01,20.42,16.06,33.55,18.79,2.05-9.13,2.23-19,.58-34.29Zm-5.39-38.31c-6.4-8.27-15.12-12.1-23.13-16.84-2.97-1.75-6.06-3.81-10.24-2.91-.67,10.63-1.39,21,.08,31.53,5.76,3.43,11.17,6.81,18.06,8.24,5.16-6.78,10.16-13.34,15.24-20.02Z"/>
      <path class="uuid-f71e767a-a643-4ee4-b514-bdc752a8a6c3" d="m641.76,535.55c3.67-9.56,14.74-24.45,25.15-34.2,1.72.62,3.88,1.02,5.63,2.09,5.56,3.42,11.07,6.93,16.4,10.69,5.71,4.02,7.67,9.52,5.09,16.19-1.69,4.38-3.13,8.99-5.61,12.91-8.36,13.15-17.13,26.04-25.75,39.02-2.1,3.16-4.81,5.35-8.8,5.66-2.38.18-4.36-1.78-3.6-4.07,1.47-4.46,3.2-8.84,4.84-13.26,1.64-4.41,3.51-8.76,4.87-13.25,1.52-5.03,0-9.32-4.37-12.39-2.37-1.67-4.9-3.1-7.3-4.72-2.07-1.39-4.06-2.89-6.53-4.66Z"/>
    </g>
  </g>
  <g id="uuid-cc927b9b-eb5b-4a85-a5ea-77f33485acc2" data-name="tijdlijn Image">
    <path class="uuid-1b83cb81-3217-4802-868d-52474f49a584" d="m2249.24,413.6c-1.31,28.05-2.53,57.15-4.44,85.11-1.17,13.96-3.05,28.57-3.3,42.58-.25,10.67.09,21.36.91,32.01.75,10.56,2.04,21.35,2.96,31.92,3.4,38.75,6.64,78.17,7.93,117.05.42,10.71.74,21.39.78,32.13,0,0-.99.13-.99.13-2.19-8.62-3.88-17.55-5.49-26.29-8.4-47.51-11.43-95.91-9.77-144.11.5-14.3.77-28.55.43-42.82-.63-21.38-3.01-42.92-1.04-64.36,1.1-14.3,2.82-28.56,5.72-42.62,1.43-7.04,3.18-14.02,5.3-20.89,0,0,.99.17.99.17h0Z"/>
    <path class="uuid-1b83cb81-3217-4802-868d-52474f49a584" d="m2804.83,409.92c-1.21,26.95.49,54.8.53,81.7-.45,20.5-1.37,41.12.66,61.61,1.11,13.69,3.06,27.3,4.17,41,3.57,47.92,2.87,97.84-15.33,143.01,0,0-.96-.27-.96-.27,2.06-13.61,3.71-27.09,4.76-40.62,1.99-26.61,2.69-54.69,3.27-81.39.12-8.45.13-17.12.33-25.59.3-11.7.69-24.29.4-35.95-.18-20.65-3.62-40.94-5.63-61.47-1.55-20.62-1.11-41.5,2.05-61.96.79-4.93,1.92-10.45,3.28-15.25.47-1.67.97-3.33,1.49-4.98l.98.18h0Z"/>
    <path class="uuid-1b83cb81-3217-4802-868d-52474f49a584" d="m3247.12,540.96c3.96,21.46,5.22,43.43,4.87,65.22.07,14.55-1.56,29.02-3.45,43.43-3.12,21.56-4.4,43.26-4.98,65.01-.4,21.69-2.2,43.55-4.3,65.11-3.69,36.05-9.83,71.96-19.14,107.03,0,0-.99-.16-.99-.16.4-10.91,1.12-21.74,1.97-32.59,2.39-32.1,6.11-65.05,10.72-96.96,2.52-21.52,6.8-42.88,9.21-64.44,1.69-14.38,2.22-28.84,2-43.32-.38-14.46-.51-28.87.07-43.32.61-13.47.92-27.05,1.74-40.52.25-8.14.54-16.22,1.28-24.43,0,0,1-.07,1-.07h0Z"/>
  </g>
</svg>