<?xml version="1.0" encoding="UTF-8"?>
<svg id="uuid-02dc5e26-c49d-402c-a8f8-0c2c86f1715c" data-name="Layer 2" xmlns="http://www.w3.org/2000/svg" viewBox="0 0 1072.6 213.69">
  <defs>
    <style>
      .uuid-0a682873-3975-4d38-97b4-698c4f85d719 {
        fill: #ff203e;
      }
    </style>
  </defs>
  <g id="uuid-2095a058-1ae6-4646-9106-efd69abdfc63" data-name="tijdlijn Image">
    <g>
      <path class="uuid-0a682873-3975-4d38-97b4-698c4f85d719" d="m347.66,186.15c-1.19,4.95-1.71,8.67-1.55,11.14.16,2.47,1.34,4.11,3.54,4.91,2.2.8,5.64,1.33,10.31,1.56l-.79,4.13c-3.16-.25-7.11-.38-11.85-.42-4.74-.03-9.51-.02-14.32.02-5.36.05-10.3.12-14.83.23-4.53.11-8.3.31-11.33.61l1-4.13c4.53-.31,8.06-.89,10.59-1.74,2.53-.85,4.54-2.51,6.04-5,1.49-2.48,2.83-6.2,4.03-11.16l26.32-102.4c1.33-5.09,1.85-8.84,1.55-11.24-.3-2.4-1.51-4.04-3.65-4.91-2.14-.87-5.54-1.36-10.21-1.46l1-4.13c2.75.12,6.46.22,11.13.32,4.67.1,9.68.12,15.04.08,4.81-.04,9.58-.15,14.31-.33,4.74-.17,8.75-.35,12.05-.51l-1,4.13c-4.67.18-8.3.72-10.9,1.64-2.6.92-4.61,2.58-6.03,5-1.42,2.42-2.8,6.17-4.13,11.26l-26.32,102.4Zm8.85-49.52l1.41-4.13,72.72-.62-1.61,4.13-72.51.61Zm83.6-53.45c1.33-5.09,1.88-8.84,1.66-11.24-.23-2.4-1.44-4.04-3.65-4.91-2.21-.87-5.64-1.36-10.31-1.46l1-4.13c3.16.11,7.11.22,11.85.31,4.74.1,9.44.13,14.11.09,5.36-.04,10.37-.16,15.04-.33,4.67-.17,8.51-.35,11.53-.51l-1,4.13c-4.67.18-8.3.72-10.9,1.64-2.6.92-4.61,2.58-6.04,5-1.42,2.42-2.8,6.17-4.13,11.26l-26.33,102.4c-1.19,4.95-1.71,8.67-1.55,11.14.16,2.47,1.34,4.11,3.54,4.91,2.2.81,5.64,1.33,10.31,1.56l-.79,4.13c-2.89-.25-6.67-.39-11.33-.42-4.67-.03-9.68-.02-15.04.02-4.67.04-9.41.12-14.21.22-4.81.11-8.79.32-11.94.62l.79-4.13c4.66-.31,8.3-.89,10.9-1.74,2.6-.85,4.65-2.51,6.14-5,1.49-2.49,2.83-6.2,4.03-11.16l26.32-102.4Z"/>
      <path class="uuid-0a682873-3975-4d38-97b4-698c4f85d719" d="m486.09,194.99c2.97-.65,5.96-3.28,8.97-7.89,3.01-4.61,5.79-10.57,8.35-17.87,2.55-7.3,4.61-15.4,6.17-24.3s2.36-17.95,2.43-27.17l1.22,20.74c-1.84,14.15-4.24,25.72-7.19,34.73-2.96,9.01-6.47,15.8-10.52,20.39-4.06,4.58-8.56,7.41-13.51,8.49-5.82,1.27-10.64.12-14.46-3.45-3.83-3.57-6.46-8.64-7.89-15.2-1.3-5.94-1.72-12.62-1.27-20.05.45-7.42,1.69-14.99,3.7-22.69,2.01-7.7,4.69-14.9,8.02-21.59,3.33-6.69,7.32-12.36,11.94-17,4.63-4.64,9.72-7.57,15.29-8.79,4.33-.95,8.11.46,11.33,4.23,3.22,3.77,4.99,9.64,5.31,17.61l-1.8,1.56c-.57-6.75-2.16-11.94-4.77-15.59-2.61-3.64-5.9-5.03-9.86-4.17-3.22.7-6.24,3.02-9.08,6.94-2.84,3.93-5.31,8.94-7.41,15.04-2.1,6.1-3.76,12.78-4.96,20.04-1.2,7.26-1.8,14.62-1.79,22.08,0,7.46.73,14.46,2.16,21.02,1.16,5.32,2.56,8.91,4.2,10.75,1.63,1.85,3.44,2.55,5.42,2.12Zm26.66-102.29c2.94-.77,5.86-1.67,8.75-2.69,2.89-1.02,5.47-2.23,7.76-3.64l-5.28,87.11c0,1.17-.03,2.7-.07,4.58-.04,1.89.32,3.53,1.08,4.92.76,1.39,2.19,1.86,4.29,1.4,2.47-.54,4.59-2.43,6.35-5.67,1.75-3.23,3.03-8.7,3.81-16.39l.73-7.35,3.53-.77-1.68,14.56c-.65,5.33-1.88,9.65-3.68,12.96s-3.88,5.84-6.22,7.58c-2.34,1.74-4.75,2.89-7.22,3.43-4.83,1.05-8.58.19-11.26-2.6-2.23-2.49-3.39-5.71-3.47-9.65-.08-3.94-.05-7.93.1-11.98l2.5-75.81Z"/>
      <path class="uuid-0a682873-3975-4d38-97b4-698c4f85d719" d="m573.64,177.19l-15.03,4.41-1.03-80.18c.05-1.52-.02-3.15-.22-4.91-.2-1.75-.71-3.17-1.53-4.24-.82-1.07-2.15-1.34-3.99-.8-2.53.74-4.42,2.64-5.65,5.69-1.23,3.05-2.06,8.33-2.48,15.83l-.37,7.05-3.28.96.62-13.88c.4-8,2.14-13.7,5.2-17.1,3.06-3.4,6.44-5.64,10.12-6.72,3.45-1.01,6.18-1,8.17.04,1.99,1.04,3.42,2.72,4.29,5.03.87,2.31,1.45,4.95,1.76,7.92.31,2.97.53,5.94.65,8.91l2.75,71.98Zm-2.6-38.26c.99-11.55,2.35-21.39,4.08-29.53,1.74-8.14,3.81-14.91,6.23-20.31,2.42-5.4,5.27-9.62,8.57-12.65,3.3-3.03,7.02-5.16,11.17-6.38,5.41-1.59,9.5-1.38,12.28.62,2.77,2,4.63,5.02,5.57,9.06.93,4.04,1.34,8.39,1.21,13.06l-1.94,55.35c-.12,3.41.2,6.1.96,8.07.76,1.96,2.41,2.58,4.95,1.83,2.19-.64,3.99-2.49,5.41-5.53,1.42-3.04,2.33-8.37,2.71-15.99l.37-7.05,3.28-.96-.62,13.88c-.19,5.31-1.1,9.58-2.71,12.8-1.62,3.23-3.58,5.71-5.88,7.45-2.3,1.74-4.66,2.96-7.08,3.67-2.76.81-5.17,1.02-7.23.62-2.06-.4-3.76-1.21-5.12-2.43-1.88-1.7-3.07-4.29-3.59-7.76-.52-3.47-.68-7.43-.48-11.86l1.9-54.21c.1-1.78.02-3.85-.23-6.22-.26-2.36-.93-4.35-2.03-5.97-1.1-1.61-3.03-2.02-5.79-1.21-2.76.81-5.34,2.88-7.74,6.21-2.4,3.33-4.62,7.71-6.65,13.12-2.04,5.42-3.76,11.68-5.18,18.78-1.42,7.11-2.5,14.8-3.25,23.09-.75,8.29-1.11,16.99-1.06,26.11l-2.09-25.65Z"/>
      <path class="uuid-0a682873-3975-4d38-97b4-698c4f85d719" d="m665.96,147.01c2.55-.76,4.99-3.13,7.31-7.11,2.32-3.97,4.37-9.04,6.15-15.19,1.78-6.15,3.09-12.95,3.93-20.38.84-7.43,1.03-14.92.56-22.46l2.65,17.24c-.84,11.72-2.29,21.33-4.33,28.84-2.04,7.51-4.66,13.28-7.86,17.29-3.2,4.02-7,6.68-11.39,7.99-3.17.95-6.18,1.04-9.02.27-2.84-.76-5.37-2.43-7.59-5-2.21-2.57-4.01-6.15-5.38-10.75-1.46-4.91-2.25-10.43-2.36-16.58-.11-6.15.49-12.42,1.81-18.83,1.31-6.4,3.36-12.5,6.14-18.28,2.78-5.78,6.26-10.8,10.45-15.06,4.18-4.25,9.09-7.22,14.71-8.9,2.35-.7,4.81-.46,7.39.71,2.58,1.18,4.5,3.53,5.78,7.04l-.31,3.43c-1.51-3.56-3.32-5.88-5.42-6.98-2.11-1.09-4.19-1.34-6.23-.73-3.88,1.16-7.24,3.61-10.08,7.35-2.83,3.74-5.08,8.25-6.73,13.53-1.65,5.28-2.8,10.94-3.45,16.98-.65,6.04-.75,12.03-.31,17.96.44,5.94,1.39,11.36,2.85,16.26,1.34,4.5,2.9,7.68,4.69,9.54,1.78,1.86,3.79,2.46,6.04,1.79Zm31.27-20.53c-.01,2.57.35,4.82,1.1,6.77.75,1.95,2.25,2.58,4.5,1.91,2.04-.61,3.59-2.32,4.64-5.14,1.05-2.82,1.68-7.43,1.88-13.84l.15-6.22,2.91-.87-.18,12.24c0,4.46-.69,8.14-2.04,11.05-1.36,2.91-3.02,5.16-5,6.75-1.97,1.59-3.98,2.69-6.03,3.3-6.13,1.83-10.22-.12-12.27-5.85-.59-1.6-1.03-3.53-1.31-5.79-.28-2.25-.45-4.76-.5-7.53l-2.7-89.53c-.12-3.75-1.03-6.26-2.75-7.53-1.71-1.27-5.08-1.16-10.08.34l-.04-3.49c5.59-1.78,10.37-3.85,14.34-6.2,3.97-2.36,7.61-5.08,10.91-8.19l2.46,117.82Z"/>
      <path class="uuid-0a682873-3975-4d38-97b4-698c4f85d719" d="m734.05,117.45c0,2.81.36,4.92,1.04,6.32.68,1.41,1.88,1.87,3.59,1.4,1.8-.5,3.2-1.98,4.21-4.45,1.01-2.46,1.69-6.51,2.06-12.13l.36-5.48,2.56-.72-.62,10.79c-.21,3.74-.87,6.86-1.97,9.34-1.1,2.49-2.51,4.46-4.24,5.91-1.73,1.45-3.76,2.5-6.09,3.16-2.97.83-5.3.88-7.01.14-1.71-.73-2.98-2-3.82-3.8-.84-1.8-1.37-3.86-1.58-6.17-.21-2.31-.3-4.64-.28-6.97l1.59-79.09c.04-3.31-.67-5.53-2.15-6.67-1.48-1.14-4.42-1.09-8.83.14l.15-3.09c4.92-1.47,9.13-3.21,12.65-5.21,3.51-2,6.78-4.34,9.81-7.03l-1.42,103.61Z"/>
      <path class="uuid-0a682873-3975-4d38-97b4-698c4f85d719" d="m763.44,89.41c4.57-2.88,8.67-5.63,12.32-8.25,3.64-2.62,6.44-5.15,8.39-7.59,2.58-3.34,4.36-7.06,5.34-11.15.99-4.09.96-8.31-.09-12.66-.62-2.57-1.19-4.17-1.72-4.8-.53-.62-1.15-.85-1.86-.68-2.22.54-4.38,2.09-6.49,4.66-2.11,2.58-3.99,5.87-5.65,9.89-1.66,4.02-3.01,8.45-4.05,13.31-1.04,4.85-1.59,9.89-1.64,15.12-.06,5.23.5,10.28,1.68,15.17,1.09,4.53,2.72,7.59,4.89,9.18,2.17,1.59,4.63,2.05,7.38,1.39,3.2-.77,6.33-2.56,9.42-5.37,3.08-2.81,5.71-7.1,7.89-12.89l2.39.55c-.98,3.34-2.52,6.71-4.61,10.13-2.09,3.42-4.64,6.4-7.64,8.96-3,2.56-6.41,4.29-10.23,5.21-3.55.86-6.83.89-9.84.12s-5.56-2.39-7.65-4.85c-2.1-2.46-3.63-5.72-4.62-9.81-.92-3.82-1.24-8.27-.97-13.37.27-5.09,1.15-10.33,2.63-15.71,1.47-5.38,3.55-10.51,6.23-15.38,2.68-4.87,5.95-9.04,9.81-12.51,3.86-3.47,8.32-5.81,13.38-7.03,2.75-.66,5.26-.49,7.52.51,2.26,1,3.75,2.97,4.45,5.9.86,3.55.61,7.11-.74,10.68-1.35,3.57-3.43,7.03-6.24,10.38-2.81,3.35-5.98,6.49-9.5,9.41-3.52,2.92-7.03,5.55-10.5,7.89-3.48,2.34-6.57,4.31-9.29,5.9l-.41-2.3Z"/>
      <path class="uuid-0a682873-3975-4d38-97b4-698c4f85d719" d="m824.54,52.79c.78-5.4-.26-7.83-3.13-7.3-1.89.35-3.37,1.69-4.47,4.01-1.1,2.32-2.07,5.77-2.92,10.33l-.88,4.87-2.34.43,1.53-9.56c.59-3.67,1.58-6.56,2.97-8.69,1.39-2.12,2.98-3.71,4.78-4.76,1.79-1.05,3.51-1.73,5.15-2.04,2.62-.49,4.65-.31,6.07.53,1.43.84,2.42,2.09,2.99,3.77.56,1.67.83,3.55.79,5.64-.04,2.08-.21,4.13-.52,6.13l-6.25,39.68c-.38,2.53-.3,4.44.24,5.74.54,1.3,1.58,1.8,3.14,1.52,1.64-.3,3.03-1.49,4.17-3.57,1.14-2.08,2.17-5.66,3.1-10.74l.88-4.87,2.33-.43-1.53,9.56c-.56,3.41-1.48,6.19-2.78,8.33-1.3,2.15-2.82,3.79-4.56,4.91-1.74,1.13-3.55,1.87-5.44,2.21-3.52.65-6.05.27-7.58-1.14-1.53-1.41-2.38-3.46-2.54-6.14-.16-2.68.02-5.6.54-8.75l6.26-39.68Zm-2.27-33.52c.01-2.21.76-4.25,2.23-6.13,1.47-1.88,3.23-3.01,5.28-3.39,2.13-.39,3.93.08,5.41,1.41,1.48,1.34,2.21,3.11,2.19,5.31-.02,2.21-.76,4.25-2.23,6.13-1.47,1.88-3.28,3.02-5.41,3.42-2.05.38-3.81-.1-5.29-1.44-1.48-1.34-2.21-3.11-2.19-5.32Z"/>
      <path class="uuid-0a682873-3975-4d38-97b4-698c4f85d719" d="m866.24,97.96c1.99-.21,4.12-1.61,6.38-4.22,2.26-2.61,4.48-6.06,6.64-10.34,2.17-4.29,4.08-9.11,5.73-14.47,1.65-5.36,2.83-10.85,3.53-16.47l-.45,13.08c-2.25,8.52-4.65,15.41-7.2,20.66-2.55,5.25-5.28,9.14-8.2,11.65-2.92,2.51-6.08,3.95-9.5,4.31-2.47.26-4.7-.1-6.69-1.05-1.99-.96-3.62-2.54-4.9-4.74-1.28-2.2-2.1-5.09-2.47-8.67-.4-3.82-.21-8,.56-12.55.77-4.54,2.09-9.08,3.95-13.62,1.86-4.54,4.22-8.74,7.07-12.62,2.85-3.88,6.12-7.09,9.79-9.65,3.67-2.55,7.7-4.06,12.08-4.52,1.83-.19,3.61.33,5.35,1.55,1.74,1.23,2.83,3.23,3.28,5.99l-.71,2.49c-.62-2.83-1.63-4.8-3.03-5.9-1.4-1.1-2.9-1.57-4.49-1.4-3.02.32-5.84,1.66-8.45,4.02-2.61,2.36-4.89,5.38-6.84,9.04-1.95,3.66-3.58,7.67-4.9,12.03-1.32,4.36-2.22,8.76-2.73,13.19-.5,4.44-.56,8.56-.16,12.38.36,3.5,1.07,6.06,2.13,7.68,1.05,1.62,2.46,2.34,4.21,2.16Zm25.9-10.78c-.37,1.89-.41,3.6-.13,5.14s1.3,2.22,3.05,2.04c1.59-.17,2.97-1.21,4.14-3.15,1.17-1.93,2.27-5.24,3.31-9.94l.97-4.57,2.27-.24-1.84,9c-.62,3.28-1.64,5.9-3.04,7.86-1.41,1.96-2.95,3.38-4.62,4.28-1.68.9-3.31,1.43-4.9,1.6-4.77.5-7.52-1.51-8.23-6.02-.21-1.26-.27-2.75-.16-4.45.1-1.7.33-3.57.68-5.62l10.46-66.36c.43-2.78.11-4.76-.98-5.93-1.09-1.17-3.58-1.56-7.48-1.15l.45-2.58c4.37-.53,8.18-1.4,11.43-2.58s6.31-2.69,9.18-4.52l-14.56,87.18Z"/>
      <path class="uuid-0a682873-3975-4d38-97b4-698c4f85d719" d="m928.28,47.04c1.59-4.71,1.06-7.07-1.6-7.07-1.75,0-3.31.95-4.67,2.85-1.37,1.9-2.81,4.83-4.32,8.78l-1.59,4.22h-2.17s2.96-8.32,2.96-8.32c1.14-3.19,2.5-5.62,4.1-7.3,1.59-1.67,3.28-2.83,5.07-3.48,1.78-.65,3.44-.97,4.96-.97,2.43,0,4.22.49,5.36,1.48,1.14.99,1.83,2.28,2.06,3.87s.15,3.33-.22,5.19c-.38,1.86-.87,3.67-1.48,5.42l-12.17,34.55c-.76,2.21-1,3.93-.74,5.19.27,1.25,1.12,1.88,2.57,1.88,1.52,0,2.96-.84,4.33-2.51,1.37-1.67,2.88-4.71,4.55-9.12l1.59-4.22h2.17s-2.96,8.32-2.96,8.32c-1.06,2.96-2.35,5.3-3.87,7.01-1.52,1.71-3.15,2.93-4.9,3.65-1.75.72-3.5,1.09-5.24,1.09-3.27,0-5.47-.76-6.61-2.27-1.14-1.52-1.56-3.49-1.26-5.93.3-2.43.95-5.02,1.93-7.75l12.17-34.55Zm3.51-30.44c.38-1.98,1.38-3.69,3.02-5.13,1.63-1.44,3.4-2.17,5.3-2.17,1.97,0,3.51.72,4.62,2.16,1.1,1.44,1.47,3.15,1.09,5.13-.38,1.98-1.38,3.69-3.02,5.13-1.63,1.45-3.44,2.17-5.41,2.17-1.9,0-3.4-.72-4.5-2.16-1.1-1.44-1.47-3.15-1.09-5.13Z"/>
      <path class="uuid-0a682873-3975-4d38-97b4-698c4f85d719" d="m953.58,96.24l-9.82-1.42,20.52-46.45c.43-.86.82-1.82,1.17-2.88.34-1.06.42-2.01.24-2.84-.19-.83-.88-1.34-2.08-1.51-1.66-.24-3.24.36-4.75,1.79-1.51,1.43-3.38,4.25-5.6,8.46l-2.07,3.96-2.14-.31,4.01-7.83c2.34-4.5,4.84-7.32,7.5-8.48,2.66-1.15,5.19-1.55,7.6-1.21,2.26.33,3.82,1.05,4.7,2.17.87,1.12,1.26,2.47,1.15,4.02-.11,1.56-.47,3.24-1.07,5.03-.6,1.79-1.26,3.56-1.97,5.3l-17.38,42.18Zm8.58-22.72c3.61-6.39,6.99-11.7,10.13-15.93,3.14-4.23,6.12-7.58,8.94-10.06,2.81-2.47,5.57-4.15,8.27-5.03,2.7-.88,5.4-1.12,8.11-.73,3.54.51,5.84,1.71,6.91,3.59,1.07,1.88,1.35,4.11.82,6.68-.53,2.57-1.44,5.19-2.74,7.84l-15.7,31.37c-.97,1.93-1.49,3.57-1.57,4.9-.08,1.33.71,2.12,2.37,2.36,1.43.21,2.95-.38,4.57-1.76,1.62-1.38,3.54-4.21,5.78-8.5l2.07-3.96,2.14.31-4.01,7.83c-1.51,3.01-3.16,5.23-4.93,6.66-1.78,1.43-3.56,2.35-5.35,2.74-1.78.39-3.47.48-5.05.25-1.81-.26-3.25-.78-4.33-1.55-1.08-.77-1.85-1.69-2.31-2.75-.63-1.47-.64-3.28-.02-5.42.61-2.14,1.56-4.46,2.85-6.96l15.38-30.72c.53-1,1.03-2.21,1.5-3.64.47-1.43.61-2.75.4-3.97-.21-1.22-1.21-1.96-3.02-2.22-1.81-.26-3.84.25-6.1,1.54-2.26,1.29-4.69,3.22-7.29,5.8-2.6,2.58-5.24,5.73-7.93,9.45-2.69,3.72-5.34,7.87-7.96,12.44-2.62,4.58-5.11,9.5-7.49,14.76l5.55-15.32Z"/>
      <path class="uuid-0a682873-3975-4d38-97b4-698c4f85d719" d="m1029.89,87.27l2.61,1.14c-3.1.42-5.96.8-8.57,1.13-2.62.33-4.79.72-6.52,1.19-1.73.47-2.78,1.16-3.13,2.08-.28.71-.04,1.56.72,2.54.76.99,2.16,2.21,4.2,3.66l6.97,5.04c2.04,1.45,3.83,2.9,5.34,4.34,1.52,1.45,2.58,2.95,3.21,4.49.62,1.55.57,3.24-.14,5.08-.69,1.77-2.05,3.54-4.09,5.32-2.04,1.78-4.68,3.21-7.92,4.32-3.24,1.1-7.08,1.57-11.49,1.4-4.42-.17-9.39-1.33-14.92-3.48-3.68-1.43-6.65-2.98-8.9-4.63-2.25-1.65-3.76-3.32-4.53-5.01-.77-1.69-.85-3.31-.25-4.87.44-1.13,1.22-2.2,2.34-3.19,1.12-.99,2.53-1.83,4.22-2.52,1.7-.69,3.68-1.18,5.96-1.47,2.28-.3,4.83-.3,7.65-.02l.12,1.88c-3.14.32-5.54,1.14-7.2,2.46-1.65,1.31-2.81,2.82-3.47,4.52-1.1,2.83-.9,5.25.6,7.27,1.5,2.01,3.7,3.58,6.61,4.71,2.34.91,4.89,1.48,7.66,1.7,2.77.22,5.46.12,8.06-.29,2.61-.41,4.87-1.19,6.77-2.32,1.91-1.13,3.21-2.58,3.9-4.35.41-1.06.35-1.9-.18-2.52-.54-.62-1.51-1.41-2.93-2.37l-14.64-10.47c-1.53-1.09-2.63-2.35-3.3-3.79-.66-1.44-.65-3.05.04-4.82.55-1.42,1.61-2.68,3.18-3.78,1.57-1.1,4.09-2.02,7.55-2.75s8.29-1.28,14.46-1.65Zm18.38-29.91c4.18,1.63,7.19,3.88,9.05,6.77,1.85,2.88,1.97,6.41.34,10.59-1.32,3.4-3.59,6.39-6.8,8.98-3.21,2.58-6.97,4.28-11.28,5.09-4.31.81-8.84.29-13.58-1.56-3.9-1.52-6.81-3.73-8.73-6.64-1.93-2.91-2.12-6.35-.57-10.32.74-1.91,2.01-3.97,3.81-6.16,1.79-2.2,4.02-4.1,6.69-5.71,2.67-1.61,5.76-2.61,9.3-2.99,3.53-.38,7.46.27,11.78,1.96Zm-1.17,1.75c-2.27-.88-4.43-.97-6.5-.27-2.07.71-4.01,1.86-5.82,3.48-1.81,1.62-3.41,3.42-4.8,5.41-1.39,1.99-2.54,3.84-3.45,5.57-.92,1.72-1.54,3.01-1.87,3.86-.88,2.27-1,4.1-.36,5.49.64,1.39,1.81,2.42,3.51,3.08,2.69,1.05,5.19,1.08,7.48.1,2.3-.98,4.38-2.5,6.24-4.55,1.86-2.05,3.42-4.21,4.67-6.5,1.25-2.28,2.2-4.24,2.83-5.87.94-2.41,1.36-4.44,1.28-6.11-.09-1.66-1.16-2.9-3.21-3.7Zm6.56,6.71l-1.62-1.49c1.93-2.02,4.46-3.48,7.58-4.39,3.12-.9,6-.85,8.62.17,1.84.72,3.13,1.81,3.86,3.28.73,1.47.67,3.3-.18,5.5-.77,1.98-1.83,3.24-3.18,3.78-1.35.54-2.59.58-3.72.14-1.13-.44-2.07-1.23-2.81-2.38-.74-1.14-.9-2.57-.47-4.28.42-1.71,1.69-3.62,3.82-5.73l1.26.86c-3.42-.02-6,.33-7.76,1.08-1.76.74-3.55,1.9-5.39,3.47Z"/>
    </g>
  </g>
  <g id="uuid-35f5bcd9-8026-43c9-bbf3-aa9cf3183723" data-name="boekje + Layer 16 Image">
    <g>
      <path class="uuid-0a682873-3975-4d38-97b4-698c4f85d719" d="m71.42,38.79c5.8,0,11.23.07,16.65-.04,2.18-.04,4.95.24,6.41-.92,2.73-2.18,5.36-1.83,8.18-1.26,4.42.89,8.81,1.92,13.2,2.95,4.3,1.01,9.07,1.16,10.54,6.85.31,1.21,2.36,2.04,3.71,2.89,6.05,3.84,11.37,8.43,15,14.73,2.85-.02,3.7-2.45,5.26-3.8,7.69-6.63,16.61-10.98,26.05-14.43,15.58-5.7,31.74-8.3,48.25-8.99,4.55-.19,9.03.11,13.57,2.46,4.83,19.98,9.56,40.28,14.67,60.49,5.05,19.93,7.93,40.44,15.93,59.99-1.76,6.14-4.7,12.48-3.66,19.39.95,6.31,2.43,12.54,3.73,19.1-6.33,1.45-12.39.64-18.39-.13-12.46-1.59-24.9-3.34-37.35-5.07-17.28-2.4-34.7-2.65-52.08-3.41-9.64-.42-19.3-.53-30.56-.82,3.13,1.88,5.18,2.56,6.36,3.96,1.38,1.64,2.01,3.92,3.09,6.2,2.94.47,6.06.98,9.35,1.51.85-1.54,1.63-2.89,2.37-4.26,1.91-3.56,4.78-4.53,8.82-4.34,22.23,1.07,44.32,3.43,66.37,6.3,13.41,1.75,26.9,2.85,40.36,4.16,2.16.21,4.35.03,6.86.03-1.39-7.32-5.48-13.48-4.84-21.25,4.91,5.74,14.36,22.86,16.55,29.69-1.39,1.93-3.42,1.26-5.18,1.06-17.93-1.98-35.85-4.2-53.79-6.05-19.55-2.02-39.13-3.74-58.7-5.58-.64-.06-1.28-.14-1.93-.16-5.54-.12-6.56,1.58-4.22,6.98.25.58.42,1.19.73,2.12-2.42,3.85-5.99,5.31-10.51,4.17-5.3-1.33-10.44-2.77-16.13-1.79-3.67.63-6.46-2.36-9.29-5.04.69-2.8,1.4-5.68,2.29-9.29-22.19-2.38-43.7-3.61-65.22-4.6-21.15-.98-42.3-1.8-63.24-2.68-.34-.6-.57-.86-.62-1.14-.05-.3,0-.67.13-.94.28-.56.57-1.16,1.01-1.6,8.56-8.67,17.14-17.33,26.07-26.34-1.07,5.87-1.4,6.7-5.28,11.92-2.64,3.55-5.4,7.02-8.64,11.21h11.07c-2.36-.98-3.39-1.4-4.48-1.85-.83-2.32,1.22-3.41,2.25-4.8,5.26-7.09,8.97-14.82,10.52-23.56.28-1.57.7-3.15,1.34-4.6,11.14-25.4,18.85-52.01,27.61-78.25,2.75-8.24,5.03-16.63,7.57-24.93.65-2.12,1.49-4.18,2.23-6.24Zm80.45,78.07c1.97.83,2.74-.74,3.85-1.81,3.41-3.29,6.84-6.58,10.41-9.68.72-.63,2.13-.46,5.09-1-2.48,3.04-3.57,4.9-5.13,6.19-6.32,5.26-10.27,12.06-13.27,19.53-1.06,2.64-2.08,5.29-3.06,7.93.08.42.15.83.23,1.25,0-.46,0-.93,0-1.39,1.89-.89,3.79-1.78,6.23-2.93-.55,3.64-1.01,6.71-1.48,9.77-.47.28-.97.53-1.39.88-.09.07.12.51.2.77.32-.62.64-1.25.96-1.87,1.68-1.84,3.35-3.7,5.05-5.53,3.07-3.29,6.09-6.63,9.28-9.8.85-.85,2.19-1.28,3.39-1.67.46-.15,1.3.21,1.68.61.36.38.66,1.3.45,1.66-.65,1.08-1.45,2.12-2.38,2.96-11.59,10.39-18.76,23.61-24.19,37.9-.73,1.92-.72,4.13-1.29,7.69,2.43-1.93,3.76-2.77,4.81-3.87,8.5-8.9,19.05-14.31,30.76-17.4,22.98-6.08,46.13-9.4,69.71-3.13,1.98.53,4.23.07,7.05.07-14.18-34.82-18.55-71.38-25.86-107.43-1.62-.29-2.84-.73-4.06-.7-7.09.16-14.21.1-21.27.74-10.9.99-21.83,1.93-32.41,5.14-8.18,2.48-15.46,6.4-21.57,12.38-3.26,3.2-6,6.8-6.85,11.41-.26,1.38.13,2.89.21,4.12,2.07.59,3.65-1.53,5.49,1.01-1.72,4.83-5.55,9.57-5.3,17.03,2.38-3.42,3.89-5.72,5.53-7.93,4.87-6.55,10.65-12.07,18.21-15.46,2.1-.94,4.28-1.74,6.31.08,1.11,1-.52,3.37-3.35,4.91-.85.46-1.72.89-2.6,1.29-9.7,4.3-15.84,11.91-19.8,21.46-.53,1.28-.39,2.83-.61,4.64,3.71-1.63,4.28-6.53,8.59-6.07,1.28,2.49-.6,3.84-1.42,5.43-1.91,3.7-3.96,7.34-5.89,11.05-.23.55-.49,1.1-.68,1.67-.02.07.36.26.55.39-.06-.77-.12-1.54-.17-2.3Zm-13.33-44.2c-.23-9.48-3.85-14.48-12.63-17.43-1.42,6.24-2.68,12.52-4.28,18.71-2.35,9.07-3.83,18.23-4.08,27.62-.18,6.75-.64,13.5-1.08,20.24-.1,1.45.25,3.3-2.52,4.22-3.3-2.22-6.97-4.68-10.4-6.99-5.75-.37-10.62,3.72-16.6,2.12,0-2.63-.29-5.16.05-7.6,1.96-14.01,3.48-28.1,7.93-41.64,2.68-8.16,2.25-16.34.28-24.9-6.89-1.21-13.41-1.74-20.14-.38-2,8.91-3.76,17.39-5.82,25.8-2.06,8.43-4.23,16.85-6.67,25.17-2.53,8.63-5.41,17.17-8.21,25.73-2.67,8.16-7.27,15.57-10.09,23.91,1.52.52,2.36.99,3.24,1.08,13.45,1.46,26.9,2.94,40.36,4.29,13.65,1.37,26.76,4.26,37.75,13.14,3.75,3.03,7.2,6.42,10.84,9.59,1.11.96,2.38,1.74,4.01,2.92.9-4.82-.37-8.44-2.47-11.71-4.35-6.75-8.92-13.36-13.38-20.05-1.49-2.24-3.74-4.17-3.66-8.29,2.35,1.1,4.09,1.64,5.48,2.65,1.54,1.12,2.73,2.72,4.13,4.05,1.18,1.12,2.01,2.91,5.24,2.87-2.25-3.8-3.9-6.84-5.8-9.72-2.66-4.02-5.57-7.88-8.23-11.91-.57-.86-.48-2.15-.88-4.13,7.83,2.7,10.47,9.49,16.5,15.12-1.76-6.32-3.07-11.05-4.67-16.8,2.45,1.67,3.85,2.61,6.44,4.37-2.05-4.5-3.33-7.78-5-10.85-1.68-3.1-3.82-5.95-5.61-9-1.65-2.8-5.23-4.7-4.77-9.18,6.71,1.3,8.06,8.09,13.27,11.44.47-5.85-3.78-10.23-2.57-15.27h3.91c-.73-9.52-6.16-17.38-8.79-26.35,5.49.08,5.71,5.34,8.94,7.16Zm14.1,112.31c2.16,0,4.32-.05,6.48,0,8.69.22,17.44-.08,26.06.81,23.37,2.41,46.69,5.35,70.03,8.03,1.4.16,2.84-.05,4.58-.09-.88-4.18-1.82-7.6-2.25-11.09-.4-3.17-.4-6.42-.3-9.63.11-3.42.56-6.82.88-10.48-3.72-.78-6.81-1.63-9.96-2.07-16.37-2.26-32.78-2.14-49.14-.01-18.16,2.36-33.33,11.01-46.38,24.51Zm-119.02-9.51c33.63,1.04,66.59,3.65,99.54,6.26.18.01.39-.4,1.06-1.14-.95-1.04-1.87-2.23-2.97-3.21-10.64-9.52-23.32-14.84-37.24-17-17.55-2.72-35.29-1.88-52.95-2.46-2.53,5.96-4.86,11.46-7.44,17.54Zm67.28,12.25c.06.44.11.87.17,1.31,3.51,0,7.03,0,10.54,0,3.16,0,6.34.24,9.38-1.31h-20.1Zm-13-1.07c.1-.22.21-.43.31-.65h-16.63v.65h16.32Zm-36.25-2.11c0-.14,0-.29.01-.43h-14.6v.43h14.59Z"/>
      <path class="uuid-0a682873-3975-4d38-97b4-698c4f85d719" d="m168.46,146.58c1.06-1.37,1.95-3.05,3.29-4.18,6.05-5.1,13.2-8.04,20.96-8.99,14.8-1.81,29.5-.58,43.99,2.82,4.98,1.17,7.11,3.05,6.11,4.69-1.78,2.89-4.61,1.34-6.96,1.22-9.29-.46-18.57-1.32-27.86-1.65-11.39-.41-22.31,2.01-32.92,6.09-1.88.72-3.92,2.66-6.61,0Z"/>
      <path class="uuid-0a682873-3975-4d38-97b4-698c4f85d719" d="m229.19,60.02c-2.75.49-3.91.85-5.08.88-9.32.24-18.65.34-27.96.63-13.14.4-25.54,3.02-35.61,12.34-.39.36-1.16.29-2.44.57-.09-1.16-.57-2.42-.17-3.26,2.17-4.58,6.12-7.46,10.54-9.47,3.77-1.72,7.76-3.18,11.81-4.03,13.62-2.85,27.41-3.25,41.25-2.07,2.88.25,2.88.29,7.67,4.42Z"/>
      <path class="uuid-0a682873-3975-4d38-97b4-698c4f85d719" d="m241.07,113.98c-7.95-.42-13.39-.72-18.83-.98-8.69-.42-17.39-.81-26.08-1.23-1.6-.08-3.25-.08-4.77-.49-.72-.19-1.66-1.25-1.67-1.93-.02-.71.84-1.62,1.54-2.11.75-.53,1.76-.87,2.68-.95,11.27-.95,22.55-1.2,33.75.63,3.13.51,6.16,1.8,9.14,2.98.99.39,1.68,1.56,4.24,4.09Z"/>
      <path class="uuid-0a682873-3975-4d38-97b4-698c4f85d719" d="m184.37,72.33c1.61-2.99,4.67-2.91,7.42-3.42,11.16-2.05,22.38-2.27,33.58-.55,1.95.3,3.73,1.76,5.41,2.6-.39,2.69-2,2.13-3.07,2.13-12.85.07-25.72-.74-38.51,1.33-1.85.3-3.95.34-4.83-2.09Z"/>
      <path class="uuid-0a682873-3975-4d38-97b4-698c4f85d719" d="m190.72,83.2c9.91-4.63,19.66-4.09,29.54-2.54,7.45,1.17,7.67,1.2,11.54,5.05-.49.28-.99.81-1.46.79-12.76-.47-25.51-.99-38.27-1.54-.19,0-.37-.46-1.35-1.76Z"/>
      <path class="uuid-0a682873-3975-4d38-97b4-698c4f85d719" d="m212.92,96.48c-3.42,4.1-6.87,3-9.94,3.26-2.88.24-5.79.17-8.67.39-3.2.24-6.41.49-9.56,1.03-2.8.48-5.52,1.75-9.04.41.79-1.19,1.21-2.61,2.07-2.98,2.94-1.24,5.98-2.7,9.09-3.01,7-.71,14.07-.88,21.12-1.02,1.38-.03,2.79,1.05,4.94,1.92Z"/>
      <path class="uuid-0a682873-3975-4d38-97b4-698c4f85d719" d="m212.54,122.35c-.99.78-1.46,1.47-1.99,1.51-8.66.64-17.32,1.23-25.99,1.76-1.37.08-2.63-.56-2.52-2.11.05-.79.77-1.94,1.46-2.2,2.37-.91,4.83-1.66,7.31-2.16,6.09-1.25,12.21-1,18.2.6,1.27.34,2.27,1.66,3.52,2.62Z"/>
      <path class="uuid-0a682873-3975-4d38-97b4-698c4f85d719" d="m160.65,126.78c.15-6.32,4.58-9.68,8.34-13.21,4.26-3.99,6.25-4.26,12.18-3.14-.27.88-.3,2.29-.82,2.51-6.94,2.89-12.45,7.6-17.39,13.12-.34.38-1.12.37-2.32.73Z"/>
      <path class="uuid-0a682873-3975-4d38-97b4-698c4f85d719" d="m218.05,122.03c3.63-3.26,6.81-2.39,9.75-1.66,4.66,1.16,10.08.74,13.49,5.14-1.58,2.66-3.69,2.13-5.27,1.61-5.6-1.85-12.14-.28-17.97-5.09Z"/>
      <path class="uuid-0a682873-3975-4d38-97b4-698c4f85d719" d="m183.22,84.75c-.22,1.55-.17,2.05-.32,2.13-5.08,2.55-10.18,5.06-15.58,7.72-.4-1.31-1.16-2.52-.85-2.94,4.07-5.59,9.43-8.19,16.75-6.9Z"/>
      <path class="uuid-0a682873-3975-4d38-97b4-698c4f85d719" d="m236.82,100.17c-7.21-.44-12.58,0-17.58-2.86,3.93-3.99,8.38-3.48,17.58,2.86Z"/>
      <path class="uuid-0a682873-3975-4d38-97b4-698c4f85d719" d="m162.03,154.85c.2,2.03-1.58,3.78-3.61,3.55-.47-.05-1.16-.66-1.25-1.11-.31-1.67,1.79-3.66,3.67-3.47.46.05.85.72,1.18,1.03Z"/>
      <path class="uuid-0a682873-3975-4d38-97b4-698c4f85d719" d="m126.89,158.53c-4.35,1.18-7.67-2.19-8.56-8.68q5.39,2.41,8.56,8.68Z"/>
      <path class="uuid-0a682873-3975-4d38-97b4-698c4f85d719" d="m122.16,106.55c4.34,2,6.56,4.33,7.32,8.09-4.96-.04-5.65-.75-7.32-8.09Z"/>
      <path class="uuid-0a682873-3975-4d38-97b4-698c4f85d719" d="m126.33,77.91q5.75,2.91,5.58,8.64c-3.37-2.03-4.72-4.78-5.58-8.64Z"/>
    </g>
  </g>
</svg>