<?xml version="1.0" encoding="UTF-8"?>
<svg id="uuid-4e524fd3-64f4-455a-ba27-e9f944def0e7" data-name="Layer 2" xmlns="http://www.w3.org/2000/svg" viewBox="0 0 383.28 491.18">
  <defs>
    <style>
      .uuid-80c59b7e-b71c-448f-8450-52beb3b28dc9 {
        fill: #ff203e;
      }
    </style>
  </defs>
  <g id="uuid-73b5a1b0-e0e7-4f62-a7dd-55864a210bce" data-name="achtergronden + Layer 15 Image">
    <path d="m265.55,20h0,0m-2.87.31c.97,1.48,1.78,2.85,2.44,4.12,7.99,15.58,16.26,31.68,18.77,48.51.87,5.87,3.5,11.66,8.04,17.69,3.31,4.4,6.71,8.62,10.01,12.7,2.46,3.05,4.79,5.94,7.07,8.88,3.14,4.05,5.93,7.71,8.15,11.35-1.75,4.16-3.24,8.24-4.68,12.19-1.7,4.66-3.3,9.07-5.15,13.05-6.78,14.68-7.88,29.48-3.29,44l.05.16c1.19,3.76,2.32,7.32,3.03,10.59.29,1.34.64,2.51.95,3.46-.32,6.52,2.35,11.54,4.03,14.31.08.75.15,1.62.21,2.35.08.99.17,1.98.27,2.96l.02.2c.27,2.62.53,5.09.64,7.37.12,2.47.21,4.66.09,6.44-.85,13.06,2.92,25.87,11.2,38.07,2.08,3.07,4.2,6.06,6.25,8.96,2.56,3.62,4.99,7.05,7.28,10.51,3.05,4.62,3.94,6.56,4.2,7.27-.15.74-.73,2.75-3.02,7.69-1.5,3.24-3.28,6.55-5.16,10.06-.44.83-.89,1.65-1.33,2.48-1.44,2.7-2.96,5.44-4.57,8.35-.76,1.36-1.53,2.76-2.32,4.19l-7.23,13.14,10.58,10.62c.48.48.93.96,1.38,1.44,1.45,1.53,3.25,3.43,5.54,5.3,2.53,2.07,5.05,3.98,7.47,5.82,1.69,1.28,3.28,2.49,4.82,3.71,5.38,4.25,8.02,9.7,8.54,17.68.13,2.05.23,4.14.33,6.36.13,2.93.27,5.96.51,9.09l.2,2.65c.2,2.67.41,5.36.64,8.07-7.82-2.73-15.73-4.12-23.53-4.12-7.6,0-15.18,1.31-22.54,3.9-.7.24-1.39.49-2.09.74-.03,0-.05.02-.08.03-2.67-7.69-6.66-13.82-12.14-18.65-9.13-8.05-18.1-11.97-27.45-11.97-9.98,0-17.77,4.45-23.43,8.33-2.92,2-5.3,4.07-7.4,5.9-.37.33-.75.65-1.12.97-1.16,1-2.33,1.99-3.49,2.99-3.65,3.11-7.43,6.32-11.16,9.87-9.39,8.92-19.83,13.2-32.86,13.48-6.46.14-12.82.52-18.98.88-.13,0-.25.01-.37.02l-4.52-9.94-5.33-11.72h-12.87c-9,0-15.29,6.05-18.24,9.66-.4.49-.78.99-1.14,1.5-1.2,1.26-2.29,2.72-3.22,4.39-3.03-.87-6.27-1.83-9.51-2.83-5.54-1.71-11.1-2.58-16.52-2.58-11.35,0-22.14,3.71-32.09,11.02-8.96,6.58-18.42,13.07-27.57,19.35-1.95,1.34-3.9,2.68-5.85,4.02-4.14,2.85-7.87,5.36-11.32,7.64.69-5.74,1.36-11.62,1.83-17.59.5-6.27.43-13.01-.21-20.6-1.01-11.97-2.15-24.09-3.25-35.8-.67-7.14-1.37-14.52-2.02-21.76-.9-9.9,1.35-19.85,7.05-31.32,2.99-6.02,6.22-12.37,9.91-18.09,12.23-18.95,11.55-39.86-1.88-57.37-2.52-3.29-3.56-6.84-3.48-11.89.04-2.62.01-5.15-.01-7.59-.03-2.3-.05-4.46-.02-6.55.33-18.93-3.18-36.57-6.57-53.62-.63-3.18-1.29-6.46-1.89-9.65-1.23-6.47-2.34-13.13-3.27-18.78-.07-.42-.12-.7.5-1.67,1.72-2.72,3.32-5.41,4.86-8.01,1.09-1.83,2.12-3.56,3.16-5.26,7.34-11.94,9.66-24.86,6.9-38.42-2.42-11.87-4.25-23.97-5.71-34.24-.26-1.79-.48-3.6-.68-5.42.67.11,1.33.22,1.98.34,8.52,1.59,15.45,5.32,21.2,11.39,5.2,5.49,13.07,13.79,25.9,13.79,7.42,0,13.66-2.86,19.42-5.79,9.55-4.86,18.7-10.24,27.54-15.44,1.28-.75,2.56-1.51,3.84-2.26,3.27-1.92,5.99-3.33,8.42-4.36l22.93,33.61,11.59-41.33c1.35-4.8,1.26-9.03.73-12.37,4.74-1.92,9.8-3,14.52-3,1.52,0,2.97.11,4.31.34,2.59.44,5.08.88,7.08,1.49,4.67,1.42,9.4,2.14,14.07,2.14,8.69,0,17.14-2.45,25.11-7.29,3.23-1.96,6.45-3.85,9.87-5.85,1.97-1.16,3.94-2.31,5.9-3.48,2.52-1.5,5.49-2.47,9.2-3m2.81-20.31c-.49,0-.99.02-1.5.06-7.38.58-14.32,2.26-20.71,6.05-5.31,3.15-10.66,6.23-15.94,9.43-4.74,2.87-9.63,4.39-14.74,4.39-2.68,0-5.43-.42-8.25-1.27-3.12-.95-6.36-1.53-9.58-2.08-2.47-.42-5.03-.62-7.64-.62-12.83,0-26.88,4.91-37.51,13.54.57,2.49,1.12,5.29,1.88,8.04.68,2.44,2.14,4.77,1.12,8.4-2.4-3.52-4.21-6.16-6.25-9.17-3.02.38-5.9.47-8.65,1.13-6.76,1.64-12.9,4.74-18.89,8.25-10.02,5.87-20,11.86-30.34,17.13-4.62,2.35-7.69,3.61-10.34,3.61-3.63,0-6.47-2.37-11.38-7.55-8.84-9.33-19.58-14.96-32.04-17.29-6.41-1.2-12.97-1.64-19.48-2.24-.39-.04-.79-.05-1.19-.05-1.69,0-3.47.28-5.5.4-.37,2.19-1.03,3.94-.9,5.63.62,7.96,1.16,15.94,2.29,23.83,1.69,11.85,3.52,23.69,5.91,35.41,1.78,8.74.23,16.52-4.34,23.95-2.66,4.33-5.17,8.75-7.89,13.05-3.05,4.82-4.25,9.99-3.34,15.6,1.05,6.44,2.14,12.88,3.36,19.29,3.72,19.59,8.47,39.04,8.12,59.19-.08,4.72.11,9.44.03,14.15-.15,8.98,1.99,17.08,7.6,24.4,8.48,11.06,8.57,22.53.94,34.35-4.12,6.39-7.62,13.21-11.02,20.02-6.57,13.21-10.41,27.09-9.06,42.03,1.73,19.15,3.65,38.28,5.27,57.44.48,5.75.66,11.59.2,17.33-.81,10.11-2.24,20.17-3.34,30.25-.24,2.16-.28,4.35-.24,6.52.12,5.64,1.97,7.73,7.7,8.4.98.11,1.95.17,2.92.17,4.9,0,9.52-1.45,13.73-4.09,6.76-4.25,13.4-8.7,19.98-13.23,11.37-7.82,22.81-15.56,33.93-23.73,6.43-4.72,13.12-7.14,20.25-7.14,3.43,0,6.96.56,10.62,1.69,5.9,1.82,11.83,3.52,17.78,5.17,3.07.86,6.21,1.51,9.77,2.36,1.55-3.79,2.81-7.14,4.3-10.38.69-1.51.17-4.44,2.58-4.45-.41-2.04,3.49-4.53,3.59-4.53,0,0,0,0,0,0-.21.24.51,5.38-1.76,6.19-.43,4.92-2.11,8.83-2.53,13.6,3.39,2.26,6.87,2.65,10.27,2.65.94,0,1.88-.03,2.8-.06,11.25-.36,22.48-1.39,33.73-1.63,17.93-.38,33.24-6.66,46.21-18.98,4.47-4.25,9.26-8.17,13.94-12.2,2.2-1.9,4.36-3.88,6.74-5.51,4.35-2.98,8.14-4.84,12.14-4.84,4.19,0,8.63,2.04,14.21,6.96,3.65,3.22,5.72,7.45,7.06,12.06.81,2.78,1.44,5.64,2.52,8.31,1.73,4.28,3.98,6.26,7.59,6.26,1.06,0,2.23-.17,3.54-.5,4.56-1.15,9-2.81,13.45-4.38,5.33-1.87,10.63-2.77,15.91-2.77,6.1,0,12.18,1.2,18.22,3.47,5.1,1.91,10.07,4.14,15.12,6.19,3.02,1.23,6.01,2.6,9.13,3.53.58.17,1.19.23,1.86.23,1.1,0,2.35-.15,3.82-.15-.38-2.79-.47-4.9-.99-6.91-2.93-11.31-3.64-22.91-4.53-34.49-.39-5.07-.5-10.15-.83-15.22-.85-12.94-5.74-23.89-16.1-32.07-3.99-3.15-8.12-6.13-12.05-9.34-1.9-1.55-3.51-3.46-5.4-5.36,2.5-4.54,4.81-8.63,7.02-12.78,2.39-4.48,4.85-8.94,6.98-13.54,7.09-15.33,6.74-20.17-2.65-34.38-4.4-6.66-9.18-13.07-13.67-19.68-5.22-7.69-8.41-16.03-7.79-25.54.19-2.89.07-5.81-.07-8.71-.14-2.9-.44-5.79-.74-8.67-.34-3.25-.42-6.58-1.23-9.71-.67-2.58-3.59-5.21-3.13-7.29.73-3.28-.86-5.59-1.44-8.26-.92-4.24-2.25-8.41-3.56-12.55-3.23-10.2-2.12-19.84,2.38-29.57,3.94-8.53,6.6-17.65,10.29-26.31,2.7-6.33,1.86-12.15-1.49-17.66-2.82-4.63-6.14-8.98-9.47-13.28-5.56-7.17-11.44-14.1-16.9-21.35-1.9-2.53-3.79-5.58-4.24-8.61-2.94-19.77-11.8-37.24-20.76-54.69-1.65-3.22-3.64-6.29-5.76-9.23-2.91-4.04-6.73-6.07-11.67-6.07h0Z"/>
  </g>
  <g id="uuid-62d4539d-2b90-4337-b280-f15abd0714b4" data-name="tijdlijn Image">
    <g>
      <path class="uuid-80c59b7e-b71c-448f-8450-52beb3b28dc9" d="m137.88,116.97c10.01,8.9,18.71,16.64,27.6,24.54-.86,1.74-2.62.87-3.78.29-3.8-1.87-7.45-4.04-11.17-6.06-1.66-.9-3.35-1.73-5.95-3.06-.03,2.68-.71,4.83.07,6.11,1.43,2.36,3.71,4.21,7.12,7.86-4.11-1.21-6.14-1.93-8.24-2.38-1.43-.3-3.2,2.2-2.4,3.39,1.07,1.58,2.24,3.24,3.75,4.35,3.33,2.44,6.9,4.56,11.34,7.43-6.37.39-9.95-4.03-14.78-4.46-2.02,2.23-1.24,4.37.59,5.98,2.66,2.34,5.63,4.34,8.51,6.53-.76.45-4.23,1.34-5.42,1.15.25,1.35.19,2.62.71,3.56,2.58,4.65,6.22,8.36,10.74,11.19,2.45,1.54,4.9,3.08,7.27,4.57.37,4.17-.75,7.43-3.62,10.76-2.49,0-5.37.1-8.25-.02-11.91-.48-21.6,4.18-29.64,12.68-7.82,8.28-12.48,18.25-15.48,29.09-.66,2.38-.37,4.65,1.49,6.33,3.63,3.26,7.12,6.79,11.18,9.43,14.29,9.31,30.23,13.67,47.18,14.4,5.21.22,10.47.05,15.67-.37,1.53-.12,2.95-1.71,5.16-3.08-6.83-2.64-13.26.77-19.82-2.49,4-2.82,8.05-1.53,11.62-2.31,3.44-.75,6.87-1.6,11.64-2.73-1.87-1.61-2.59-2.69-3.54-2.94-1.68-.44-3.5-.38-5.62-.56,2.32-3.85,7.46-2.32,8.93-6.2-1.48-2.35-3.54-1.41-5.33-1.48-1.63-.06-3.27.14-4.9.05-1.78-.1-3.55-.4-6.25-.72,5.71-4.54,13.21-.69,17.85-5.87-2.98-4.35-7.94.07-11.11-3.68,3.53-1.41,6.9-2.75,10.45-4.17q-2.58-2.83-7.51-3.85c.67-2.85,3.7-2.2,5.79-3.99,1.27-4.66-1.65-8.34-4.36-11.88-1.76-2.3-4.16-4.12-6.36-6.06-1.75-1.55-3.45-3.1-3.27-5.69.19-2.85,1.69-4.84,4.74-6.32,12.09,4.82,21.67-.73,30.56-8.83,6.64-6.05,11.57-13.25,15.13-21.45,1.29-2.96,2.58-5.92,3.87-8.9h4.83c.38.91.94,1.59.8,2.03-3.75,11.67-9.83,22.02-18.24,30.91-6.2,6.56-13.84,10.8-22.64,12.95-1.79.44-3.54,1.04-6.08,1.79,1.34,2.62,2.32,4.56,3.33,6.48,2.28,4.32,4.92,8.49,6.8,12.98,4.03,9.6,5.15,19.57,1.96,29.65-1.67,5.27-3.44,10.58-5.91,15.5-2.9,5.78-7.6,9.82-14.48,10.27-24.22,1.58-46.84-3.24-66.73-17.69-4.69-3.41-8.58-7.97-12.59-12.24-3.08-3.28-3.99-7.01-2.51-11.71,2.65-8.41,5.3-16.78,9.18-24.74,6.8-13.92,17.77-22.22,33-24.98,2.18-.39,4.33-.93,6.12-1.32,1.27-2.41-.08-3.57-1.03-4.83-1.78-2.34-3.66-4.6-5.38-6.98-4.65-6.48-7.63-13.67-8.65-21.59-1.58-12.25.76-23.84,6.03-36.64Z"/>
      <path class="uuid-80c59b7e-b71c-448f-8450-52beb3b28dc9" d="m140.68,108.67c1.72-2.55,3.36-4.94,4.95-7.37,3.54-5.37,8.37-7.39,14.91-7.43,12.34-.09,23.88,2.96,35.13,7.42,11.23,4.45,21.89,10.11,32.15,16.48,5.57,3.45,10.61,7.54,14.9,12.55,2.69,3.15,3.97,6.64,3.71,10.76-.35,5.46-2.87,8.68-8.49,8.68-6.47,0-13.03-.63-19.4-1.79-24.06-4.35-46.24-13.41-66.3-27.44-4.24-2.97-8.77-5.74-11.56-11.86Zm23.77-1.35c12.27,16.85,50.03,32.52,66.36,27.51-1.96-4.43-5.66-7.08-9.32-9.55-13.1-8.87-27.52-14.78-42.94-18.24-2.85-.64-5.78-1.22-8.68-1.29-1.72-.04-3.47.97-5.42,1.57Z"/>
      <path class="uuid-80c59b7e-b71c-448f-8450-52beb3b28dc9" d="m122.04,227.64c2.62,1.65,5.25,3.3,7.73,4.85,2.32-1.23,1.73-2.85,1.13-4.33-1.46-3.6-3.13-7.12-4.52-10.75-.64-1.68,0-3.18,1.7-4.07,1.72-.9,3.21-.38,4.35.97,1.05,1.23,1.91,2.63,2.79,3.99,2.92,4.52,7.63,6.02,12.46,6.71,1.96.28,4.59-.8,6.17-2.14,2.17-1.84,4.14-4.29,5.29-6.87,3.44-7.71,6.64-15.53,9.54-23.46,1.71-4.68.93-6.12-3.25-8.95-3.47-2.35-7.52-3.93-10.03-7.83.78-2.73,1.57-5.48,2.38-8.31,1.9-.75,3.69-1.46,5.88-2.33,1.65,1.34,3.85,2.44,5.04,4.2,4.51,6.71,11.2,8.52,18.62,8.88,3.25.16,6.52.07,9.78.12,1.95.03,3.91.05,5.86.17,1.73.11,3.27.82,3.71,2.59.52,2.1-.39,3.98-2.21,4.99-1.35.75-3.06,1.24-4.6,1.2-4.87-.11-9.74-.52-14.61-.81-2.38-.14-3.57,1.16-4.08,3.31l.22-.22c-5.6,1.23-8.98,4.83-10.96,10.05-2.42,6.37-5.01,12.67-7.46,19.03-.58,1.5-1.04,3.09-1.27,4.68-.78,5.39.32,7.53,5.18,10.24,1.4.78,2.88,1.4,4.8,2.32-.54,2.26-.39,4.93-1.65,6.35-4.35,4.9-7.34,10.27-8.51,16.75-.46,2.53-2.82,3.55-5.18,3.67-1.92.09-3.91-.21-5.8-.65-12.83-2.99-24.64-8.14-34.68-16.87-.43-.38-.54-1.12-.85-1.82,1.69-1.76,2.64.25,3.78.83,1.44.73,2.7,1.96,4.2,2.4,1.39.42,3,.09,5.01.09-1.48-6.45-7.78-8.31-10.43-13.59h5.14c1.56-2.1.11-3.8-.38-5.59,0,0-.24.21-.24.21Zm75.08-44.92c-7.29-3.83-7.99-3.84-11.3-.05q7.13,4.02,11.3.05Zm-66,56.9c-1.13-1.3-1.83-2.3-2.73-3.05-.35-.29-1.55-.21-1.69.06-.39.74-.77,1.81-.5,2.48.3.75,1.26,1.51,2.06,1.69.65.14,1.49-.57,2.87-1.18Z"/>
      <path class="uuid-80c59b7e-b71c-448f-8450-52beb3b28dc9" d="m91.87,248.68c4.96,5.18,9.44,10.78,14.86,15.25,5.48,4.53,11.61,8.48,17.97,11.68,6.05,3.05,12.63,5.32,19.22,6.98,6.91,1.73,14.08,2.95,21.19,3.24,7.05.29,14.16-.86,21.09-1.36,1.69,3.47-.2,5.44-2.19,7.08-2.83,2.33-6.29,3.19-9.91,3.74-8.83,1.35-17.67,1.05-26.34-.48-16.52-2.91-32.13-8.52-46.07-18.1-5.39-3.71-10.47-7.78-14.14-13.35-1.5-2.27-2.49-4.64-1.83-7.35.79-3.29,2.39-5.99,6.16-7.32Z"/>
      <path class="uuid-80c59b7e-b71c-448f-8450-52beb3b28dc9" d="m172.59,256.23c-.3.44-.53,1.15-.91,1.24-.47.11-1.07-.3-1.61-.48.38-.6.76-1.21,1.15-1.81.46.35.92.69,1.38,1.05Z"/>
      <path class="uuid-80c59b7e-b71c-448f-8450-52beb3b28dc9" d="m159.94,148.68c.23.21.45.42.68.64-.42.24-.82.55-1.27.7-.15.05-.43-.34-.66-.53.42-.27.84-.53,1.26-.8Z"/>
      <path class="uuid-80c59b7e-b71c-448f-8450-52beb3b28dc9" d="m181.15,189.76c.38.27.77.54,1.15.82-.15-.12-.32-.23-.45-.37-.18-.21-.32-.44-.48-.66,0,0-.22.22-.22.22Z"/>
      <path class="uuid-80c59b7e-b71c-448f-8450-52beb3b28dc9" d="m122.27,227.43c-.28-.49-.58-.97-.81-1.49-.04-.08.28-.32.43-.49.06.72.12,1.44.16,2.18-.02.02.22-.2.22-.2Z"/>
    </g>
  </g>
  <g id="uuid-c926814b-c45e-459c-ba01-dd4e4b31e3d9" data-name="boekje + Layer 16 Image">
    <g>
      <path class="uuid-80c59b7e-b71c-448f-8450-52beb3b28dc9" d="m98.14,334.87c1.22-.26,2.21-.08,2.95.54.74.62,1.23,1.46,1.45,2.53.26,1.22.13,2.4-.37,3.54-.51,1.14-1.23,2.14-2.16,3-1.15,1.13-2.73,2.15-4.73,3.05-2.01.9-4.44,1.65-7.32,2.26-2.23.47-4.48.83-6.74,1.05-2.26.23-4.49.41-6.68.54-2.2.13-4.36.3-6.48.5-2.13.2-4.2.52-6.22.94-1.65.35-3.32.79-5.02,1.31-1.7.53-2.91,1.17-3.63,1.94.54.44,1.03,1.07,1.49,1.89.45.82.76,1.63.93,2.43.23,1.07.13,2.17-.3,3.32-.42,1.15-1.33,1.87-2.71,2.16-1.17.25-2.13.06-2.87-.56-.74-.62-1.24-1.52-1.49-2.69-.23-1.06-.17-2.23.18-3.5.34-1.27,1.25-2.48,2.73-3.62,1.1-.84,2.33-1.55,3.68-2.11,1.35-.56,2.65-1.01,3.89-1.33,1.24-.32,2.15-.54,2.74-.66,3.19-.68,6.24-1.13,9.14-1.35,2.9-.22,5.78-.45,8.66-.67,2.87-.22,5.85-.66,8.94-1.31,2.45-.52,4.48-1.1,6.09-1.75s3.01-1.49,4.18-2.51l.04.58c-.65-.42-1.31-.99-1.99-1.7-.68-.72-1.13-1.58-1.34-2.59-.23-1.06-.12-2.13.32-3.2.44-1.07,1.33-1.74,2.66-2.02Zm-25.8,15.98c.98-.1,1.84-.17,2.58-.21.74-.04,1.48-.09,2.22-.14.74-.05,1.6-.12,2.58-.21l-2.44,47.47c-.1,2.13.01,3.74.35,4.8.34,1.07,1.07,1.71,2.2,1.91,1.13.21,2.81.1,5.06-.32l.02,1.66c-1.41.19-3.18.49-5.31.92-2.13.43-4.35.88-6.63,1.36-2.29.49-4.48.96-6.58,1.44-2.1.47-3.77.9-5.03,1.27l-.02-1.66c2.21-.58,3.9-1.23,5.05-1.95,1.15-.72,1.97-1.7,2.46-2.94.49-1.24.82-2.88,1-4.92l2.48-48.48Z"/>
      <path class="uuid-80c59b7e-b71c-448f-8450-52beb3b28dc9" d="m105.32,366.28c.52-3.52-.16-5.11-2.03-4.77-1.23.23-2.2,1.1-2.92,2.61-.72,1.51-1.36,3.76-1.92,6.74l-.58,3.17-1.52.28,1.01-6.24c.39-2.39,1.04-4.28,1.95-5.66.91-1.38,1.95-2.42,3.12-3.1,1.17-.68,2.29-1.12,3.37-1.32,1.71-.31,3.03-.19,3.96.35.93.55,1.58,1.37,1.94,2.46.37,1.09.54,2.32.51,3.68-.03,1.36-.14,2.69-.35,4l-4.14,25.89c-.25,1.65-.2,2.9.15,3.75.35.85,1.03,1.18,2.05.99,1.07-.2,1.98-.97,2.73-2.32.75-1.35,1.43-3.69,2.04-7.01l.58-3.17,1.52-.28-1.01,6.24c-.37,2.22-.98,4.04-1.83,5.43-.85,1.4-1.84,2.47-2.98,3.2-1.14.73-2.32,1.21-3.55,1.44-2.3.42-3.95.17-4.95-.75-1-.92-1.55-2.26-1.65-4.01-.1-1.75.02-3.65.37-5.71l4.14-25.89Zm-1.43-21.88c.01-1.44.5-2.77,1.47-4,.96-1.23,2.11-1.96,3.45-2.21,1.39-.25,2.57.06,3.53.93.96.87,1.44,2.03,1.42,3.47-.01,1.44-.5,2.77-1.47,4-.97,1.23-2.14,1.97-3.53,2.22-1.34.24-2.49-.07-3.45-.95-.96-.87-1.44-2.03-1.42-3.47Z"/>
      <path class="uuid-80c59b7e-b71c-448f-8450-52beb3b28dc9" d="m114.53,415.62l.12-1.26c3.35-.73,5.96-2.65,7.84-5.75,1.88-3.1,3-7.11,3.39-12.03l3.68-34.54c.23-1.91.19-3.23-.13-3.95-.31-.72-.95-1-1.92-.83-1.02.17-1.92.95-2.71,2.32-.79,1.37-1.46,3.68-2.02,6.92l-.54,3.15-1.53.26.94-6.2c.52-3.45,1.57-5.89,3.15-7.32s3.36-2.31,5.35-2.64c2.25-.38,3.83-.08,4.74.89.91.98,1.41,2.34,1.52,4.09.1,1.75.04,3.61-.17,5.57l-2.48,23.01c-.19,2.79-.58,5.48-1.16,8.06-.59,2.58-1.39,4.98-2.42,7.19-1.03,2.21-2.31,4.22-3.82,6.02-1.47,1.74-3.22,3.25-5.23,4.53-2.02,1.28-4.21,2.12-6.57,2.52Zm14.16-74.87c-.24-1.39.09-2.87.99-4.43.9-1.56,2.2-2.48,3.92-2.77,1.23-.21,2.29.01,3.17.66.88.65,1.42,1.57,1.62,2.75.24,1.45-.1,2.94-1.02,4.48-.93,1.54-2.25,2.45-3.96,2.74-1.18.2-2.21-.03-3.09-.68-.88-.65-1.42-1.57-1.62-2.75Z"/>
      <path class="uuid-80c59b7e-b71c-448f-8450-52beb3b28dc9" d="m156.42,391.61c1.34-.2,2.74-1.23,4.2-3.07,1.45-1.84,2.85-4.25,4.19-7.23,1.34-2.98,2.48-6.32,3.43-10.01.95-3.69,1.58-7.46,1.88-11.3l.11,8.9c-1.26,5.86-2.67,10.61-4.24,14.26-1.57,3.65-3.3,6.37-5.2,8.17-1.9,1.8-4.01,2.88-6.32,3.23-1.67.25-3.19.08-4.57-.5-1.38-.59-2.54-1.61-3.48-3.06-.94-1.45-1.59-3.39-1.95-5.81-.39-2.58-.4-5.43-.01-8.54.38-3.11,1.13-6.24,2.25-9.38,1.12-3.14,2.59-6.07,4.4-8.79,1.82-2.72,3.93-5.01,6.35-6.86,2.41-1.85,5.1-3,8.06-3.45,1.24-.19,2.46.11,3.68.89,1.22.78,2.02,2.1,2.42,3.97l-.4,1.71c-.51-1.9-1.26-3.21-2.24-3.91-.99-.7-2.02-.97-3.09-.81-2.04.31-3.91,1.31-5.61,2.99-1.7,1.69-3.15,3.81-4.36,6.35-1.21,2.55-2.19,5.32-2.95,8.33-.76,3-1.23,6.02-1.44,9.05-.2,3.03-.11,5.83.28,8.41.36,2.37.92,4.08,1.69,5.15.77,1.07,1.74,1.51,2.92,1.33Zm17.25-8.14c-.19,1.29-.16,2.46.08,3.5.24,1.04.95,1.46,2.13,1.29,1.07-.16,1.98-.92,2.71-2.27.73-1.35,1.37-3.63,1.93-6.85l.52-3.13,1.53-.23-.96,6.17c-.32,2.25-.93,4.06-1.82,5.43-.89,1.37-1.89,2.39-3,3.05-1.11.66-2.2,1.08-3.28,1.24-3.23.49-5.15-.79-5.78-3.83-.18-.85-.27-1.86-.25-3.02.02-1.16.11-2.44.28-3.84l5.01-45.4c.21-1.9-.08-3.23-.85-4-.78-.76-2.48-.94-5.12-.55l.23-1.77c2.95-.5,5.51-1.21,7.68-2.11,2.17-.91,4.2-2.03,6.09-3.36l-7.14,59.67Z"/>
      <path class="uuid-80c59b7e-b71c-448f-8450-52beb3b28dc9" d="m195.76,380.36c-.22,1.62-.19,2.87.09,3.73.28.87.93,1.23,1.96,1.1,1.08-.14,2.01-.89,2.79-2.22.78-1.34,1.51-3.62,2.17-6.83l.65-3.13,1.54-.21-1.23,6.17c-.43,2.14-1.06,3.89-1.89,5.23-.84,1.35-1.81,2.37-2.92,3.07-1.11.7-2.37,1.14-3.77,1.33-1.78.24-3.13.07-4.06-.49-.93-.56-1.56-1.4-1.9-2.5s-.48-2.34-.41-3.69c.07-1.35.2-2.7.41-4.05l7.34-45.51c.29-1.9.06-3.25-.7-4.02-.76-.78-2.46-.99-5.11-.64l.34-1.77c2.96-.45,5.53-1.11,7.72-1.98,2.19-.87,4.27-1.95,6.23-3.26l-9.24,59.67Z"/>
      <path class="uuid-80c59b7e-b71c-448f-8450-52beb3b28dc9" d="m219.31,349.09c.74-3.48.16-5.11-1.73-4.89-1.24.15-2.27.95-3.08,2.42-.81,1.47-1.59,3.67-2.34,6.6l-.78,3.13-1.54.18,1.4-6.16c.54-2.36,1.31-4.21,2.3-5.53.99-1.32,2.1-2.29,3.31-2.9,1.21-.61,2.36-.98,3.44-1.11,1.73-.21,3.04,0,3.93.6.89.61,1.49,1.47,1.79,2.58.3,1.11.39,2.35.28,3.71-.11,1.36-.31,2.68-.6,3.97l-5.75,25.58c-.35,1.63-.38,2.88-.09,3.75.29.87.95,1.24,1.98,1.12,1.08-.13,2.04-.84,2.87-2.15.83-1.3,1.65-3.59,2.47-6.87l.78-3.13,1.54-.18-1.4,6.16c-.51,2.2-1.23,3.97-2.16,5.31-.94,1.34-1.99,2.35-3.18,3.01-1.18.66-2.39,1.06-3.64,1.21-2.32.28-3.95-.08-4.89-1.06s-1.4-2.35-1.39-4.11c0-1.75.25-3.65.72-5.67l5.75-25.58Zm-.06-21.93c.1-1.44.67-2.74,1.71-3.9,1.04-1.16,2.23-1.83,3.58-1.99,1.4-.17,2.56.22,3.46,1.15.9.93,1.31,2.12,1.2,3.55-.1,1.44-.67,2.74-1.71,3.9-1.04,1.16-2.26,1.83-3.67,2-1.35.16-2.48-.23-3.38-1.16-.91-.93-1.31-2.12-1.2-3.55Z"/>
      <path class="uuid-80c59b7e-b71c-448f-8450-52beb3b28dc9" d="m225.27,398.86l.2-1.25c3.39-.51,6.13-2.25,8.21-5.21,2.08-2.97,3.47-6.9,4.18-11.78l5.98-34.22c.35-1.89.4-3.21.13-3.95-.27-.74-.89-1.06-1.86-.96-1.03.1-1.98.81-2.86,2.13-.88,1.32-1.7,3.57-2.47,6.77l-.75,3.11-1.54.16,1.35-6.12c.75-3.41,1.96-5.77,3.63-7.09,1.67-1.32,3.51-2.07,5.51-2.28,2.27-.23,3.83.18,4.67,1.21.84,1.04,1.26,2.43,1.24,4.18-.01,1.75-.2,3.6-.55,5.55l-4.02,22.79c-.38,2.77-.94,5.42-1.7,7.96-.76,2.54-1.72,4.87-2.9,7.02-1.18,2.14-2.58,4.06-4.22,5.75-1.58,1.64-3.43,3.02-5.53,4.17-2.1,1.14-4.34,1.83-6.72,2.07Zm19.13-73.76c-.14-1.41.29-2.86,1.28-4.35,1-1.49,2.36-2.33,4.09-2.5,1.24-.13,2.28.17,3.12.87.84.71,1.31,1.66,1.43,2.85.15,1.46-.29,2.93-1.32,4.4-1.03,1.47-2.41,2.29-4.14,2.47-1.19.12-2.2-.17-3.04-.88-.84-.71-1.31-1.66-1.43-2.85Z"/>
      <path class="uuid-80c59b7e-b71c-448f-8450-52beb3b28dc9" d="m266.62,379.35l-7.08.43,7.66-35.53c.18-.66.31-1.39.4-2.19.09-.79,0-1.47-.24-2.03-.25-.56-.81-.81-1.68-.76-1.19.07-2.22.72-3.07,1.94-.85,1.22-1.75,3.47-2.7,6.74l-.88,3.08-1.55.09,1.68-6.07c.99-3.49,2.33-5.83,4.03-7.03,1.7-1.19,3.42-1.84,5.15-1.95,1.63-.1,2.83.18,3.61.84.78.66,1.24,1.55,1.39,2.65s.14,2.33-.02,3.68c-.16,1.35-.37,2.68-.62,4l-6.07,32.08Zm2.72-17.16c1.61-5,3.2-9.21,4.8-12.63,1.59-3.42,3.19-6.2,4.81-8.34,1.61-2.14,3.3-3.71,5.07-4.72,1.76-1.01,3.62-1.57,5.58-1.69,2.55-.15,4.34.35,5.36,1.52,1.02,1.16,1.54,2.69,1.54,4.57,0,1.88-.26,3.84-.79,5.89l-6.46,24.26c-.4,1.5-.53,2.72-.39,3.66.14.95.81,1.38,2,1.31,1.03-.06,2.01-.69,2.95-1.89.93-1.2,1.87-3.46,2.82-6.79l.88-3.08,1.55-.09-1.68,6.07c-.62,2.33-1.45,4.12-2.49,5.38-1.04,1.26-2.16,2.16-3.35,2.69-1.19.53-2.36.84-3.5.91-1.3.08-2.39-.07-3.26-.46-.87-.38-1.54-.91-2.02-1.59-.66-.94-.92-2.2-.8-3.79.12-1.59.45-3.35.99-5.29l6.33-23.76c.23-.78.4-1.7.53-2.77.13-1.07.03-2.02-.29-2.84-.32-.83-1.13-1.2-2.44-1.12s-2.65.73-4.05,1.96c-1.4,1.23-2.82,2.94-4.27,5.12-1.45,2.19-2.85,4.78-4.19,7.77-1.35,3-2.6,6.29-3.78,9.87s-2.21,7.39-3.11,11.43l1.67-11.54Z"/>
    </g>
  </g>
</svg>