<?xml version="1.0" encoding="UTF-8"?>
<svg id="uuid-5a38a39f-7525-4d68-84ac-51f10c066c6a" data-name="Layer 2" xmlns="http://www.w3.org/2000/svg" viewBox="0 0 318.48 400.23">
  <defs>
    <style>
      .uuid-ecc8aae4-ad7a-4aae-bfcc-0d5cebc04415 {
        fill: #ff203e;
      }
    </style>
  </defs>
  <g id="uuid-91f0175c-3d4b-41e6-b245-8ddba2a85413" data-name="tijdlijn Image">
    <g>
      <path class="uuid-ecc8aae4-ad7a-4aae-bfcc-0d5cebc04415" d="m103.63,45.7c19.81,17.62,37.03,32.93,54.6,48.55-1.7,3.44-5.18,1.71-7.47.58-7.51-3.7-14.74-7.98-22.1-11.99-3.28-1.78-6.63-3.42-11.78-6.06-.06,5.3-1.4,9.57.14,12.1,2.83,4.67,7.35,8.33,14.09,15.55-8.13-2.39-12.15-3.83-16.3-4.7-2.82-.6-6.34,4.35-4.75,6.71,2.11,3.13,4.43,6.41,7.42,8.6,6.59,4.83,13.66,9.02,22.44,14.7-12.6.77-19.69-7.96-29.24-8.81-4,4.42-2.45,8.65,1.17,11.84,5.27,4.64,11.14,8.6,16.84,12.91-1.5.89-8.36,2.66-10.72,2.27.49,2.66.37,5.18,1.41,7.05,5.11,9.21,12.31,16.53,21.24,22.14,4.85,3.04,9.7,6.1,14.38,9.05.72,8.25-1.49,14.7-7.17,21.28-4.92,0-10.63.2-16.32-.03-23.57-.95-42.73,8.26-58.63,25.09-15.48,16.38-24.7,36.1-30.62,57.56-1.3,4.7-.74,9.21,2.94,12.52,7.18,6.45,14.09,13.43,22.12,18.66,28.28,18.43,59.82,27.05,93.35,28.49,10.32.44,20.72.09,31.01-.74,3.03-.24,5.83-3.37,10.22-6.1-13.52-5.22-26.24,1.52-39.21-4.93,7.91-5.58,15.93-3.03,23-4.57,6.82-1.49,13.59-3.17,23.03-5.4-3.69-3.18-5.13-5.33-7-5.82-3.33-.88-6.93-.75-11.11-1.1,4.6-7.61,14.76-4.6,17.68-12.26-2.93-4.64-7.01-2.79-10.54-2.92-3.23-.12-6.47.27-9.69.09-3.52-.2-7.03-.78-12.36-1.42,11.3-8.98,26.14-1.36,35.32-11.61-5.9-8.6-15.72.13-21.99-7.28,6.98-2.79,13.64-5.45,20.67-8.26q-5.11-5.6-14.86-7.62c1.33-5.63,7.33-4.35,11.45-7.89,2.51-9.21-3.27-16.51-8.63-23.51-3.48-4.55-8.24-8.15-12.59-11.99-3.47-3.07-6.82-6.13-6.48-11.25.37-5.63,3.34-9.58,9.37-12.51,23.92,9.53,42.88-1.44,60.47-17.47,13.14-11.97,22.89-26.22,29.93-42.44,2.54-5.86,5.1-11.72,7.66-17.6h9.55c.75,1.81,1.86,3.14,1.58,4.02-7.41,23.09-19.46,43.56-36.09,61.17-12.26,12.98-27.39,21.37-44.79,25.62-3.54.87-7,2.05-12.03,3.54,2.66,5.17,4.59,9.02,6.6,12.82,4.51,8.55,9.73,16.8,13.46,25.68,7.98,18.99,10.19,38.72,3.88,58.67-3.3,10.43-6.81,20.93-11.69,30.67-5.73,11.44-15.03,19.42-28.66,20.31-47.93,3.12-92.68-6.42-132.04-35-9.28-6.74-16.98-15.78-24.91-24.23-6.1-6.49-7.89-13.88-4.96-23.16,5.25-16.65,10.48-33.2,18.17-48.94,13.45-27.55,35.15-43.97,65.3-49.43,4.31-.78,8.56-1.84,12.1-2.61,2.51-4.77-.15-7.07-2.04-9.56-3.52-4.63-7.25-9.1-10.64-13.81-9.21-12.82-15.1-27.04-17.12-42.73-3.13-24.23,1.5-47.17,11.94-72.49Z"/>
      <path class="uuid-ecc8aae4-ad7a-4aae-bfcc-0d5cebc04415" d="m109.16,29.29c3.4-5.04,6.64-9.78,9.8-14.57C125.97,4.09,135.52.09,148.47,0c24.42-.17,47.25,5.86,69.52,14.69,22.22,8.81,43.3,20.01,63.62,32.6,11.02,6.83,21,14.92,29.48,24.83,5.32,6.22,7.86,13.13,7.33,21.28-.69,10.81-5.67,17.17-16.8,17.18-12.81.01-25.78-1.25-38.39-3.54-47.59-8.61-91.49-26.53-131.18-54.29-8.4-5.87-17.35-11.36-22.87-23.47Zm47.04-2.68c24.28,33.34,98.98,64.33,131.29,54.43-3.88-8.77-11.2-14-18.43-18.9-25.93-17.55-54.44-29.24-84.95-36.08-5.65-1.27-11.43-2.42-17.18-2.56-3.41-.08-6.87,1.92-10.73,3.11Z"/>
      <path class="uuid-ecc8aae4-ad7a-4aae-bfcc-0d5cebc04415" d="m72.28,264.68c5.19,3.26,10.39,6.52,15.29,9.6,4.59-2.43,3.42-5.64,2.23-8.57-2.9-7.13-6.19-14.09-8.94-21.27-1.27-3.32,0-6.29,3.36-8.05,3.41-1.78,6.34-.75,8.6,1.91,2.07,2.43,3.77,5.2,5.51,7.89,5.78,8.94,15.1,11.92,24.65,13.27,3.87.55,9.08-1.58,12.21-4.24,4.29-3.64,8.19-8.48,10.47-13.6,6.81-15.25,13.14-30.74,18.87-46.42,3.38-9.27,1.85-12.11-6.44-17.71-6.86-4.64-14.88-7.78-19.84-15.49,1.55-5.4,3.11-10.85,4.71-16.44,3.76-1.49,7.3-2.9,11.64-4.61,3.27,2.65,7.61,4.82,9.96,8.32,8.92,13.28,22.15,16.85,36.83,17.56,6.44.31,12.9.14,19.35.24,3.87.06,7.74.1,11.6.34,3.42.21,6.48,1.62,7.35,5.12,1.03,4.16-.78,7.87-4.36,9.87-2.67,1.49-6.06,2.45-9.1,2.38-9.64-.22-19.27-1.02-28.91-1.6-4.71-.29-7.07,2.3-8.08,6.55l.43-.44c-11.08,2.44-17.76,9.56-21.69,19.89-4.79,12.6-9.92,25.07-14.77,37.66-1.15,2.97-2.06,6.12-2.52,9.26-1.55,10.66.64,14.89,10.25,20.27,2.76,1.54,5.7,2.77,9.5,4.58-1.07,4.47-.78,9.75-3.27,12.55-8.61,9.69-14.52,20.31-16.84,33.14-.91,5.01-5.57,7.03-10.26,7.26-3.8.19-7.74-.42-11.47-1.29-25.39-5.92-48.75-16.11-68.62-33.37-.85-.74-1.06-2.22-1.68-3.6,3.33-3.47,5.23.49,7.48,1.64,2.85,1.45,5.33,3.87,8.31,4.76,2.75.82,5.94.17,9.91.17-2.94-12.76-15.38-16.45-20.64-26.89h10.16c3.09-4.16.22-7.52-.76-11.05,0,0-.47.42-.47.42Zm148.55-88.88c-14.41-7.59-15.81-7.59-22.36-.1q14.11,7.96,22.36.1Zm-130.58,112.58c-2.24-2.58-3.62-4.55-5.4-6.02-.69-.57-3.07-.41-3.35.11-.77,1.46-1.53,3.57-.99,4.9.59,1.48,2.49,2.99,4.07,3.34,1.29.28,2.96-1.13,5.68-2.33Z"/>
      <path class="uuid-ecc8aae4-ad7a-4aae-bfcc-0d5cebc04415" d="m12.59,306.31c9.81,10.24,18.69,21.33,29.41,30.18,10.85,8.96,22.98,16.78,35.55,23.11,11.98,6.03,24.99,10.54,38.02,13.81,13.67,3.43,27.87,5.83,41.92,6.41,13.95.57,28.01-1.69,41.72-2.69,3.34,6.86-.39,10.76-4.33,14-5.6,4.62-12.45,6.31-19.62,7.4-17.46,2.67-34.97,2.07-52.11-.95-32.69-5.76-63.56-16.85-91.16-35.82-10.67-7.33-20.71-15.4-27.97-26.42-2.96-4.5-4.92-9.17-3.62-14.55,1.56-6.5,4.73-11.84,12.19-14.49Z"/>
      <path class="uuid-ecc8aae4-ad7a-4aae-bfcc-0d5cebc04415" d="m172.3,321.24c-.59.87-1.05,2.28-1.81,2.46-.94.22-2.11-.58-3.19-.95.76-1.19,1.51-2.39,2.27-3.58.91.69,1.82,1.37,2.73,2.07Z"/>
      <path class="uuid-ecc8aae4-ad7a-4aae-bfcc-0d5cebc04415" d="m147.27,108.44c.45.42.89.84,1.34,1.26-.83.48-1.63,1.1-2.52,1.38-.3.09-.86-.68-1.3-1.06.83-.53,1.66-1.06,2.49-1.58Z"/>
      <path class="uuid-ecc8aae4-ad7a-4aae-bfcc-0d5cebc04415" d="m189.23,189.73c.76.54,1.52,1.08,2.28,1.61-.3-.24-.63-.45-.88-.74-.35-.41-.63-.87-.95-1.31-.01,0-.44.44-.44.44Z"/>
      <path class="uuid-ecc8aae4-ad7a-4aae-bfcc-0d5cebc04415" d="m72.75,264.25c-.55-.98-1.15-1.93-1.6-2.95-.07-.17.55-.64.85-.96.12,1.42.24,2.85.32,4.3-.04.03.43-.39.43-.39Z"/>
    </g>
  </g>
</svg>