<?xml version="1.0" encoding="UTF-8"?>
<svg id="uuid-c0e96b7e-4234-4066-925a-7ead745f5b15" data-name="Layer 2" xmlns="http://www.w3.org/2000/svg" viewBox="0 0 5924.55 379.39">
  <defs>
    <style>
      .uuid-aebe1c92-3360-4721-bb56-e47d9f1310e3 {
        fill: #fff;
      }
    </style>
  </defs>
  <g id="uuid-08403c6d-d0b1-4c86-8f75-2f8432593d25" data-name="hand">
    <path class="uuid-aebe1c92-3360-4721-bb56-e47d9f1310e3" d="m8.06,379.39h5904.75c-5.53-43.72-7.74-88.03-10.11-133.01-12.02-5.17-25.17-10.82-39.79-17.1,8.86,0,15.92.58,22.85-.13,12.89-1.32,18.29-7.87,17.94-20.65-.11-4.02-.56-8.03-.89-12.04-2.43-29.13-4.04-58.35,1.08-87.28,5.67-32,12.53-63.78,18.8-95.67.8-4.05,1.17-8.19,1.87-13.25-3.43,0-5.36-.06-7.28.01-8.7.31-17.41,1.01-26.11.93-35.21-.3-70.42-1.45-105.62-1.15-52,.44-1009.33,3.23-1060.72,11.79-15.16,2.52-30.06,6.6-45.03,10.18-6.1,1.46-9.22,5.2-10.04,11.99-1.15,9.55-3.81,18.91-5.83,28.35-3.05-10.71-1.45-21.69-6-32.13-9.98,0-19.75-.91-29.3.16-43.3,4.83-86.56,10.01-129.79,15.48-20.2,2.56-40.49,4.75-57.93,17.51-8.52,6.23-19.34,8.38-29.84,6.64-13.48-2.24-2321.09-13-2334.23-16.77-15.77-4.53-28.32-2.67-43.98-7.59-17.17-5.4-34.73-7.87-52.58-4.23-21.65,4.42-43.23,9.19-64.74,14.27-3.24.77-6.78,3.47-8.64,6.29-6.63,10.05-15.39,13.21-26.87,10.38-5.11-1.26-10.02-1.09-13.09,4.49-.66,1.2-2.61,2.71-3.68,2.51-5.14-.96-7.28,2.31-9.4,5.86-2.56,4.28-6.08,5.54-11.07,4.52-5.21-1.06-11.36-3.15-15.78-1.42-10.96,4.27-21.76,5.17-33.07,3.27-.58-.1-1.1-.57-1.65-.86,6.08-9.55,6.69-9.77,5.04-14.3-1.97-5.41-.8-9.49,2.27-14.01,4.18-6.18,3.03-8.88-4.33-10.29-9.21-1.76-18.5-3.26-27.82-4.24-41.67-4.36-83.42-7.99-125.04-12.85-55.59-6.49-879.91-14.19-935.5-20.69-15.56-1.82-31.45-2.19-47.11-1.51-22.87,1-43.69,9.92-63.72,20.27-26.2,13.53-52.41,27.11-77.96,41.8-9.01,5.18-16.02,4.73-23.9-.54-1.03-.69-2.09-1.35-3.19-1.93-21.08-11.17-42.18-22.29-63.25-33.48-7.88-4.19-16.28-6.21-25.15-6.02-12.74.28-25.47.99-38.21,1.08-5.37.04-8.71,2.26-11.43,6.61-5.69,9.09-11.58,18.06-17.5,27.01-1.77,2.67-3.89,5.1-7.34,9.57,1.52-15.28,6.92-27.76,3.21-41.74-4.62-.42-9.22-1.28-13.8-1.18-24.13.54-48.26,1.38-72.39,2.01-22.83.6-44.32,6.34-64.89,16.1-7.56,3.59-15.24,7.02-23.15,9.7-3.52,1.19-8.29,1.63-11.54.22-24.38-10.53-47.61-23.15-68.18-40.21-1.95-1.61-3.95-3.16-6.7-5.35-1.31,4.12-2.56,7.19-3.26,10.39-6.6,29.96-16.55,58.62-31.39,85.61-4.32,7.86-6.96,16.66-10.33,25.04-4.76,11.83-.96,21.61,7.49,30.13,3.26,3.29,6.82,6.27,10.24,9.4-.32.49-.24.37-.56.86-6.26-2.67-12.53-5.35-19.67-8.4-2.05,4.7-4.11,8.48-5.39,12.51C3.66,226.87-3.35,272.3,1.56,319.13c2.11,20.09,4.13,40.2,6.49,60.26Z"/>
    <path d="m8.06,379.39h17.53c-3.55-21.86-7.79-43.62-10.88-65.54-5.32-37.74-2.45-74.94,10.18-111.13,1.2-3.44,2.62-6.8,4.31-11.18,4.22.96,14.99.23,18.85.72,12.25,1.57,16.47,6.68,28.76,7.84,3.16.3,14.14,7.25,16.1,3.23,2.28-4.67-.92-6.68-3.2-9.47-3.39-4.15-9.43-6.22-19.77-11.09-10.34-4.86-19.88-11.32-27.07-20.14-3.37-4.13-6.67-8.31-9.54-11.89,11.37-27.77,33.79-84.59,45.12-112.27,1.87,1.65,4.17,3.37,6.11,5.44,16.17,17.26,37.42,25.69,58.94,33.32,8.7,3.09,17.89,2.16,26.36-2.38,5.91-3.17,12.08-5.9,17.77-9.41,22.29-13.76,47.11-18.82,72.65-21.37,13.31-1.33,48.06.49,62.23-.62.16,2.94.59,5.51.38,8.03-.97,11.35-1.86,22.71-3.34,34-.64,4.9-5.59,11.27-1.43,13.94,2.25,1.45,4.47,2.95,6.78,4.31,6.16,3.63,7.61-11.59,13.39-16.51,3.49-17,13.15-19.78,20.05-30.07,1.55-2.95.87-17,42.71-13.07,38.65,1.89,46.32,28.54,78.49,52.56-14.44,8.33-27.81,15.93-41.09,23.71-53.75,32.23-35.87,34.66-35.87,34.66,31.8-18.65,62.51-39.17,94.35-57.76,36.77-21.46,73.59-40.41,112.44-57.96,24.74-11.18,74.65-17.87,101.32-14.45,56.18,7.2,880.06,16.38,936.37,22.51,39.66,4.32,79.43,7.64,119.16,11.27,7.64.7,15.34.79,22.98,1.15,2.79,9.12-6.27,29.61-12.64,36.17-8.13,8.38-14.35,22.62-22.66,32.25l11.91,4.45c5.22-3.64,10.79-20.36,16.04-23.96,6.25-4.28,12.9-6.23,20.81-5.68,5.82.41,11.81-1.79,17.75-2.67,5.28-.78,10.72-2.41,15.85-1.77,8.06,1.01,15.62-1.23,22.01-6.97,3.84,1.73,10.72-12.4,15.04-10.46,3.22-5.4,19.7,3.26,23.21-2.61,16.97,5.23,16.69-1.42,27.73-14.82,1.88-2.29,5.7-3.69,8.82-4.13,17.91-2.55,35.92-4.45,53.83-7.04,21.84-3.15,41.6,4.11,61.64,11.03,17.07,5.89,2325.71,11.3,2343.18,15.83,19.8,5.14,39.26,2.66,57.92-5.76.31-.14.62-.26.9-.44,26.02-16.49,51.91-2.46,81.33-7.28,33.79-5.55,68.45-16.15,102.59-18.33.97-.06,18.3-2.18,20.34,5.38,2.04,7.56.85,39.94,4.94,59.55,9.06,2.81.15,3.78,8.05,1.24,2.64-.85,3.86-22.05,5.02-25.21,6.02-16.32,3.99-31.46,9.59-47.94,1.94-5.71,13.17-9.37,19.2-10.55,62.28-12.21,1048.97-18.94,1112.52-19.61,28.79-.3,57.61,2.28,86.41,3.61,1.58.07,3.14.67,5.87,1.28-23.97,52.44-24.79,140.44-16.52,197.9-25.86-4.89-50.69-.92-75.44,2.86-11.2,1.71-22.42,4.3-33.12,7.99-11.92,4.11-31.69-3.2-29.63,9.15,1.04,6.22-2.3,2.77-.43,8.82,1.21,3.91,20.12-4.19,24.47-4.38,6.03-.27,12.07-.06,18.11-.22,25.32-.7,50.24,2.03,74.52,9.35,7.64,2.31,14.98,5.63,22.81,8.63-.49,6.28-1.16,11.87-1.32,17.47-1.08,37.42,1.6,71.81,7.49,106.51h15.5c-5.53-43.72-7.74-88.03-10.11-133.01-12.02-5.17-25.17-10.82-39.79-17.1,8.86,0,15.92.58,22.85-.13,12.89-1.32,18.29-7.87,17.94-20.65-.11-4.02-.56-8.03-.89-12.04-2.43-29.13-4.04-58.35,1.08-87.28,5.67-32,12.53-63.78,18.8-95.67.8-4.05,1.17-8.19,1.87-13.25-3.43,0-5.36-.06-7.28.01-8.7.31-17.41,1.01-26.11.93-35.21-.3-70.42-1.45-105.62-1.15-52,.44-1009.33,3.23-1060.72,11.79-15.16,2.52-30.06,6.6-45.03,10.18-6.1,1.46-9.22,5.2-10.04,11.99-1.15,9.55-3.81,18.91-5.83,28.35-3.05-10.71-1.45-21.69-6-32.13-9.98,0-19.75-.91-29.3.16-43.3,4.83-86.56,10.01-129.79,15.48-20.2,2.56-40.49,4.75-57.93,17.51-8.52,6.23-19.34,8.38-29.84,6.64-13.48-2.24-2321.09-13-2334.23-16.77-15.77-4.53-28.32-2.67-43.98-7.59-17.17-5.4-34.73-7.87-52.58-4.23-21.65,4.42-43.23,9.19-64.74,14.27-3.24.77-6.78,3.47-8.64,6.29-6.63,10.05-15.39,13.21-26.87,10.38-5.11-1.26-10.02-1.09-13.09,4.49-.66,1.2-2.61,2.71-3.68,2.51-5.14-.96-7.28,2.31-9.4,5.86-2.56,4.28-6.08,5.54-11.07,4.52-5.21-1.06-11.36-3.15-15.78-1.42-10.96,4.27-21.76,5.17-33.07,3.27-.58-.1-1.1-.57-1.65-.86,6.08-9.55,6.69-9.77,5.04-14.3-1.97-5.41-.8-9.49,2.27-14.01,4.18-6.18,3.03-8.88-4.33-10.29-9.21-1.76-18.5-3.26-27.82-4.24-41.67-4.36-83.42-7.99-125.04-12.85-55.59-6.49-879.91-14.19-935.5-20.69-15.56-1.82-31.45-2.19-47.11-1.51-22.87,1-43.69,9.92-63.72,20.27-26.2,13.53-52.41,27.11-77.96,41.8-9.01,5.18-16.02,4.73-23.9-.54-1.03-.69-2.09-1.35-3.19-1.93-21.08-11.17-42.18-22.29-63.25-33.48-7.88-4.19-16.28-6.21-25.15-6.02-12.74.28-25.47.99-38.21,1.08-5.37.04-8.71,2.26-11.43,6.61-5.69,9.09-11.58,18.06-17.5,27.01-1.77,2.67-3.89,5.1-7.34,9.57,1.52-15.28,6.92-27.76,3.21-41.74-4.62-.42-9.22-1.28-13.8-1.18-24.13.54-48.26,1.38-72.39,2.01-22.83.6-44.32,6.34-64.89,16.1-7.56,3.59-15.24,7.02-23.15,9.7-3.52,1.19-8.29,1.63-11.54.22-24.38-10.53-47.61-23.15-68.18-40.21-1.95-1.61-3.95-3.16-6.7-5.35-1.31,4.12-2.56,7.19-3.26,10.39-6.6,29.96-16.55,58.62-31.39,85.61-4.32,7.86-6.96,16.66-10.33,25.04-4.76,11.83-.96,21.61,7.49,30.13,3.26,3.29,6.82,6.27,10.24,9.4-.32.49-.24.37-.56.86-6.26-2.67-12.53-5.35-19.67-8.4-2.05,4.7-4.11,8.48-5.39,12.51C3.66,226.87-3.35,272.3,1.56,319.13c2.11,20.09,4.13,40.2,6.49,60.26Z"/>
  </g>
</svg>